<svg xmlns="http://www.w3.org/2000/svg" width="600" height="400" viewBox="0 0 600 400"><rect width="100%" height="100%" fill="#ffffff"/><text x="300" y="30" font-family="SimSun, serif" font-size="18" text-anchor="middle">图7 模型性能对比图</text><line x1="80" y1="350" x2="550" y2="350" stroke="#000" stroke-width="2"/><line x1="80" y1="350" x2="80" y2="50" stroke="#000" stroke-width="2"/><text x="315" y="390" font-family="SimSun, serif" font-size="14" text-anchor="middle">指标</text><text x="30" y="200" font-family="SimSun, serif" font-size="14" text-anchor="middle" transform="rotate(-90, 30, 200)">得分</text><text x="150" y="370" font-family="SimSun, serif" font-size="12" text-anchor="middle">RMSE</text><text x="230" y="370" font-family="SimSun, serif" font-size="12" text-anchor="middle">MAE</text><text x="310" y="370" font-family="SimSun, serif" font-size="12" text-anchor="middle">R²</text><rect x="120" y="300" width="20" height="50" fill="#1f77b4"/><rect x="200" y="280" width="20" height="70" fill="#1f77b4"/><rect x="280" y="200" width="20" height="150" fill="#1f77b4"/><rect x="145" y="320" width="20" height="30" fill="#ff7f0e"/><rect x="225" y="300" width="20" height="50" fill="#ff7f0e"/><rect x="305" y="180" width="20" height="170" fill="#ff7f0e"/><rect x="400" y="50" width="10" height="10" fill="#1f77b4"/><text x="415" y="60" font-family="SimSun, serif" font-size="12">模型A</text><rect x="400" y="70" width="10" height="10" fill="#ff7f0e"/><text x="415" y="80" font-family="SimSun, serif" font-size="12">模型B</text></svg>