<svg xmlns="http://www.w3.org/2000/svg" width="600" height="450" viewBox="0 0 600 450"><rect width="600" height="450" fill="#FFFFFF"/><text x="300" y="30" text-anchor="middle" font-family="SimHei, Microsoft YaHei, sans-serif" font-size="18" fill="#333333">预测值与实际值对比</text><line x1="100" y1="350" x2="550" y2="350" stroke="#333333" stroke-width="2"/><line x1="100" y1="50" x2="100" y2="350" stroke="#333333" stroke-width="2"/><line x1="100" y1="350" x2="550" y2="50" stroke="#C44E52" stroke-width="2.5" stroke-dasharray="6,4"/><circle cx="130" cy="320" r="5" fill="#4C72B0" opacity="0.8"/><circle cx="200" cy="250" r="5" fill="#4C72B0" opacity="0.8"/><circle cx="270" cy="210" r="5" fill="#4C72B0" opacity="0.8"/><circle cx="340" cy="160" r="5" fill="#4C72B0" opacity="0.8"/><circle cx="410" cy="130" r="5" fill="#4C72B0" opacity="0.8"/><circle cx="480" cy="90" r="5" fill="#4C72B0" opacity="0.8"/><circle cx="160" cy="300" r="5" fill="#4C72B0" opacity="0.8"/><circle cx="230" cy="230" r="5" fill="#4C72B0" opacity="0.8"/><circle cx="300" cy="180" r="5" fill="#4C72B0" opacity="0.8"/><circle cx="370" cy="140" r="5" fill="#4C72B0" opacity="0.8"/><circle cx="440" cy="100" r="5" fill="#4C72B0" opacity="0.8"/><circle cx="510" cy="70" r="5" fill="#4C72B0" opacity="0.8"/><text x="325" y="410" text-anchor="middle" font-family="SimHei, Microsoft YaHei, sans-serif" font-size="14" fill="#333333">实际值</text><text x="25" y="200" text-anchor="middle" font-family="SimHei, Microsoft YaHei, sans-serif" font-size="14" fill="#333333" transform="rotate(-90, 25, 200)">预测值</text><rect x="430" y="60" width="120" height="30" fill="#FFFFFF" stroke="#AAAAAA"/><line x1="440" y1="75" x2="470" y2="75" stroke="#C44E52" stroke-width="2.5" stroke-dasharray="6,4"/><text x="480" y="79" font-family="SimHei, sans-serif" font-size="12" fill="#333333">y=x</text></svg>