<svg xmlns="http://www.w3.org/2000/svg" width="600" height="450" viewBox="0 0 600 450"><rect width="600" height="450" fill="#FFFFFF"/><text x="300" y="30" text-anchor="middle" font-family="SimHei, Microsoft YaHei, sans-serif" font-size="18" fill="#333333">模型系数估计</text><line x1="150" y1="400" x2="550" y2="400" stroke="#333333" stroke-width="2"/><text x="350" y="430" text-anchor="middle" font-family="SimHei, Microsoft YaHei, sans-serif" font-size="14" fill="#333333">系数值</text><text x="100" y="380" text-anchor="end" font-family="SimHei, sans-serif" font-size="12" fill="#333">特征1</text><text x="100" y="320" text-anchor="end" font-family="SimHei, sans-serif" font-size="12" fill="#333">特征2</text><text x="100" y="260" text-anchor="end" font-family="SimHei, sans-serif" font-size="12" fill="#333">特征3</text><text x="100" y="200" text-anchor="end" font-family="SimHei, sans-serif" font-size="12" fill="#333">特征4</text><text x="100" y="140" text-anchor="end" font-family="SimHei, sans-serif" font-size="12" fill="#333">特征5</text><rect x="150" y="365" width="200" height="20" fill="#DD8452"/><rect x="150" y="305" width="250" height="20" fill="#DD8452"/><rect x="150" y="245" width="150" height="20" fill="#DD8452"/><rect x="150" y="185" width="100" height="20" fill="#DD8452"/><rect x="150" y="125" width="180" height="20" fill="#DD8452"/><line x1="340" y1="355" x2="370" y2="355" stroke="#333333" stroke-width="1.5"/><line x1="340" y1="385" x2="370" y2="385" stroke="#333333" stroke-width="1.5"/><line x1="390" y1="295" x2="420" y2="295" stroke="#333333" stroke-width="1.5"/><line x1="390" y1="325" x2="420" y2="325" stroke="#333333" stroke-width="1.5"/><line x1="290" y1="235" x2="320" y2="235" stroke="#333333" stroke-width="1.5"/><line x1="290" y1="265" x2="320" y2="265" stroke="#333333" stroke-width="1.5"/><line x1="240" y1="175" x2="270" y2="175" stroke="#333333" stroke-width="1.5"/><line x1="240" y1="205" x2="270" y2="205" stroke="#333333" stroke-width="1.5"/><line x1="320" y1="115" x2="350" y2="115" stroke="#333333" stroke-width="1.5"/><line x1="320" y1="145" x2="350" y2="145" stroke="#333333" stroke-width="1.5"/><line x1="150" y1="400" x2="150" y2="60" stroke="#666666" stroke-width="1" stroke-dasharray="4,4"/></svg>