<?xml version="1.0" encoding="utf-8" standalone="no"?>
<!DOCTYPE svg PUBLIC "-//W3C//DTD SVG 1.1//EN"
  "http://www.w3.org/Graphics/SVG/1.1/DTD/svg11.dtd">
<svg xmlns:xlink="http://www.w3.org/1999/xlink" width="564.013352pt" height="279.66125pt" viewBox="0 0 564.013352 279.66125" xmlns="http://www.w3.org/2000/svg" version="1.1">
 <metadata>
  <rdf:RDF xmlns:dc="http://purl.org/dc/elements/1.1/" xmlns:cc="http://creativecommons.org/ns#" xmlns:rdf="http://www.w3.org/1999/02/22-rdf-syntax-ns#">
   <cc:Work>
    <dc:type rdf:resource="http://purl.org/dc/dcmitype/StillImage"/>
    <dc:date>2026-07-22T20:44:07.003870</dc:date>
    <dc:format>image/svg+xml</dc:format>
    <dc:creator>
     <cc:Agent>
      <dc:title>Matplotlib v3.9.2, https://matplotlib.org/</dc:title>
     </cc:Agent>
    </dc:creator>
   </cc:Work>
  </rdf:RDF>
 </metadata>
 <defs>
  <style type="text/css">*{stroke-linejoin: round; stroke-linecap: butt}</style>
 </defs>
 <g id="figure_1">
  <g id="patch_1">
   <path d="M 0 279.66125 
L 564.013352 279.66125 
L 564.013352 0 
L 0 0 
z
" style="fill: #ffffff"/>
  </g>
  <g id="axes_1">
   <g id="patch_2">
    <path d="M 42.815625 244.5525 
L 545.015625 244.5525 
L 545.015625 22.7925 
L 42.815625 22.7925 
z
" style="fill: #ffffff"/>
   </g>
   <g id="matplotlib.axis_1">
    <g id="xtick_1">
     <g id="line2d_1">
      <defs>
       <path id="m83a4d95cfd" d="M 0 0 
L 0 3.5 
" style="stroke: #000000; stroke-width: 0.8"/>
      </defs>
      <g>
       <use xlink:href="#m83a4d95cfd" x="65.642898" y="244.5525" style="stroke: #000000; stroke-width: 0.8"/>
      </g>
     </g>
     <g id="text_1">
      <!-- 全代表点 -->
      <g transform="translate(45.642898 259.54625) scale(0.1 -0.1)">
       <defs>
        <path id="MicrosoftYaHei-5168" d="M 369 -103 
L 2950 -103 
L 2950 984 
L 925 984 
L 925 1441 
L 2950 1441 
L 2950 2403 
L 1156 2403 
L 1156 2859 
L 5269 2859 
L 5269 2403 
L 3469 2403 
L 3469 1441 
L 5500 1441 
L 5500 984 
L 3469 984 
L 3469 -103 
L 6044 -103 
L 6044 -566 
L 369 -566 
L 369 -103 
z
M 3656 5234 
L 3531 5078 
Q 4581 3703 6319 3009 
Q 6125 2734 5988 2509 
Q 4338 3322 3219 4691 
Q 2263 3453 394 2428 
Q 269 2641 81 2897 
Q 2013 3866 3000 5234 
L 3656 5234 
z
" transform="scale(0.015625)"/>
        <path id="MicrosoftYaHei-4ee3" d="M 1850 3141 
L 3328 3303 
Q 3253 4097 3225 5284 
L 3769 5284 
Q 3756 4350 3847 3359 
L 6138 3609 
L 6194 3147 
L 3897 2894 
Q 4250 306 5256 -209 
Q 5531 -322 5613 -28 
Q 5731 416 5813 978 
Q 6075 866 6313 797 
Q 6219 191 6088 -278 
Q 5919 -822 5419 -809 
Q 4881 -791 4394 -166 
Q 3669 678 3384 2838 
L 1925 2678 
L 1850 3141 
z
M 38 2322 
Q 1013 3634 1581 5322 
L 2081 5147 
Q 1803 4419 1500 3794 
L 1500 -841 
L 988 -841 
L 988 2834 
Q 631 2238 250 1759 
Q 163 2016 38 2322 
z
M 4344 4791 
L 4669 5122 
Q 5219 4703 5794 4191 
L 5413 3803 
Q 4888 4341 4344 4791 
z
" transform="scale(0.015625)"/>
        <path id="MicrosoftYaHei-8868" d="M 5519 1891 
L 5863 1459 
L 4466 759 
Q 5200 159 6306 -34 
Q 6094 -309 5956 -534 
Q 3941 -53 3066 1944 
Q 2747 1538 2338 1172 
L 2338 -166 
Q 3163 103 3869 397 
Q 3863 122 3875 -147 
Q 3125 -403 2325 -709 
Q 2156 -778 1994 -872 
L 1700 -416 
Q 1875 -291 1875 -66 
L 1875 794 
Q 1228 309 406 -84 
Q 269 134 88 347 
Q 1703 1009 2625 2122 
L 156 2122 
L 156 2553 
L 2956 2553 
L 2956 3191 
L 600 3191 
L 600 3622 
L 2956 3622 
L 2956 4234 
L 350 4234 
L 350 4666 
L 2956 4666 
L 2956 5366 
L 3450 5366 
L 3450 4666 
L 6069 4666 
L 6069 4234 
L 3450 4234 
L 3450 3622 
L 5800 3622 
L 5800 3191 
L 3450 3191 
L 3450 2553 
L 6244 2553 
L 6244 2122 
L 3466 2122 
Q 3728 1513 4141 1066 
Q 4769 1378 5519 1891 
z
" transform="scale(0.015625)"/>
        <path id="MicrosoftYaHei-70b9" d="M 900 3378 
L 2863 3378 
L 2863 5341 
L 3388 5341 
L 3388 4591 
L 6181 4591 
L 6181 4141 
L 3388 4141 
L 3388 3378 
L 5600 3378 
L 5600 991 
L 5088 991 
L 5088 1253 
L 1413 1253 
L 1413 991 
L 900 991 
L 900 3378 
z
M 5088 2928 
L 1413 2928 
L 1413 1703 
L 5088 1703 
L 5088 2928 
z
M 5425 847 
Q 5925 91 6225 -516 
L 5750 -772 
Q 5438 -134 4994 622 
L 5425 847 
z
M 1369 553 
Q 894 -303 531 -791 
L 100 -484 
Q 506 53 931 803 
L 1369 553 
z
M 2413 828 
Q 2700 197 2913 -503 
L 2406 -678 
Q 2213 3 1963 666 
L 2413 828 
z
M 3906 872 
Q 4206 253 4450 -422 
L 3956 -616 
Q 3781 -53 3450 697 
L 3906 872 
z
" transform="scale(0.015625)"/>
       </defs>
       <use xlink:href="#MicrosoftYaHei-5168"/>
       <use xlink:href="#MicrosoftYaHei-4ee3" x="100"/>
       <use xlink:href="#MicrosoftYaHei-8868" x="200"/>
       <use xlink:href="#MicrosoftYaHei-70b9" x="300"/>
      </g>
     </g>
    </g>
    <g id="xtick_2">
     <g id="line2d_2">
      <g>
       <use xlink:href="#m83a4d95cfd" x="522.188352" y="244.5525" style="stroke: #000000; stroke-width: 0.8"/>
      </g>
     </g>
     <g id="text_2">
      <!-- 80% 覆盖率 -->
      <g transform="translate(495.396165 259.54625) scale(0.1 -0.1)">
       <defs>
        <path id="MicrosoftYaHei-38" d="M 306 1350 
Q 306 1769 556 2122 
Q 806 2475 1200 2625 
Q 884 2803 700 3081 
Q 516 3359 516 3684 
Q 516 4028 692 4312 
Q 869 4597 1183 4759 
Q 1497 4922 1875 4922 
Q 2256 4922 2572 4761 
Q 2888 4600 3063 4315 
Q 3238 4031 3238 3684 
Q 3238 3366 3058 3086 
Q 2878 2806 2559 2625 
Q 2953 2472 3200 2119 
Q 3447 1766 3447 1350 
Q 3447 938 3250 611 
Q 3053 284 2690 103 
Q 2328 -78 1875 -78 
Q 1425 -78 1065 103 
Q 706 284 506 612 
Q 306 941 306 1350 
z
M 906 1378 
Q 906 947 1172 687 
Q 1438 428 1878 428 
Q 2309 428 2582 692 
Q 2856 956 2856 1378 
Q 2856 1778 2579 2051 
Q 2303 2325 1878 2325 
Q 1456 2325 1181 2058 
Q 906 1791 906 1378 
z
M 1081 3634 
Q 1081 3309 1312 3076 
Q 1544 2844 1878 2844 
Q 2206 2844 2445 3078 
Q 2684 3313 2684 3634 
Q 2684 3963 2454 4191 
Q 2225 4419 1878 4419 
Q 1534 4419 1307 4195 
Q 1081 3972 1081 3634 
z
" transform="scale(0.015625)"/>
        <path id="MicrosoftYaHei-30" d="M 284 2325 
Q 284 3606 709 4264 
Q 1134 4922 1941 4922 
Q 3478 4922 3478 2441 
Q 3478 1216 3045 567 
Q 2613 -81 1831 -81 
Q 1094 -81 689 534 
Q 284 1150 284 2325 
z
M 909 2353 
Q 909 425 1888 425 
Q 2850 425 2850 2384 
Q 2850 4413 1906 4413 
Q 909 4413 909 2353 
z
" transform="scale(0.015625)"/>
        <path id="MicrosoftYaHei-25" d="M 272 3619 
Q 272 4213 589 4563 
Q 906 4913 1444 4913 
Q 1959 4913 2248 4591 
Q 2538 4269 2538 3694 
Q 2538 3122 2219 2765 
Q 1900 2409 1372 2409 
Q 872 2409 572 2740 
Q 272 3072 272 3619 
z
M 753 3650 
Q 753 3247 928 3028 
Q 1103 2809 1406 2809 
Q 1719 2809 1889 3036 
Q 2059 3263 2059 3675 
Q 2059 4078 1892 4298 
Q 1725 4519 1422 4519 
Q 1113 4519 933 4289 
Q 753 4059 753 3650 
z
M 4647 4841 
L 1538 -31 
L 1016 -31 
L 4125 4841 
L 4647 4841 
z
M 3172 1134 
Q 3172 1728 3489 2083 
Q 3806 2438 4341 2438 
Q 4853 2438 5143 2114 
Q 5434 1791 5434 1203 
Q 5434 634 5112 279 
Q 4791 -75 4272 -75 
Q 3769 -75 3470 261 
Q 3172 597 3172 1134 
z
M 3650 1163 
Q 3650 769 3825 548 
Q 4000 328 4303 328 
Q 4616 328 4786 556 
Q 4956 784 4956 1194 
Q 4956 1600 4786 1815 
Q 4616 2031 4319 2031 
Q 4000 2031 3825 1801 
Q 3650 1572 3650 1163 
z
" transform="scale(0.015625)"/>
        <path id="MicrosoftYaHei-20" transform="scale(0.015625)"/>
        <path id="MicrosoftYaHei-8986" d="M 1706 191 
Q 2394 572 2869 1028 
L 2363 1028 
L 2363 2247 
Q 2231 2097 2094 1953 
Q 1975 2122 1825 2259 
Q 2319 2703 2619 3272 
L 3050 3272 
Q 2988 3153 2925 3041 
L 5950 3041 
L 5950 2753 
L 2744 2753 
Q 2644 2603 2525 2453 
L 5638 2453 
L 5638 922 
L 5238 922 
L 5238 1028 
L 3344 1028 
Q 3194 866 3038 722 
L 5588 722 
L 5588 447 
Q 5094 72 4538 -184 
Q 5288 -341 6306 -372 
Q 6269 -447 6106 -766 
Q 4856 -684 3981 -403 
Q 3094 -709 1981 -866 
Q 1906 -684 1750 -484 
Q 2706 -384 3450 -184 
Q 3000 47 2650 378 
Q 2325 122 1981 -78 
Q 1963 -59 1706 191 
z
M 631 4353 
L 2225 4353 
L 2225 4722 
L 300 4722 
L 300 5059 
L 6113 5059 
L 6113 4722 
L 4181 4722 
L 4181 4353 
L 5775 4353 
L 5775 3234 
L 5363 3234 
L 5363 3347 
L 1044 3347 
L 1044 3234 
L 631 3234 
L 631 4353 
z
M 1563 2084 
L 1925 1884 
Q 1656 1497 1375 1166 
L 1375 -834 
L 975 -834 
L 975 734 
Q 713 478 444 266 
Q 281 453 150 566 
Q 944 1166 1563 2084 
z
M 2763 1309 
L 5238 1309 
L 5238 1609 
L 2763 1609 
L 2763 1309 
z
M 5238 2172 
L 2763 2172 
L 2763 1872 
L 5238 1872 
L 5238 2172 
z
M 1388 3191 
L 1744 2991 
Q 1156 2209 475 1641 
Q 344 1778 156 1941 
Q 844 2428 1388 3191 
z
M 5363 4059 
L 4181 4059 
L 4181 3641 
L 5363 3641 
L 5363 4059 
z
M 2613 3641 
L 3794 3641 
L 3794 4059 
L 2613 4059 
L 2613 3641 
z
M 1044 3641 
L 2225 3641 
L 2225 4059 
L 1044 4059 
L 1044 3641 
z
M 4981 447 
L 3088 447 
Q 3481 147 3969 -22 
Q 4506 159 4981 447 
z
M 2613 4353 
L 3794 4353 
L 3794 4722 
L 2613 4722 
L 2613 4353 
z
" transform="scale(0.015625)"/>
        <path id="MicrosoftYaHei-76d6" d="M 138 -172 
L 800 -172 
L 800 1578 
L 5569 1578 
L 5569 -172 
L 6269 -172 
L 6269 -609 
L 138 -609 
L 138 -172 
z
M 250 2534 
L 2956 2534 
L 2956 3103 
L 600 3103 
L 600 3509 
L 2956 3509 
L 2956 4072 
L 325 4072 
L 325 4491 
L 2081 4491 
Q 1866 4794 1631 5091 
L 2013 5359 
Q 2319 5016 2556 4722 
L 2228 4491 
L 3725 4491 
Q 4053 4931 4306 5353 
L 4794 5053 
Q 4556 4775 4306 4491 
L 6075 4491 
L 6075 4072 
L 3425 4072 
L 3425 3509 
L 5800 3509 
L 5800 3103 
L 3425 3103 
L 3425 2534 
L 6150 2534 
L 6150 2116 
L 250 2116 
L 250 2534 
z
M 5100 1172 
L 4119 1172 
L 4119 -172 
L 5100 -172 
L 5100 1172 
z
M 1269 -172 
L 2238 -172 
L 2238 1172 
L 1269 1172 
L 1269 -172 
z
M 2694 -172 
L 3663 -172 
L 3663 1172 
L 2694 1172 
L 2694 -172 
z
" transform="scale(0.015625)"/>
        <path id="MicrosoftYaHei-7387" d="M 2525 2009 
Q 2622 2016 3928 2081 
Q 3772 2300 3625 2491 
L 3963 2703 
Q 4413 2203 4794 1653 
L 4394 1403 
Q 4284 1569 4178 1725 
Q 2991 1659 2213 1597 
Q 2075 1584 1881 1541 
L 1725 1966 
Q 1913 2028 2006 2084 
Q 2534 2441 3050 2913 
Q 2597 2894 2275 2866 
Q 2144 2847 1988 2809 
L 1800 3191 
Q 1956 3247 2088 3366 
Q 2509 3722 2875 4228 
L 231 4228 
L 231 4666 
L 3031 4666 
Q 2878 4944 2744 5153 
L 3194 5372 
Q 3438 5000 3616 4666 
L 6175 4666 
L 6175 4228 
L 3053 4228 
L 3350 4072 
Q 2844 3553 2494 3247 
Q 2850 3256 3425 3269 
Q 3675 3519 3925 3797 
L 4356 3547 
Q 3363 2603 2525 2009 
z
M 144 991 
L 2994 991 
L 2994 1541 
L 3488 1541 
L 3488 991 
L 6275 991 
L 6275 553 
L 3488 553 
L 3488 -853 
L 2994 -853 
L 2994 553 
L 144 553 
L 144 991 
z
M 1719 2672 
L 1944 2303 
Q 1200 1866 425 1409 
L 163 1828 
Q 813 2134 1719 2672 
z
M 4856 2678 
Q 5750 2172 6250 1816 
L 5975 1409 
Q 5331 1909 4600 2341 
L 4856 2678 
z
M 5994 3591 
Q 5519 3178 4963 2809 
L 4644 3141 
Q 5244 3534 5638 3928 
L 5994 3591 
z
M 363 3634 
L 681 3941 
Q 1200 3528 1588 3159 
L 1238 2816 
Q 875 3197 363 3634 
z
" transform="scale(0.015625)"/>
       </defs>
       <use xlink:href="#MicrosoftYaHei-38"/>
       <use xlink:href="#MicrosoftYaHei-30" x="58.642578"/>
       <use xlink:href="#MicrosoftYaHei-25" x="117.285156"/>
       <use xlink:href="#MicrosoftYaHei-20" x="206.25"/>
       <use xlink:href="#MicrosoftYaHei-8986" x="235.839844"/>
       <use xlink:href="#MicrosoftYaHei-76d6" x="335.839844"/>
       <use xlink:href="#MicrosoftYaHei-7387" x="435.839844"/>
      </g>
     </g>
    </g>
   </g>
   <g id="matplotlib.axis_2">
    <g id="ytick_1">
     <g id="line2d_3">
      <defs>
       <path id="m0095a8a52d" d="M 0 0 
L -3.5 0 
" style="stroke: #000000; stroke-width: 0.8"/>
      </defs>
      <g>
       <use xlink:href="#m0095a8a52d" x="42.815625" y="225.901904" style="stroke: #000000; stroke-width: 0.8"/>
      </g>
     </g>
     <g id="text_3">
      <!-- 1.4 -->
      <g transform="translate(21.679688 229.898779) scale(0.1 -0.1)">
       <defs>
        <path id="MicrosoftYaHei-31" d="M 1781 0 
L 1781 4141 
Q 1638 3997 1295 3819 
Q 953 3641 663 3569 
L 663 4169 
Q 1047 4275 1484 4508 
Q 1922 4741 2156 4947 
L 2388 4947 
L 2388 0 
L 1781 0 
z
" transform="scale(0.015625)"/>
        <path id="MicrosoftYaHei-2e" d="M 372 322 
Q 372 491 487 606 
Q 603 722 775 722 
Q 950 722 1065 605 
Q 1181 488 1181 322 
Q 1181 159 1065 42 
Q 950 -75 772 -75 
Q 600 -75 486 42 
Q 372 159 372 322 
z
" transform="scale(0.015625)"/>
        <path id="MicrosoftYaHei-34" d="M 2906 4841 
L 2906 1644 
L 3631 1644 
L 3631 1138 
L 2906 1138 
L 2906 0 
L 2313 0 
L 2313 1138 
L 53 1138 
L 53 1616 
Q 656 2294 1265 3178 
Q 1875 4063 2272 4841 
L 2906 4841 
z
M 741 1644 
L 2313 1644 
L 2313 3950 
Q 1988 3366 1616 2817 
Q 1244 2269 741 1644 
z
" transform="scale(0.015625)"/>
       </defs>
       <use xlink:href="#MicrosoftYaHei-31"/>
       <use xlink:href="#MicrosoftYaHei-2e" x="58.642578"/>
       <use xlink:href="#MicrosoftYaHei-34" x="82.714844"/>
      </g>
     </g>
    </g>
    <g id="ytick_2">
     <g id="line2d_4">
      <g>
       <use xlink:href="#m0095a8a52d" x="42.815625" y="180.553036" style="stroke: #000000; stroke-width: 0.8"/>
      </g>
     </g>
     <g id="text_4">
      <!-- 1.6 -->
      <g transform="translate(21.679688 184.549911) scale(0.1 -0.1)">
       <defs>
        <path id="MicrosoftYaHei-36" d="M 3181 4219 
Q 2803 4413 2391 4413 
Q 1763 4413 1381 3866 
Q 1000 3319 994 2372 
L 1009 2372 
Q 1353 3038 2106 3038 
Q 2734 3038 3109 2628 
Q 3484 2219 3484 1541 
Q 3484 831 3051 375 
Q 2619 -81 1947 -81 
Q 1209 -81 789 495 
Q 369 1072 369 2131 
Q 369 3413 920 4167 
Q 1472 4922 2372 4922 
Q 2888 4922 3181 4781 
L 3181 4219 
z
M 1031 1584 
Q 1031 1106 1286 765 
Q 1541 425 1963 425 
Q 2363 425 2613 719 
Q 2863 1013 2863 1475 
Q 2863 1975 2627 2253 
Q 2391 2531 1956 2531 
Q 1544 2531 1287 2250 
Q 1031 1969 1031 1584 
z
" transform="scale(0.015625)"/>
       </defs>
       <use xlink:href="#MicrosoftYaHei-31"/>
       <use xlink:href="#MicrosoftYaHei-2e" x="58.642578"/>
       <use xlink:href="#MicrosoftYaHei-36" x="82.714844"/>
      </g>
     </g>
    </g>
    <g id="ytick_3">
     <g id="line2d_5">
      <g>
       <use xlink:href="#m0095a8a52d" x="42.815625" y="135.204168" style="stroke: #000000; stroke-width: 0.8"/>
      </g>
     </g>
     <g id="text_5">
      <!-- 1.8 -->
      <g transform="translate(21.679688 139.201043) scale(0.1 -0.1)">
       <use xlink:href="#MicrosoftYaHei-31"/>
       <use xlink:href="#MicrosoftYaHei-2e" x="58.642578"/>
       <use xlink:href="#MicrosoftYaHei-38" x="82.714844"/>
      </g>
     </g>
    </g>
    <g id="ytick_4">
     <g id="line2d_6">
      <g>
       <use xlink:href="#m0095a8a52d" x="42.815625" y="89.855299" style="stroke: #000000; stroke-width: 0.8"/>
      </g>
     </g>
     <g id="text_6">
      <!-- 2.0 -->
      <g transform="translate(21.679688 93.852174) scale(0.1 -0.1)">
       <defs>
        <path id="MicrosoftYaHei-32" d="M 2666 3572 
Q 2666 3963 2419 4186 
Q 2172 4409 1747 4409 
Q 1447 4409 1140 4256 
Q 834 4103 569 3819 
L 569 4413 
Q 806 4659 1107 4790 
Q 1409 4922 1816 4922 
Q 2472 4922 2872 4570 
Q 3272 4219 3272 3619 
Q 3272 3084 3026 2693 
Q 2781 2303 2188 1894 
Q 1581 1475 1376 1294 
Q 1172 1113 1090 947 
Q 1009 781 1009 544 
L 3416 544 
L 3416 0 
L 372 0 
L 372 241 
Q 372 659 486 951 
Q 600 1244 862 1520 
Q 1125 1797 1681 2184 
Q 2250 2584 2458 2886 
Q 2666 3188 2666 3572 
z
" transform="scale(0.015625)"/>
       </defs>
       <use xlink:href="#MicrosoftYaHei-32"/>
       <use xlink:href="#MicrosoftYaHei-2e" x="58.642578"/>
       <use xlink:href="#MicrosoftYaHei-30" x="82.714844"/>
      </g>
     </g>
    </g>
    <g id="ytick_5">
     <g id="line2d_7">
      <g>
       <use xlink:href="#m0095a8a52d" x="42.815625" y="44.506431" style="stroke: #000000; stroke-width: 0.8"/>
      </g>
     </g>
     <g id="text_7">
      <!-- 2.2 -->
      <g transform="translate(21.679688 48.503306) scale(0.1 -0.1)">
       <use xlink:href="#MicrosoftYaHei-32"/>
       <use xlink:href="#MicrosoftYaHei-2e" x="58.642578"/>
       <use xlink:href="#MicrosoftYaHei-32" x="82.714844"/>
      </g>
     </g>
    </g>
    <g id="text_8">
     <!-- 有效遮蔽时长 / s -->
     <g transform="translate(15.19375 171.082656) rotate(-90) scale(0.1 -0.1)">
      <defs>
       <path id="MicrosoftYaHei-6709" d="M 1856 -816 
L 1363 -816 
L 1363 2419 
Q 909 1891 363 1403 
Q 231 1622 63 1859 
Q 1269 2869 1947 4097 
L 238 4097 
L 238 4559 
L 2181 4559 
Q 2359 4950 2488 5359 
L 3006 5241 
Q 2881 4894 2731 4559 
L 6263 4559 
L 6263 4097 
L 2506 4097 
Q 2313 3728 2081 3378 
L 5506 3378 
L 5506 41 
Q 5506 -734 4750 -734 
Q 4419 -741 3744 -741 
Q 3713 -528 3650 -228 
Q 4225 -272 4575 -272 
Q 5006 -272 5006 153 
L 5006 597 
L 1856 597 
L 1856 -816 
z
M 1856 1022 
L 5006 1022 
L 5006 1772 
L 1856 1772 
L 1856 1022 
z
M 5006 2941 
L 1856 2941 
L 1856 2197 
L 5006 2197 
L 5006 2941 
z
" transform="scale(0.015625)"/>
       <path id="MicrosoftYaHei-6548" d="M 4088 5334 
L 4581 5253 
Q 4453 4653 4259 4122 
L 6269 4122 
L 6269 3697 
L 5838 3697 
Q 5672 1869 5050 841 
Q 5572 128 6388 -347 
Q 6188 -622 6050 -841 
Q 5250 -313 4728 391 
Q 4153 -328 3300 -891 
Q 3163 -709 2944 -497 
Q 3872 125 4428 853 
Q 3897 1797 3753 3025 
Q 3603 2766 3431 2528 
Q 3300 2716 3119 2928 
Q 3844 3941 4088 5334 
z
M 694 1909 
L 1031 2203 
Q 1456 1800 1863 1394 
Q 2138 1847 2350 2378 
L 2800 2141 
Q 2538 1550 2209 1047 
Q 2659 591 3088 134 
L 2669 -222 
Q 2275 225 1913 625 
Q 1250 -238 356 -809 
Q 238 -641 31 -397 
Q 947 128 1584 981 
Q 1113 1491 694 1909 
z
M 5344 3697 
L 4125 3697 
Q 4222 2322 4741 1338 
Q 5263 2306 5344 3697 
z
M 175 4297 
L 3325 4297 
L 3325 3872 
L 175 3872 
L 175 4297 
z
M 1063 3628 
L 1475 3372 
Q 963 2641 413 1953 
Q 256 2084 44 2241 
Q 506 2797 1063 3628 
z
M 2344 3609 
Q 2744 3197 3263 2591 
L 2894 2278 
Q 2506 2759 2006 3341 
L 2344 3609 
z
M 1306 5141 
L 1731 5359 
Q 1988 4953 2206 4547 
L 1769 4322 
Q 1544 4772 1306 5141 
z
" transform="scale(0.015625)"/>
       <path id="MicrosoftYaHei-906e" d="M 3856 5166 
L 4288 5353 
Q 4488 5019 4659 4653 
L 6256 4653 
L 6256 4216 
L 2506 4216 
L 2506 3366 
L 3300 3366 
L 3300 4003 
L 3738 4003 
L 3738 3366 
L 4981 3366 
L 4981 4003 
L 5419 4003 
L 5419 3366 
L 6225 3366 
L 6225 2953 
L 5419 2953 
L 5419 1641 
L 4981 1641 
L 4981 1878 
L 3738 1878 
L 3738 1641 
L 3300 1641 
L 3300 2953 
L 2506 2953 
L 2506 2703 
Q 2506 1241 1838 259 
Q 1669 478 1494 672 
Q 2056 1422 2056 2691 
L 2056 4653 
L 4138 4653 
Q 4003 4922 3856 5166 
z
M 2681 -203 
L 4106 -234 
L 6319 -178 
Q 6250 -384 6144 -672 
L 3875 -678 
L 2631 -647 
Q 1538 -641 1081 97 
Q 763 -228 331 -753 
L 75 -234 
Q 522 209 875 541 
L 875 2647 
L 131 2647 
L 131 3097 
L 1350 3097 
L 1350 438 
Q 1750 -188 2681 -203 
z
M 3738 2278 
L 4981 2278 
L 4981 2953 
L 3738 2953 
L 3738 2278 
z
M 925 5209 
Q 1219 4709 1613 3909 
L 1131 3672 
Q 675 4666 488 5003 
L 925 5209 
z
M 5244 1316 
L 5644 1459 
Q 5944 834 6163 266 
L 5738 103 
Q 5531 666 5244 1316 
z
M 2831 1434 
L 3238 1303 
Q 3038 659 2775 47 
Q 2631 128 2363 241 
Q 2650 816 2831 1434 
z
M 4363 1284 
L 4775 1372 
Q 4950 872 5113 291 
L 4694 159 
Q 4569 691 4363 1284 
z
M 3519 1253 
L 3925 1322 
Q 4081 616 4131 216 
L 3688 141 
Q 3650 622 3519 1253 
z
" transform="scale(0.015625)"/>
       <path id="MicrosoftYaHei-853d" d="M 4750 3803 
Q 4650 3475 4547 3172 
L 6225 3172 
L 6225 2766 
L 5719 2766 
Q 5653 1266 5197 463 
Q 5631 -3 6306 -341 
Q 6156 -559 6019 -766 
Q 5391 -369 4947 94 
Q 4553 -394 3875 -841 
Q 3756 -659 3588 -472 
Q 4266 -63 4653 444 
Q 4238 1031 4059 1950 
Q 3947 1703 3825 1478 
Q 3725 1697 3563 1897 
Q 4056 2859 4313 3891 
L 4750 3803 
z
M 1738 3897 
L 2156 3897 
L 2156 2603 
L 3513 2603 
L 3513 -134 
Q 3513 -759 2938 -759 
Q 2681 -759 2413 -753 
Q 2381 -566 2325 -322 
Q 2619 -347 2838 -347 
Q 3100 -347 3100 -53 
L 3100 2241 
L 2156 2241 
L 2156 -759 
L 1738 -759 
L 1738 2241 
L 800 2241 
L 800 -791 
L 388 -791 
L 388 2603 
L 1738 2603 
L 1738 3897 
z
M 150 4784 
L 2050 4784 
L 2050 5328 
L 2506 5328 
L 2506 4784 
L 3863 4784 
L 3863 5328 
L 4319 5328 
L 4319 4784 
L 6269 4784 
L 6269 4372 
L 4319 4372 
L 4319 3941 
L 3863 3941 
L 3863 4372 
L 2506 4372 
L 2506 3997 
L 2050 3997 
L 2050 4372 
L 150 4372 
L 150 4784 
z
M 5294 2766 
L 4400 2766 
Q 4366 2675 4331 2588 
Q 4494 1478 4903 838 
Q 5250 1516 5294 2766 
z
M 1181 1816 
L 1544 1759 
Q 1456 941 1338 316 
L 981 397 
Q 1131 1066 1181 1816 
z
M 2650 1841 
Q 2813 1178 2938 447 
L 2569 359 
Q 2469 1084 2325 1772 
L 2650 1841 
z
M 3456 3541 
Q 3131 3166 2706 2778 
L 2419 3041 
Q 2781 3372 3138 3791 
L 3456 3541 
z
M 475 3534 
L 744 3784 
Q 1206 3384 1463 3116 
L 1163 2803 
Q 838 3191 475 3534 
z
" transform="scale(0.015625)"/>
       <path id="MicrosoftYaHei-65f6" d="M 344 4728 
L 2500 4728 
L 2500 -366 
L 2006 -366 
L 2006 153 
L 838 153 
L 838 -441 
L 344 -441 
L 344 4728 
z
M 2706 3941 
L 4925 3941 
L 4925 5322 
L 5425 5322 
L 5425 3941 
L 6313 3941 
L 6313 3478 
L 5425 3478 
L 5425 116 
Q 5425 -722 4625 -722 
Q 4263 -722 3563 -703 
Q 3531 -478 3463 -178 
Q 4119 -228 4488 -228 
Q 4925 -228 4925 216 
L 4925 3478 
L 2706 3478 
L 2706 3941 
z
M 838 616 
L 2006 616 
L 2006 2234 
L 838 2234 
L 838 616 
z
M 2006 4266 
L 838 4266 
L 838 2684 
L 2006 2684 
L 2006 4266 
z
M 3406 2878 
Q 3906 1966 4163 1422 
Q 4000 1347 3663 1172 
Q 3419 1766 2963 2653 
L 3406 2878 
z
" transform="scale(0.015625)"/>
       <path id="MicrosoftYaHei-957f" d="M 169 2766 
L 1269 2766 
L 1269 5316 
L 1781 5316 
L 1781 2766 
L 6194 2766 
L 6194 2278 
L 3456 2278 
Q 4238 566 6325 -78 
Q 6113 -359 5944 -591 
Q 3697 266 2925 2278 
L 1781 2278 
L 1781 16 
Q 2494 303 3294 678 
Q 3294 384 3319 116 
Q 2575 -191 1894 -528 
Q 1644 -666 1431 -834 
L 1056 -353 
Q 1269 -184 1269 103 
L 1269 2278 
L 169 2278 
L 169 2766 
z
M 2156 3528 
Q 3706 4047 5138 5109 
L 5463 4703 
Q 4000 3634 2400 3066 
Q 2300 3278 2156 3528 
z
" transform="scale(0.015625)"/>
       <path id="MicrosoftYaHei-2f" d="M 2791 4841 
L 469 -803 
L -103 -803 
L 2219 4841 
L 2791 4841 
z
" transform="scale(0.015625)"/>
       <path id="MicrosoftYaHei-73" d="M 353 747 
Q 816 413 1350 413 
Q 2066 413 2066 881 
Q 2066 1081 1909 1211 
Q 1753 1341 1275 1519 
Q 700 1750 528 1976 
Q 356 2203 356 2525 
Q 356 2984 745 3261 
Q 1134 3538 1703 3538 
Q 2144 3538 2522 3384 
L 2522 2794 
Q 2134 3044 1644 3044 
Q 1350 3044 1165 2916 
Q 981 2788 981 2578 
Q 981 2372 1114 2256 
Q 1247 2141 1703 1959 
Q 2281 1744 2484 1512 
Q 2688 1281 2688 941 
Q 2688 466 2298 192 
Q 1909 -81 1291 -81 
Q 753 -81 353 122 
L 353 747 
z
" transform="scale(0.015625)"/>
      </defs>
      <use xlink:href="#MicrosoftYaHei-6709"/>
      <use xlink:href="#MicrosoftYaHei-6548" x="100"/>
      <use xlink:href="#MicrosoftYaHei-906e" x="200"/>
      <use xlink:href="#MicrosoftYaHei-853d" x="300"/>
      <use xlink:href="#MicrosoftYaHei-65f6" x="400"/>
      <use xlink:href="#MicrosoftYaHei-957f" x="500"/>
      <use xlink:href="#MicrosoftYaHei-20" x="600"/>
      <use xlink:href="#MicrosoftYaHei-2f" x="629.589844"/>
      <use xlink:href="#MicrosoftYaHei-20" x="672.314453"/>
      <use xlink:href="#MicrosoftYaHei-73" x="701.904297"/>
     </g>
    </g>
   </g>
   <g id="patch_3">
    <path d="M 42.815625 244.5525 
L 42.815625 22.7925 
" style="fill: none; stroke: #000000; stroke-width: 0.8; stroke-linejoin: miter; stroke-linecap: square"/>
   </g>
   <g id="patch_4">
    <path d="M 545.015625 244.5525 
L 545.015625 22.7925 
" style="fill: none; stroke: #000000; stroke-width: 0.8; stroke-linejoin: miter; stroke-linecap: square"/>
   </g>
   <g id="patch_5">
    <path d="M 42.815625 244.5525 
L 545.015625 244.5525 
" style="fill: none; stroke: #000000; stroke-width: 0.8; stroke-linejoin: miter; stroke-linecap: square"/>
   </g>
   <g id="patch_6">
    <path d="M 42.815625 22.7925 
L 545.015625 22.7925 
" style="fill: none; stroke: #000000; stroke-width: 0.8; stroke-linejoin: miter; stroke-linecap: square"/>
   </g>
   <g id="line2d_8">
    <path d="M 65.642898 234.4725 
L 522.188352 230.441025 
" clip-path="url(#p9d5f0f3600)" style="fill: none; stroke: #475569; stroke-width: 2; stroke-linecap: square"/>
    <defs>
     <path id="m1026691931" d="M 0 3 
C 0.795609 3 1.55874 2.683901 2.12132 2.12132 
C 2.683901 1.55874 3 0.795609 3 0 
C 3 -0.795609 2.683901 -1.55874 2.12132 -2.12132 
C 1.55874 -2.683901 0.795609 -3 0 -3 
C -0.795609 -3 -1.55874 -2.683901 -2.12132 -2.12132 
C -2.683901 -1.55874 -3 -0.795609 -3 0 
C -3 0.795609 -2.683901 1.55874 -2.12132 2.12132 
C -1.55874 2.683901 -0.795609 3 0 3 
z
" style="stroke: #475569"/>
    </defs>
    <g clip-path="url(#p9d5f0f3600)">
     <use xlink:href="#m1026691931" x="65.642898" y="234.4725" style="fill: #475569; stroke: #475569"/>
     <use xlink:href="#m1026691931" x="522.188352" y="230.441025" style="fill: #475569; stroke: #475569"/>
    </g>
   </g>
   <g id="text_9">
    <!-- +0.018 -->
    <g style="fill: #475569" transform="translate(530.188352 248.64415) scale(0.08 -0.08)">
     <defs>
      <path id="MicrosoftYaHei-2b" d="M 3972 1772 
L 2613 1772 
L 2613 419 
L 2141 419 
L 2141 1772 
L 788 1772 
L 788 2250 
L 2141 2250 
L 2141 3603 
L 2613 3603 
L 2613 2250 
L 3972 2250 
L 3972 1772 
z
" transform="scale(0.015625)"/>
     </defs>
     <use xlink:href="#MicrosoftYaHei-2b"/>
     <use xlink:href="#MicrosoftYaHei-30" x="74.169922"/>
     <use xlink:href="#MicrosoftYaHei-2e" x="132.8125"/>
     <use xlink:href="#MicrosoftYaHei-30" x="156.884766"/>
     <use xlink:href="#MicrosoftYaHei-31" x="215.527344"/>
     <use xlink:href="#MicrosoftYaHei-38" x="274.169922"/>
    </g>
   </g>
   <g id="text_10">
    <!-- +0.013 -->
    <g style="fill: #0f766e" transform="translate(530.188352 43.075625) scale(0.08 -0.08)">
     <defs>
      <path id="MicrosoftYaHei-33" d="M 447 809 
Q 944 425 1569 425 
Q 2069 425 2361 670 
Q 2653 916 2653 1328 
Q 2653 2247 1338 2247 
L 934 2247 
L 934 2753 
L 1319 2753 
Q 2484 2753 2484 3616 
Q 2484 4413 1594 4413 
Q 1084 4413 634 4069 
L 634 4647 
Q 1109 4922 1744 4922 
Q 2363 4922 2738 4598 
Q 3113 4275 3113 3759 
Q 3113 2809 2144 2538 
L 2144 2525 
Q 2669 2469 2973 2155 
Q 3278 1841 3278 1372 
Q 3278 719 2808 319 
Q 2338 -81 1556 -81 
Q 869 -81 447 175 
L 447 809 
z
" transform="scale(0.015625)"/>
     </defs>
     <use xlink:href="#MicrosoftYaHei-2b"/>
     <use xlink:href="#MicrosoftYaHei-30" x="74.169922"/>
     <use xlink:href="#MicrosoftYaHei-2e" x="132.8125"/>
     <use xlink:href="#MicrosoftYaHei-30" x="156.884766"/>
     <use xlink:href="#MicrosoftYaHei-31" x="215.527344"/>
     <use xlink:href="#MicrosoftYaHei-33" x="274.169922"/>
    </g>
   </g>
   <g id="text_11">
    <!-- +0.013 -->
    <g style="fill: #2563eb" transform="translate(530.188352 35.075625) scale(0.08 -0.08)">
     <use xlink:href="#MicrosoftYaHei-2b"/>
     <use xlink:href="#MicrosoftYaHei-30" x="74.169922"/>
     <use xlink:href="#MicrosoftYaHei-2e" x="132.8125"/>
     <use xlink:href="#MicrosoftYaHei-30" x="156.884766"/>
     <use xlink:href="#MicrosoftYaHei-31" x="215.527344"/>
     <use xlink:href="#MicrosoftYaHei-33" x="274.169922"/>
    </g>
   </g>
   <g id="line2d_9">
    <path d="M 65.642898 93.926876 
L 522.188352 41.231245 
" clip-path="url(#p9d5f0f3600)" style="fill: none; stroke: #d97706; stroke-width: 2; stroke-linecap: square"/>
    <defs>
     <path id="mc2279c2da6" d="M 0 3 
C 0.795609 3 1.55874 2.683901 2.12132 2.12132 
C 2.683901 1.55874 3 0.795609 3 0 
C 3 -0.795609 2.683901 -1.55874 2.12132 -2.12132 
C 1.55874 -2.683901 0.795609 -3 0 -3 
C -0.795609 -3 -1.55874 -2.683901 -2.12132 -2.12132 
C -2.683901 -1.55874 -3 -0.795609 -3 0 
C -3 0.795609 -2.683901 1.55874 -2.12132 2.12132 
C -1.55874 2.683901 -0.795609 3 0 3 
z
" style="stroke: #d97706"/>
    </defs>
    <g clip-path="url(#p9d5f0f3600)">
     <use xlink:href="#mc2279c2da6" x="65.642898" y="93.926876" style="fill: #d97706; stroke: #d97706"/>
     <use xlink:href="#mc2279c2da6" x="522.188352" y="41.231245" style="fill: #d97706; stroke: #d97706"/>
    </g>
   </g>
   <g id="text_12">
    <!-- +0.232 -->
    <g style="fill: #d97706" transform="translate(530.188352 35.43437) scale(0.08 -0.08)">
     <use xlink:href="#MicrosoftYaHei-2b"/>
     <use xlink:href="#MicrosoftYaHei-30" x="74.169922"/>
     <use xlink:href="#MicrosoftYaHei-2e" x="132.8125"/>
     <use xlink:href="#MicrosoftYaHei-32" x="156.884766"/>
     <use xlink:href="#MicrosoftYaHei-33" x="215.527344"/>
     <use xlink:href="#MicrosoftYaHei-32" x="274.169922"/>
    </g>
   </g>
   <g id="line2d_10">
    <path d="M 65.642898 117.790005 
L 522.188352 105.328382 
" clip-path="url(#p9d5f0f3600)" style="fill: none; stroke: #7c3aed; stroke-width: 2; stroke-linecap: square"/>
    <defs>
     <path id="m2b0df8a6ff" d="M 0 3 
C 0.795609 3 1.55874 2.683901 2.12132 2.12132 
C 2.683901 1.55874 3 0.795609 3 0 
C 3 -0.795609 2.683901 -1.55874 2.12132 -2.12132 
C 1.55874 -2.683901 0.795609 -3 0 -3 
C -0.795609 -3 -1.55874 -2.683901 -2.12132 -2.12132 
C -2.683901 -1.55874 -3 -0.795609 -3 0 
C -3 0.795609 -2.683901 1.55874 -2.12132 2.12132 
C -1.55874 2.683901 -0.795609 3 0 3 
z
" style="stroke: #7c3aed"/>
    </defs>
    <g clip-path="url(#p9d5f0f3600)">
     <use xlink:href="#m2b0df8a6ff" x="65.642898" y="117.790005" style="fill: #7c3aed; stroke: #7c3aed"/>
     <use xlink:href="#m2b0df8a6ff" x="522.188352" y="105.328382" style="fill: #7c3aed; stroke: #7c3aed"/>
    </g>
   </g>
   <g id="text_13">
    <!-- +0.055 -->
    <g style="fill: #7c3aed" transform="translate(530.188352 91.531507) scale(0.08 -0.08)">
     <defs>
      <path id="MicrosoftYaHei-35" d="M 3294 1494 
Q 3294 784 2823 350 
Q 2353 -84 1559 -84 
Q 878 -84 544 119 
L 544 744 
Q 1034 425 1544 425 
Q 2050 425 2361 704 
Q 2672 984 2672 1447 
Q 2672 1909 2348 2167 
Q 2025 2425 1434 2425 
Q 978 2425 613 2384 
L 791 4841 
L 3053 4841 
L 3053 4303 
L 1306 4303 
L 1206 2931 
L 1647 2950 
Q 2416 2950 2855 2567 
Q 3294 2184 3294 1494 
z
" transform="scale(0.015625)"/>
     </defs>
     <use xlink:href="#MicrosoftYaHei-2b"/>
     <use xlink:href="#MicrosoftYaHei-30" x="74.169922"/>
     <use xlink:href="#MicrosoftYaHei-2e" x="132.8125"/>
     <use xlink:href="#MicrosoftYaHei-30" x="156.884766"/>
     <use xlink:href="#MicrosoftYaHei-35" x="215.527344"/>
     <use xlink:href="#MicrosoftYaHei-35" x="274.169922"/>
    </g>
   </g>
   <g id="text_14">
    <!-- F10 A08 覆盖口径敏感性 -->
    <g transform="translate(226.881562 16.7925) scale(0.12 -0.12)">
     <defs>
      <path id="MicrosoftYaHei-46" d="M 3119 4284 
L 1250 4284 
L 1250 2666 
L 2981 2666 
L 2981 2116 
L 1250 2116 
L 1250 0 
L 625 0 
L 625 4841 
L 3119 4841 
L 3119 4284 
z
" transform="scale(0.015625)"/>
      <path id="MicrosoftYaHei-41" d="M 4428 0 
L 3738 0 
L 3244 1325 
L 1228 1325 
L 763 0 
L 72 0 
L 1916 4841 
L 2584 4841 
L 4428 0 
z
M 3050 1872 
L 2319 3884 
Q 2284 3981 2244 4222 
L 2228 4222 
Q 2194 4003 2150 3884 
L 1425 1872 
L 3050 1872 
z
" transform="scale(0.015625)"/>
      <path id="MicrosoftYaHei-53e3" d="M 713 4684 
L 5675 4684 
L 5675 -578 
L 5138 -578 
L 5138 28 
L 1250 28 
L 1250 -578 
L 713 -578 
L 713 4684 
z
M 5138 497 
L 5138 4216 
L 1250 4216 
L 1250 497 
L 5138 497 
z
" transform="scale(0.015625)"/>
      <path id="MicrosoftYaHei-5f84" d="M 2388 4466 
L 2388 4891 
L 5738 4891 
L 5738 4459 
Q 5216 3866 4619 3391 
Q 5559 2888 6338 2428 
L 6038 1972 
Q 5256 2494 4216 3091 
Q 3253 2422 2106 2041 
Q 2000 2247 1850 2459 
Q 3894 3153 5025 4466 
L 2388 4466 
z
M 1931 -66 
L 3881 -66 
L 3881 1403 
L 2288 1403 
L 2288 1828 
L 5950 1828 
L 5950 1403 
L 4344 1403 
L 4344 -66 
L 6300 -66 
L 6300 -491 
L 1931 -491 
L 1931 -66 
z
M 38 1572 
Q 975 2353 1750 3809 
L 2175 3541 
Q 1844 2953 1475 2444 
L 1475 -816 
L 994 -816 
L 994 1831 
Q 638 1419 250 1066 
Q 156 1328 38 1572 
z
M 106 3616 
Q 1038 4359 1638 5391 
L 2063 5116 
Q 1356 3997 344 3134 
Q 238 3359 106 3616 
z
" transform="scale(0.015625)"/>
      <path id="MicrosoftYaHei-654f" d="M 131 2272 
L 613 2272 
L 731 3684 
Q 572 3459 388 3259 
Q 238 3478 75 3634 
Q 763 4334 1056 5353 
L 1513 5272 
Q 1422 4984 1309 4722 
L 3550 4722 
L 3550 4322 
L 1125 4322 
Q 984 4053 819 3809 
L 3225 3809 
Q 3197 2963 3172 2272 
L 3663 2272 
L 3663 1872 
L 3159 1872 
Q 3131 1166 3106 659 
L 3588 659 
L 3588 259 
L 3088 259 
Q 3056 -684 2231 -684 
Q 1750 -684 1388 -672 
Q 1363 -416 1300 -178 
Q 1744 -222 2156 -222 
Q 2588 -222 2622 259 
L 444 259 
L 578 1872 
L 131 1872 
L 131 2272 
z
M 4306 5328 
L 4763 5253 
Q 4641 4706 4491 4209 
L 6263 4209 
L 6263 3784 
L 5922 3784 
Q 5806 2050 5159 853 
Q 5628 116 6331 -334 
Q 6169 -591 6038 -816 
Q 5347 -316 4878 397 
Q 4341 -375 3531 -878 
Q 3413 -728 3144 -478 
Q 4053 6 4606 863 
Q 4159 1738 3984 2884 
Q 3850 2594 3700 2328 
Q 3600 2497 3375 2728 
Q 4025 3841 4306 5328 
z
M 2697 1872 
L 1041 1872 
L 938 659 
L 2647 659 
Q 2675 1228 2697 1872 
z
M 1175 3409 
L 1075 2272 
L 2709 2272 
Q 2725 2816 2738 3409 
L 1175 3409 
z
M 5453 3784 
L 4350 3784 
Q 4322 3706 4297 3634 
Q 4434 2309 4884 1359 
Q 5363 2366 5453 3784 
z
M 1419 1559 
L 1781 1759 
Q 2056 1353 2269 972 
L 1881 766 
Q 1681 1172 1419 1559 
z
M 1506 3141 
L 1869 3347 
Q 2125 2959 2325 2597 
L 1944 2384 
Q 1725 2822 1506 3141 
z
" transform="scale(0.015625)"/>
      <path id="MicrosoftYaHei-611f" d="M 3531 1422 
Q 4013 1741 4388 2131 
Q 4022 2909 3944 4147 
L 1213 4147 
L 1213 3322 
Q 1213 1803 463 872 
Q 331 1134 138 1347 
Q 763 2034 763 3328 
L 763 4547 
L 3922 4547 
Q 3903 4928 3900 5284 
L 4363 5284 
Q 4363 4928 4378 4547 
L 6200 4547 
L 6200 4147 
L 4400 4147 
Q 4466 3184 4728 2531 
Q 5150 3088 5394 3772 
L 5819 3559 
Q 5456 2741 4947 2103 
Q 5059 1922 5194 1778 
Q 5344 1622 5475 1622 
Q 5594 1622 5669 1822 
Q 5763 2084 5856 2522 
Q 6019 2434 6319 2322 
Q 6175 1766 6069 1503 
Q 5888 1066 5538 1066 
Q 5250 1066 4925 1366 
Q 4756 1522 4616 1725 
Q 4278 1375 3888 1091 
Q 3738 1259 3531 1422 
z
M 1638 2891 
L 3563 2891 
L 3563 1541 
L 2063 1541 
L 2063 1366 
L 1638 1366 
L 1638 2891 
z
M 1713 997 
L 2188 997 
L 2188 134 
Q 2188 -253 2588 -253 
L 3713 -253 
Q 4194 -253 4263 109 
Q 4313 316 4375 778 
Q 4588 691 4869 591 
Q 4788 166 4706 -103 
Q 4556 -691 3813 -691 
L 2488 -691 
Q 1713 -691 1713 78 
L 1713 997 
z
M 1444 3697 
L 3719 3697 
L 3719 3322 
L 1444 3322 
L 1444 3697 
z
M 844 1028 
L 1288 853 
Q 969 47 594 -534 
Q 438 -441 175 -297 
Q 581 291 844 1028 
z
M 3138 1916 
L 3138 2516 
L 2063 2516 
L 2063 1916 
L 3138 1916 
z
M 5113 634 
L 5463 884 
Q 5863 422 6275 -166 
L 5863 -459 
Q 5563 34 5113 634 
z
M 2706 1072 
L 3044 1328 
Q 3456 891 3781 491 
L 3388 191 
Q 3050 678 2706 1072 
z
M 5656 4866 
L 5350 4559 
Q 5081 4809 4763 5066 
L 5038 5353 
Q 5363 5116 5656 4866 
z
" transform="scale(0.015625)"/>
      <path id="MicrosoftYaHei-6027" d="M 1963 -153 
L 3988 -153 
L 3988 1522 
L 2375 1522 
L 2375 1959 
L 3988 1959 
L 3988 3472 
L 2975 3472 
Q 2744 2878 2438 2291 
Q 2169 2509 2019 2578 
Q 2644 3709 2894 4891 
L 3388 4759 
Q 3281 4328 3138 3909 
L 3988 3909 
L 3988 5284 
L 4481 5284 
L 4481 3909 
L 6125 3909 
L 6125 3472 
L 4481 3472 
L 4481 1959 
L 6000 1959 
L 6000 1522 
L 4481 1522 
L 4481 -153 
L 6319 -153 
L 6319 -591 
L 1963 -591 
L 1963 -153 
z
M 988 5291 
L 1469 5291 
L 1469 4091 
L 1738 4241 
Q 2063 3734 2294 3291 
L 1906 3041 
Q 1688 3503 1469 3859 
L 1469 -872 
L 988 -872 
L 988 5291 
z
M 406 3878 
L 819 3784 
Q 706 3028 506 2178 
Q 338 2241 75 2297 
Q 263 2978 406 3878 
z
" transform="scale(0.015625)"/>
     </defs>
     <use xlink:href="#MicrosoftYaHei-46"/>
     <use xlink:href="#MicrosoftYaHei-31" x="53.125"/>
     <use xlink:href="#MicrosoftYaHei-30" x="111.767578"/>
     <use xlink:href="#MicrosoftYaHei-20" x="170.410156"/>
     <use xlink:href="#MicrosoftYaHei-41" x="200"/>
     <use xlink:href="#MicrosoftYaHei-30" x="270.361328"/>
     <use xlink:href="#MicrosoftYaHei-38" x="329.003906"/>
     <use xlink:href="#MicrosoftYaHei-20" x="387.646484"/>
     <use xlink:href="#MicrosoftYaHei-8986" x="417.236328"/>
     <use xlink:href="#MicrosoftYaHei-76d6" x="517.236328"/>
     <use xlink:href="#MicrosoftYaHei-53e3" x="617.236328"/>
     <use xlink:href="#MicrosoftYaHei-5f84" x="717.236328"/>
     <use xlink:href="#MicrosoftYaHei-654f" x="817.236328"/>
     <use xlink:href="#MicrosoftYaHei-611f" x="917.236328"/>
     <use xlink:href="#MicrosoftYaHei-6027" x="1017.236328"/>
    </g>
   </g>
   <g id="line2d_11">
    <path d="M 65.642898 35.852875 
L 522.188352 32.8725 
" clip-path="url(#p9d5f0f3600)" style="fill: none; stroke: #2563eb; stroke-width: 2; stroke-linecap: square"/>
    <defs>
     <path id="md4f461babf" d="M 0 -3 
L -3 3 
L 3 3 
z
" style="stroke: #2563eb; stroke-linejoin: miter"/>
    </defs>
    <g clip-path="url(#p9d5f0f3600)">
     <use xlink:href="#md4f461babf" x="65.642898" y="35.852875" style="fill: #2563eb; stroke: #2563eb; stroke-linejoin: miter"/>
     <use xlink:href="#md4f461babf" x="522.188352" y="32.8725" style="fill: #2563eb; stroke: #2563eb; stroke-linejoin: miter"/>
    </g>
   </g>
   <g id="line2d_12">
    <path d="M 65.642898 35.852875 
L 522.188352 32.8725 
" clip-path="url(#p9d5f0f3600)" style="fill: none; stroke-dasharray: 6,4; stroke-dashoffset: 0; stroke: #0f766e; stroke-width: 2"/>
    <defs>
     <path id="m26a4b922a5" d="M -3 3 
L 3 3 
L 3 -3 
L -3 -3 
z
" style="stroke: #0f766e; stroke-linejoin: miter"/>
    </defs>
    <g clip-path="url(#p9d5f0f3600)">
     <use xlink:href="#m26a4b922a5" x="65.642898" y="35.852875" style="fill: #0f766e; stroke: #0f766e; stroke-linejoin: miter"/>
     <use xlink:href="#m26a4b922a5" x="522.188352" y="32.8725" style="fill: #0f766e; stroke: #0f766e; stroke-linejoin: miter"/>
    </g>
   </g>
   <g id="legend_1">
    <g id="patch_7">
     <path d="M 48.415625 78.7275 
L 166.688125 78.7275 
Q 168.288125 78.7275 168.288125 77.1275 
L 168.288125 28.3925 
Q 168.288125 26.7925 166.688125 26.7925 
L 48.415625 26.7925 
Q 46.815625 26.7925 46.815625 28.3925 
L 46.815625 77.1275 
Q 46.815625 78.7275 48.415625 78.7275 
z
" style="fill: #ffffff; opacity: 0.8; stroke: #cccccc; stroke-linejoin: miter"/>
    </g>
    <g id="text_15">
     <!-- 对象 -->
     <g transform="translate(99.551875 36.3875) scale(0.08 -0.08)">
      <defs>
       <path id="MicrosoftYaHei-5bf9" d="M 694 3691 
Q 1234 2909 1741 2166 
Q 2113 3081 2213 4147 
L 250 4147 
L 250 4622 
L 2725 4622 
L 2725 4166 
Q 2553 2809 2059 1700 
Q 2569 953 3044 247 
L 2594 -53 
Q 2203 563 1803 1181 
Q 1247 163 388 -622 
Q 263 -428 81 -166 
Q 975 638 1500 1647 
Q 919 2538 319 3434 
L 694 3691 
z
M 2975 3941 
L 5056 3941 
L 5056 5278 
L 5563 5278 
L 5563 3941 
L 6325 3941 
L 6325 3466 
L 5563 3466 
L 5563 191 
Q 5563 -716 4669 -716 
Q 4388 -716 3744 -709 
Q 3713 -478 3644 -147 
Q 4263 -197 4588 -197 
Q 5056 -197 5056 278 
L 5056 3466 
L 2975 3466 
L 2975 3941 
z
M 3088 2684 
L 3494 2928 
Q 4000 2184 4388 1484 
L 3919 1216 
Q 3550 1922 3088 2684 
z
" transform="scale(0.015625)"/>
       <path id="MicrosoftYaHei-8c61" d="M 5513 2209 
L 5763 1791 
Q 5209 1597 4609 1391 
Q 5109 269 6319 -122 
Q 6113 -378 5981 -541 
Q 4819 -47 4213 1256 
Q 4041 1200 3869 1141 
Q 3981 781 3981 322 
Q 3981 -797 2913 -797 
Q 2525 -797 2088 -784 
Q 2063 -628 1981 -303 
Q 2438 -353 2825 -353 
Q 3531 -353 3531 353 
Q 3531 628 3484 847 
Q 2553 -63 338 -703 
Q 225 -516 88 -266 
Q 2241 281 3338 1250 
Q 3259 1397 3141 1547 
Q 2275 778 425 228 
Q 325 409 169 653 
Q 1969 1125 2884 1834 
Q 2775 1947 2644 2059 
Q 1881 1534 338 1153 
Q 256 1328 94 1597 
Q 1847 1925 2509 2472 
L 1181 2472 
L 1181 2278 
L 750 2278 
L 750 3484 
Q 534 3338 300 3191 
Q 219 3397 88 3603 
Q 1394 4341 2138 5347 
L 2700 5278 
Q 2534 5038 2313 4797 
L 4888 4797 
L 4888 4428 
L 4278 3878 
L 5825 3878 
L 5825 2328 
L 5394 2328 
L 5394 2472 
L 3106 2472 
Q 3038 2388 2950 2306 
Q 3459 1919 3709 1494 
Q 4719 1819 5513 2209 
z
M 4238 4409 
L 1928 4409 
Q 1644 4147 1294 3878 
L 3684 3878 
L 4238 4409 
z
M 5394 3472 
L 3575 3472 
Q 3494 3138 3369 2878 
L 5394 2878 
L 5394 3472 
z
M 1181 2878 
L 2856 2878 
Q 3009 3131 3094 3472 
L 1181 3472 
L 1181 2878 
z
" transform="scale(0.015625)"/>
      </defs>
      <use xlink:href="#MicrosoftYaHei-5bf9"/>
      <use xlink:href="#MicrosoftYaHei-8c61" x="100"/>
     </g>
    </g>
    <g id="line2d_13">
     <path d="M 50.015625 45.97125 
L 58.015625 45.97125 
L 66.015625 45.97125 
" style="fill: none; stroke: #475569; stroke-width: 2; stroke-linecap: square"/>
     <g>
      <use xlink:href="#m1026691931" x="58.015625" y="45.97125" style="fill: #475569; stroke: #475569"/>
     </g>
    </g>
    <g id="text_16">
     <!-- Q1/M1 -->
     <g transform="translate(72.415625 48.77125) scale(0.08 -0.08)">
      <defs>
       <path id="MicrosoftYaHei-51" d="M 313 2363 
Q 313 3534 947 4228 
Q 1581 4922 2666 4922 
Q 3675 4922 4290 4244 
Q 4906 3566 4906 2478 
Q 4906 1300 4275 609 
Q 4125 447 3953 322 
L 5313 -653 
L 4284 -653 
L 3366 28 
Q 3009 -81 2588 -81 
Q 1556 -81 934 597 
Q 313 1275 313 2363 
z
M 969 2413 
Q 969 1534 1417 1004 
Q 1866 475 2588 475 
Q 3363 475 3805 983 
Q 4247 1491 4247 2403 
Q 4247 3341 3814 3850 
Q 3381 4359 2628 4359 
Q 1888 4359 1428 3821 
Q 969 3284 969 2413 
z
" transform="scale(0.015625)"/>
       <path id="MicrosoftYaHei-4d" d="M 5003 0 
L 5003 3206 
Q 5003 3603 5050 4159 
L 5034 4159 
Q 4953 3809 4891 3672 
L 3294 0 
L 2947 0 
L 1353 3644 
Q 1297 3769 1209 4159 
L 1191 4159 
Q 1222 3822 1222 3178 
L 1222 0 
L 625 0 
L 625 4841 
L 1472 4841 
L 2900 1522 
Q 3063 1141 3116 928 
L 3138 928 
Q 3300 1375 3366 1534 
L 4819 4841 
L 5625 4841 
L 5625 0 
L 5003 0 
z
" transform="scale(0.015625)"/>
      </defs>
      <use xlink:href="#MicrosoftYaHei-51"/>
      <use xlink:href="#MicrosoftYaHei-31" x="81.494141"/>
      <use xlink:href="#MicrosoftYaHei-2f" x="140.136719"/>
      <use xlink:href="#MicrosoftYaHei-4d" x="182.861328"/>
      <use xlink:href="#MicrosoftYaHei-31" x="280.566406"/>
     </g>
    </g>
    <g id="line2d_14">
     <path d="M 50.015625 58.355 
L 58.015625 58.355 
L 66.015625 58.355 
" style="fill: none; stroke-dasharray: 6,4; stroke-dashoffset: 0; stroke: #0f766e; stroke-width: 2"/>
     <g>
      <use xlink:href="#m26a4b922a5" x="58.015625" y="58.355" style="fill: #0f766e; stroke: #0f766e; stroke-linejoin: miter"/>
     </g>
    </g>
    <g id="text_17">
     <!-- Q2/M1 -->
     <g transform="translate(72.415625 61.155) scale(0.08 -0.08)">
      <use xlink:href="#MicrosoftYaHei-51"/>
      <use xlink:href="#MicrosoftYaHei-32" x="81.494141"/>
      <use xlink:href="#MicrosoftYaHei-2f" x="140.136719"/>
      <use xlink:href="#MicrosoftYaHei-4d" x="182.861328"/>
      <use xlink:href="#MicrosoftYaHei-31" x="280.566406"/>
     </g>
    </g>
    <g id="line2d_15">
     <path d="M 50.015625 70.73875 
L 58.015625 70.73875 
L 66.015625 70.73875 
" style="fill: none; stroke: #2563eb; stroke-width: 2; stroke-linecap: square"/>
     <g>
      <use xlink:href="#md4f461babf" x="58.015625" y="70.73875" style="fill: #2563eb; stroke: #2563eb; stroke-linejoin: miter"/>
     </g>
    </g>
    <g id="text_18">
     <!-- Q5/M1 -->
     <g transform="translate(72.415625 73.53875) scale(0.08 -0.08)">
      <use xlink:href="#MicrosoftYaHei-51"/>
      <use xlink:href="#MicrosoftYaHei-35" x="81.494141"/>
      <use xlink:href="#MicrosoftYaHei-2f" x="140.136719"/>
      <use xlink:href="#MicrosoftYaHei-4d" x="182.861328"/>
      <use xlink:href="#MicrosoftYaHei-31" x="280.566406"/>
     </g>
    </g>
    <g id="line2d_16">
     <path d="M 115.551875 45.97125 
L 123.551875 45.97125 
L 131.551875 45.97125 
" style="fill: none; stroke: #d97706; stroke-width: 2; stroke-linecap: square"/>
     <g>
      <use xlink:href="#mc2279c2da6" x="123.551875" y="45.97125" style="fill: #d97706; stroke: #d97706"/>
     </g>
    </g>
    <g id="text_19">
     <!-- Q5/M2 -->
     <g transform="translate(137.951875 48.77125) scale(0.08 -0.08)">
      <use xlink:href="#MicrosoftYaHei-51"/>
      <use xlink:href="#MicrosoftYaHei-35" x="81.494141"/>
      <use xlink:href="#MicrosoftYaHei-2f" x="140.136719"/>
      <use xlink:href="#MicrosoftYaHei-4d" x="182.861328"/>
      <use xlink:href="#MicrosoftYaHei-32" x="280.566406"/>
     </g>
    </g>
    <g id="line2d_17">
     <path d="M 115.551875 58.355 
L 123.551875 58.355 
L 131.551875 58.355 
" style="fill: none; stroke: #7c3aed; stroke-width: 2; stroke-linecap: square"/>
     <g>
      <use xlink:href="#m2b0df8a6ff" x="123.551875" y="58.355" style="fill: #7c3aed; stroke: #7c3aed"/>
     </g>
    </g>
    <g id="text_20">
     <!-- Q5/M3 -->
     <g transform="translate(137.951875 61.155) scale(0.08 -0.08)">
      <use xlink:href="#MicrosoftYaHei-51"/>
      <use xlink:href="#MicrosoftYaHei-35" x="81.494141"/>
      <use xlink:href="#MicrosoftYaHei-2f" x="140.136719"/>
      <use xlink:href="#MicrosoftYaHei-4d" x="182.861328"/>
      <use xlink:href="#MicrosoftYaHei-33" x="280.566406"/>
     </g>
    </g>
   </g>
  </g>
  <g id="text_21">
   <!-- 注：Q2/M1 与 Q5/M1 在两种覆盖口径下数值重合，以颜色和线型区分。 -->
   <g style="fill: #334155" transform="translate(232.888125 270.4725) scale(0.08 -0.08)">
    <defs>
     <path id="MicrosoftYaHei-6ce8" d="M 1625 16 
L 3725 16 
L 3725 1791 
L 2100 1791 
L 2100 2266 
L 3725 2266 
L 3725 3778 
L 1925 3778 
L 1925 4253 
L 3919 4253 
Q 3625 4719 3319 5103 
L 3731 5366 
Q 4150 4878 4394 4503 
L 4003 4253 
L 6100 4253 
L 6100 3778 
L 4250 3778 
L 4250 2266 
L 5875 2266 
L 5875 1791 
L 4250 1791 
L 4250 16 
L 6275 16 
L 6275 -459 
L 1625 -459 
L 1625 16 
z
M 956 1816 
Q 1213 1703 1450 1609 
Q 1106 509 731 -791 
L 194 -603 
Q 588 466 956 1816 
z
M 631 5234 
Q 1238 4778 1713 4322 
Q 1500 4109 1338 3941 
Q 1000 4297 313 4891 
L 631 5234 
z
M 394 3616 
Q 844 3303 1500 2766 
Q 1269 2503 1131 2359 
Q 475 2959 81 3259 
L 394 3616 
z
" transform="scale(0.015625)"/>
     <path id="MicrosoftYaHei-ff1a" d="M 1606 3531 
Q 1772 3531 1890 3415 
Q 2009 3300 2009 3138 
Q 2009 2975 1893 2858 
Q 1778 2741 1606 2741 
Q 1434 2741 1318 2858 
Q 1203 2975 1203 3138 
Q 1203 3300 1322 3415 
Q 1441 3531 1606 3531 
z
M 1606 716 
Q 1772 716 1890 600 
Q 2009 484 2009 319 
Q 2009 150 1890 36 
Q 1772 -78 1606 -78 
Q 1441 -78 1322 36 
Q 1203 150 1203 319 
Q 1203 484 1322 600 
Q 1441 716 1606 716 
z
" transform="scale(0.015625)"/>
     <path id="MicrosoftYaHei-4e0e" d="M 1163 2384 
L 1163 2859 
L 1413 5328 
L 1931 5328 
L 1834 4334 
L 6269 4334 
L 6269 3859 
L 1791 3859 
L 1694 2859 
L 5813 2859 
Q 5738 1547 5644 416 
Q 5556 -247 5263 -478 
Q 4981 -703 4322 -703 
Q 3706 -697 2900 -678 
Q 2863 -466 2794 -134 
Q 3744 -203 4213 -209 
Q 5050 -266 5125 447 
Q 5206 1278 5263 2384 
L 1163 2384 
z
M 106 1409 
L 4738 1409 
L 4738 934 
L 106 934 
L 106 1409 
z
" transform="scale(0.015625)"/>
     <path id="MicrosoftYaHei-5728" d="M 250 4553 
L 2088 4553 
Q 2241 4931 2363 5328 
L 2881 5197 
Q 2772 4869 2647 4553 
L 6275 4553 
L 6275 4091 
L 2450 4091 
Q 2078 3256 1581 2519 
L 1581 -791 
L 1094 -791 
L 1094 1853 
Q 756 1431 375 1047 
Q 244 1266 75 1497 
Q 1225 2691 1884 4091 
L 250 4091 
L 250 4553 
z
M 1800 109 
L 3756 109 
L 3756 1978 
L 2131 1978 
L 2131 2428 
L 3756 2428 
L 3756 3684 
L 4269 3684 
L 4269 2428 
L 5919 2428 
L 5919 1978 
L 4269 1978 
L 4269 109 
L 6275 109 
L 6275 -328 
L 1800 -328 
L 1800 109 
z
" transform="scale(0.015625)"/>
     <path id="MicrosoftYaHei-4e24" d="M 163 4991 
L 6238 4991 
L 6238 4534 
L 4325 4534 
Q 4328 4084 4316 3697 
L 5856 3697 
L 5856 3 
Q 5856 -716 5138 -716 
Q 4800 -716 4181 -703 
Q 4150 -484 4094 -216 
Q 4688 -259 4994 -259 
Q 5388 -259 5388 122 
L 5388 3247 
L 4297 3247 
Q 4269 2634 4172 2138 
Q 4859 1500 5325 966 
L 5000 616 
Q 4519 1194 4038 1678 
Q 3734 834 3050 147 
Q 2913 303 2663 484 
Q 3844 1559 3844 3247 
L 2538 3247 
Q 2506 2591 2444 2316 
Q 2956 1897 3288 1603 
L 3013 1191 
Q 2675 1541 2325 1869 
Q 2044 1025 1381 334 
Q 1231 503 1019 691 
Q 2056 1653 2084 3247 
L 1000 3247 
L 1000 -747 
L 531 -747 
L 531 3697 
L 2103 3697 
Q 2116 4091 2113 4534 
L 163 4534 
L 163 4991 
z
M 2556 3697 
L 3863 3697 
Q 3875 4094 3872 4534 
L 2569 4534 
Q 2569 4084 2556 3697 
z
" transform="scale(0.015625)"/>
     <path id="MicrosoftYaHei-79cd" d="M 2700 4066 
L 4113 4066 
L 4113 5316 
L 4588 5316 
L 4588 4066 
L 6006 4066 
L 6006 1053 
L 5556 1053 
L 5556 1353 
L 4588 1353 
L 4588 -841 
L 4113 -841 
L 4113 1353 
L 3150 1353 
L 3150 1053 
L 2700 1053 
L 2700 4066 
z
M 88 878 
Q 669 1691 1063 2972 
L 119 2972 
L 119 3416 
L 1119 3416 
L 1119 4434 
Q 738 4403 294 4372 
Q 263 4584 200 4828 
Q 1475 4897 2425 5034 
L 2538 4559 
Q 2141 4519 1581 4472 
L 1581 3416 
L 2475 3416 
L 2475 2972 
L 1581 2972 
L 1581 2159 
L 1850 2378 
Q 2188 2028 2606 1516 
L 2225 1203 
Q 1888 1669 1581 2025 
L 1581 -828 
L 1119 -828 
L 1119 1894 
Q 791 972 306 341 
Q 206 603 88 878 
z
M 5556 3634 
L 4588 3634 
L 4588 1784 
L 5556 1784 
L 5556 3634 
z
M 3150 1784 
L 4113 1784 
L 4113 3634 
L 3150 3634 
L 3150 1784 
z
" transform="scale(0.015625)"/>
     <path id="MicrosoftYaHei-4e0b" d="M 163 4803 
L 6238 4803 
L 6238 4291 
L 3200 4291 
L 3200 2928 
L 3488 3328 
Q 4919 2484 5888 1809 
L 5519 1303 
Q 4550 2047 3200 2872 
L 3200 -797 
L 2631 -797 
L 2631 4291 
L 163 4291 
L 163 4803 
z
" transform="scale(0.015625)"/>
     <path id="MicrosoftYaHei-6570" d="M 4175 5303 
L 4675 5228 
Q 4544 4622 4369 4097 
L 6281 4097 
L 6281 3672 
L 5888 3672 
Q 5731 1834 5088 753 
Q 5594 66 6375 -372 
Q 6175 -647 6038 -866 
Q 5275 -372 4769 309 
Q 4194 -403 3400 -928 
Q 3263 -747 3044 -534 
Q 3919 41 4463 772 
Q 3956 1647 3794 2791 
Q 3663 2559 3519 2359 
Q 3394 2541 3206 2759 
Q 3931 3803 4175 5303 
z
M 150 1697 
L 1100 1697 
Q 1238 1934 1369 2184 
L 1819 2041 
Q 1719 1866 1619 1697 
L 3150 1697 
L 3150 1291 
Q 2913 678 2431 216 
Q 2775 53 3131 -109 
L 2856 -541 
Q 2469 -322 2050 -103 
Q 1344 -609 269 -903 
Q 169 -703 56 -466 
Q 969 -259 1600 128 
Q 1063 403 475 691 
Q 675 978 863 1284 
L 150 1284 
L 150 1697 
z
M 219 3847 
L 1656 3847 
L 1656 5247 
L 2119 5247 
L 2119 3847 
L 3319 3847 
L 3319 3434 
L 2119 3434 
L 2119 3053 
L 2306 3266 
Q 2888 2841 3281 2516 
L 2981 2166 
Q 2638 2491 2119 2897 
L 2119 2184 
L 1656 2184 
L 1656 3059 
Q 1088 2466 331 2016 
Q 213 2197 63 2397 
Q 850 2822 1506 3434 
L 219 3434 
L 219 3847 
z
M 5388 3672 
L 4219 3672 
Q 4188 3591 4150 3516 
Q 4263 2191 4775 1247 
Q 5275 2159 5388 3672 
z
M 1088 834 
Q 1531 634 2000 416 
Q 2431 784 2675 1284 
L 1375 1284 
Q 1231 1053 1088 834 
z
M 3038 5091 
L 3425 4834 
Q 3081 4384 2738 4003 
Q 2594 4128 2400 4266 
Q 2725 4647 3038 5091 
z
M 381 4816 
L 738 5059 
Q 1019 4716 1319 4322 
L 931 4047 
Q 656 4453 381 4816 
z
" transform="scale(0.015625)"/>
     <path id="MicrosoftYaHei-503c" d="M 1619 -216 
L 2250 -216 
L 2250 3653 
L 3725 3653 
L 3725 4222 
L 1913 4222 
L 1913 4647 
L 3725 4647 
L 3725 5309 
L 4200 5309 
L 4200 4647 
L 6169 4647 
L 6169 4222 
L 4200 4222 
L 4200 3653 
L 5713 3653 
L 5713 -216 
L 6306 -216 
L 6306 -641 
L 1619 -641 
L 1619 -216 
z
M 69 2247 
Q 906 3497 1369 5278 
L 1831 5141 
Q 1581 4334 1288 3628 
L 1288 -816 
L 831 -816 
L 831 2666 
Q 563 2166 263 1734 
Q 175 1997 69 2247 
z
M 2713 -216 
L 5250 -216 
L 5250 353 
L 2713 353 
L 2713 -216 
z
M 5250 3241 
L 2713 3241 
L 2713 2678 
L 5250 2678 
L 5250 3241 
z
M 2713 1716 
L 5250 1716 
L 5250 2278 
L 2713 2278 
L 2713 1716 
z
M 2713 753 
L 5250 753 
L 5250 1316 
L 2713 1316 
L 2713 753 
z
" transform="scale(0.015625)"/>
     <path id="MicrosoftYaHei-91cd" d="M 113 -203 
L 2975 -203 
L 2975 259 
L 600 259 
L 600 628 
L 2975 628 
L 2975 1153 
L 1288 1153 
L 1288 928 
L 850 928 
L 850 3278 
L 2975 3278 
L 2975 3728 
L 163 3728 
L 163 4116 
L 2975 4116 
L 2975 4606 
Q 1841 4572 625 4547 
Q 588 4747 538 4972 
Q 3706 5009 5669 5141 
L 5744 4716 
Q 4631 4663 3425 4619 
L 3425 4116 
L 6263 4116 
L 6263 3728 
L 3425 3728 
L 3425 3278 
L 5569 3278 
L 5569 934 
L 5131 934 
L 5131 1153 
L 3425 1153 
L 3425 628 
L 5806 628 
L 5806 259 
L 3425 259 
L 3425 -203 
L 6263 -203 
L 6263 -591 
L 113 -591 
L 113 -203 
z
M 3425 1516 
L 5131 1516 
L 5131 2053 
L 3425 2053 
L 3425 1516 
z
M 1288 1516 
L 2975 1516 
L 2975 2053 
L 1288 2053 
L 1288 1516 
z
M 5131 2916 
L 3425 2916 
L 3425 2384 
L 5131 2384 
L 5131 2916 
z
M 1288 2384 
L 2975 2384 
L 2975 2916 
L 1288 2916 
L 1288 2384 
z
" transform="scale(0.015625)"/>
     <path id="MicrosoftYaHei-5408" d="M 1025 1909 
L 5381 1909 
L 5381 -866 
L 4881 -866 
L 4881 -447 
L 1525 -447 
L 1525 -878 
L 1025 -878 
L 1025 1909 
z
M 3700 5234 
L 3550 5053 
Q 4594 3697 6319 3009 
Q 6125 2734 5988 2509 
Q 5481 2753 5025 3059 
L 5025 2703 
L 1369 2703 
L 1369 3016 
Q 913 2716 394 2428 
Q 269 2641 81 2897 
Q 2013 3866 3000 5234 
L 3700 5234 
z
M 4881 1453 
L 1525 1453 
L 1525 -3 
L 4881 -3 
L 4881 1453 
z
M 3219 4691 
Q 2581 3872 1550 3147 
L 4894 3147 
Q 3944 3797 3219 4691 
z
" transform="scale(0.015625)"/>
     <path id="MicrosoftYaHei-ff0c" d="M 1931 775 
L 1403 -891 
L 966 -891 
L 1350 775 
L 1931 775 
z
" transform="scale(0.015625)"/>
     <path id="MicrosoftYaHei-4ee5" d="M 4819 5172 
L 5331 5172 
L 5331 4047 
Q 5331 2319 4888 1303 
Q 5663 503 6350 -272 
L 5919 -666 
Q 5278 128 4641 844 
Q 3919 -253 2469 -872 
Q 2325 -678 2131 -441 
Q 3706 284 4250 1241 
Q 4831 2178 4819 4059 
L 4819 5172 
z
M 2881 1709 
Q 2900 1303 2931 1116 
Q 1431 172 1063 -72 
Q 856 -216 669 -384 
L 313 109 
Q 606 372 600 741 
L 600 5084 
L 1113 5084 
L 1113 616 
Q 1800 1028 2881 1709 
z
M 2625 5316 
Q 3044 4653 3556 3728 
L 3069 3453 
Q 2581 4416 2181 5078 
L 2625 5316 
z
" transform="scale(0.015625)"/>
     <path id="MicrosoftYaHei-989c" d="M 3413 3728 
L 4250 3728 
L 4381 4572 
L 3250 4572 
L 3250 4997 
L 6294 4997 
L 6294 4572 
L 4869 4572 
L 4713 3728 
L 6025 3728 
L 6025 609 
L 5594 609 
L 5594 3309 
L 3844 3309 
L 3844 609 
L 3413 609 
L 3413 3728 
z
M 438 3066 
L 1994 3066 
Q 2244 3609 2425 4109 
L 2913 3928 
Q 2731 3566 2444 3066 
L 3200 3066 
L 3200 2666 
L 875 2666 
L 875 1372 
Q 881 16 388 -841 
Q 213 -609 56 -422 
Q 438 209 438 1409 
L 438 3066 
z
M 4500 3022 
L 4938 3022 
L 4938 2222 
Q 4938 1341 4750 766 
Q 5631 134 6319 -484 
L 5969 -847 
Q 5325 -209 4569 353 
Q 4181 -316 3188 -903 
Q 3094 -766 2856 -503 
Q 3844 9 4188 609 
Q 4500 1122 4500 2247 
L 4500 3022 
z
M 263 4566 
L 1663 4566 
Q 1550 4809 1350 5147 
L 1750 5334 
Q 1981 5003 2144 4703 
L 1863 4566 
L 3213 4566 
L 3213 4166 
L 263 4166 
L 263 4566 
z
M 1100 -872 
Q 981 -678 838 -484 
Q 1981 -53 2956 703 
L 3238 359 
Q 2181 -434 1100 -872 
z
M 1256 341 
Q 1100 597 994 734 
Q 1975 1091 2838 1684 
L 3100 1347 
Q 2150 709 1256 341 
z
M 1256 1441 
Q 1119 1678 994 1834 
Q 1800 2066 2688 2616 
L 2938 2266 
Q 2063 1759 1256 1441 
z
M 750 3922 
L 1144 4109 
Q 1419 3666 1600 3309 
L 1169 3097 
Q 1000 3497 750 3922 
z
" transform="scale(0.015625)"/>
     <path id="MicrosoftYaHei-8272" d="M 56 3253 
Q 1275 4178 1988 5384 
L 2513 5253 
Q 2344 4984 2153 4728 
L 4625 4728 
L 4625 4284 
Q 4275 3875 3894 3466 
L 5581 3466 
L 5581 1184 
L 5081 1184 
L 5081 1403 
L 1325 1403 
L 1325 297 
Q 1325 -128 1719 -128 
L 5094 -128 
Q 5513 -128 5600 134 
Q 5719 516 5769 1091 
Q 5950 1009 6281 897 
Q 6194 309 6100 -9 
Q 5938 -603 5188 -603 
L 1663 -603 
Q 825 -603 825 253 
L 825 3263 
Q 641 3097 444 2934 
Q 275 3091 56 3253 
z
M 5081 3016 
L 3444 3016 
L 3444 1853 
L 5081 1853 
L 5081 3016 
z
M 1325 1853 
L 2956 1853 
L 2956 3016 
L 1325 3016 
L 1325 1853 
z
M 3994 4291 
L 1809 4291 
Q 1456 3863 1041 3466 
L 3284 3466 
Q 3659 3891 3994 4291 
z
" transform="scale(0.015625)"/>
     <path id="MicrosoftYaHei-548c" d="M 3263 4553 
L 6025 4553 
L 6025 -666 
L 5525 -666 
L 5525 -59 
L 3763 -59 
L 3763 -666 
L 3263 -666 
L 3263 4553 
z
M 5525 4091 
L 3763 4091 
L 3763 391 
L 5525 391 
L 5525 4091 
z
M 75 897 
Q 788 1841 1206 2997 
L 113 2997 
L 113 3422 
L 1306 3422 
L 1306 4409 
Q 819 4334 319 4272 
Q 263 4478 181 4703 
Q 1481 4847 2700 5128 
L 2844 4691 
Q 2325 4584 1781 4491 
L 1781 3422 
L 2950 3422 
L 2950 2997 
L 1781 2997 
L 1781 2191 
L 2006 2416 
Q 2500 1991 2975 1516 
L 2619 1153 
Q 2244 1584 1781 2034 
L 1781 -872 
L 1306 -872 
L 1306 2128 
Q 938 1203 313 359 
Q 213 603 75 897 
z
" transform="scale(0.015625)"/>
     <path id="MicrosoftYaHei-7ebf" d="M 1969 -347 
Q 3144 75 4003 631 
Q 3781 1197 3653 1972 
L 2319 1784 
L 2244 2234 
L 3591 2422 
Q 3538 2859 3513 3356 
L 2381 3228 
L 2306 3678 
L 3488 3809 
Q 3453 4459 3425 5303 
L 3938 5303 
Q 3953 4497 3978 3866 
L 6069 4103 
L 6125 3659 
L 3997 3413 
Q 4019 2919 4069 2488 
L 6225 2791 
L 6281 2347 
L 4128 2041 
Q 4234 1394 4416 916 
Q 5078 1416 5519 2009 
L 5925 1703 
Q 5363 1025 4619 475 
Q 4859 44 5194 -184 
Q 5606 -428 5725 66 
Q 5806 466 5856 953 
Q 6144 828 6338 772 
Q 6231 97 6125 -247 
Q 5944 -778 5506 -778 
Q 5050 -778 4663 -403 
Q 4409 -163 4209 194 
Q 3350 -363 2281 -772 
Q 2169 -597 1969 -347 
z
M 900 1541 
Q 1456 1622 2213 1753 
Q 2175 1522 2156 1272 
Q 1113 1109 325 978 
L 225 1447 
Q 659 1913 1178 2775 
Q 672 2747 225 2703 
L 106 3128 
Q 688 3922 1300 5353 
L 1775 5166 
Q 1131 3897 669 3166 
Q 1041 3178 1422 3194 
Q 1638 3578 1869 4028 
L 2331 3797 
Q 1569 2478 900 1541 
z
M 106 97 
Q 1206 334 2331 616 
Q 2313 366 2313 141 
Q 1269 -103 244 -378 
L 106 97 
z
M 4463 4972 
L 4731 5284 
Q 5175 5003 5681 4609 
L 5381 4247 
Q 4863 4691 4463 4972 
z
" transform="scale(0.015625)"/>
     <path id="MicrosoftYaHei-578b" d="M 150 3503 
L 1100 3503 
Q 1106 3638 1106 4547 
L 413 4547 
L 413 4959 
L 3675 4959 
L 3675 4547 
L 2994 4547 
L 2994 3503 
L 3881 3503 
L 3881 3091 
L 2994 3091 
L 2994 1747 
L 2538 1747 
L 2538 3091 
L 1528 3091 
Q 1450 2191 638 1534 
Q 475 1716 294 1897 
Q 1013 2453 1066 3091 
L 150 3091 
L 150 3503 
z
M 138 -103 
L 2938 -103 
L 2938 741 
L 706 741 
L 706 1172 
L 2938 1172 
L 2938 1659 
L 3425 1659 
L 3425 1172 
L 5713 1172 
L 5713 741 
L 3425 741 
L 3425 -103 
L 6256 -103 
L 6256 -534 
L 138 -534 
L 138 -103 
z
M 5856 5209 
L 5856 2334 
Q 5856 1672 5200 1659 
Q 4825 1647 4331 1659 
Q 4306 1897 4256 2153 
Q 4781 2122 5044 2122 
Q 5400 2122 5400 2516 
L 5400 5209 
L 5856 5209 
z
M 1556 3503 
L 2538 3503 
L 2538 4547 
L 1563 4547 
Q 1563 3791 1556 3503 
z
M 4138 4859 
L 4588 4859 
L 4588 2697 
L 4138 2697 
L 4138 4859 
z
" transform="scale(0.015625)"/>
     <path id="MicrosoftYaHei-533a" d="M 600 4872 
L 5975 4872 
L 5975 4384 
L 1131 4384 
L 1131 22 
L 6075 22 
L 6075 -453 
L 600 -453 
L 600 4872 
z
M 1613 3697 
L 1963 4028 
Q 2744 3384 3597 2616 
Q 4250 3322 4850 4153 
L 5306 3847 
Q 4650 2997 3975 2272 
Q 4753 1563 5588 753 
L 5156 316 
Q 4400 1106 3600 1878 
Q 2697 963 1763 266 
Q 1613 459 1363 672 
Q 2344 1341 3228 2231 
Q 2444 2972 1613 3697 
z
" transform="scale(0.015625)"/>
     <path id="MicrosoftYaHei-5206" d="M 900 2559 
L 5056 2559 
Q 5025 1497 4963 484 
Q 4888 -684 3856 -678 
Q 3350 -684 2788 -647 
Q 2750 -384 2700 -116 
Q 3181 -184 3775 -191 
Q 4400 -203 4463 541 
Q 4513 1216 4538 2097 
L 2616 2097 
Q 2541 1053 2181 416 
Q 1706 -422 588 -878 
Q 425 -666 231 -459 
Q 1269 -72 1725 666 
Q 2053 1225 2103 2097 
L 900 2097 
L 900 2559 
z
M 3488 5159 
L 3938 5353 
Q 4625 3678 6350 2847 
Q 6069 2553 5944 2372 
Q 4225 3366 3488 5159 
z
M 50 2766 
Q 1338 3678 2250 5253 
L 2694 5009 
Q 1744 3347 413 2341 
Q 281 2534 50 2766 
z
" transform="scale(0.015625)"/>
     <path id="MicrosoftYaHei-3002" d="M 1219 863 
Q 1525 863 1750 625 
Q 1975 388 1975 72 
Q 1975 -284 1747 -507 
Q 1519 -731 1197 -731 
Q 875 -731 642 -503 
Q 409 -275 409 66 
Q 409 413 656 638 
Q 903 863 1219 863 
z
M 1209 -275 
Q 1328 -275 1431 -184 
Q 1534 -94 1534 50 
Q 1534 209 1434 304 
Q 1334 400 1191 400 
Q 1056 400 959 304 
Q 863 209 863 53 
Q 863 -100 977 -187 
Q 1091 -275 1209 -275 
z
" transform="scale(0.015625)"/>
    </defs>
    <use xlink:href="#MicrosoftYaHei-6ce8"/>
    <use xlink:href="#MicrosoftYaHei-ff1a" x="100"/>
    <use xlink:href="#MicrosoftYaHei-51" x="200"/>
    <use xlink:href="#MicrosoftYaHei-32" x="281.494141"/>
    <use xlink:href="#MicrosoftYaHei-2f" x="340.136719"/>
    <use xlink:href="#MicrosoftYaHei-4d" x="382.861328"/>
    <use xlink:href="#MicrosoftYaHei-31" x="480.566406"/>
    <use xlink:href="#MicrosoftYaHei-20" x="539.208984"/>
    <use xlink:href="#MicrosoftYaHei-4e0e" x="568.798828"/>
    <use xlink:href="#MicrosoftYaHei-20" x="668.798828"/>
    <use xlink:href="#MicrosoftYaHei-51" x="698.388672"/>
    <use xlink:href="#MicrosoftYaHei-35" x="779.882812"/>
    <use xlink:href="#MicrosoftYaHei-2f" x="838.525391"/>
    <use xlink:href="#MicrosoftYaHei-4d" x="881.25"/>
    <use xlink:href="#MicrosoftYaHei-31" x="978.955078"/>
    <use xlink:href="#MicrosoftYaHei-20" x="1037.597656"/>
    <use xlink:href="#MicrosoftYaHei-5728" x="1067.1875"/>
    <use xlink:href="#MicrosoftYaHei-4e24" x="1167.1875"/>
    <use xlink:href="#MicrosoftYaHei-79cd" x="1267.1875"/>
    <use xlink:href="#MicrosoftYaHei-8986" x="1367.1875"/>
    <use xlink:href="#MicrosoftYaHei-76d6" x="1467.1875"/>
    <use xlink:href="#MicrosoftYaHei-53e3" x="1567.1875"/>
    <use xlink:href="#MicrosoftYaHei-5f84" x="1667.1875"/>
    <use xlink:href="#MicrosoftYaHei-4e0b" x="1767.1875"/>
    <use xlink:href="#MicrosoftYaHei-6570" x="1867.1875"/>
    <use xlink:href="#MicrosoftYaHei-503c" x="1967.1875"/>
    <use xlink:href="#MicrosoftYaHei-91cd" x="2067.1875"/>
    <use xlink:href="#MicrosoftYaHei-5408" x="2167.1875"/>
    <use xlink:href="#MicrosoftYaHei-ff0c" x="2267.1875"/>
    <use xlink:href="#MicrosoftYaHei-4ee5" x="2367.1875"/>
    <use xlink:href="#MicrosoftYaHei-989c" x="2467.1875"/>
    <use xlink:href="#MicrosoftYaHei-8272" x="2567.1875"/>
    <use xlink:href="#MicrosoftYaHei-548c" x="2667.1875"/>
    <use xlink:href="#MicrosoftYaHei-7ebf" x="2767.1875"/>
    <use xlink:href="#MicrosoftYaHei-578b" x="2867.1875"/>
    <use xlink:href="#MicrosoftYaHei-533a" x="2967.1875"/>
    <use xlink:href="#MicrosoftYaHei-5206" x="3067.1875"/>
    <use xlink:href="#MicrosoftYaHei-3002" x="3167.1875"/>
   </g>
  </g>
 </g>
 <defs>
  <clipPath id="p9d5f0f3600">
   <rect x="42.815625" y="22.7925" width="502.2" height="221.76"/>
  </clipPath>
 </defs>
</svg>
