<?xml version="1.0" encoding="utf-8" standalone="no"?>
<!DOCTYPE svg PUBLIC "-//W3C//DTD SVG 1.1//EN"
  "http://www.w3.org/Graphics/SVG/1.1/DTD/svg11.dtd">
<svg xmlns:xlink="http://www.w3.org/1999/xlink" width="361.935681pt" height="364.646588pt" viewBox="0 0 361.935681 364.646588" xmlns="http://www.w3.org/2000/svg" version="1.1">
 <metadata>
  <rdf:RDF xmlns:dc="http://purl.org/dc/elements/1.1/" xmlns:cc="http://creativecommons.org/ns#" xmlns:rdf="http://www.w3.org/1999/02/22-rdf-syntax-ns#">
   <cc:Work>
    <dc:type rdf:resource="http://purl.org/dc/dcmitype/StillImage"/>
    <dc:date>2026-07-22T20:44:05.807748</dc:date>
    <dc:format>image/svg+xml</dc:format>
    <dc:creator>
     <cc:Agent>
      <dc:title>Matplotlib v3.9.2, https://matplotlib.org/</dc:title>
     </cc:Agent>
    </dc:creator>
   </cc:Work>
  </rdf:RDF>
 </metadata>
 <defs>
  <style type="text/css">*{stroke-linejoin: round; stroke-linecap: butt}</style>
 </defs>
 <g id="figure_1">
  <g id="patch_1">
   <path d="M 0 364.646588 
L 361.935681 364.646588 
L 361.935681 0 
L 0 0 
z
" style="fill: #ffffff"/>
  </g>
  <g id="patch_2">
   <path d="M 7.2 355.4325 
L 339.84 355.4325 
L 339.84 22.7925 
L 7.2 22.7925 
z
" style="fill: #ffffff"/>
  </g>
  <g id="pane3d_1">
   <g id="patch_3">
    <path d="M 32.316614 273.414136 
L 142.165206 181.336869 
L 140.638205 48.544989 
L 25.532792 132.543676 
" style="fill: #f2f2f2; opacity: 0.5; stroke: #f2f2f2; stroke-linejoin: miter"/>
   </g>
  </g>
  <g id="pane3d_2">
   <g id="patch_4">
    <path d="M 142.165206 181.336869 
L 318.433001 232.570958 
L 324.723377 95.205214 
L 140.638205 48.544989 
" style="fill: #e6e6e6; opacity: 0.5; stroke: #e6e6e6; stroke-linejoin: miter"/>
   </g>
  </g>
  <g id="pane3d_3">
   <g id="patch_5">
    <path d="M 32.316614 273.414136 
L 219.169086 334.440153 
L 318.433001 232.570958 
L 142.165206 181.336869 
" style="fill: #ececec; opacity: 0.5; stroke: #ececec; stroke-linejoin: miter"/>
   </g>
  </g>
  <g id="grid3d_1">
   <g id="Line3DCollection_1">
    <path d="M 43.687684 277.127928 
L 152.9367 184.467717 
L 151.865133 51.390688 
" style="fill: none; stroke: #b0b0b0; stroke-width: 0.8"/>
    <path d="M 63.25529 283.518708 
L 171.458972 189.85141 
L 171.17732 56.285764 
" style="fill: none; stroke: #b0b0b0; stroke-width: 0.8"/>
    <path d="M 83.045364 289.982146 
L 190.174388 195.291243 
L 190.699588 61.23409 
" style="fill: none; stroke: #b0b0b0; stroke-width: 0.8"/>
    <path d="M 103.061722 296.519489 
L 209.085987 200.788098 
L 210.435383 66.236539 
" style="fill: none; stroke: #b0b0b0; stroke-width: 0.8"/>
    <path d="M 123.308267 303.13201 
L 228.196869 206.342877 
L 230.388228 71.294003 
" style="fill: none; stroke: #b0b0b0; stroke-width: 0.8"/>
    <path d="M 143.788993 309.821015 
L 247.5102 211.9565 
L 250.561722 76.407396 
" style="fill: none; stroke: #b0b0b0; stroke-width: 0.8"/>
    <path d="M 164.507986 316.587838 
L 267.029215 217.629907 
L 270.959547 81.57765 
" style="fill: none; stroke: #b0b0b0; stroke-width: 0.8"/>
    <path d="M 185.469428 323.433845 
L 286.757216 223.364058 
L 291.585465 86.805719 
" style="fill: none; stroke: #b0b0b0; stroke-width: 0.8"/>
    <path d="M 206.677601 330.360434 
L 306.697579 229.159934 
L 312.443324 92.092578 
" style="fill: none; stroke: #b0b0b0; stroke-width: 0.8"/>
   </g>
  </g>
  <g id="grid3d_2">
   <g id="Line3DCollection_2">
    <path d="M 33.492616 126.734959 
L 39.88611 267.069234 
L 226.037381 327.391593 
" style="fill: none; stroke: #b0b0b0; stroke-width: 0.8"/>
    <path d="M 54.851541 111.148189 
L 60.217278 250.027247 
L 244.464457 308.48088 
" style="fill: none; stroke: #b0b0b0; stroke-width: 0.8"/>
    <path d="M 75.541831 96.049357 
L 79.939298 233.495858 
L 262.310651 290.166295 
" style="fill: none; stroke: #b0b0b0; stroke-width: 0.8"/>
    <path d="M 95.594401 81.415905 
L 99.079142 217.452462 
L 279.603003 272.420087 
" style="fill: none; stroke: #b0b0b0; stroke-width: 0.8"/>
    <path d="M 115.038286 67.226643 
L 117.662214 201.875762 
L 296.366902 255.216204 
" style="fill: none; stroke: #b0b0b0; stroke-width: 0.8"/>
    <path d="M 133.900787 53.461649 
L 135.712459 186.745689 
L 312.626206 238.530158 
" style="fill: none; stroke: #b0b0b0; stroke-width: 0.8"/>
   </g>
  </g>
  <g id="grid3d_3">
   <g id="Line3DCollection_3">
    <path d="M 318.817182 224.181416 
L 142.07176 173.210583 
L 31.902951 264.824156 
" style="fill: none; stroke: #b0b0b0; stroke-width: 0.8"/>
    <path d="M 320.086424 196.464423 
L 141.763209 146.378228 
L 30.535704 236.432392 
" style="fill: none; stroke: #b0b0b0; stroke-width: 0.8"/>
    <path d="M 321.378756 168.243182 
L 141.449315 119.081208 
L 29.142628 207.504256 
" style="fill: none; stroke: #b0b0b0; stroke-width: 0.8"/>
    <path d="M 322.694816 139.503807 
L 141.129938 91.307346 
L 27.722983 178.024405 
" style="fill: none; stroke: #b0b0b0; stroke-width: 0.8"/>
    <path d="M 324.035262 110.231895 
L 140.804932 63.044038 
L 26.276001 147.976901 
" style="fill: none; stroke: #b0b0b0; stroke-width: 0.8"/>
   </g>
  </g>
  <g id="axis3d_1">
   <g id="line2d_1">
    <path d="M 32.316614 273.414136 
L 219.169086 334.440153 
" style="fill: none; stroke: #000000; stroke-width: 0.8; stroke-linecap: square"/>
   </g>
   <g id="xtick_1">
    <g id="line2d_2">
     <path d="M 44.639019 276.321047 
L 41.780931 278.745152 
" style="fill: none; stroke: #000000; stroke-width: 0.8; stroke-linecap: square"/>
    </g>
    <g id="text_1">
     <!-- 0 -->
     <g transform="translate(33.23224 300.821017) scale(0.1 -0.1)">
      <defs>
       <path id="MicrosoftYaHei-30" d="M 284 2325 
Q 284 3606 709 4264 
Q 1134 4922 1941 4922 
Q 3478 4922 3478 2441 
Q 3478 1216 3045 567 
Q 2613 -81 1831 -81 
Q 1094 -81 689 534 
Q 284 1150 284 2325 
z
M 909 2353 
Q 909 425 1888 425 
Q 2850 425 2850 2384 
Q 2850 4413 1906 4413 
Q 909 4413 909 2353 
z
" transform="scale(0.015625)"/>
      </defs>
      <use xlink:href="#MicrosoftYaHei-30"/>
     </g>
    </g>
   </g>
   <g id="xtick_2">
    <g id="line2d_3">
     <path d="M 64.197956 282.702683 
L 61.365891 285.15428 
" style="fill: none; stroke: #000000; stroke-width: 0.8; stroke-linecap: square"/>
    </g>
    <g id="text_2">
     <!-- 2500 -->
     <g transform="translate(44.019577 307.319902) scale(0.1 -0.1)">
      <defs>
       <path id="MicrosoftYaHei-32" d="M 2666 3572 
Q 2666 3963 2419 4186 
Q 2172 4409 1747 4409 
Q 1447 4409 1140 4256 
Q 834 4103 569 3819 
L 569 4413 
Q 806 4659 1107 4790 
Q 1409 4922 1816 4922 
Q 2472 4922 2872 4570 
Q 3272 4219 3272 3619 
Q 3272 3084 3026 2693 
Q 2781 2303 2188 1894 
Q 1581 1475 1376 1294 
Q 1172 1113 1090 947 
Q 1009 781 1009 544 
L 3416 544 
L 3416 0 
L 372 0 
L 372 241 
Q 372 659 486 951 
Q 600 1244 862 1520 
Q 1125 1797 1681 2184 
Q 2250 2584 2458 2886 
Q 2666 3188 2666 3572 
z
" transform="scale(0.015625)"/>
       <path id="MicrosoftYaHei-35" d="M 3294 1494 
Q 3294 784 2823 350 
Q 2353 -84 1559 -84 
Q 878 -84 544 119 
L 544 744 
Q 1034 425 1544 425 
Q 2050 425 2361 704 
Q 2672 984 2672 1447 
Q 2672 1909 2348 2167 
Q 2025 2425 1434 2425 
Q 978 2425 613 2384 
L 791 4841 
L 3053 4841 
L 3053 4303 
L 1306 4303 
L 1206 2931 
L 1647 2950 
Q 2416 2950 2855 2567 
Q 3294 2184 3294 1494 
z
" transform="scale(0.015625)"/>
      </defs>
      <use xlink:href="#MicrosoftYaHei-32"/>
      <use xlink:href="#MicrosoftYaHei-35" x="58.642578"/>
      <use xlink:href="#MicrosoftYaHei-30" x="117.285156"/>
      <use xlink:href="#MicrosoftYaHei-30" x="175.927734"/>
     </g>
    </g>
   </g>
   <g id="xtick_3">
    <g id="line2d_4">
     <path d="M 83.979101 289.15682 
L 81.173839 291.636379 
" style="fill: none; stroke: #000000; stroke-width: 0.8; stroke-linecap: square"/>
    </g>
    <g id="text_3">
     <!-- 5000 -->
     <g transform="translate(63.826325 313.892895) scale(0.1 -0.1)">
      <use xlink:href="#MicrosoftYaHei-35"/>
      <use xlink:href="#MicrosoftYaHei-30" x="58.642578"/>
      <use xlink:href="#MicrosoftYaHei-30" x="117.285156"/>
      <use xlink:href="#MicrosoftYaHei-30" x="175.927734"/>
     </g>
    </g>
   </g>
   <g id="xtick_4">
    <g id="line2d_5">
     <path d="M 103.986263 295.684702 
L 101.208605 298.192705 
" style="fill: none; stroke: #000000; stroke-width: 0.8; stroke-linecap: square"/>
    </g>
    <g id="text_4">
     <!-- 7500 -->
     <g transform="translate(83.860232 320.541272) scale(0.1 -0.1)">
      <defs>
       <path id="MicrosoftYaHei-37" d="M 3422 4463 
Q 2659 3131 2223 1998 
Q 1788 866 1684 0 
L 1047 0 
Q 1163 853 1594 1947 
Q 2025 3041 2747 4300 
L 347 4300 
L 347 4841 
L 3422 4841 
L 3422 4463 
z
" transform="scale(0.015625)"/>
      </defs>
      <use xlink:href="#MicrosoftYaHei-37"/>
      <use xlink:href="#MicrosoftYaHei-35" x="58.642578"/>
      <use xlink:href="#MicrosoftYaHei-30" x="117.285156"/>
      <use xlink:href="#MicrosoftYaHei-30" x="175.927734"/>
     </g>
    </g>
   </g>
   <g id="xtick_5">
    <g id="line2d_6">
     <path d="M 124.223339 302.2876 
L 121.474106 304.824537 
" style="fill: none; stroke: #000000; stroke-width: 0.8; stroke-linecap: square"/>
    </g>
    <g id="text_5">
     <!-- 10000 -->
     <g transform="translate(101.193197 327.266338) scale(0.1 -0.1)">
      <defs>
       <path id="MicrosoftYaHei-31" d="M 1781 0 
L 1781 4141 
Q 1638 3997 1295 3819 
Q 953 3641 663 3569 
L 663 4169 
Q 1047 4275 1484 4508 
Q 1922 4741 2156 4947 
L 2388 4947 
L 2388 0 
L 1781 0 
z
" transform="scale(0.015625)"/>
      </defs>
      <use xlink:href="#MicrosoftYaHei-31"/>
      <use xlink:href="#MicrosoftYaHei-30" x="58.642578"/>
      <use xlink:href="#MicrosoftYaHei-30" x="117.285156"/>
      <use xlink:href="#MicrosoftYaHei-30" x="175.927734"/>
      <use xlink:href="#MicrosoftYaHei-30" x="234.570312"/>
     </g>
    </g>
   </g>
   <g id="xtick_6">
    <g id="line2d_7">
     <path d="M 144.694314 308.966813 
L 141.974353 311.53319 
" style="fill: none; stroke: #000000; stroke-width: 0.8; stroke-linecap: square"/>
    </g>
    <g id="text_6">
     <!-- 12500 -->
     <g transform="translate(121.693304 334.069427) scale(0.1 -0.1)">
      <use xlink:href="#MicrosoftYaHei-31"/>
      <use xlink:href="#MicrosoftYaHei-32" x="58.642578"/>
      <use xlink:href="#MicrosoftYaHei-35" x="117.285156"/>
      <use xlink:href="#MicrosoftYaHei-30" x="175.927734"/>
      <use xlink:href="#MicrosoftYaHei-30" x="234.570312"/>
     </g>
    </g>
   </g>
   <g id="xtick_7">
    <g id="line2d_8">
     <path d="M 165.403267 315.723674 
L 162.713447 318.320005 
" style="fill: none; stroke: #000000; stroke-width: 0.8; stroke-linecap: square"/>
    </g>
    <g id="text_7">
     <!-- 15000 -->
     <g transform="translate(142.432637 340.951905) scale(0.1 -0.1)">
      <use xlink:href="#MicrosoftYaHei-31"/>
      <use xlink:href="#MicrosoftYaHei-35" x="58.642578"/>
      <use xlink:href="#MicrosoftYaHei-30" x="117.285156"/>
      <use xlink:href="#MicrosoftYaHei-30" x="175.927734"/>
      <use xlink:href="#MicrosoftYaHei-30" x="234.570312"/>
     </g>
    </g>
   </g>
   <g id="xtick_8">
    <g id="line2d_9">
     <path d="M 186.354372 322.559543 
L 183.695587 325.186356 
" style="fill: none; stroke: #000000; stroke-width: 0.8; stroke-linecap: square"/>
    </g>
    <g id="text_8">
     <!-- 17500 -->
     <g transform="translate(163.415409 347.915169) scale(0.1 -0.1)">
      <use xlink:href="#MicrosoftYaHei-31"/>
      <use xlink:href="#MicrosoftYaHei-37" x="58.642578"/>
      <use xlink:href="#MicrosoftYaHei-35" x="117.285156"/>
      <use xlink:href="#MicrosoftYaHei-30" x="175.927734"/>
      <use xlink:href="#MicrosoftYaHei-30" x="234.570312"/>
     </g>
    </g>
   </g>
   <g id="xtick_9">
    <g id="line2d_10">
     <path d="M 207.551902 329.475814 
L 204.925071 332.13365 
" style="fill: none; stroke: #000000; stroke-width: 0.8; stroke-linecap: square"/>
    </g>
    <g id="text_9">
     <!-- 20000 -->
     <g transform="translate(184.645931 354.960651) scale(0.1 -0.1)">
      <use xlink:href="#MicrosoftYaHei-32"/>
      <use xlink:href="#MicrosoftYaHei-30" x="58.642578"/>
      <use xlink:href="#MicrosoftYaHei-30" x="117.285156"/>
      <use xlink:href="#MicrosoftYaHei-30" x="175.927734"/>
      <use xlink:href="#MicrosoftYaHei-30" x="234.570312"/>
     </g>
    </g>
   </g>
   <g id="text_10">
    <!-- x / m -->
    <g transform="translate(94.454113 337.130815) rotate(-341.912962) scale(0.1 -0.1)">
     <defs>
      <path id="MicrosoftYaHei-78" d="M 3163 3456 
L 2006 1716 
L 3147 0 
L 2434 0 
L 1775 1100 
Q 1722 1188 1625 1369 
L 1613 1369 
Q 1609 1350 1456 1100 
L 784 0 
L 81 0 
L 1256 1697 
L 134 3456 
L 847 3456 
L 1494 2300 
Q 1553 2194 1638 2025 
L 1650 2025 
L 2491 3456 
L 3163 3456 
z
" transform="scale(0.015625)"/>
      <path id="MicrosoftYaHei-20" transform="scale(0.015625)"/>
      <path id="MicrosoftYaHei-2f" d="M 2791 4841 
L 469 -803 
L -103 -803 
L 2219 4841 
L 2791 4841 
z
" transform="scale(0.015625)"/>
      <path id="MicrosoftYaHei-6d" d="M 5522 0 
L 4909 0 
L 4909 1984 
Q 4909 2547 4734 2789 
Q 4559 3031 4159 3031 
Q 3822 3031 3581 2715 
Q 3341 2400 3341 1969 
L 3341 0 
L 2728 0 
L 2728 2047 
Q 2728 3031 1969 3031 
Q 1619 3031 1389 2731 
Q 1159 2431 1159 1966 
L 1159 0 
L 547 0 
L 547 3456 
L 1159 3456 
L 1159 2909 
L 1172 2909 
Q 1541 3538 2250 3538 
Q 2597 3538 2862 3347 
Q 3128 3156 3231 2831 
Q 3616 3538 4381 3538 
Q 5522 3538 5522 2131 
L 5522 0 
z
" transform="scale(0.015625)"/>
     </defs>
     <use xlink:href="#MicrosoftYaHei-78"/>
     <use xlink:href="#MicrosoftYaHei-20" x="50.683594"/>
     <use xlink:href="#MicrosoftYaHei-2f" x="80.273438"/>
     <use xlink:href="#MicrosoftYaHei-20" x="122.998047"/>
     <use xlink:href="#MicrosoftYaHei-6d" x="152.587891"/>
    </g>
   </g>
  </g>
  <g id="axis3d_2">
   <g id="line2d_11">
    <path d="M 318.433001 232.570958 
L 219.169086 334.440153 
" style="fill: none; stroke: #000000; stroke-width: 0.8; stroke-linecap: square"/>
   </g>
   <g id="xtick_10">
    <g id="line2d_12">
     <path d="M 224.468678 326.883255 
L 229.178842 328.409585 
" style="fill: none; stroke: #000000; stroke-width: 0.8; stroke-linecap: square"/>
    </g>
    <g id="text_11">
     <!-- -3000 -->
     <g transform="translate(225.025066 348.807029) scale(0.1 -0.1)">
      <defs>
       <path id="MicrosoftYaHei-2d" d="M 2328 1681 
L 488 1681 
L 488 2153 
L 2328 2153 
L 2328 1681 
z
" transform="scale(0.015625)"/>
       <path id="MicrosoftYaHei-33" d="M 447 809 
Q 944 425 1569 425 
Q 2069 425 2361 670 
Q 2653 916 2653 1328 
Q 2653 2247 1338 2247 
L 934 2247 
L 934 2753 
L 1319 2753 
Q 2484 2753 2484 3616 
Q 2484 4413 1594 4413 
Q 1084 4413 634 4069 
L 634 4647 
Q 1109 4922 1744 4922 
Q 2363 4922 2738 4598 
Q 3113 4275 3113 3759 
Q 3113 2809 2144 2538 
L 2144 2525 
Q 2669 2469 2973 2155 
Q 3278 1841 3278 1372 
Q 3278 719 2808 319 
Q 2338 -81 1556 -81 
Q 869 -81 447 175 
L 447 809 
z
" transform="scale(0.015625)"/>
      </defs>
      <use xlink:href="#MicrosoftYaHei-2d"/>
      <use xlink:href="#MicrosoftYaHei-33" x="43.261719"/>
      <use xlink:href="#MicrosoftYaHei-30" x="101.904297"/>
      <use xlink:href="#MicrosoftYaHei-30" x="160.546875"/>
      <use xlink:href="#MicrosoftYaHei-30" x="219.189453"/>
     </g>
    </g>
   </g>
   <g id="xtick_11">
    <g id="line2d_13">
     <path d="M 242.91306 307.988689 
L 247.571199 309.466514 
" style="fill: none; stroke: #000000; stroke-width: 0.8; stroke-linecap: square"/>
    </g>
    <g id="text_12">
     <!-- -2000 -->
     <g transform="translate(243.254483 329.672365) scale(0.1 -0.1)">
      <use xlink:href="#MicrosoftYaHei-2d"/>
      <use xlink:href="#MicrosoftYaHei-32" x="43.261719"/>
      <use xlink:href="#MicrosoftYaHei-30" x="101.904297"/>
      <use xlink:href="#MicrosoftYaHei-30" x="160.546875"/>
      <use xlink:href="#MicrosoftYaHei-30" x="219.189453"/>
     </g>
    </g>
   </g>
   <g id="xtick_12">
    <g id="line2d_14">
     <path d="M 260.776256 289.689494 
L 265.383284 291.121091 
" style="fill: none; stroke: #000000; stroke-width: 0.8; stroke-linecap: square"/>
    </g>
    <g id="text_13">
     <!-- -1000 -->
     <g transform="translate(260.908982 311.14117) scale(0.1 -0.1)">
      <use xlink:href="#MicrosoftYaHei-2d"/>
      <use xlink:href="#MicrosoftYaHei-31" x="43.261719"/>
      <use xlink:href="#MicrosoftYaHei-30" x="101.904297"/>
      <use xlink:href="#MicrosoftYaHei-30" x="160.546875"/>
      <use xlink:href="#MicrosoftYaHei-30" x="219.189453"/>
     </g>
    </g>
   </g>
   <g id="xtick_13">
    <g id="line2d_15">
     <path d="M 278.08531 271.957966 
L 282.642131 273.34547 
" style="fill: none; stroke: #000000; stroke-width: 0.8; stroke-linecap: square"/>
    </g>
    <g id="text_14">
     <!-- 0 -->
     <g transform="translate(288.974713 293.185338) scale(0.1 -0.1)">
      <use xlink:href="#MicrosoftYaHei-30"/>
     </g>
    </g>
   </g>
   <g id="xtick_14">
    <g id="line2d_16">
     <path d="M 294.865614 254.768094 
L 299.373122 256.113512 
" style="fill: none; stroke: #000000; stroke-width: 0.8; stroke-linecap: square"/>
    </g>
    <g id="text_15">
     <!-- 1000 -->
     <g transform="translate(296.76197 275.778482) scale(0.1 -0.1)">
      <use xlink:href="#MicrosoftYaHei-31"/>
      <use xlink:href="#MicrosoftYaHei-30" x="58.642578"/>
      <use xlink:href="#MicrosoftYaHei-30" x="117.285156"/>
      <use xlink:href="#MicrosoftYaHei-30" x="175.927734"/>
     </g>
    </g>
   </g>
   <g id="xtick_15">
    <g id="line2d_17">
     <path d="M 311.141031 238.095432 
L 315.600107 239.400649 
" style="fill: none; stroke: #000000; stroke-width: 0.8; stroke-linecap: square"/>
    </g>
    <g id="text_16">
     <!-- 2000 -->
     <g transform="translate(312.845941 258.895806) scale(0.1 -0.1)">
      <use xlink:href="#MicrosoftYaHei-32"/>
      <use xlink:href="#MicrosoftYaHei-30" x="58.642578"/>
      <use xlink:href="#MicrosoftYaHei-30" x="117.285156"/>
      <use xlink:href="#MicrosoftYaHei-30" x="175.927734"/>
     </g>
    </g>
   </g>
   <g id="text_17">
    <!-- y / m -->
    <g transform="translate(291.24497 320.011185) rotate(-45.742112) scale(0.1 -0.1)">
     <defs>
      <path id="MicrosoftYaHei-79" d="M 3359 3456 
L 1791 -522 
Q 1353 -1628 556 -1628 
Q 328 -1628 166 -1578 
L 166 -1041 
Q 344 -1109 509 -1109 
Q 925 -1109 1131 -622 
L 1397 6 
L 41 3456 
L 719 3456 
L 1622 859 
L 1697 575 
L 1713 575 
Q 1731 672 1788 853 
L 2731 3456 
L 3359 3456 
z
" transform="scale(0.015625)"/>
     </defs>
     <use xlink:href="#MicrosoftYaHei-79"/>
     <use xlink:href="#MicrosoftYaHei-20" x="52.929688"/>
     <use xlink:href="#MicrosoftYaHei-2f" x="82.519531"/>
     <use xlink:href="#MicrosoftYaHei-20" x="125.244141"/>
     <use xlink:href="#MicrosoftYaHei-6d" x="154.833984"/>
    </g>
   </g>
  </g>
  <g id="axis3d_3">
   <g id="line2d_18">
    <path d="M 318.433001 232.570958 
L 324.723377 95.205214 
" style="fill: none; stroke: #000000; stroke-width: 0.8; stroke-linecap: square"/>
   </g>
   <g id="xtick_16">
    <g id="line2d_19">
     <path d="M 317.333611 223.753575 
L 321.787862 225.038117 
" style="fill: none; stroke: #000000; stroke-width: 0.8; stroke-linecap: square"/>
    </g>
    <g id="text_18">
     <!-- 0 -->
     <g transform="translate(334.193653 229.581681) scale(0.1 -0.1)">
      <use xlink:href="#MicrosoftYaHei-30"/>
     </g>
    </g>
   </g>
   <g id="xtick_17">
    <g id="line2d_20">
     <path d="M 318.588976 196.04383 
L 323.084922 197.30662 
" style="fill: none; stroke: #000000; stroke-width: 0.8; stroke-linecap: square"/>
    </g>
    <g id="text_19">
     <!-- 500 -->
     <g transform="translate(329.760389 201.908669) scale(0.1 -0.1)">
      <use xlink:href="#MicrosoftYaHei-35"/>
      <use xlink:href="#MicrosoftYaHei-30" x="58.642578"/>
      <use xlink:href="#MicrosoftYaHei-30" x="117.285156"/>
     </g>
    </g>
   </g>
   <g id="xtick_18">
    <g id="line2d_21">
     <path d="M 319.867171 167.830173 
L 324.405598 169.070204 
" style="fill: none; stroke: #000000; stroke-width: 0.8; stroke-linecap: square"/>
    </g>
    <g id="text_20">
     <!-- 1000 -->
     <g transform="translate(328.285122 173.733443) scale(0.1 -0.1)">
      <use xlink:href="#MicrosoftYaHei-31"/>
      <use xlink:href="#MicrosoftYaHei-30" x="58.642578"/>
      <use xlink:href="#MicrosoftYaHei-30" x="117.285156"/>
      <use xlink:href="#MicrosoftYaHei-30" x="175.927734"/>
     </g>
    </g>
   </g>
   <g id="xtick_19">
    <g id="line2d_22">
     <path d="M 321.168823 139.098731 
L 325.750541 140.31495 
" style="fill: none; stroke: #000000; stroke-width: 0.8; stroke-linecap: square"/>
    </g>
    <g id="text_21">
     <!-- 1500 -->
     <g transform="translate(329.768567 145.042205) scale(0.1 -0.1)">
      <use xlink:href="#MicrosoftYaHei-31"/>
      <use xlink:href="#MicrosoftYaHei-35" x="58.642578"/>
      <use xlink:href="#MicrosoftYaHei-30" x="117.285156"/>
      <use xlink:href="#MicrosoftYaHei-30" x="175.927734"/>
     </g>
    </g>
   </g>
   <g id="xtick_20">
    <g id="line2d_23">
     <path d="M 322.494584 109.83512 
L 327.120426 111.026427 
" style="fill: none; stroke: #000000; stroke-width: 0.8; stroke-linecap: square"/>
    </g>
    <g id="text_22">
     <!-- 2000 -->
     <g transform="translate(331.279431 115.820651) scale(0.1 -0.1)">
      <use xlink:href="#MicrosoftYaHei-32"/>
      <use xlink:href="#MicrosoftYaHei-30" x="58.642578"/>
      <use xlink:href="#MicrosoftYaHei-30" x="117.285156"/>
      <use xlink:href="#MicrosoftYaHei-30" x="175.927734"/>
     </g>
    </g>
   </g>
   <g id="text_23">
    <!-- z / m -->
    <g transform="translate(364.129895 172.328501) rotate(-87.378092) scale(0.1 -0.1)">
     <defs>
      <path id="MicrosoftYaHei-7a" d="M 2978 0 
L 109 0 
L 109 203 
L 2119 2950 
L 297 2950 
L 297 3456 
L 2991 3456 
L 2991 3256 
L 994 506 
L 2978 506 
L 2978 0 
z
" transform="scale(0.015625)"/>
     </defs>
     <use xlink:href="#MicrosoftYaHei-7a"/>
     <use xlink:href="#MicrosoftYaHei-20" x="49.169922"/>
     <use xlink:href="#MicrosoftYaHei-2f" x="78.759766"/>
     <use xlink:href="#MicrosoftYaHei-20" x="121.484375"/>
     <use xlink:href="#MicrosoftYaHei-6d" x="151.074219"/>
    </g>
   </g>
  </g>
  <g id="axes_1">
   <g id="line2d_24">
    <path d="M 271.261524 143.665069 
L 109.909004 212.475757 
" clip-path="url(#pc3ae86b622)" style="fill: none; stroke: #dc2626; stroke-opacity: 0.45; stroke-width: 1.5; stroke-linecap: square"/>
   </g>
   <g id="line2d_25">
    <path d="M 273.526404 125.842357 
L 109.909004 212.475757 
" clip-path="url(#pc3ae86b622)" style="fill: none; stroke: #dc2626; stroke-opacity: 0.45; stroke-width: 1.5; stroke-linecap: square"/>
   </g>
   <g id="line2d_26">
    <path d="M 243.167353 154.750168 
L 109.909004 212.475757 
" clip-path="url(#pc3ae86b622)" style="fill: none; stroke: #dc2626; stroke-opacity: 0.45; stroke-width: 1.5; stroke-linecap: square"/>
   </g>
   <g id="Line3DCollection_4">
    <path d="M 113.712033 209.335991 
L 113.732341 209.31812 
L 113.750755 209.300301 
L 113.766798 209.282996 
L 113.780055 209.266652 
L 113.790183 209.251693 
L 113.796919 209.238506 
L 113.800089 209.227432 
L 113.799611 209.218758 
L 113.795498 209.212709 
L 113.787856 209.209441 
L 113.776883 209.209039 
L 113.762863 209.211513 
L 113.74616 209.216799 
L 113.727205 209.224761 
L 113.706489 209.235191 
L 113.68455 209.247821 
L 113.661954 209.262323 
L 113.639286 209.278322 
L 113.617135 209.295403 
L 113.596073 209.313125 
L 113.576647 209.331028 
L 113.559358 209.348648 
L 113.544656 209.36553 
L 113.532921 209.381235 
L 113.524457 209.395358 
L 113.519484 209.407532 
L 113.518131 209.417441 
L 113.520432 209.424829 
L 113.526329 209.429504 
L 113.535668 209.431346 
L 113.548208 209.430307 
L 113.563623 209.426412 
L 113.581515 209.419764 
L 113.60142 209.410535 
L 113.622821 209.398964 
L 113.645165 209.38535 
L 113.667873 209.370047 
L 113.690356 209.35345 
L 113.712033 209.335991 
" clip-path="url(#pc3ae86b622)" style="fill: none; stroke: #2563eb; stroke-opacity: 0.55; stroke-width: 0.5"/>
    <path d="M 113.710414 209.258212 
L 113.730723 209.240342 
L 113.749137 209.222524 
L 113.765181 209.20522 
L 113.778438 209.188877 
L 113.788566 209.173919 
L 113.795302 209.160732 
L 113.798472 209.149659 
L 113.797995 209.140986 
L 113.793881 209.134937 
L 113.786239 209.131669 
L 113.775266 209.131267 
L 113.761246 209.133741 
L 113.744542 209.139027 
L 113.725587 209.146988 
L 113.704871 209.157418 
L 113.68293 209.170047 
L 113.660334 209.184548 
L 113.637666 209.200546 
L 113.615514 209.217627 
L 113.594452 209.235348 
L 113.575024 209.25325 
L 113.557735 209.270869 
L 113.543033 209.28775 
L 113.531298 209.303455 
L 113.522834 209.317577 
L 113.517861 209.32975 
L 113.516507 209.339658 
L 113.518809 209.347046 
L 113.524705 209.351722 
L 113.534045 209.353563 
L 113.546585 209.352524 
L 113.562001 209.34863 
L 113.579893 209.341982 
L 113.599798 209.332753 
L 113.6212 209.321182 
L 113.643545 209.307569 
L 113.666253 209.292267 
L 113.688737 209.275671 
L 113.710414 209.258212 
" clip-path="url(#pc3ae86b622)" style="fill: none; stroke: #2563eb; stroke-opacity: 0.55; stroke-width: 0.5"/>
    <path d="M 113.708795 209.18043 
L 113.729104 209.162561 
L 113.747519 209.144744 
L 113.763564 209.12744 
L 113.776821 209.111098 
L 113.786949 209.09614 
L 113.793686 209.082954 
L 113.796856 209.071882 
L 113.796378 209.063209 
L 113.792265 209.05716 
L 113.784622 209.053893 
L 113.773649 209.053491 
L 113.759629 209.055964 
L 113.742924 209.06125 
L 113.723968 209.069211 
L 113.703252 209.07964 
L 113.681311 209.092269 
L 113.658714 209.106769 
L 113.636045 209.122767 
L 113.613893 209.139846 
L 113.59283 209.157566 
L 113.573402 209.175467 
L 113.556113 209.193086 
L 113.54141 209.209966 
L 113.529674 209.22567 
L 113.52121 209.239791 
L 113.516237 209.251964 
L 113.514883 209.261872 
L 113.517185 209.26926 
L 113.523082 209.273935 
L 113.532421 209.275776 
L 113.544962 209.274737 
L 113.560378 209.270843 
L 113.578271 209.264196 
L 113.598176 209.254967 
L 113.619579 209.243397 
L 113.641924 209.229785 
L 113.664633 209.214483 
L 113.687117 209.197888 
L 113.708795 209.18043 
" clip-path="url(#pc3ae86b622)" style="fill: none; stroke: #2563eb; stroke-opacity: 0.55; stroke-width: 0.5"/>
    <path d="M 113.707176 209.102644 
L 113.727486 209.084775 
L 113.745902 209.066959 
L 113.761946 209.049656 
L 113.775204 209.033315 
L 113.785332 209.018358 
L 113.792069 209.005173 
L 113.795239 208.994101 
L 113.794761 208.985428 
L 113.790648 208.97938 
L 113.783006 208.976113 
L 113.772032 208.97571 
L 113.758011 208.978184 
L 113.741306 208.983469 
L 113.72235 208.99143 
L 113.701633 209.001859 
L 113.679691 209.014487 
L 113.657094 209.028987 
L 113.634425 209.044983 
L 113.612271 209.062062 
L 113.591208 209.079781 
L 113.57178 209.097681 
L 113.55449 209.115299 
L 113.539787 209.132179 
L 113.528051 209.147882 
L 113.519586 209.162002 
L 113.514613 209.174174 
L 113.513259 209.184082 
L 113.515561 209.191469 
L 113.521458 209.196144 
L 113.530798 209.197985 
L 113.543339 209.196946 
L 113.558755 209.193052 
L 113.576648 209.186405 
L 113.596554 209.177177 
L 113.617957 209.165608 
L 113.640303 209.151996 
L 113.663013 209.136695 
L 113.685498 209.120101 
L 113.707176 209.102644 
" clip-path="url(#pc3ae86b622)" style="fill: none; stroke: #2563eb; stroke-opacity: 0.55; stroke-width: 0.5"/>
    <path d="M 113.705557 209.024853 
L 113.725867 209.006986 
L 113.744284 208.989171 
L 113.760328 208.971869 
L 113.773587 208.955528 
L 113.783715 208.940572 
L 113.790452 208.927387 
L 113.793623 208.916316 
L 113.793145 208.907644 
L 113.789031 208.901596 
L 113.781389 208.898328 
L 113.770415 208.897926 
L 113.756394 208.9004 
L 113.739688 208.905685 
L 113.720732 208.913645 
L 113.700014 208.924073 
L 113.678072 208.936701 
L 113.655473 208.9512 
L 113.632804 208.967196 
L 113.61065 208.984274 
L 113.589586 209.001992 
L 113.570157 209.019891 
L 113.552867 209.037509 
L 113.538163 209.054387 
L 113.526427 209.070089 
L 113.517963 209.084209 
L 113.512989 209.096381 
L 113.511635 209.106288 
L 113.513937 209.113675 
L 113.519834 209.118349 
L 113.529174 209.120191 
L 113.541715 209.119151 
L 113.557132 209.115258 
L 113.575026 209.108611 
L 113.594932 209.099384 
L 113.616336 209.087815 
L 113.638682 209.074203 
L 113.661393 209.058903 
L 113.683878 209.04231 
L 113.705557 209.024853 
" clip-path="url(#pc3ae86b622)" style="fill: none; stroke: #2563eb; stroke-opacity: 0.55; stroke-width: 0.5"/>
    <path d="M 113.703938 208.947059 
L 113.724249 208.929193 
L 113.742665 208.911378 
L 113.758711 208.894077 
L 113.77197 208.877737 
L 113.782098 208.862782 
L 113.788835 208.849598 
L 113.792006 208.838527 
L 113.791528 208.829855 
L 113.787415 208.823808 
L 113.779772 208.82054 
L 113.768797 208.820138 
L 113.754776 208.822612 
L 113.73807 208.827896 
L 113.719113 208.835856 
L 113.698395 208.846284 
L 113.676452 208.858911 
L 113.653853 208.873409 
L 113.631183 208.889404 
L 113.609029 208.906482 
L 113.587964 208.924199 
L 113.568535 208.942098 
L 113.551244 208.959714 
L 113.53654 208.976591 
L 113.524803 208.992293 
L 113.516339 209.006412 
L 113.511365 209.018583 
L 113.510011 209.02849 
L 113.512313 209.035876 
L 113.51821 209.040551 
L 113.527551 209.042392 
L 113.540092 209.041353 
L 113.555509 209.037459 
L 113.573403 209.030813 
L 113.59331 209.021586 
L 113.614715 209.010017 
L 113.637062 208.996407 
L 113.659772 208.981107 
L 113.682259 208.964515 
L 113.703938 208.947059 
" clip-path="url(#pc3ae86b622)" style="fill: none; stroke: #2563eb; stroke-opacity: 0.55; stroke-width: 0.5"/>
    <path d="M 113.702319 208.869261 
L 113.72263 208.851396 
L 113.741047 208.833582 
L 113.757093 208.816282 
L 113.770352 208.799943 
L 113.780481 208.784988 
L 113.787218 208.771804 
L 113.790389 208.760734 
L 113.789911 208.752063 
L 113.785798 208.746015 
L 113.778155 208.742748 
L 113.76718 208.742346 
L 113.753158 208.74482 
L 113.736452 208.750104 
L 113.717494 208.758063 
L 113.696776 208.768491 
L 113.674832 208.781117 
L 113.652233 208.795615 
L 113.629562 208.811609 
L 113.607407 208.828686 
L 113.586342 208.846402 
L 113.566912 208.8643 
L 113.549621 208.881915 
L 113.534917 208.898792 
L 113.52318 208.914493 
L 113.514715 208.928611 
L 113.509741 208.940782 
L 113.508387 208.950688 
L 113.510689 208.958074 
L 113.516586 208.962748 
L 113.525927 208.964589 
L 113.538468 208.96355 
L 113.553886 208.959657 
L 113.571781 208.953011 
L 113.591688 208.943784 
L 113.613093 208.932216 
L 113.635441 208.918607 
L 113.658152 208.903308 
L 113.680639 208.886716 
L 113.702319 208.869261 
" clip-path="url(#pc3ae86b622)" style="fill: none; stroke: #2563eb; stroke-opacity: 0.55; stroke-width: 0.5"/>
    <path d="M 113.700699 208.791459 
L 113.721012 208.773595 
L 113.739429 208.755782 
L 113.755475 208.738482 
L 113.768735 208.722144 
L 113.778864 208.70719 
L 113.785601 208.694007 
L 113.788772 208.682937 
L 113.788294 208.674266 
L 113.784181 208.668219 
L 113.776537 208.664953 
L 113.765563 208.664551 
L 113.75154 208.667024 
L 113.734834 208.672308 
L 113.715876 208.680267 
L 113.695156 208.690694 
L 113.673213 208.703319 
L 113.650612 208.717817 
L 113.627941 208.73381 
L 113.605785 208.750886 
L 113.58472 208.768601 
L 113.56529 208.786498 
L 113.547998 208.804113 
L 113.533293 208.820989 
L 113.521556 208.836689 
L 113.51309 208.850807 
L 113.508116 208.862976 
L 113.506763 208.872882 
L 113.509065 208.880268 
L 113.514962 208.884942 
L 113.524303 208.886783 
L 113.536845 208.885743 
L 113.552263 208.881851 
L 113.570158 208.875205 
L 113.590066 208.865979 
L 113.611471 208.854411 
L 113.63382 208.840802 
L 113.656532 208.825504 
L 113.679019 208.808913 
L 113.700699 208.791459 
" clip-path="url(#pc3ae86b622)" style="fill: none; stroke: #2563eb; stroke-opacity: 0.55; stroke-width: 0.5"/>
    <path d="M 113.712033 209.335991 
L 113.710414 209.258212 
L 113.708795 209.18043 
L 113.707176 209.102644 
L 113.705557 209.024853 
L 113.703938 208.947059 
L 113.702319 208.869261 
L 113.700699 208.791459 
" clip-path="url(#pc3ae86b622)" style="fill: none; stroke: #2563eb; stroke-opacity: 0.55; stroke-width: 0.5"/>
    <path d="M 113.732341 209.31812 
L 113.730723 209.240342 
L 113.729104 209.162561 
L 113.727486 209.084775 
L 113.725867 209.006986 
L 113.724249 208.929193 
L 113.72263 208.851396 
L 113.721012 208.773595 
" clip-path="url(#pc3ae86b622)" style="fill: none; stroke: #2563eb; stroke-opacity: 0.55; stroke-width: 0.5"/>
    <path d="M 113.750755 209.300301 
L 113.749137 209.222524 
L 113.747519 209.144744 
L 113.745902 209.066959 
L 113.744284 208.989171 
L 113.742665 208.911378 
L 113.741047 208.833582 
L 113.739429 208.755782 
" clip-path="url(#pc3ae86b622)" style="fill: none; stroke: #2563eb; stroke-opacity: 0.55; stroke-width: 0.5"/>
    <path d="M 113.766798 209.282996 
L 113.765181 209.20522 
L 113.763564 209.12744 
L 113.761946 209.049656 
L 113.760328 208.971869 
L 113.758711 208.894077 
L 113.757093 208.816282 
L 113.755475 208.738482 
" clip-path="url(#pc3ae86b622)" style="fill: none; stroke: #2563eb; stroke-opacity: 0.55; stroke-width: 0.5"/>
    <path d="M 113.780055 209.266652 
L 113.778438 209.188877 
L 113.776821 209.111098 
L 113.775204 209.033315 
L 113.773587 208.955528 
L 113.77197 208.877737 
L 113.770352 208.799943 
L 113.768735 208.722144 
" clip-path="url(#pc3ae86b622)" style="fill: none; stroke: #2563eb; stroke-opacity: 0.55; stroke-width: 0.5"/>
    <path d="M 113.790183 209.251693 
L 113.788566 209.173919 
L 113.786949 209.09614 
L 113.785332 209.018358 
L 113.783715 208.940572 
L 113.782098 208.862782 
L 113.780481 208.784988 
L 113.778864 208.70719 
" clip-path="url(#pc3ae86b622)" style="fill: none; stroke: #2563eb; stroke-opacity: 0.55; stroke-width: 0.5"/>
    <path d="M 113.796919 209.238506 
L 113.795302 209.160732 
L 113.793686 209.082954 
L 113.792069 209.005173 
L 113.790452 208.927387 
L 113.788835 208.849598 
L 113.787218 208.771804 
L 113.785601 208.694007 
" clip-path="url(#pc3ae86b622)" style="fill: none; stroke: #2563eb; stroke-opacity: 0.55; stroke-width: 0.5"/>
    <path d="M 113.800089 209.227432 
L 113.798472 209.149659 
L 113.796856 209.071882 
L 113.795239 208.994101 
L 113.793623 208.916316 
L 113.792006 208.838527 
L 113.790389 208.760734 
L 113.788772 208.682937 
" clip-path="url(#pc3ae86b622)" style="fill: none; stroke: #2563eb; stroke-opacity: 0.55; stroke-width: 0.5"/>
    <path d="M 113.799611 209.218758 
L 113.797995 209.140986 
L 113.796378 209.063209 
L 113.794761 208.985428 
L 113.793145 208.907644 
L 113.791528 208.829855 
L 113.789911 208.752063 
L 113.788294 208.674266 
" clip-path="url(#pc3ae86b622)" style="fill: none; stroke: #2563eb; stroke-opacity: 0.55; stroke-width: 0.5"/>
    <path d="M 113.795498 209.212709 
L 113.793881 209.134937 
L 113.792265 209.05716 
L 113.790648 208.97938 
L 113.789031 208.901596 
L 113.787415 208.823808 
L 113.785798 208.746015 
L 113.784181 208.668219 
" clip-path="url(#pc3ae86b622)" style="fill: none; stroke: #2563eb; stroke-opacity: 0.55; stroke-width: 0.5"/>
    <path d="M 113.787856 209.209441 
L 113.786239 209.131669 
L 113.784622 209.053893 
L 113.783006 208.976113 
L 113.781389 208.898328 
L 113.779772 208.82054 
L 113.778155 208.742748 
L 113.776537 208.664953 
" clip-path="url(#pc3ae86b622)" style="fill: none; stroke: #2563eb; stroke-opacity: 0.55; stroke-width: 0.5"/>
    <path d="M 113.776883 209.209039 
L 113.775266 209.131267 
L 113.773649 209.053491 
L 113.772032 208.97571 
L 113.770415 208.897926 
L 113.768797 208.820138 
L 113.76718 208.742346 
L 113.765563 208.664551 
" clip-path="url(#pc3ae86b622)" style="fill: none; stroke: #2563eb; stroke-opacity: 0.55; stroke-width: 0.5"/>
    <path d="M 113.762863 209.211513 
L 113.761246 209.133741 
L 113.759629 209.055964 
L 113.758011 208.978184 
L 113.756394 208.9004 
L 113.754776 208.822612 
L 113.753158 208.74482 
L 113.75154 208.667024 
" clip-path="url(#pc3ae86b622)" style="fill: none; stroke: #2563eb; stroke-opacity: 0.55; stroke-width: 0.5"/>
    <path d="M 113.74616 209.216799 
L 113.744542 209.139027 
L 113.742924 209.06125 
L 113.741306 208.983469 
L 113.739688 208.905685 
L 113.73807 208.827896 
L 113.736452 208.750104 
L 113.734834 208.672308 
" clip-path="url(#pc3ae86b622)" style="fill: none; stroke: #2563eb; stroke-opacity: 0.55; stroke-width: 0.5"/>
    <path d="M 113.727205 209.224761 
L 113.725587 209.146988 
L 113.723968 209.069211 
L 113.72235 208.99143 
L 113.720732 208.913645 
L 113.719113 208.835856 
L 113.717494 208.758063 
L 113.715876 208.680267 
" clip-path="url(#pc3ae86b622)" style="fill: none; stroke: #2563eb; stroke-opacity: 0.55; stroke-width: 0.5"/>
    <path d="M 113.706489 209.235191 
L 113.704871 209.157418 
L 113.703252 209.07964 
L 113.701633 209.001859 
L 113.700014 208.924073 
L 113.698395 208.846284 
L 113.696776 208.768491 
L 113.695156 208.690694 
" clip-path="url(#pc3ae86b622)" style="fill: none; stroke: #2563eb; stroke-opacity: 0.55; stroke-width: 0.5"/>
    <path d="M 113.68455 209.247821 
L 113.68293 209.170047 
L 113.681311 209.092269 
L 113.679691 209.014487 
L 113.678072 208.936701 
L 113.676452 208.858911 
L 113.674832 208.781117 
L 113.673213 208.703319 
" clip-path="url(#pc3ae86b622)" style="fill: none; stroke: #2563eb; stroke-opacity: 0.55; stroke-width: 0.5"/>
    <path d="M 113.661954 209.262323 
L 113.660334 209.184548 
L 113.658714 209.106769 
L 113.657094 209.028987 
L 113.655473 208.9512 
L 113.653853 208.873409 
L 113.652233 208.795615 
L 113.650612 208.717817 
" clip-path="url(#pc3ae86b622)" style="fill: none; stroke: #2563eb; stroke-opacity: 0.55; stroke-width: 0.5"/>
    <path d="M 113.639286 209.278322 
L 113.637666 209.200546 
L 113.636045 209.122767 
L 113.634425 209.044983 
L 113.632804 208.967196 
L 113.631183 208.889404 
L 113.629562 208.811609 
L 113.627941 208.73381 
" clip-path="url(#pc3ae86b622)" style="fill: none; stroke: #2563eb; stroke-opacity: 0.55; stroke-width: 0.5"/>
    <path d="M 113.617135 209.295403 
L 113.615514 209.217627 
L 113.613893 209.139846 
L 113.612271 209.062062 
L 113.61065 208.984274 
L 113.609029 208.906482 
L 113.607407 208.828686 
L 113.605785 208.750886 
" clip-path="url(#pc3ae86b622)" style="fill: none; stroke: #2563eb; stroke-opacity: 0.55; stroke-width: 0.5"/>
    <path d="M 113.596073 209.313125 
L 113.594452 209.235348 
L 113.59283 209.157566 
L 113.591208 209.079781 
L 113.589586 209.001992 
L 113.587964 208.924199 
L 113.586342 208.846402 
L 113.58472 208.768601 
" clip-path="url(#pc3ae86b622)" style="fill: none; stroke: #2563eb; stroke-opacity: 0.55; stroke-width: 0.5"/>
    <path d="M 113.576647 209.331028 
L 113.575024 209.25325 
L 113.573402 209.175467 
L 113.57178 209.097681 
L 113.570157 209.019891 
L 113.568535 208.942098 
L 113.566912 208.8643 
L 113.56529 208.786498 
" clip-path="url(#pc3ae86b622)" style="fill: none; stroke: #2563eb; stroke-opacity: 0.55; stroke-width: 0.5"/>
    <path d="M 113.559358 209.348648 
L 113.557735 209.270869 
L 113.556113 209.193086 
L 113.55449 209.115299 
L 113.552867 209.037509 
L 113.551244 208.959714 
L 113.549621 208.881915 
L 113.547998 208.804113 
" clip-path="url(#pc3ae86b622)" style="fill: none; stroke: #2563eb; stroke-opacity: 0.55; stroke-width: 0.5"/>
    <path d="M 113.544656 209.36553 
L 113.543033 209.28775 
L 113.54141 209.209966 
L 113.539787 209.132179 
L 113.538163 209.054387 
L 113.53654 208.976591 
L 113.534917 208.898792 
L 113.533293 208.820989 
" clip-path="url(#pc3ae86b622)" style="fill: none; stroke: #2563eb; stroke-opacity: 0.55; stroke-width: 0.5"/>
    <path d="M 113.532921 209.381235 
L 113.531298 209.303455 
L 113.529674 209.22567 
L 113.528051 209.147882 
L 113.526427 209.070089 
L 113.524803 208.992293 
L 113.52318 208.914493 
L 113.521556 208.836689 
" clip-path="url(#pc3ae86b622)" style="fill: none; stroke: #2563eb; stroke-opacity: 0.55; stroke-width: 0.5"/>
    <path d="M 113.524457 209.395358 
L 113.522834 209.317577 
L 113.52121 209.239791 
L 113.519586 209.162002 
L 113.517963 209.084209 
L 113.516339 209.006412 
L 113.514715 208.928611 
L 113.51309 208.850807 
" clip-path="url(#pc3ae86b622)" style="fill: none; stroke: #2563eb; stroke-opacity: 0.55; stroke-width: 0.5"/>
    <path d="M 113.519484 209.407532 
L 113.517861 209.32975 
L 113.516237 209.251964 
L 113.514613 209.174174 
L 113.512989 209.096381 
L 113.511365 209.018583 
L 113.509741 208.940782 
L 113.508116 208.862976 
" clip-path="url(#pc3ae86b622)" style="fill: none; stroke: #2563eb; stroke-opacity: 0.55; stroke-width: 0.5"/>
    <path d="M 113.518131 209.417441 
L 113.516507 209.339658 
L 113.514883 209.261872 
L 113.513259 209.184082 
L 113.511635 209.106288 
L 113.510011 209.02849 
L 113.508387 208.950688 
L 113.506763 208.872882 
" clip-path="url(#pc3ae86b622)" style="fill: none; stroke: #2563eb; stroke-opacity: 0.55; stroke-width: 0.5"/>
    <path d="M 113.520432 209.424829 
L 113.518809 209.347046 
L 113.517185 209.26926 
L 113.515561 209.191469 
L 113.513937 209.113675 
L 113.512313 209.035876 
L 113.510689 208.958074 
L 113.509065 208.880268 
" clip-path="url(#pc3ae86b622)" style="fill: none; stroke: #2563eb; stroke-opacity: 0.55; stroke-width: 0.5"/>
    <path d="M 113.526329 209.429504 
L 113.524705 209.351722 
L 113.523082 209.273935 
L 113.521458 209.196144 
L 113.519834 209.118349 
L 113.51821 209.040551 
L 113.516586 208.962748 
L 113.514962 208.884942 
" clip-path="url(#pc3ae86b622)" style="fill: none; stroke: #2563eb; stroke-opacity: 0.55; stroke-width: 0.5"/>
    <path d="M 113.535668 209.431346 
L 113.534045 209.353563 
L 113.532421 209.275776 
L 113.530798 209.197985 
L 113.529174 209.120191 
L 113.527551 209.042392 
L 113.525927 208.964589 
L 113.524303 208.886783 
" clip-path="url(#pc3ae86b622)" style="fill: none; stroke: #2563eb; stroke-opacity: 0.55; stroke-width: 0.5"/>
    <path d="M 113.548208 209.430307 
L 113.546585 209.352524 
L 113.544962 209.274737 
L 113.543339 209.196946 
L 113.541715 209.119151 
L 113.540092 209.041353 
L 113.538468 208.96355 
L 113.536845 208.885743 
" clip-path="url(#pc3ae86b622)" style="fill: none; stroke: #2563eb; stroke-opacity: 0.55; stroke-width: 0.5"/>
    <path d="M 113.563623 209.426412 
L 113.562001 209.34863 
L 113.560378 209.270843 
L 113.558755 209.193052 
L 113.557132 209.115258 
L 113.555509 209.037459 
L 113.553886 208.959657 
L 113.552263 208.881851 
" clip-path="url(#pc3ae86b622)" style="fill: none; stroke: #2563eb; stroke-opacity: 0.55; stroke-width: 0.5"/>
    <path d="M 113.581515 209.419764 
L 113.579893 209.341982 
L 113.578271 209.264196 
L 113.576648 209.186405 
L 113.575026 209.108611 
L 113.573403 209.030813 
L 113.571781 208.953011 
L 113.570158 208.875205 
" clip-path="url(#pc3ae86b622)" style="fill: none; stroke: #2563eb; stroke-opacity: 0.55; stroke-width: 0.5"/>
    <path d="M 113.60142 209.410535 
L 113.599798 209.332753 
L 113.598176 209.254967 
L 113.596554 209.177177 
L 113.594932 209.099384 
L 113.59331 209.021586 
L 113.591688 208.943784 
L 113.590066 208.865979 
" clip-path="url(#pc3ae86b622)" style="fill: none; stroke: #2563eb; stroke-opacity: 0.55; stroke-width: 0.5"/>
    <path d="M 113.622821 209.398964 
L 113.6212 209.321182 
L 113.619579 209.243397 
L 113.617957 209.165608 
L 113.616336 209.087815 
L 113.614715 209.010017 
L 113.613093 208.932216 
L 113.611471 208.854411 
" clip-path="url(#pc3ae86b622)" style="fill: none; stroke: #2563eb; stroke-opacity: 0.55; stroke-width: 0.5"/>
    <path d="M 113.645165 209.38535 
L 113.643545 209.307569 
L 113.641924 209.229785 
L 113.640303 209.151996 
L 113.638682 209.074203 
L 113.637062 208.996407 
L 113.635441 208.918607 
L 113.63382 208.840802 
" clip-path="url(#pc3ae86b622)" style="fill: none; stroke: #2563eb; stroke-opacity: 0.55; stroke-width: 0.5"/>
    <path d="M 113.667873 209.370047 
L 113.666253 209.292267 
L 113.664633 209.214483 
L 113.663013 209.136695 
L 113.661393 209.058903 
L 113.659772 208.981107 
L 113.658152 208.903308 
L 113.656532 208.825504 
" clip-path="url(#pc3ae86b622)" style="fill: none; stroke: #2563eb; stroke-opacity: 0.55; stroke-width: 0.5"/>
    <path d="M 113.690356 209.35345 
L 113.688737 209.275671 
L 113.687117 209.197888 
L 113.685498 209.120101 
L 113.683878 209.04231 
L 113.682259 208.964515 
L 113.680639 208.886716 
L 113.679019 208.808913 
" clip-path="url(#pc3ae86b622)" style="fill: none; stroke: #2563eb; stroke-opacity: 0.55; stroke-width: 0.5"/>
    <path d="M 113.712033 209.335991 
L 113.710414 209.258212 
L 113.708795 209.18043 
L 113.707176 209.102644 
L 113.705557 209.024853 
L 113.703938 208.947059 
L 113.702319 208.869261 
L 113.700699 208.791459 
" clip-path="url(#pc3ae86b622)" style="fill: none; stroke: #2563eb; stroke-opacity: 0.55; stroke-width: 0.5"/>
   </g>
   <g id="text_24">
    <!-- M1 -->
    <g transform="translate(271.261524 143.665069) scale(0.1 -0.1)">
     <defs>
      <path id="MicrosoftYaHei-4d" d="M 5003 0 
L 5003 3206 
Q 5003 3603 5050 4159 
L 5034 4159 
Q 4953 3809 4891 3672 
L 3294 0 
L 2947 0 
L 1353 3644 
Q 1297 3769 1209 4159 
L 1191 4159 
Q 1222 3822 1222 3178 
L 1222 0 
L 625 0 
L 625 4841 
L 1472 4841 
L 2900 1522 
Q 3063 1141 3116 928 
L 3138 928 
Q 3300 1375 3366 1534 
L 4819 4841 
L 5625 4841 
L 5625 0 
L 5003 0 
z
" transform="scale(0.015625)"/>
     </defs>
     <use xlink:href="#MicrosoftYaHei-4d"/>
     <use xlink:href="#MicrosoftYaHei-31" x="97.705078"/>
    </g>
   </g>
   <g id="text_25">
    <!-- M2 -->
    <g transform="translate(273.526404 125.842357) scale(0.1 -0.1)">
     <use xlink:href="#MicrosoftYaHei-4d"/>
     <use xlink:href="#MicrosoftYaHei-32" x="97.705078"/>
    </g>
   </g>
   <g id="text_26">
    <!-- M3 -->
    <g transform="translate(243.167353 154.750168) scale(0.1 -0.1)">
     <use xlink:href="#MicrosoftYaHei-4d"/>
     <use xlink:href="#MicrosoftYaHei-33" x="97.705078"/>
    </g>
   </g>
   <g id="text_27">
    <!-- FY1 -->
    <g transform="translate(252.213463 150.604281) scale(0.1 -0.1)">
     <defs>
      <path id="MicrosoftYaHei-46" d="M 3119 4284 
L 1250 4284 
L 1250 2666 
L 2981 2666 
L 2981 2116 
L 1250 2116 
L 1250 0 
L 625 0 
L 625 4841 
L 3119 4841 
L 3119 4284 
z
" transform="scale(0.015625)"/>
      <path id="MicrosoftYaHei-59" d="M 3828 4841 
L 2234 1781 
L 2234 0 
L 1606 0 
L 1606 1766 
L 53 4841 
L 769 4841 
L 1816 2697 
Q 1819 2694 1931 2388 
L 1941 2388 
Q 1978 2519 2069 2694 
L 3163 4841 
L 3828 4841 
z
" transform="scale(0.015625)"/>
     </defs>
     <use xlink:href="#MicrosoftYaHei-46"/>
     <use xlink:href="#MicrosoftYaHei-59" x="53.125"/>
     <use xlink:href="#MicrosoftYaHei-31" x="113.476562"/>
    </g>
   </g>
   <g id="text_28">
    <!-- FY2 -->
    <g transform="translate(228.765494 139.178237) scale(0.1 -0.1)">
     <use xlink:href="#MicrosoftYaHei-46"/>
     <use xlink:href="#MicrosoftYaHei-59" x="53.125"/>
     <use xlink:href="#MicrosoftYaHei-32" x="113.476562"/>
    </g>
   </g>
   <g id="text_29">
    <!-- FY3 -->
    <g transform="translate(97.095278 237.191297) scale(0.1 -0.1)">
     <use xlink:href="#MicrosoftYaHei-46"/>
     <use xlink:href="#MicrosoftYaHei-59" x="53.125"/>
     <use xlink:href="#MicrosoftYaHei-33" x="113.476562"/>
    </g>
   </g>
   <g id="text_30">
    <!-- FY4 -->
    <g transform="translate(231.61093 104.994004) scale(0.1 -0.1)">
     <defs>
      <path id="MicrosoftYaHei-34" d="M 2906 4841 
L 2906 1644 
L 3631 1644 
L 3631 1138 
L 2906 1138 
L 2906 0 
L 2313 0 
L 2313 1138 
L 53 1138 
L 53 1616 
Q 656 2294 1265 3178 
Q 1875 4063 2272 4841 
L 2906 4841 
z
M 741 1644 
L 2313 1644 
L 2313 3950 
Q 1988 3366 1616 2817 
Q 1244 2269 741 1644 
z
" transform="scale(0.015625)"/>
     </defs>
     <use xlink:href="#MicrosoftYaHei-46"/>
     <use xlink:href="#MicrosoftYaHei-59" x="53.125"/>
     <use xlink:href="#MicrosoftYaHei-34" x="113.476562"/>
    </g>
   </g>
   <g id="text_31">
    <!-- FY5 -->
    <g transform="translate(174.146179 202.057369) scale(0.1 -0.1)">
     <use xlink:href="#MicrosoftYaHei-46"/>
     <use xlink:href="#MicrosoftYaHei-59" x="53.125"/>
     <use xlink:href="#MicrosoftYaHei-35" x="113.476562"/>
    </g>
   </g>
   <g id="text_32">
    <!-- F1 初始三维场景 -->
    <g transform="translate(129.038438 16.7925) scale(0.12 -0.12)">
     <defs>
      <path id="MicrosoftYaHei-521d" d="M 2513 4778 
L 5988 4778 
Q 5894 1509 5844 509 
Q 5819 -659 4844 -647 
Q 4525 -647 3925 -628 
Q 3881 -334 3825 -66 
Q 4425 -122 4788 -122 
Q 5300 -141 5325 541 
Q 5388 1522 5456 4297 
L 4038 4297 
Q 4000 3084 3944 2334 
Q 3806 403 2250 -828 
Q 2088 -634 1850 -428 
Q 3300 691 3419 2372 
Q 3491 3200 3509 4297 
L 2513 4297 
L 2513 4778 
z
M 150 3691 
L 150 4141 
L 2219 4141 
L 2219 3678 
Q 1872 3081 1481 2569 
L 1481 2375 
Q 1631 2269 1784 2163 
Q 2094 2575 2363 3022 
L 2775 2759 
Q 2506 2372 2141 1906 
Q 2453 1678 2769 1441 
L 2450 1059 
Q 1972 1453 1481 1838 
L 1481 -797 
L 1006 -797 
L 1006 1997 
Q 638 1591 231 1247 
Q 163 1491 63 1784 
Q 963 2491 1663 3691 
L 150 3691 
z
M 744 5134 
L 1181 5353 
Q 1413 4984 1669 4497 
L 1206 4259 
Q 975 4759 744 5134 
z
" transform="scale(0.015625)"/>
      <path id="MicrosoftYaHei-59cb" d="M 2838 1984 
L 5850 1984 
L 5850 -828 
L 5375 -828 
L 5375 -391 
L 3313 -391 
L 3313 -834 
L 2838 -834 
L 2838 1984 
z
M 2638 222 
L 2269 -191 
Q 1928 156 1588 484 
Q 1125 -184 381 -778 
Q 250 -584 94 -372 
Q 809 156 1244 809 
Q 797 1228 350 1616 
Q 572 2456 753 3497 
L 113 3497 
L 113 3966 
L 834 3966 
Q 934 4597 1025 5297 
L 1531 5222 
Q 1428 4544 1325 3966 
L 2488 3966 
L 2488 3503 
Q 2341 1828 1863 931 
Q 2288 559 2638 222 
z
M 5225 4484 
Q 5863 3478 6325 2522 
L 5831 2291 
Q 5700 2591 5559 2884 
Q 4572 2825 3200 2697 
Q 3025 2678 2756 2591 
L 2525 3041 
Q 2744 3172 2900 3391 
Q 3406 4147 3925 5334 
L 4450 5166 
Q 3881 4078 3319 3191 
Q 4569 3269 5350 3306 
Q 5097 3803 4819 4284 
L 5225 4484 
z
M 5375 1547 
L 3313 1547 
L 3313 34 
L 5375 34 
L 5375 1547 
z
M 2006 3497 
L 1241 3497 
Q 1044 2463 850 1778 
Q 1191 1503 1497 1247 
Q 1922 2119 2006 3497 
z
" transform="scale(0.015625)"/>
      <path id="MicrosoftYaHei-4e09" d="M 575 4691 
L 5813 4691 
L 5813 4153 
L 575 4153 
L 575 4691 
z
M 188 166 
L 6225 166 
L 6225 -359 
L 188 -359 
L 188 166 
z
M 856 2547 
L 5531 2547 
L 5531 2016 
L 856 2016 
L 856 2547 
z
" transform="scale(0.015625)"/>
      <path id="MicrosoftYaHei-7ef4" d="M 1900 2791 
Q 2713 3909 3256 5334 
L 3738 5178 
Q 3488 4634 3247 4166 
L 6175 4166 
L 6175 3741 
L 4806 3741 
L 4806 2797 
L 6125 2797 
L 6125 2372 
L 4806 2372 
L 4806 1428 
L 6125 1428 
L 6125 1003 
L 4806 1003 
L 4806 34 
L 6250 34 
L 6250 -391 
L 3075 -391 
L 3075 -816 
L 2600 -816 
L 2600 2981 
Q 2400 2650 2213 2378 
Q 2094 2572 1900 2791 
z
M 794 1616 
Q 1388 1684 2100 1766 
Q 2069 1459 2050 1316 
Q 906 1184 275 1072 
L 181 1534 
Q 534 1863 1097 2872 
Q 550 2834 200 2803 
L 81 3197 
Q 681 4153 1138 5347 
L 1625 5172 
Q 1100 4053 613 3234 
Q 834 3234 1297 3244 
Q 1516 3656 1763 4159 
L 2213 3959 
Q 1338 2403 794 1616 
z
M 3075 34 
L 4331 34 
L 4331 1003 
L 3075 1003 
L 3075 34 
z
M 3075 1428 
L 4331 1428 
L 4331 2372 
L 3075 2372 
L 3075 1428 
z
M 3075 2797 
L 4331 2797 
L 4331 3741 
L 3075 3741 
L 3075 2797 
z
M 119 72 
Q 1113 247 2288 503 
Q 2269 247 2269 22 
Q 1025 -241 238 -397 
L 119 72 
z
M 4119 5078 
L 4506 5322 
Q 4869 4866 5100 4472 
L 4688 4209 
Q 4463 4609 4119 5078 
z
" transform="scale(0.015625)"/>
      <path id="MicrosoftYaHei-573a" d="M 4800 4491 
L 2363 4491 
L 2363 4941 
L 5688 4941 
L 5688 4484 
L 3225 2928 
L 6063 2928 
Q 5988 1197 5919 253 
Q 5838 -703 5038 -703 
Q 4763 -703 4194 -684 
Q 4150 -372 4088 -141 
Q 4519 -209 4962 -209 
Q 5406 -209 5450 322 
Q 5513 1103 5575 2478 
L 4906 2478 
Q 4628 375 2963 -853 
Q 2788 -634 2613 -472 
Q 4163 600 4441 2478 
L 3641 2478 
Q 3281 913 1863 -103 
Q 1713 78 1538 259 
Q 2831 1144 3175 2478 
L 2431 2478 
L 2431 2953 
L 4800 4491 
z
M 94 703 
Q 547 888 1006 1088 
L 1006 3247 
L 169 3247 
L 169 3697 
L 1006 3697 
L 1006 5259 
L 1469 5259 
L 1469 3697 
L 2231 3697 
L 2231 3247 
L 1469 3247 
L 1469 1294 
Q 1819 1453 2175 1622 
Q 2188 1359 2231 1153 
Q 1319 741 288 222 
L 94 703 
z
" transform="scale(0.015625)"/>
      <path id="MicrosoftYaHei-666f" d="M 900 5084 
L 5500 5084 
L 5500 2984 
L 5050 2984 
L 5050 3209 
L 1350 3209 
L 1350 2984 
L 900 2984 
L 900 5084 
z
M 1013 2003 
L 5438 2003 
L 5438 566 
L 4988 566 
L 4988 766 
L 3481 766 
L 3481 -103 
Q 3488 -766 2825 -766 
Q 2406 -766 2131 -759 
Q 2119 -666 2038 -266 
Q 2431 -303 2713 -303 
Q 3013 -303 3019 9 
L 3019 766 
L 1463 766 
L 1463 566 
L 1013 566 
L 1013 2003 
z
M 338 2759 
L 2950 2759 
Q 2878 2888 2800 3022 
L 3219 3197 
Q 3350 2969 3459 2759 
L 6075 2759 
L 6075 2372 
L 338 2372 
L 338 2759 
z
M 4988 1628 
L 1463 1628 
L 1463 1141 
L 4988 1141 
L 4988 1628 
z
M 1350 3584 
L 5050 3584 
L 5050 3966 
L 1350 3966 
L 1350 3584 
z
M 5050 4709 
L 1350 4709 
L 1350 4328 
L 5050 4328 
L 5050 4709 
z
M 4000 103 
L 4213 497 
Q 5181 134 6113 -247 
L 5881 -678 
Q 5025 -278 4000 103 
z
M 2175 503 
L 2438 122 
Q 1531 -322 588 -741 
Q 494 -559 338 -341 
Q 1406 97 2175 503 
z
" transform="scale(0.015625)"/>
     </defs>
     <use xlink:href="#MicrosoftYaHei-46"/>
     <use xlink:href="#MicrosoftYaHei-31" x="53.125"/>
     <use xlink:href="#MicrosoftYaHei-20" x="111.767578"/>
     <use xlink:href="#MicrosoftYaHei-521d" x="141.357422"/>
     <use xlink:href="#MicrosoftYaHei-59cb" x="241.357422"/>
     <use xlink:href="#MicrosoftYaHei-4e09" x="341.357422"/>
     <use xlink:href="#MicrosoftYaHei-7ef4" x="441.357422"/>
     <use xlink:href="#MicrosoftYaHei-573a" x="541.357422"/>
     <use xlink:href="#MicrosoftYaHei-666f" x="641.357422"/>
    </g>
   </g>
   <g id="Path3DCollection_1">
    <defs>
     <path id="mdde795eeb5" d="M -3.535534 3.535534 
L 3.535534 -3.535534 
M -3.535534 -3.535534 
L 3.535534 3.535534 
" style="stroke: #111827; stroke-width: 1.5"/>
    </defs>
    <g clip-path="url(#pc3ae86b622)">
     <use xlink:href="#mdde795eeb5" x="109.909004" y="212.475757" style="fill: #111827; stroke: #111827; stroke-width: 1.5"/>
    </g>
   </g>
   <g id="Path3DCollection_2">
    <defs>
     <path id="m7fe2b2993b" d="M 0 2.645751 
C 0.701661 2.645751 1.374679 2.366978 1.870829 1.870829 
C 2.366978 1.374679 2.645751 0.701661 2.645751 0 
C 2.645751 -0.701661 2.366978 -1.374679 1.870829 -1.870829 
C 1.374679 -2.366978 0.701661 -2.645751 0 -2.645751 
C -0.701661 -2.645751 -1.374679 -2.366978 -1.870829 -1.870829 
C -2.366978 -1.374679 -2.645751 -0.701661 -2.645751 0 
C -2.645751 0.701661 -2.366978 1.374679 -1.870829 1.870829 
C -1.374679 2.366978 -0.701661 2.645751 0 2.645751 
z
" style="stroke: #0f766e"/>
    </defs>
    <g clip-path="url(#pc3ae86b622)">
     <use xlink:href="#m7fe2b2993b" x="231.61093" y="104.994004" style="fill: #0f766e; stroke: #0f766e"/>
    </g>
   </g>
   <g id="legend_1">
    <g id="patch_6">
     <path d="M 12.8 78.7275 
L 94.4 78.7275 
Q 96 78.7275 96 77.1275 
L 96 28.3925 
Q 96 26.7925 94.4 26.7925 
L 12.8 26.7925 
Q 11.2 26.7925 11.2 28.3925 
L 11.2 77.1275 
Q 11.2 78.7275 12.8 78.7275 
z
" style="fill: #ffffff; opacity: 0.8; stroke: #cccccc; stroke-linejoin: miter"/>
    </g>
    <g id="line2d_27">
     <path d="M 14.4 33.5875 
L 22.4 33.5875 
L 30.4 33.5875 
" style="fill: none; stroke: #dc2626; stroke-width: 2; stroke-linecap: square"/>
    </g>
    <g id="text_33">
     <!-- 来袭导弹方向 -->
     <g transform="translate(36.8 36.3875) scale(0.08 -0.08)">
      <defs>
       <path id="MicrosoftYaHei-6765" d="M 6325 141 
Q 6119 -122 5975 -334 
Q 4344 403 3438 1550 
L 3438 -841 
L 2963 -841 
L 2963 1584 
Q 2050 516 413 -409 
Q 281 -222 75 22 
Q 1706 841 2806 1922 
L 181 1922 
L 181 2359 
L 2963 2359 
L 2963 4003 
L 550 4003 
L 550 4441 
L 2963 4441 
L 2963 5341 
L 3438 5341 
L 3438 4441 
L 5900 4441 
L 5900 4003 
L 3438 4003 
L 3438 2359 
L 6225 2359 
L 6225 1922 
L 3566 1922 
Q 4594 778 6325 141 
z
M 4056 2766 
Q 4631 3378 4950 3828 
L 5381 3497 
Q 4913 2941 4419 2453 
L 4056 2766 
z
M 1075 3509 
L 1438 3803 
Q 1900 3347 2313 2828 
L 1900 2484 
Q 1581 2922 1075 3509 
z
" transform="scale(0.015625)"/>
       <path id="MicrosoftYaHei-88ad" d="M 525 4622 
L 2406 4622 
Q 2494 4956 2525 5353 
L 3000 5291 
Q 2959 4931 2888 4622 
L 4525 4622 
Q 4266 4825 3931 5041 
L 4175 5341 
Q 4588 5109 4919 4859 
L 4728 4622 
L 6000 4622 
L 6000 4222 
L 3969 4222 
L 3969 3538 
Q 4641 3784 5175 4091 
L 5425 3722 
Q 4734 3369 3975 3091 
Q 4019 2784 4406 2784 
L 5194 2784 
Q 5619 2784 5675 3159 
Q 5719 3428 5750 3853 
Q 5950 3753 6188 3672 
Q 6131 3266 6081 3003 
Q 5969 2384 5300 2384 
L 4306 2384 
Q 3638 2384 3534 2938 
Q 2934 2741 2294 2591 
Q 2213 2809 2088 3022 
Q 2859 3178 3519 3384 
L 3519 4222 
L 2772 4222 
Q 2431 2991 506 2166 
Q 294 2478 213 2566 
Q 1950 3266 2272 4222 
L 525 4222 
L 525 4622 
z
M 3656 228 
Q 3638 -28 3638 -259 
Q 2850 -484 2338 -666 
Q 2113 -747 1888 -872 
L 1625 -491 
Q 1775 -359 1775 -28 
L 1775 434 
Q 1153 81 369 -216 
Q 256 -16 100 209 
Q 1556 666 2534 1497 
L 325 1497 
L 325 1897 
L 6088 1897 
L 6088 1497 
L 3503 1497 
Q 3756 1056 4138 728 
Q 4634 956 5475 1422 
L 5750 984 
Q 4975 672 4500 463 
Q 5225 6 6306 -141 
Q 6119 -391 5963 -609 
Q 3931 -209 3059 1397 
Q 2703 1034 2225 713 
L 2225 -209 
Q 2988 9 3656 228 
z
M 2719 2478 
L 3088 2684 
Q 3300 2397 3469 2122 
L 3081 1903 
Q 2931 2172 2719 2478 
z
" transform="scale(0.015625)"/>
       <path id="MicrosoftYaHei-5bfc" d="M 1750 2547 
L 5025 2547 
Q 5531 2547 5606 2866 
Q 5681 3128 5744 3559 
Q 5950 3466 6238 3366 
Q 6144 2941 6063 2672 
Q 5900 2109 5144 2109 
L 1650 2109 
Q 819 2109 819 2916 
L 819 5016 
L 5306 5016 
L 5306 3116 
L 4825 3116 
L 4825 3328 
L 1300 3328 
L 1300 2966 
Q 1300 2547 1750 2547 
z
M 94 1472 
L 4456 1472 
L 4456 1928 
L 4963 1928 
L 4963 1472 
L 6313 1472 
L 6313 1028 
L 4963 1028 
L 4963 9 
Q 4963 -734 4150 -734 
Q 3844 -734 3150 -728 
Q 3119 -497 3056 -191 
Q 3631 -234 4006 -234 
Q 4456 -234 4456 153 
L 4456 1028 
L 94 1028 
L 94 1472 
z
M 1300 4584 
L 1300 3759 
L 4825 3759 
L 4825 4584 
L 1300 4584 
z
M 1269 684 
L 1575 1009 
Q 2269 466 2613 153 
L 2250 -216 
Q 1675 334 1269 684 
z
" transform="scale(0.015625)"/>
       <path id="MicrosoftYaHei-5f39" d="M 2950 5084 
L 3325 5341 
Q 3631 4997 3956 4534 
L 3584 4284 
L 4494 4284 
Q 4834 4828 5119 5341 
L 5581 5072 
Q 5325 4697 5028 4284 
L 6006 4284 
L 6006 1309 
L 5569 1309 
L 5569 1528 
L 4506 1528 
L 4506 759 
L 6319 759 
L 6319 341 
L 4506 341 
L 4506 -834 
L 4056 -834 
L 4056 341 
L 2213 341 
L 2213 759 
L 4056 759 
L 4056 1528 
L 2994 1528 
L 2994 1309 
L 2556 1309 
L 2556 4284 
L 3509 4284 
Q 3266 4684 2950 5084 
z
M 156 4972 
L 1969 4972 
L 1969 2859 
L 1531 2859 
L 1531 3072 
L 831 3072 
L 731 1997 
L 1956 1997 
Q 1944 1103 1906 241 
Q 1863 -703 1063 -703 
Q 844 -703 281 -691 
Q 244 -453 175 -197 
Q 750 -241 981 -241 
Q 1425 -241 1444 272 
Q 1481 966 1494 1572 
L 250 1572 
L 431 3497 
L 1531 3497 
L 1531 4547 
L 156 4547 
L 156 4972 
z
M 4506 1947 
L 5569 1947 
L 5569 2703 
L 4506 2703 
L 4506 1947 
z
M 2994 3866 
L 2994 3109 
L 4056 3109 
L 4056 3866 
L 2994 3866 
z
M 5569 3866 
L 4506 3866 
L 4506 3109 
L 5569 3109 
L 5569 3866 
z
M 2994 1947 
L 4056 1947 
L 4056 2703 
L 2994 2703 
L 2994 1947 
z
" transform="scale(0.015625)"/>
       <path id="MicrosoftYaHei-65b9" d="M 194 4241 
L 3194 4241 
Q 2878 4841 2700 5116 
L 3188 5347 
Q 3363 5078 3713 4472 
L 3256 4241 
L 6219 4241 
L 6219 3766 
L 2428 3766 
Q 2406 3197 2381 2797 
L 5400 2797 
Q 5325 1441 5238 441 
Q 5169 -691 4138 -691 
Q 3663 -691 2869 -641 
Q 2838 -403 2775 -66 
Q 3569 -172 4063 -172 
Q 4638 -172 4706 509 
Q 4781 1253 4838 2328 
L 2347 2328 
Q 2172 266 438 -872 
Q 269 -672 56 -447 
Q 1706 641 1825 2466 
Q 1869 2959 1897 3766 
L 194 3766 
L 194 4241 
z
" transform="scale(0.015625)"/>
       <path id="MicrosoftYaHei-5411" d="M 1038 -772 
L 550 -772 
L 550 4359 
L 2394 4359 
Q 2550 4822 2694 5328 
L 3231 5178 
Q 3069 4741 2913 4359 
L 5838 4359 
L 5838 -34 
Q 5838 -741 5131 -741 
Q 4738 -741 4181 -728 
Q 4150 -509 4094 -241 
Q 4631 -284 5006 -284 
Q 5350 -284 5350 78 
L 5350 3897 
L 1038 3897 
L 1038 -772 
z
M 1894 2997 
L 4481 2997 
L 4481 803 
L 2369 803 
L 2369 372 
L 1894 372 
L 1894 2997 
z
M 4006 2547 
L 2369 2547 
L 2369 1253 
L 4006 1253 
L 4006 2547 
z
" transform="scale(0.015625)"/>
      </defs>
      <use xlink:href="#MicrosoftYaHei-6765"/>
      <use xlink:href="#MicrosoftYaHei-88ad" x="100"/>
      <use xlink:href="#MicrosoftYaHei-5bfc" x="200"/>
      <use xlink:href="#MicrosoftYaHei-5f39" x="300"/>
      <use xlink:href="#MicrosoftYaHei-65b9" x="400"/>
      <use xlink:href="#MicrosoftYaHei-5411" x="500"/>
     </g>
    </g>
    <g id="line2d_28">
     <path d="M 14.4 45.97125 
L 22.4 45.97125 
L 30.4 45.97125 
" style="fill: none; stroke: #ffffff; stroke-width: 1.5; stroke-linecap: square"/>
     <defs>
      <path id="ma5f5073943" d="M 0 3.5 
C 0.928211 3.5 1.81853 3.131218 2.474874 2.474874 
C 3.131218 1.81853 3.5 0.928211 3.5 0 
C 3.5 -0.928211 3.131218 -1.81853 2.474874 -2.474874 
C 1.81853 -3.131218 0.928211 -3.5 0 -3.5 
C -0.928211 -3.5 -1.81853 -3.131218 -2.474874 -2.474874 
C -3.131218 -1.81853 -3.5 -0.928211 -3.5 0 
C -3.5 0.928211 -3.131218 1.81853 -2.474874 2.474874 
C -1.81853 3.131218 -0.928211 3.5 0 3.5 
z
" style="stroke: #ffffff"/>
     </defs>
     <g>
      <use xlink:href="#ma5f5073943" x="22.4" y="45.97125" style="fill: #0f766e; stroke: #ffffff"/>
     </g>
    </g>
    <g id="text_34">
     <!-- 无人机初始位置 -->
     <g transform="translate(36.8 48.77125) scale(0.08 -0.08)">
      <defs>
       <path id="MicrosoftYaHei-65e0" d="M 200 2878 
L 2650 2878 
Q 2781 3528 2806 4328 
L 675 4328 
L 675 4816 
L 5750 4816 
L 5750 4328 
L 3331 4328 
Q 3288 3528 3169 2878 
L 6225 2878 
L 6225 2391 
L 3063 2391 
Q 2588 278 450 -884 
Q 313 -672 113 -441 
Q 1975 491 2538 2391 
L 200 2391 
L 200 2878 
z
M 3400 1941 
L 3906 1941 
L 3906 297 
Q 3906 -197 4363 -197 
L 5219 -197 
Q 5644 -197 5700 172 
Q 5750 528 5775 1097 
Q 6013 1009 6300 916 
Q 6238 297 6188 -16 
Q 6106 -641 5300 -641 
L 4219 -641 
Q 3400 -641 3400 222 
L 3400 1941 
z
" transform="scale(0.015625)"/>
       <path id="MicrosoftYaHei-4eba" d="M 100 -303 
Q 2825 1272 2981 5222 
L 3531 5222 
Q 3497 4553 3400 3947 
Q 4175 822 6313 -166 
Q 6050 -453 5850 -709 
Q 3994 341 3203 3006 
Q 2519 431 494 -778 
Q 325 -547 100 -303 
z
" transform="scale(0.015625)"/>
       <path id="MicrosoftYaHei-673a" d="M 3375 4434 
L 3375 2366 
Q 3375 128 2256 -878 
Q 2081 -666 1888 -453 
Q 2875 416 2875 2253 
L 2875 4909 
L 5200 4909 
L 5200 209 
Q 5200 -103 5419 -103 
L 5563 -103 
Q 5763 -103 5819 247 
Q 5881 728 5906 1284 
Q 6125 1178 6381 1084 
Q 6325 466 6269 72 
Q 6169 -591 5631 -591 
L 5300 -591 
Q 4700 -591 4700 122 
L 4700 4434 
L 3375 4434 
z
M 81 1403 
Q 781 2447 1078 3653 
L 144 3653 
L 144 4078 
L 1119 4078 
L 1119 5309 
L 1569 5309 
L 1569 4078 
L 2444 4078 
L 2444 3653 
L 1569 3653 
L 1569 2616 
L 1819 2866 
Q 2300 2428 2575 2153 
L 2238 1809 
Q 1853 2234 1569 2516 
L 1569 -784 
L 1119 -784 
L 1119 2566 
Q 784 1506 288 853 
Q 188 1134 81 1403 
z
" transform="scale(0.015625)"/>
       <path id="MicrosoftYaHei-4f4d" d="M 1788 -59 
L 4228 -59 
Q 4678 1144 5269 3372 
L 5831 3203 
Q 5453 2044 4756 -59 
L 6319 -59 
L 6319 -522 
L 1788 -522 
L 1788 -59 
z
M 81 2291 
Q 975 3641 1431 5322 
L 1963 5191 
Q 1703 4397 1406 3709 
L 1406 -853 
L 938 -853 
L 938 2731 
Q 644 2181 319 1716 
Q 231 1953 81 2291 
z
M 1919 4191 
L 4122 4191 
Q 3844 4659 3506 5059 
L 3931 5353 
Q 4206 5034 4613 4497 
L 4150 4191 
L 6206 4191 
L 6206 3728 
L 1919 3728 
L 1919 4191 
z
M 2769 3309 
Q 3181 2184 3669 584 
L 3150 434 
Q 2725 1966 2294 3147 
L 2769 3309 
z
" transform="scale(0.015625)"/>
       <path id="MicrosoftYaHei-7f6e" d="M 94 -284 
L 1025 -284 
L 1025 2609 
L 2938 2609 
L 2938 3016 
L 244 3016 
L 244 3366 
L 2938 3366 
L 2938 3697 
L 3388 3697 
L 3388 3366 
L 6150 3366 
L 6150 3016 
L 3388 3016 
L 3388 2609 
L 5431 2609 
L 5431 -284 
L 6294 -284 
L 6294 -647 
L 94 -647 
L 94 -284 
z
M 638 5034 
L 5756 5034 
L 5756 3641 
L 5331 3641 
L 5331 3784 
L 1069 3784 
L 1069 3641 
L 638 3641 
L 638 5034 
z
M 1463 -284 
L 4994 -284 
L 4994 116 
L 1463 116 
L 1463 -284 
z
M 1463 441 
L 4994 441 
L 4994 834 
L 1463 834 
L 1463 441 
z
M 1463 1159 
L 4994 1159 
L 4994 1553 
L 1463 1553 
L 1463 1159 
z
M 4994 2272 
L 1463 2272 
L 1463 1878 
L 4994 1878 
L 4994 2272 
z
M 5331 4697 
L 4181 4697 
L 4181 4122 
L 5331 4122 
L 5331 4697 
z
M 2625 4122 
L 3769 4122 
L 3769 4697 
L 2625 4697 
L 2625 4122 
z
M 1069 4122 
L 2213 4122 
L 2213 4697 
L 1069 4697 
L 1069 4122 
z
" transform="scale(0.015625)"/>
      </defs>
      <use xlink:href="#MicrosoftYaHei-65e0"/>
      <use xlink:href="#MicrosoftYaHei-4eba" x="100"/>
      <use xlink:href="#MicrosoftYaHei-673a" x="200"/>
      <use xlink:href="#MicrosoftYaHei-521d" x="300"/>
      <use xlink:href="#MicrosoftYaHei-59cb" x="400"/>
      <use xlink:href="#MicrosoftYaHei-4f4d" x="500"/>
      <use xlink:href="#MicrosoftYaHei-7f6e" x="600"/>
     </g>
    </g>
    <g id="line2d_29">
     <path d="M 14.4 58.355 
L 22.4 58.355 
L 30.4 58.355 
" style="fill: none; stroke: #111827; stroke-width: 1.5; stroke-linecap: square"/>
     <defs>
      <path id="m5ecc06f400" d="M -4 4 
L 4 -4 
M -4 -4 
L 4 4 
" style="stroke: #111827"/>
     </defs>
     <g>
      <use xlink:href="#m5ecc06f400" x="22.4" y="58.355" style="fill: #111827; stroke: #111827"/>
     </g>
    </g>
    <g id="text_35">
     <!-- 假目标 -->
     <g transform="translate(36.8 61.155) scale(0.08 -0.08)">
      <defs>
       <path id="MicrosoftYaHei-5047" d="M 3763 4953 
L 3763 2841 
L 3325 2841 
L 3325 3034 
L 2319 3034 
L 2319 2247 
L 3625 2247 
L 3625 1847 
L 2319 1847 
L 2319 1047 
L 3706 1047 
L 3706 647 
L 2319 647 
L 2319 -847 
L 1856 -847 
L 1856 4953 
L 3763 4953 
z
M 3756 2109 
L 3756 2497 
L 5963 2497 
L 5963 2122 
Q 5763 1094 5191 369 
Q 5663 -106 6381 -378 
Q 6138 -659 6031 -816 
Q 5350 -463 4888 34 
Q 4309 -531 3450 -872 
Q 3325 -684 3156 -472 
Q 4044 -159 4606 375 
Q 4081 1109 3941 2109 
L 3756 2109 
z
M 63 2247 
Q 863 3666 1175 5316 
L 1638 5228 
Q 1478 4528 1256 3881 
L 1256 -859 
L 819 -859 
L 819 2788 
Q 566 2244 263 1741 
Q 181 1984 63 2247 
z
M 3969 3447 
L 5475 3447 
L 5475 4559 
L 4006 4559 
L 4006 4959 
L 5913 4959 
L 5913 2809 
L 5475 2809 
L 5475 3047 
L 3969 3047 
L 3969 3447 
z
M 3325 4553 
L 2319 4553 
L 2319 3434 
L 3325 3434 
L 3325 4553 
z
M 5513 2109 
L 4350 2109 
Q 4484 1288 4903 703 
Q 5366 1297 5513 2109 
z
" transform="scale(0.015625)"/>
       <path id="MicrosoftYaHei-76ee" d="M 944 5016 
L 5469 5016 
L 5469 -772 
L 4938 -772 
L 4938 -303 
L 1475 -303 
L 1475 -772 
L 944 -772 
L 944 5016 
z
M 1475 1341 
L 1475 159 
L 4938 159 
L 4938 1341 
L 1475 1341 
z
M 1475 2947 
L 1475 1778 
L 4938 1778 
L 4938 2947 
L 1475 2947 
z
M 1475 4553 
L 1475 3384 
L 4938 3384 
L 4938 4553 
L 1475 4553 
z
" transform="scale(0.015625)"/>
       <path id="MicrosoftYaHei-6807" d="M 75 1409 
Q 769 2478 1025 3647 
L 119 3647 
L 119 4072 
L 1069 4072 
L 1069 5297 
L 1506 5297 
L 1506 4072 
L 2356 4072 
L 2356 3647 
L 1506 3647 
L 1506 2541 
L 1775 2822 
Q 2175 2478 2481 2159 
L 2150 1816 
Q 1850 2156 1506 2503 
L 1506 -797 
L 1069 -797 
L 1069 2588 
Q 738 1513 281 859 
Q 194 1128 75 1409 
z
M 2350 3097 
L 6250 3097 
L 6250 2659 
L 4525 2659 
L 4525 47 
Q 4525 -734 3806 -734 
Q 3469 -741 2975 -728 
Q 2944 -503 2888 -209 
Q 3319 -259 3675 -259 
Q 4050 -259 4050 203 
L 4050 2659 
L 2350 2659 
L 2350 3097 
z
M 2638 4928 
L 5963 4928 
L 5963 4491 
L 2638 4491 
L 2638 4928 
z
M 4938 1853 
L 5381 2066 
Q 5975 928 6369 72 
L 5869 -147 
Q 5463 822 4938 1853 
z
M 2931 2066 
L 3400 1878 
Q 2888 734 2381 -153 
Q 2188 -41 1925 66 
Q 2425 872 2931 2066 
z
" transform="scale(0.015625)"/>
      </defs>
      <use xlink:href="#MicrosoftYaHei-5047"/>
      <use xlink:href="#MicrosoftYaHei-76ee" x="100"/>
      <use xlink:href="#MicrosoftYaHei-6807" x="200"/>
     </g>
    </g>
    <g id="line2d_30">
     <path d="M 14.4 70.73875 
L 22.4 70.73875 
L 30.4 70.73875 
" style="fill: none; stroke: #2563eb; stroke-width: 2; stroke-linecap: square"/>
    </g>
    <g id="text_36">
     <!-- 真目标（圆柱） -->
     <g transform="translate(36.8 73.53875) scale(0.08 -0.08)">
      <defs>
       <path id="MicrosoftYaHei-771f" d="M 156 778 
L 1056 778 
L 1056 3978 
L 2894 3978 
L 2894 4428 
L 250 4428 
L 250 4828 
L 2894 4828 
L 2894 5328 
L 3381 5328 
L 3381 4828 
L 6144 4828 
L 6144 4428 
L 3381 4428 
L 3381 3978 
L 5344 3978 
L 5344 778 
L 6263 778 
L 6263 378 
L 156 378 
L 156 778 
z
M 1531 778 
L 4869 778 
L 4869 1209 
L 1531 1209 
L 1531 778 
z
M 4869 3591 
L 1531 3591 
L 1531 3166 
L 4869 3166 
L 4869 3591 
z
M 1531 2372 
L 4869 2372 
L 4869 2797 
L 1531 2797 
L 1531 2372 
z
M 1531 1578 
L 4869 1578 
L 4869 2003 
L 1531 2003 
L 1531 1578 
z
M 3744 -72 
L 3975 316 
Q 4925 28 6169 -416 
L 5944 -859 
Q 4819 -422 3744 -72 
z
M 2369 334 
L 2663 -41 
Q 1656 -503 481 -891 
Q 388 -691 256 -453 
Q 1219 -172 2369 334 
z
" transform="scale(0.015625)"/>
       <path id="MicrosoftYaHei-ff08" d="M 5288 -1100 
Q 4172 119 4172 1850 
Q 4172 3603 5288 4838 
L 5825 4838 
Q 4716 3572 4716 1856 
Q 4716 166 5819 -1100 
L 5288 -1100 
z
" transform="scale(0.015625)"/>
       <path id="MicrosoftYaHei-5706" d="M 431 5047 
L 5944 5047 
L 5944 -834 
L 5475 -834 
L 5475 -534 
L 900 -534 
L 900 -834 
L 431 -834 
L 431 5047 
z
M 1763 4222 
L 4638 4222 
L 4638 2834 
L 4213 2834 
L 4213 2978 
L 2188 2978 
L 2188 2834 
L 1763 2834 
L 1763 4222 
z
M 3338 1378 
Q 4269 903 5100 384 
L 4825 28 
Q 4131 509 3213 1022 
Q 2919 347 1375 53 
Q 1294 228 1144 466 
Q 2425 672 2738 1097 
Q 2981 1397 2969 2034 
L 3406 2034 
Q 3406 1666 3338 1378 
z
M 1588 2572 
L 4788 2572 
L 4788 1059 
L 4363 1059 
L 4363 2184 
L 2013 2184 
L 2013 1009 
L 1588 1009 
L 1588 2572 
z
M 4213 3366 
L 4213 3834 
L 2188 3834 
L 2188 3366 
L 4213 3366 
z
M 5475 -97 
L 5475 4609 
L 900 4609 
L 900 -97 
L 5475 -97 
z
" transform="scale(0.015625)"/>
       <path id="MicrosoftYaHei-67f1" d="M 2188 -16 
L 3988 -16 
L 3988 1809 
L 2588 1809 
L 2588 2259 
L 3988 2259 
L 3988 3747 
L 2400 3747 
L 2400 4197 
L 6119 4197 
L 6119 3747 
L 4500 3747 
L 4500 2259 
L 5919 2259 
L 5919 1809 
L 4500 1809 
L 4500 -16 
L 6319 -16 
L 6319 -466 
L 2188 -466 
L 2188 -16 
z
M 63 1403 
Q 641 2338 947 3584 
L 156 3584 
L 156 4016 
L 981 4016 
L 981 5291 
L 1463 5291 
L 1463 4016 
L 2213 4016 
L 2213 3584 
L 1463 3584 
L 1463 2503 
L 1669 2697 
Q 2019 2366 2375 1978 
L 2025 1666 
Q 1750 2009 1463 2316 
L 1463 -816 
L 981 -816 
L 981 2450 
Q 678 1478 263 853 
Q 175 1122 63 1403 
z
M 3631 5116 
L 4044 5372 
Q 4381 4972 4644 4572 
L 4206 4284 
Q 3981 4672 3631 5116 
z
" transform="scale(0.015625)"/>
       <path id="MicrosoftYaHei-ff09" d="M 1113 -1100 
L 575 -1100 
Q 1684 163 1684 1888 
Q 1684 3581 581 4838 
L 1113 4838 
Q 2222 3628 2222 1888 
Q 2222 128 1113 -1100 
z
" transform="scale(0.015625)"/>
      </defs>
      <use xlink:href="#MicrosoftYaHei-771f"/>
      <use xlink:href="#MicrosoftYaHei-76ee" x="100"/>
      <use xlink:href="#MicrosoftYaHei-6807" x="200"/>
      <use xlink:href="#MicrosoftYaHei-ff08" x="300"/>
      <use xlink:href="#MicrosoftYaHei-5706" x="400"/>
      <use xlink:href="#MicrosoftYaHei-67f1" x="500"/>
      <use xlink:href="#MicrosoftYaHei-ff09" x="600"/>
     </g>
    </g>
   </g>
   <g id="Path3DCollection_3">
    <g clip-path="url(#pc3ae86b622)">
     <use xlink:href="#m7fe2b2993b" x="228.765494" y="139.178237" style="fill: #0f766e; stroke: #0f766e"/>
    </g>
   </g>
   <g id="Path3DCollection_4">
    <defs>
     <path id="mc77f41cb4e" d="M 0 2.95804 
C 0.784481 2.95804 1.536938 2.646362 2.09165 2.09165 
C 2.646362 1.536938 2.95804 0.784481 2.95804 0 
C 2.95804 -0.784481 2.646362 -1.536938 2.09165 -2.09165 
C 1.536938 -2.646362 0.784481 -2.95804 0 -2.95804 
C -0.784481 -2.95804 -1.536938 -2.646362 -2.09165 -2.09165 
C -2.646362 -1.536938 -2.95804 -0.784481 -2.95804 0 
C -2.95804 0.784481 -2.646362 1.536938 -2.09165 2.09165 
C -1.536938 2.646362 -0.784481 2.95804 0 2.95804 
z
" style="stroke: #dc2626"/>
    </defs>
    <g clip-path="url(#pc3ae86b622)">
     <use xlink:href="#mc77f41cb4e" x="273.526404" y="125.842357" style="fill: #dc2626; stroke: #dc2626"/>
    </g>
   </g>
   <g id="Path3DCollection_5">
    <g clip-path="url(#pc3ae86b622)">
     <use xlink:href="#m7fe2b2993b" x="97.095278" y="237.191297" style="fill: #0f766e; stroke: #0f766e"/>
    </g>
   </g>
   <g id="Path3DCollection_6">
    <g clip-path="url(#pc3ae86b622)">
     <use xlink:href="#m7fe2b2993b" x="252.213463" y="150.604281" style="fill: #0f766e; stroke: #0f766e"/>
    </g>
   </g>
   <g id="Path3DCollection_7">
    <g clip-path="url(#pc3ae86b622)">
     <use xlink:href="#mc77f41cb4e" x="271.261524" y="143.665069" style="fill: #dc2626; stroke: #dc2626"/>
    </g>
   </g>
   <g id="Path3DCollection_8">
    <g clip-path="url(#pc3ae86b622)">
     <use xlink:href="#m7fe2b2993b" x="174.146179" y="202.057369" style="fill: #0f766e; stroke: #0f766e"/>
    </g>
   </g>
   <g id="Path3DCollection_9">
    <g clip-path="url(#pc3ae86b622)">
     <use xlink:href="#mc77f41cb4e" x="243.167353" y="154.750168" style="fill: #dc2626; stroke: #dc2626"/>
    </g>
   </g>
  </g>
 </g>
 <defs>
  <clipPath id="pc3ae86b622">
   <rect x="7.2" y="22.7925" width="332.64" height="332.64"/>
  </clipPath>
 </defs>
</svg>
