<?xml version="1.0" encoding="utf-8" standalone="no"?>
<!DOCTYPE svg PUBLIC "-//W3C//DTD SVG 1.1//EN"
  "http://www.w3.org/Graphics/SVG/1.1/DTD/svg11.dtd">
<svg xmlns:xlink="http://www.w3.org/1999/xlink" width="362.241211pt" height="364.646588pt" viewBox="0 0 362.241211 364.646588" xmlns="http://www.w3.org/2000/svg" version="1.1">
 <metadata>
  <rdf:RDF xmlns:dc="http://purl.org/dc/elements/1.1/" xmlns:cc="http://creativecommons.org/ns#" xmlns:rdf="http://www.w3.org/1999/02/22-rdf-syntax-ns#">
   <cc:Work>
    <dc:type rdf:resource="http://purl.org/dc/dcmitype/StillImage"/>
    <dc:date>2026-07-22T20:44:06.013397</dc:date>
    <dc:format>image/svg+xml</dc:format>
    <dc:creator>
     <cc:Agent>
      <dc:title>Matplotlib v3.9.2, https://matplotlib.org/</dc:title>
     </cc:Agent>
    </dc:creator>
   </cc:Work>
  </rdf:RDF>
 </metadata>
 <defs>
  <style type="text/css">*{stroke-linejoin: round; stroke-linecap: butt}</style>
 </defs>
 <g id="figure_1">
  <g id="patch_1">
   <path d="M 0 364.646588 
L 362.241211 364.646588 
L 362.241211 0 
L 0 0 
z
" style="fill: #ffffff"/>
  </g>
  <g id="patch_2">
   <path d="M 7.2 355.4325 
L 339.84 355.4325 
L 339.84 22.7925 
L 7.2 22.7925 
z
" style="fill: #ffffff"/>
  </g>
  <g id="pane3d_1">
   <g id="patch_3">
    <path d="M 32.316614 273.414136 
L 142.165206 181.336869 
L 140.638205 48.544989 
L 25.532792 132.543676 
" style="fill: #f2f2f2; opacity: 0.5; stroke: #f2f2f2; stroke-linejoin: miter"/>
   </g>
  </g>
  <g id="pane3d_2">
   <g id="patch_4">
    <path d="M 142.165206 181.336869 
L 318.433001 232.570958 
L 324.723377 95.205214 
L 140.638205 48.544989 
" style="fill: #e6e6e6; opacity: 0.5; stroke: #e6e6e6; stroke-linejoin: miter"/>
   </g>
  </g>
  <g id="pane3d_3">
   <g id="patch_5">
    <path d="M 32.316614 273.414136 
L 219.169086 334.440153 
L 318.433001 232.570958 
L 142.165206 181.336869 
" style="fill: #ececec; opacity: 0.5; stroke: #ececec; stroke-linejoin: miter"/>
   </g>
  </g>
  <g id="grid3d_1">
   <g id="Line3DCollection_1">
    <path d="M 43.687684 277.127928 
L 152.9367 184.467717 
L 151.865133 51.390688 
" style="fill: none; stroke: #b0b0b0; stroke-width: 0.8"/>
    <path d="M 63.25529 283.518708 
L 171.458972 189.85141 
L 171.17732 56.285764 
" style="fill: none; stroke: #b0b0b0; stroke-width: 0.8"/>
    <path d="M 83.045364 289.982146 
L 190.174388 195.291243 
L 190.699588 61.23409 
" style="fill: none; stroke: #b0b0b0; stroke-width: 0.8"/>
    <path d="M 103.061722 296.519489 
L 209.085987 200.788098 
L 210.435383 66.236539 
" style="fill: none; stroke: #b0b0b0; stroke-width: 0.8"/>
    <path d="M 123.308267 303.13201 
L 228.196869 206.342877 
L 230.388228 71.294003 
" style="fill: none; stroke: #b0b0b0; stroke-width: 0.8"/>
    <path d="M 143.788993 309.821015 
L 247.5102 211.9565 
L 250.561722 76.407396 
" style="fill: none; stroke: #b0b0b0; stroke-width: 0.8"/>
    <path d="M 164.507986 316.587838 
L 267.029215 217.629907 
L 270.959547 81.57765 
" style="fill: none; stroke: #b0b0b0; stroke-width: 0.8"/>
    <path d="M 185.469428 323.433845 
L 286.757216 223.364058 
L 291.585465 86.805719 
" style="fill: none; stroke: #b0b0b0; stroke-width: 0.8"/>
    <path d="M 206.677601 330.360434 
L 306.697579 229.159934 
L 312.443324 92.092578 
" style="fill: none; stroke: #b0b0b0; stroke-width: 0.8"/>
   </g>
  </g>
  <g id="grid3d_2">
   <g id="Line3DCollection_2">
    <path d="M 33.492616 126.734959 
L 39.88611 267.069234 
L 226.037381 327.391593 
" style="fill: none; stroke: #b0b0b0; stroke-width: 0.8"/>
    <path d="M 59.204183 107.971828 
L 64.36399 246.55139 
L 248.219113 304.627679 
" style="fill: none; stroke: #b0b0b0; stroke-width: 0.8"/>
    <path d="M 83.949914 89.913521 
L 87.96159 226.771414 
L 269.561822 282.724809 
" style="fill: none; stroke: #b0b0b0; stroke-width: 0.8"/>
    <path d="M 107.783226 72.521056 
L 110.725557 207.690206 
L 290.112229 261.635037 
" style="fill: none; stroke: #b0b0b0; stroke-width: 0.8"/>
    <path d="M 130.753669 55.758273 
L 132.699298 189.27138 
L 309.913648 241.31391 
" style="fill: none; stroke: #b0b0b0; stroke-width: 0.8"/>
   </g>
  </g>
  <g id="grid3d_3">
   <g id="Line3DCollection_3">
    <path d="M 318.817182 224.181416 
L 142.07176 173.210583 
L 31.902951 264.824156 
" style="fill: none; stroke: #b0b0b0; stroke-width: 0.8"/>
    <path d="M 319.480693 209.692035 
L 141.910428 159.180804 
L 31.188323 249.98444 
" style="fill: none; stroke: #b0b0b0; stroke-width: 0.8"/>
    <path d="M 320.150487 195.06545 
L 141.747642 145.024512 
L 30.46667 234.998849 
" style="fill: none; stroke: #b0b0b0; stroke-width: 0.8"/>
    <path d="M 320.826653 180.299702 
L 141.583382 130.739989 
L 29.737888 219.865223 
" style="fill: none; stroke: #b0b0b0; stroke-width: 0.8"/>
    <path d="M 321.509284 165.392794 
L 141.417627 116.325484 
L 29.001871 204.581357 
" style="fill: none; stroke: #b0b0b0; stroke-width: 0.8"/>
    <path d="M 322.198472 150.342694 
L 141.250356 101.779215 
L 28.258511 189.145002 
" style="fill: none; stroke: #b0b0b0; stroke-width: 0.8"/>
    <path d="M 322.894312 135.147328 
L 141.081549 87.099366 
L 27.507697 173.553864 
" style="fill: none; stroke: #b0b0b0; stroke-width: 0.8"/>
    <path d="M 323.5969 119.804583 
L 140.911186 72.28409 
L 26.749317 157.805605 
" style="fill: none; stroke: #b0b0b0; stroke-width: 0.8"/>
    <path d="M 324.306337 104.312304 
L 140.739243 57.331503 
L 25.983255 141.897837 
" style="fill: none; stroke: #b0b0b0; stroke-width: 0.8"/>
   </g>
  </g>
  <g id="axis3d_1">
   <g id="line2d_1">
    <path d="M 32.316614 273.414136 
L 219.169086 334.440153 
" style="fill: none; stroke: #000000; stroke-width: 0.8; stroke-linecap: square"/>
   </g>
   <g id="xtick_1">
    <g id="line2d_2">
     <path d="M 44.639019 276.321047 
L 41.780931 278.745152 
" style="fill: none; stroke: #000000; stroke-width: 0.8; stroke-linecap: square"/>
    </g>
    <g id="text_1">
     <!-- 0 -->
     <g transform="translate(33.23224 300.821017) scale(0.1 -0.1)">
      <defs>
       <path id="MicrosoftYaHei-30" d="M 284 2325 
Q 284 3606 709 4264 
Q 1134 4922 1941 4922 
Q 3478 4922 3478 2441 
Q 3478 1216 3045 567 
Q 2613 -81 1831 -81 
Q 1094 -81 689 534 
Q 284 1150 284 2325 
z
M 909 2353 
Q 909 425 1888 425 
Q 2850 425 2850 2384 
Q 2850 4413 1906 4413 
Q 909 4413 909 2353 
z
" transform="scale(0.015625)"/>
      </defs>
      <use xlink:href="#MicrosoftYaHei-30"/>
     </g>
    </g>
   </g>
   <g id="xtick_2">
    <g id="line2d_3">
     <path d="M 64.197956 282.702683 
L 61.365891 285.15428 
" style="fill: none; stroke: #000000; stroke-width: 0.8; stroke-linecap: square"/>
    </g>
    <g id="text_2">
     <!-- 2500 -->
     <g transform="translate(44.019577 307.319902) scale(0.1 -0.1)">
      <defs>
       <path id="MicrosoftYaHei-32" d="M 2666 3572 
Q 2666 3963 2419 4186 
Q 2172 4409 1747 4409 
Q 1447 4409 1140 4256 
Q 834 4103 569 3819 
L 569 4413 
Q 806 4659 1107 4790 
Q 1409 4922 1816 4922 
Q 2472 4922 2872 4570 
Q 3272 4219 3272 3619 
Q 3272 3084 3026 2693 
Q 2781 2303 2188 1894 
Q 1581 1475 1376 1294 
Q 1172 1113 1090 947 
Q 1009 781 1009 544 
L 3416 544 
L 3416 0 
L 372 0 
L 372 241 
Q 372 659 486 951 
Q 600 1244 862 1520 
Q 1125 1797 1681 2184 
Q 2250 2584 2458 2886 
Q 2666 3188 2666 3572 
z
" transform="scale(0.015625)"/>
       <path id="MicrosoftYaHei-35" d="M 3294 1494 
Q 3294 784 2823 350 
Q 2353 -84 1559 -84 
Q 878 -84 544 119 
L 544 744 
Q 1034 425 1544 425 
Q 2050 425 2361 704 
Q 2672 984 2672 1447 
Q 2672 1909 2348 2167 
Q 2025 2425 1434 2425 
Q 978 2425 613 2384 
L 791 4841 
L 3053 4841 
L 3053 4303 
L 1306 4303 
L 1206 2931 
L 1647 2950 
Q 2416 2950 2855 2567 
Q 3294 2184 3294 1494 
z
" transform="scale(0.015625)"/>
      </defs>
      <use xlink:href="#MicrosoftYaHei-32"/>
      <use xlink:href="#MicrosoftYaHei-35" x="58.642578"/>
      <use xlink:href="#MicrosoftYaHei-30" x="117.285156"/>
      <use xlink:href="#MicrosoftYaHei-30" x="175.927734"/>
     </g>
    </g>
   </g>
   <g id="xtick_3">
    <g id="line2d_4">
     <path d="M 83.979101 289.15682 
L 81.173839 291.636379 
" style="fill: none; stroke: #000000; stroke-width: 0.8; stroke-linecap: square"/>
    </g>
    <g id="text_3">
     <!-- 5000 -->
     <g transform="translate(63.826325 313.892895) scale(0.1 -0.1)">
      <use xlink:href="#MicrosoftYaHei-35"/>
      <use xlink:href="#MicrosoftYaHei-30" x="58.642578"/>
      <use xlink:href="#MicrosoftYaHei-30" x="117.285156"/>
      <use xlink:href="#MicrosoftYaHei-30" x="175.927734"/>
     </g>
    </g>
   </g>
   <g id="xtick_4">
    <g id="line2d_5">
     <path d="M 103.986263 295.684702 
L 101.208605 298.192705 
" style="fill: none; stroke: #000000; stroke-width: 0.8; stroke-linecap: square"/>
    </g>
    <g id="text_4">
     <!-- 7500 -->
     <g transform="translate(83.860232 320.541272) scale(0.1 -0.1)">
      <defs>
       <path id="MicrosoftYaHei-37" d="M 3422 4463 
Q 2659 3131 2223 1998 
Q 1788 866 1684 0 
L 1047 0 
Q 1163 853 1594 1947 
Q 2025 3041 2747 4300 
L 347 4300 
L 347 4841 
L 3422 4841 
L 3422 4463 
z
" transform="scale(0.015625)"/>
      </defs>
      <use xlink:href="#MicrosoftYaHei-37"/>
      <use xlink:href="#MicrosoftYaHei-35" x="58.642578"/>
      <use xlink:href="#MicrosoftYaHei-30" x="117.285156"/>
      <use xlink:href="#MicrosoftYaHei-30" x="175.927734"/>
     </g>
    </g>
   </g>
   <g id="xtick_5">
    <g id="line2d_6">
     <path d="M 124.223339 302.2876 
L 121.474106 304.824537 
" style="fill: none; stroke: #000000; stroke-width: 0.8; stroke-linecap: square"/>
    </g>
    <g id="text_5">
     <!-- 10000 -->
     <g transform="translate(101.193197 327.266338) scale(0.1 -0.1)">
      <defs>
       <path id="MicrosoftYaHei-31" d="M 1781 0 
L 1781 4141 
Q 1638 3997 1295 3819 
Q 953 3641 663 3569 
L 663 4169 
Q 1047 4275 1484 4508 
Q 1922 4741 2156 4947 
L 2388 4947 
L 2388 0 
L 1781 0 
z
" transform="scale(0.015625)"/>
      </defs>
      <use xlink:href="#MicrosoftYaHei-31"/>
      <use xlink:href="#MicrosoftYaHei-30" x="58.642578"/>
      <use xlink:href="#MicrosoftYaHei-30" x="117.285156"/>
      <use xlink:href="#MicrosoftYaHei-30" x="175.927734"/>
      <use xlink:href="#MicrosoftYaHei-30" x="234.570312"/>
     </g>
    </g>
   </g>
   <g id="xtick_6">
    <g id="line2d_7">
     <path d="M 144.694314 308.966813 
L 141.974353 311.53319 
" style="fill: none; stroke: #000000; stroke-width: 0.8; stroke-linecap: square"/>
    </g>
    <g id="text_6">
     <!-- 12500 -->
     <g transform="translate(121.693304 334.069427) scale(0.1 -0.1)">
      <use xlink:href="#MicrosoftYaHei-31"/>
      <use xlink:href="#MicrosoftYaHei-32" x="58.642578"/>
      <use xlink:href="#MicrosoftYaHei-35" x="117.285156"/>
      <use xlink:href="#MicrosoftYaHei-30" x="175.927734"/>
      <use xlink:href="#MicrosoftYaHei-30" x="234.570312"/>
     </g>
    </g>
   </g>
   <g id="xtick_7">
    <g id="line2d_8">
     <path d="M 165.403267 315.723674 
L 162.713447 318.320005 
" style="fill: none; stroke: #000000; stroke-width: 0.8; stroke-linecap: square"/>
    </g>
    <g id="text_7">
     <!-- 15000 -->
     <g transform="translate(142.432637 340.951905) scale(0.1 -0.1)">
      <use xlink:href="#MicrosoftYaHei-31"/>
      <use xlink:href="#MicrosoftYaHei-35" x="58.642578"/>
      <use xlink:href="#MicrosoftYaHei-30" x="117.285156"/>
      <use xlink:href="#MicrosoftYaHei-30" x="175.927734"/>
      <use xlink:href="#MicrosoftYaHei-30" x="234.570312"/>
     </g>
    </g>
   </g>
   <g id="xtick_8">
    <g id="line2d_9">
     <path d="M 186.354372 322.559543 
L 183.695587 325.186356 
" style="fill: none; stroke: #000000; stroke-width: 0.8; stroke-linecap: square"/>
    </g>
    <g id="text_8">
     <!-- 17500 -->
     <g transform="translate(163.415409 347.915169) scale(0.1 -0.1)">
      <use xlink:href="#MicrosoftYaHei-31"/>
      <use xlink:href="#MicrosoftYaHei-37" x="58.642578"/>
      <use xlink:href="#MicrosoftYaHei-35" x="117.285156"/>
      <use xlink:href="#MicrosoftYaHei-30" x="175.927734"/>
      <use xlink:href="#MicrosoftYaHei-30" x="234.570312"/>
     </g>
    </g>
   </g>
   <g id="xtick_9">
    <g id="line2d_10">
     <path d="M 207.551902 329.475814 
L 204.925071 332.13365 
" style="fill: none; stroke: #000000; stroke-width: 0.8; stroke-linecap: square"/>
    </g>
    <g id="text_9">
     <!-- 20000 -->
     <g transform="translate(184.645931 354.960651) scale(0.1 -0.1)">
      <use xlink:href="#MicrosoftYaHei-32"/>
      <use xlink:href="#MicrosoftYaHei-30" x="58.642578"/>
      <use xlink:href="#MicrosoftYaHei-30" x="117.285156"/>
      <use xlink:href="#MicrosoftYaHei-30" x="175.927734"/>
      <use xlink:href="#MicrosoftYaHei-30" x="234.570312"/>
     </g>
    </g>
   </g>
   <g id="text_10">
    <!-- x / m -->
    <g transform="translate(94.454113 337.130815) rotate(-341.912962) scale(0.1 -0.1)">
     <defs>
      <path id="MicrosoftYaHei-78" d="M 3163 3456 
L 2006 1716 
L 3147 0 
L 2434 0 
L 1775 1100 
Q 1722 1188 1625 1369 
L 1613 1369 
Q 1609 1350 1456 1100 
L 784 0 
L 81 0 
L 1256 1697 
L 134 3456 
L 847 3456 
L 1494 2300 
Q 1553 2194 1638 2025 
L 1650 2025 
L 2491 3456 
L 3163 3456 
z
" transform="scale(0.015625)"/>
      <path id="MicrosoftYaHei-20" transform="scale(0.015625)"/>
      <path id="MicrosoftYaHei-2f" d="M 2791 4841 
L 469 -803 
L -103 -803 
L 2219 4841 
L 2791 4841 
z
" transform="scale(0.015625)"/>
      <path id="MicrosoftYaHei-6d" d="M 5522 0 
L 4909 0 
L 4909 1984 
Q 4909 2547 4734 2789 
Q 4559 3031 4159 3031 
Q 3822 3031 3581 2715 
Q 3341 2400 3341 1969 
L 3341 0 
L 2728 0 
L 2728 2047 
Q 2728 3031 1969 3031 
Q 1619 3031 1389 2731 
Q 1159 2431 1159 1966 
L 1159 0 
L 547 0 
L 547 3456 
L 1159 3456 
L 1159 2909 
L 1172 2909 
Q 1541 3538 2250 3538 
Q 2597 3538 2862 3347 
Q 3128 3156 3231 2831 
Q 3616 3538 4381 3538 
Q 5522 3538 5522 2131 
L 5522 0 
z
" transform="scale(0.015625)"/>
     </defs>
     <use xlink:href="#MicrosoftYaHei-78"/>
     <use xlink:href="#MicrosoftYaHei-20" x="50.683594"/>
     <use xlink:href="#MicrosoftYaHei-2f" x="80.273438"/>
     <use xlink:href="#MicrosoftYaHei-20" x="122.998047"/>
     <use xlink:href="#MicrosoftYaHei-6d" x="152.587891"/>
    </g>
   </g>
  </g>
  <g id="axis3d_2">
   <g id="line2d_11">
    <path d="M 318.433001 232.570958 
L 219.169086 334.440153 
" style="fill: none; stroke: #000000; stroke-width: 0.8; stroke-linecap: square"/>
   </g>
   <g id="xtick_10">
    <g id="line2d_12">
     <path d="M 224.468678 326.883255 
L 229.178842 328.409585 
" style="fill: none; stroke: #000000; stroke-width: 0.8; stroke-linecap: square"/>
    </g>
    <g id="text_11">
     <!-- 0 -->
     <g transform="translate(235.984441 348.807029) scale(0.1 -0.1)">
      <use xlink:href="#MicrosoftYaHei-30"/>
     </g>
    </g>
   </g>
   <g id="xtick_11">
    <g id="line2d_13">
     <path d="M 246.671273 304.138746 
L 251.318719 305.606785 
" style="fill: none; stroke: #000000; stroke-width: 0.8; stroke-linecap: square"/>
    </g>
    <g id="text_12">
     <!-- 50 -->
     <g transform="translate(254.996174 325.77357) scale(0.1 -0.1)">
      <use xlink:href="#MicrosoftYaHei-35"/>
      <use xlink:href="#MicrosoftYaHei-30" x="58.642578"/>
     </g>
    </g>
   </g>
   <g id="xtick_12">
    <g id="line2d_14">
     <path d="M 268.034404 282.254192 
L 272.62046 283.667215 
" style="fill: none; stroke: #000000; stroke-width: 0.8; stroke-linecap: square"/>
    </g>
    <g id="text_13">
     <!-- 100 -->
     <g transform="translate(273.177502 303.611752) scale(0.1 -0.1)">
      <use xlink:href="#MicrosoftYaHei-31"/>
      <use xlink:href="#MicrosoftYaHei-30" x="58.642578"/>
      <use xlink:href="#MicrosoftYaHei-30" x="117.285156"/>
     </g>
    </g>
   </g>
   <g id="xtick_13">
    <g id="line2d_15">
     <path d="M 288.604796 261.181724 
L 293.130776 262.542769 
" style="fill: none; stroke: #000000; stroke-width: 0.8; stroke-linecap: square"/>
    </g>
    <g id="text_14">
     <!-- 150 -->
     <g transform="translate(293.506719 282.273016) scale(0.1 -0.1)">
      <use xlink:href="#MicrosoftYaHei-31"/>
      <use xlink:href="#MicrosoftYaHei-35" x="58.642578"/>
      <use xlink:href="#MicrosoftYaHei-30" x="117.285156"/>
     </g>
    </g>
   </g>
   <g id="xtick_14">
    <g id="line2d_16">
     <path d="M 308.425771 240.876965 
L 312.892968 242.188847 
" style="fill: none; stroke: #000000; stroke-width: 0.8; stroke-linecap: square"/>
    </g>
    <g id="text_15">
     <!-- 200 -->
     <g transform="translate(313.09468 261.712346) scale(0.1 -0.1)">
      <use xlink:href="#MicrosoftYaHei-32"/>
      <use xlink:href="#MicrosoftYaHei-30" x="58.642578"/>
      <use xlink:href="#MicrosoftYaHei-30" x="117.285156"/>
     </g>
    </g>
   </g>
   <g id="text_16">
    <!-- y / m -->
    <g transform="translate(291.24497 320.011185) rotate(-45.742112) scale(0.1 -0.1)">
     <defs>
      <path id="MicrosoftYaHei-79" d="M 3359 3456 
L 1791 -522 
Q 1353 -1628 556 -1628 
Q 328 -1628 166 -1578 
L 166 -1041 
Q 344 -1109 509 -1109 
Q 925 -1109 1131 -622 
L 1397 6 
L 41 3456 
L 719 3456 
L 1622 859 
L 1697 575 
L 1713 575 
Q 1731 672 1788 853 
L 2731 3456 
L 3359 3456 
z
" transform="scale(0.015625)"/>
     </defs>
     <use xlink:href="#MicrosoftYaHei-79"/>
     <use xlink:href="#MicrosoftYaHei-20" x="52.929688"/>
     <use xlink:href="#MicrosoftYaHei-2f" x="82.519531"/>
     <use xlink:href="#MicrosoftYaHei-20" x="125.244141"/>
     <use xlink:href="#MicrosoftYaHei-6d" x="154.833984"/>
    </g>
   </g>
  </g>
  <g id="axis3d_3">
   <g id="line2d_17">
    <path d="M 318.433001 232.570958 
L 324.723377 95.205214 
" style="fill: none; stroke: #000000; stroke-width: 0.8; stroke-linecap: square"/>
   </g>
   <g id="xtick_15">
    <g id="line2d_18">
     <path d="M 317.333611 223.753575 
L 321.787862 225.038117 
" style="fill: none; stroke: #000000; stroke-width: 0.8; stroke-linecap: square"/>
    </g>
    <g id="text_17">
     <!-- 0 -->
     <g transform="translate(334.193653 229.581681) scale(0.1 -0.1)">
      <use xlink:href="#MicrosoftYaHei-30"/>
     </g>
    </g>
   </g>
   <g id="xtick_16">
    <g id="line2d_19">
     <path d="M 317.989869 209.267959 
L 322.465913 210.541204 
" style="fill: none; stroke: #000000; stroke-width: 0.8; stroke-linecap: square"/>
    </g>
    <g id="text_18">
     <!-- 250 -->
     <g transform="translate(329.077564 215.115142) scale(0.1 -0.1)">
      <use xlink:href="#MicrosoftYaHei-32"/>
      <use xlink:href="#MicrosoftYaHei-35" x="58.642578"/>
      <use xlink:href="#MicrosoftYaHei-30" x="117.285156"/>
     </g>
    </g>
   </g>
   <g id="xtick_17">
    <g id="line2d_20">
     <path d="M 318.652339 194.645229 
L 323.150389 195.906905 
" style="fill: none; stroke: #000000; stroke-width: 0.8; stroke-linecap: square"/>
    </g>
    <g id="text_19">
     <!-- 500 -->
     <g transform="translate(329.832604 200.511948) scale(0.1 -0.1)">
      <use xlink:href="#MicrosoftYaHei-35"/>
      <use xlink:href="#MicrosoftYaHei-30" x="58.642578"/>
      <use xlink:href="#MicrosoftYaHei-30" x="117.285156"/>
     </g>
    </g>
   </g>
   <g id="xtick_18">
    <g id="line2d_21">
     <path d="M 319.321109 179.883427 
L 323.841384 181.133257 
" style="fill: none; stroke: #000000; stroke-width: 0.8; stroke-linecap: square"/>
    </g>
    <g id="text_20">
     <!-- 750 -->
     <g transform="translate(330.59481 185.770152) scale(0.1 -0.1)">
      <use xlink:href="#MicrosoftYaHei-37"/>
      <use xlink:href="#MicrosoftYaHei-35" x="58.642578"/>
      <use xlink:href="#MicrosoftYaHei-30" x="117.285156"/>
     </g>
    </g>
   </g>
   <g id="xtick_19">
    <g id="line2d_22">
     <path d="M 319.99627 164.980562 
L 324.538989 166.21826 
" style="fill: none; stroke: #000000; stroke-width: 0.8; stroke-linecap: square"/>
    </g>
    <g id="text_21">
     <!-- 1000 -->
     <g transform="translate(328.432254 170.887771) scale(0.1 -0.1)">
      <use xlink:href="#MicrosoftYaHei-31"/>
      <use xlink:href="#MicrosoftYaHei-30" x="58.642578"/>
      <use xlink:href="#MicrosoftYaHei-30" x="117.285156"/>
      <use xlink:href="#MicrosoftYaHei-30" x="175.927734"/>
     </g>
    </g>
   </g>
   <g id="xtick_20">
    <g id="line2d_23">
     <path d="M 320.677914 149.934602 
L 325.243301 151.159876 
" style="fill: none; stroke: #000000; stroke-width: 0.8; stroke-linecap: square"/>
    </g>
    <g id="text_22">
     <!-- 1250 -->
     <g transform="translate(329.209102 155.862786) scale(0.1 -0.1)">
      <use xlink:href="#MicrosoftYaHei-31"/>
      <use xlink:href="#MicrosoftYaHei-32" x="58.642578"/>
      <use xlink:href="#MicrosoftYaHei-35" x="117.285156"/>
      <use xlink:href="#MicrosoftYaHei-30" x="175.927734"/>
     </g>
    </g>
   </g>
   <g id="xtick_21">
    <g id="line2d_24">
     <path d="M 321.366134 134.743474 
L 325.954417 135.956027 
" style="fill: none; stroke: #000000; stroke-width: 0.8; stroke-linecap: square"/>
    </g>
    <g id="text_23">
     <!-- 1500 -->
     <g transform="translate(329.99343 140.693137) scale(0.1 -0.1)">
      <use xlink:href="#MicrosoftYaHei-31"/>
      <use xlink:href="#MicrosoftYaHei-35" x="58.642578"/>
      <use xlink:href="#MicrosoftYaHei-30" x="117.285156"/>
      <use xlink:href="#MicrosoftYaHei-30" x="175.927734"/>
     </g>
    </g>
   </g>
   <g id="xtick_22">
    <g id="line2d_25">
     <path d="M 322.061026 119.405069 
L 326.672436 120.604596 
" style="fill: none; stroke: #000000; stroke-width: 0.8; stroke-linecap: square"/>
    </g>
    <g id="text_24">
     <!-- 1750 -->
     <g transform="translate(330.785346 125.376723) scale(0.1 -0.1)">
      <use xlink:href="#MicrosoftYaHei-31"/>
      <use xlink:href="#MicrosoftYaHei-37" x="58.642578"/>
      <use xlink:href="#MicrosoftYaHei-35" x="117.285156"/>
      <use xlink:href="#MicrosoftYaHei-30" x="175.927734"/>
     </g>
    </g>
   </g>
   <g id="xtick_23">
    <g id="line2d_26">
     <path d="M 322.762689 103.917234 
L 327.397458 105.103422 
" style="fill: none; stroke: #000000; stroke-width: 0.8; stroke-linecap: square"/>
    </g>
    <g id="text_25">
     <!-- 2000 -->
     <g transform="translate(331.584961 109.911406) scale(0.1 -0.1)">
      <use xlink:href="#MicrosoftYaHei-32"/>
      <use xlink:href="#MicrosoftYaHei-30" x="58.642578"/>
      <use xlink:href="#MicrosoftYaHei-30" x="117.285156"/>
      <use xlink:href="#MicrosoftYaHei-30" x="175.927734"/>
     </g>
    </g>
   </g>
   <g id="text_26">
    <!-- z / m -->
    <g transform="translate(364.129895 172.328501) rotate(-87.378092) scale(0.1 -0.1)">
     <defs>
      <path id="MicrosoftYaHei-7a" d="M 2978 0 
L 109 0 
L 109 203 
L 2119 2950 
L 297 2950 
L 297 3456 
L 2991 3456 
L 2991 3256 
L 994 506 
L 2978 506 
L 2978 0 
z
" transform="scale(0.015625)"/>
     </defs>
     <use xlink:href="#MicrosoftYaHei-7a"/>
     <use xlink:href="#MicrosoftYaHei-20" x="49.169922"/>
     <use xlink:href="#MicrosoftYaHei-2f" x="78.759766"/>
     <use xlink:href="#MicrosoftYaHei-20" x="121.484375"/>
     <use xlink:href="#MicrosoftYaHei-6d" x="151.074219"/>
    </g>
   </g>
  </g>
  <g id="axes_1">
   <g id="line2d_27">
    <path d="M 215.214657 188.021357 
L 50.858609 262.164136 
" clip-path="url(#p1b4a7bedd8)" style="fill: none; stroke: #dc2626; stroke-width: 1.5; stroke-linecap: square"/>
   </g>
   <g id="line2d_28">
    <path d="M 195.68806 195.530847 
L 194.112414 195.073463 
" clip-path="url(#p1b4a7bedd8)" style="fill: none; stroke: #0f766e; stroke-width: 1.5; stroke-linecap: square"/>
   </g>
   <g id="line2d_29">
    <path d="M 194.112414 195.073463 
L 193.981344 195.178249 
L 193.850295 195.283018 
L 193.719267 195.387769 
L 193.588261 195.492504 
L 193.457277 195.597221 
L 193.326314 195.701921 
L 193.195373 195.806604 
L 193.064453 195.911269 
L 192.933554 196.015918 
L 192.802677 196.120549 
L 192.671821 196.225164 
L 192.540987 196.329761 
L 192.410174 196.434341 
L 192.279383 196.538903 
L 192.148613 196.643449 
L 192.017865 196.747978 
L 191.887138 196.852489 
L 191.756432 196.956983 
L 191.625748 197.061461 
L 191.495085 197.165921 
L 191.364444 197.270364 
L 191.233824 197.374789 
L 191.103225 197.479198 
L 190.972648 197.58359 
L 190.842092 197.687964 
L 190.711558 197.792322 
L 190.581044 197.896662 
L 190.450553 198.000986 
L 190.320082 198.105292 
" clip-path="url(#p1b4a7bedd8)" style="fill: none; stroke: #f59e0b; stroke-width: 1.5; stroke-linecap: square"/>
   </g>
   <g id="Line3DCollection_4">
    <path d="M 143.485896 184.281138 
L 143.968484 183.874275 
L 144.436863 183.477865 
L 144.878947 183.10214 
L 145.283352 182.756774 
L 145.639687 182.450646 
L 145.938813 182.191606 
L 146.173072 181.98629 
L 146.336474 181.839949 
L 146.424846 181.756322 
L 146.435935 181.737543 
L 146.369459 181.784093 
L 146.227118 181.894783 
L 146.012548 182.066786 
L 145.731236 182.295705 
L 145.390384 182.575683 
L 144.998727 182.899545 
L 144.566324 183.258976 
L 144.104298 183.644732 
L 143.624562 184.046867 
L 143.139512 184.454992 
L 142.661712 184.858539 
L 142.203566 185.247033 
L 141.776994 185.610366 
L 141.39312 185.939067 
L 141.061975 186.224548 
L 140.792225 186.459339 
L 140.590943 186.637287 
L 140.463411 186.753723 
L 140.412982 186.805589 
L 140.440981 186.791523 
L 140.546675 186.711894 
L 140.727291 186.568793 
L 140.978088 186.365978 
L 141.292492 186.108767 
L 141.66227 185.803898 
L 142.077753 185.459342 
L 142.5281 185.084094 
L 143.001583 184.687927 
L 143.485896 184.281138 
" clip-path="url(#p1b4a7bedd8)" style="fill: none; stroke: #2563eb; stroke-opacity: 0.55; stroke-width: 0.5"/>
    <path d="M 143.485005 184.200749 
L 143.967605 183.793908 
L 144.435997 183.397518 
L 144.878092 183.021812 
L 145.282508 182.676464 
L 145.638852 182.370351 
L 145.937987 182.111325 
L 146.172252 181.90602 
L 146.335658 181.759687 
L 146.424033 181.676064 
L 146.435122 181.657286 
L 146.368645 181.703833 
L 146.226299 181.814517 
L 146.011724 181.986511 
L 145.730405 182.215419 
L 145.389543 182.495383 
L 144.997876 182.819228 
L 144.565461 183.17864 
L 144.103423 183.564376 
L 143.623675 183.96649 
L 143.138612 184.374594 
L 142.660799 184.77812 
L 142.202641 185.166594 
L 141.776057 185.529909 
L 141.392174 185.858592 
L 141.061019 186.144059 
L 140.791262 186.378838 
L 140.589975 186.556777 
L 140.46244 186.673207 
L 140.412009 186.72507 
L 140.440009 186.711005 
L 140.545706 186.631379 
L 140.726327 186.488286 
L 140.977131 186.285481 
L 141.291543 186.028284 
L 141.66133 185.723431 
L 142.076825 185.378893 
L 142.527184 185.003663 
L 143.000679 184.607517 
L 143.485005 184.200749 
" clip-path="url(#p1b4a7bedd8)" style="fill: none; stroke: #2563eb; stroke-opacity: 0.55; stroke-width: 0.5"/>
    <path d="M 143.484113 184.120356 
L 143.966727 183.713536 
L 144.435131 183.317167 
L 144.877238 182.94148 
L 145.281665 182.59615 
L 145.638018 182.290053 
L 145.93716 182.031041 
L 146.171431 181.825746 
L 146.334842 181.67942 
L 146.42322 181.595801 
L 146.434309 181.577025 
L 146.36783 181.62357 
L 146.225481 181.734248 
L 146.0109 181.906233 
L 145.729573 182.135129 
L 145.388702 182.415078 
L 144.997025 182.738906 
L 144.564599 183.0983 
L 144.102549 183.484015 
L 143.622787 183.886109 
L 143.137712 184.294192 
L 142.659886 184.697698 
L 142.201715 185.086151 
L 141.775121 185.449447 
L 141.391227 185.778114 
L 141.060064 186.063566 
L 140.7903 186.298333 
L 140.589007 186.476262 
L 140.461468 186.592686 
L 140.411036 186.644547 
L 140.439037 186.630482 
L 140.544737 186.550861 
L 140.725362 186.407775 
L 140.976173 186.204981 
L 141.290593 185.947797 
L 141.66039 185.642959 
L 142.075896 185.298439 
L 142.526267 184.923229 
L 142.999775 184.527103 
L 143.484113 184.120356 
" clip-path="url(#p1b4a7bedd8)" style="fill: none; stroke: #2563eb; stroke-opacity: 0.55; stroke-width: 0.5"/>
    <path d="M 143.483222 184.039959 
L 143.965848 183.633159 
L 144.434265 183.236811 
L 144.876384 182.861143 
L 145.280821 182.515832 
L 145.637184 182.209751 
L 145.936334 181.950751 
L 146.170611 181.745467 
L 146.334027 181.599149 
L 146.422406 181.515535 
L 146.433496 181.496759 
L 146.367015 181.543302 
L 146.224662 181.653974 
L 146.010075 181.82595 
L 145.728741 182.054834 
L 145.387862 182.334769 
L 144.996174 182.658581 
L 144.563736 183.017956 
L 144.101674 183.403651 
L 143.6219 183.805724 
L 143.136811 184.213786 
L 142.658973 184.617271 
L 142.20079 185.005704 
L 141.774184 185.368981 
L 141.39028 185.697631 
L 141.059108 185.983068 
L 140.789337 186.217823 
L 140.588038 186.395744 
L 140.460497 186.512162 
L 140.410063 186.56402 
L 140.438064 186.549955 
L 140.543767 186.470338 
L 140.724397 186.32726 
L 140.975215 186.124476 
L 141.289644 185.867305 
L 141.659451 185.562483 
L 142.074967 185.217981 
L 142.52535 184.84279 
L 142.99887 184.446685 
L 143.483222 184.039959 
" clip-path="url(#p1b4a7bedd8)" style="fill: none; stroke: #2563eb; stroke-opacity: 0.55; stroke-width: 0.5"/>
    <path d="M 143.482331 183.959557 
L 143.96497 183.552779 
L 144.433399 183.156451 
L 144.875529 182.780803 
L 145.279977 182.435509 
L 145.63635 182.129444 
L 145.935508 181.870458 
L 146.169791 181.665185 
L 146.333211 181.518874 
L 146.421593 181.435264 
L 146.432683 181.416489 
L 146.3662 181.463029 
L 146.223843 181.573696 
L 146.009251 181.745664 
L 145.72791 181.974536 
L 145.387021 182.254456 
L 144.995323 182.578251 
L 144.562874 182.937607 
L 144.100799 183.323283 
L 143.621012 183.725335 
L 143.135911 184.133376 
L 142.65806 184.536839 
L 142.199865 184.925253 
L 141.773248 185.288511 
L 141.389333 185.617144 
L 141.058152 185.902566 
L 140.788374 186.137309 
L 140.58707 186.315221 
L 140.459525 186.431633 
L 140.40909 186.483488 
L 140.437092 186.469424 
L 140.542798 186.389811 
L 140.723433 186.24674 
L 140.974257 186.043967 
L 141.288694 185.78681 
L 141.658511 185.482003 
L 142.074039 185.137519 
L 142.524434 184.762348 
L 142.997966 184.366262 
L 143.482331 183.959557 
" clip-path="url(#p1b4a7bedd8)" style="fill: none; stroke: #2563eb; stroke-opacity: 0.55; stroke-width: 0.5"/>
    <path d="M 143.481439 183.879152 
L 143.964091 183.472395 
L 144.432533 183.076087 
L 144.874675 182.700459 
L 145.279133 182.355183 
L 145.635515 182.049133 
L 145.934681 181.790161 
L 146.168971 181.584898 
L 146.332395 181.438595 
L 146.420779 181.354989 
L 146.43187 181.336215 
L 146.365385 181.382753 
L 146.223025 181.493414 
L 146.008426 181.665373 
L 145.727078 181.894233 
L 145.38618 182.174139 
L 144.994472 182.497917 
L 144.562011 182.857255 
L 144.099924 183.24291 
L 143.620125 183.644941 
L 143.13501 184.052961 
L 142.657147 184.456404 
L 142.198939 184.844797 
L 141.772311 185.208037 
L 141.388386 185.536653 
L 141.057197 185.822061 
L 140.787411 186.056791 
L 140.586102 186.234694 
L 140.458553 186.3511 
L 140.408117 186.402952 
L 140.43612 186.388889 
L 140.541828 186.30928 
L 140.722468 186.166217 
L 140.973299 185.963454 
L 141.287744 185.70631 
L 141.657571 185.401519 
L 142.07311 185.057052 
L 142.523517 184.681901 
L 142.997062 184.285836 
L 143.481439 183.879152 
" clip-path="url(#p1b4a7bedd8)" style="fill: none; stroke: #2563eb; stroke-opacity: 0.55; stroke-width: 0.5"/>
    <path d="M 143.480548 183.798742 
L 143.963213 183.392006 
L 144.431666 182.995719 
L 144.87382 182.62011 
L 145.27829 182.274852 
L 145.634681 181.968818 
L 145.933855 181.709859 
L 146.168151 181.504607 
L 146.331579 181.358312 
L 146.419966 181.27471 
L 146.431056 181.255937 
L 146.36457 181.302473 
L 146.222206 181.413128 
L 146.007602 181.585078 
L 145.726246 181.813926 
L 145.385339 182.093817 
L 144.993621 182.417578 
L 144.561149 182.776898 
L 144.099049 183.162534 
L 143.619237 183.564544 
L 143.13411 183.972543 
L 142.656234 184.375965 
L 142.198014 184.764338 
L 141.771374 185.127559 
L 141.387439 185.456158 
L 141.056241 185.741551 
L 140.786448 185.976269 
L 140.585133 186.154162 
L 140.457581 186.270562 
L 140.407144 186.322412 
L 140.435147 186.30835 
L 140.540859 186.228745 
L 140.721503 186.085689 
L 140.972341 185.882937 
L 141.286795 185.625806 
L 141.656631 185.321031 
L 142.072181 184.976582 
L 142.5226 184.601449 
L 142.996158 184.205405 
L 143.480548 183.798742 
" clip-path="url(#p1b4a7bedd8)" style="fill: none; stroke: #2563eb; stroke-opacity: 0.55; stroke-width: 0.5"/>
    <path d="M 143.479657 183.718329 
L 143.962334 183.311613 
L 144.4308 182.915347 
L 144.872966 182.539757 
L 145.277446 182.194517 
L 145.633847 181.888499 
L 145.933028 181.629554 
L 146.167331 181.424312 
L 146.330763 181.278024 
L 146.419152 181.194427 
L 146.430243 181.175655 
L 146.363755 181.222188 
L 146.221387 181.332838 
L 146.006778 181.504778 
L 145.725414 181.733615 
L 145.384498 182.013492 
L 144.992769 182.337236 
L 144.560286 182.696537 
L 144.098174 183.082153 
L 143.618349 183.484142 
L 143.133209 183.89212 
L 142.65532 184.295521 
L 142.197089 184.683874 
L 141.770437 185.047076 
L 141.386492 185.375658 
L 141.055285 185.661036 
L 140.785485 185.895743 
L 140.584165 186.073627 
L 140.45661 186.190021 
L 140.40617 186.241868 
L 140.434175 186.227807 
L 140.539889 186.148206 
L 140.720538 186.005157 
L 140.971383 185.802415 
L 141.285845 185.545298 
L 141.655691 185.240538 
L 142.071252 184.896107 
L 142.521683 184.520994 
L 142.995253 184.12497 
L 143.479657 183.718329 
" clip-path="url(#p1b4a7bedd8)" style="fill: none; stroke: #2563eb; stroke-opacity: 0.55; stroke-width: 0.5"/>
    <path d="M 143.485896 184.281138 
L 143.485005 184.200749 
L 143.484113 184.120356 
L 143.483222 184.039959 
L 143.482331 183.959557 
L 143.481439 183.879152 
L 143.480548 183.798742 
L 143.479657 183.718329 
" clip-path="url(#p1b4a7bedd8)" style="fill: none; stroke: #2563eb; stroke-opacity: 0.55; stroke-width: 0.5"/>
    <path d="M 143.968484 183.874275 
L 143.967605 183.793908 
L 143.966727 183.713536 
L 143.965848 183.633159 
L 143.96497 183.552779 
L 143.964091 183.472395 
L 143.963213 183.392006 
L 143.962334 183.311613 
" clip-path="url(#p1b4a7bedd8)" style="fill: none; stroke: #2563eb; stroke-opacity: 0.55; stroke-width: 0.5"/>
    <path d="M 144.436863 183.477865 
L 144.435997 183.397518 
L 144.435131 183.317167 
L 144.434265 183.236811 
L 144.433399 183.156451 
L 144.432533 183.076087 
L 144.431666 182.995719 
L 144.4308 182.915347 
" clip-path="url(#p1b4a7bedd8)" style="fill: none; stroke: #2563eb; stroke-opacity: 0.55; stroke-width: 0.5"/>
    <path d="M 144.878947 183.10214 
L 144.878092 183.021812 
L 144.877238 182.94148 
L 144.876384 182.861143 
L 144.875529 182.780803 
L 144.874675 182.700459 
L 144.87382 182.62011 
L 144.872966 182.539757 
" clip-path="url(#p1b4a7bedd8)" style="fill: none; stroke: #2563eb; stroke-opacity: 0.55; stroke-width: 0.5"/>
    <path d="M 145.283352 182.756774 
L 145.282508 182.676464 
L 145.281665 182.59615 
L 145.280821 182.515832 
L 145.279977 182.435509 
L 145.279133 182.355183 
L 145.27829 182.274852 
L 145.277446 182.194517 
" clip-path="url(#p1b4a7bedd8)" style="fill: none; stroke: #2563eb; stroke-opacity: 0.55; stroke-width: 0.5"/>
    <path d="M 145.639687 182.450646 
L 145.638852 182.370351 
L 145.638018 182.290053 
L 145.637184 182.209751 
L 145.63635 182.129444 
L 145.635515 182.049133 
L 145.634681 181.968818 
L 145.633847 181.888499 
" clip-path="url(#p1b4a7bedd8)" style="fill: none; stroke: #2563eb; stroke-opacity: 0.55; stroke-width: 0.5"/>
    <path d="M 145.938813 182.191606 
L 145.937987 182.111325 
L 145.93716 182.031041 
L 145.936334 181.950751 
L 145.935508 181.870458 
L 145.934681 181.790161 
L 145.933855 181.709859 
L 145.933028 181.629554 
" clip-path="url(#p1b4a7bedd8)" style="fill: none; stroke: #2563eb; stroke-opacity: 0.55; stroke-width: 0.5"/>
    <path d="M 146.173072 181.98629 
L 146.172252 181.90602 
L 146.171431 181.825746 
L 146.170611 181.745467 
L 146.169791 181.665185 
L 146.168971 181.584898 
L 146.168151 181.504607 
L 146.167331 181.424312 
" clip-path="url(#p1b4a7bedd8)" style="fill: none; stroke: #2563eb; stroke-opacity: 0.55; stroke-width: 0.5"/>
    <path d="M 146.336474 181.839949 
L 146.335658 181.759687 
L 146.334842 181.67942 
L 146.334027 181.599149 
L 146.333211 181.518874 
L 146.332395 181.438595 
L 146.331579 181.358312 
L 146.330763 181.278024 
" clip-path="url(#p1b4a7bedd8)" style="fill: none; stroke: #2563eb; stroke-opacity: 0.55; stroke-width: 0.5"/>
    <path d="M 146.424846 181.756322 
L 146.424033 181.676064 
L 146.42322 181.595801 
L 146.422406 181.515535 
L 146.421593 181.435264 
L 146.420779 181.354989 
L 146.419966 181.27471 
L 146.419152 181.194427 
" clip-path="url(#p1b4a7bedd8)" style="fill: none; stroke: #2563eb; stroke-opacity: 0.55; stroke-width: 0.5"/>
    <path d="M 146.435935 181.737543 
L 146.435122 181.657286 
L 146.434309 181.577025 
L 146.433496 181.496759 
L 146.432683 181.416489 
L 146.43187 181.336215 
L 146.431056 181.255937 
L 146.430243 181.175655 
" clip-path="url(#p1b4a7bedd8)" style="fill: none; stroke: #2563eb; stroke-opacity: 0.55; stroke-width: 0.5"/>
    <path d="M 146.369459 181.784093 
L 146.368645 181.703833 
L 146.36783 181.62357 
L 146.367015 181.543302 
L 146.3662 181.463029 
L 146.365385 181.382753 
L 146.36457 181.302473 
L 146.363755 181.222188 
" clip-path="url(#p1b4a7bedd8)" style="fill: none; stroke: #2563eb; stroke-opacity: 0.55; stroke-width: 0.5"/>
    <path d="M 146.227118 181.894783 
L 146.226299 181.814517 
L 146.225481 181.734248 
L 146.224662 181.653974 
L 146.223843 181.573696 
L 146.223025 181.493414 
L 146.222206 181.413128 
L 146.221387 181.332838 
" clip-path="url(#p1b4a7bedd8)" style="fill: none; stroke: #2563eb; stroke-opacity: 0.55; stroke-width: 0.5"/>
    <path d="M 146.012548 182.066786 
L 146.011724 181.986511 
L 146.0109 181.906233 
L 146.010075 181.82595 
L 146.009251 181.745664 
L 146.008426 181.665373 
L 146.007602 181.585078 
L 146.006778 181.504778 
" clip-path="url(#p1b4a7bedd8)" style="fill: none; stroke: #2563eb; stroke-opacity: 0.55; stroke-width: 0.5"/>
    <path d="M 145.731236 182.295705 
L 145.730405 182.215419 
L 145.729573 182.135129 
L 145.728741 182.054834 
L 145.72791 181.974536 
L 145.727078 181.894233 
L 145.726246 181.813926 
L 145.725414 181.733615 
" clip-path="url(#p1b4a7bedd8)" style="fill: none; stroke: #2563eb; stroke-opacity: 0.55; stroke-width: 0.5"/>
    <path d="M 145.390384 182.575683 
L 145.389543 182.495383 
L 145.388702 182.415078 
L 145.387862 182.334769 
L 145.387021 182.254456 
L 145.38618 182.174139 
L 145.385339 182.093817 
L 145.384498 182.013492 
" clip-path="url(#p1b4a7bedd8)" style="fill: none; stroke: #2563eb; stroke-opacity: 0.55; stroke-width: 0.5"/>
    <path d="M 144.998727 182.899545 
L 144.997876 182.819228 
L 144.997025 182.738906 
L 144.996174 182.658581 
L 144.995323 182.578251 
L 144.994472 182.497917 
L 144.993621 182.417578 
L 144.992769 182.337236 
" clip-path="url(#p1b4a7bedd8)" style="fill: none; stroke: #2563eb; stroke-opacity: 0.55; stroke-width: 0.5"/>
    <path d="M 144.566324 183.258976 
L 144.565461 183.17864 
L 144.564599 183.0983 
L 144.563736 183.017956 
L 144.562874 182.937607 
L 144.562011 182.857255 
L 144.561149 182.776898 
L 144.560286 182.696537 
" clip-path="url(#p1b4a7bedd8)" style="fill: none; stroke: #2563eb; stroke-opacity: 0.55; stroke-width: 0.5"/>
    <path d="M 144.104298 183.644732 
L 144.103423 183.564376 
L 144.102549 183.484015 
L 144.101674 183.403651 
L 144.100799 183.323283 
L 144.099924 183.24291 
L 144.099049 183.162534 
L 144.098174 183.082153 
" clip-path="url(#p1b4a7bedd8)" style="fill: none; stroke: #2563eb; stroke-opacity: 0.55; stroke-width: 0.5"/>
    <path d="M 143.624562 184.046867 
L 143.623675 183.96649 
L 143.622787 183.886109 
L 143.6219 183.805724 
L 143.621012 183.725335 
L 143.620125 183.644941 
L 143.619237 183.564544 
L 143.618349 183.484142 
" clip-path="url(#p1b4a7bedd8)" style="fill: none; stroke: #2563eb; stroke-opacity: 0.55; stroke-width: 0.5"/>
    <path d="M 143.139512 184.454992 
L 143.138612 184.374594 
L 143.137712 184.294192 
L 143.136811 184.213786 
L 143.135911 184.133376 
L 143.13501 184.052961 
L 143.13411 183.972543 
L 143.133209 183.89212 
" clip-path="url(#p1b4a7bedd8)" style="fill: none; stroke: #2563eb; stroke-opacity: 0.55; stroke-width: 0.5"/>
    <path d="M 142.661712 184.858539 
L 142.660799 184.77812 
L 142.659886 184.697698 
L 142.658973 184.617271 
L 142.65806 184.536839 
L 142.657147 184.456404 
L 142.656234 184.375965 
L 142.65532 184.295521 
" clip-path="url(#p1b4a7bedd8)" style="fill: none; stroke: #2563eb; stroke-opacity: 0.55; stroke-width: 0.5"/>
    <path d="M 142.203566 185.247033 
L 142.202641 185.166594 
L 142.201715 185.086151 
L 142.20079 185.005704 
L 142.199865 184.925253 
L 142.198939 184.844797 
L 142.198014 184.764338 
L 142.197089 184.683874 
" clip-path="url(#p1b4a7bedd8)" style="fill: none; stroke: #2563eb; stroke-opacity: 0.55; stroke-width: 0.5"/>
    <path d="M 141.776994 185.610366 
L 141.776057 185.529909 
L 141.775121 185.449447 
L 141.774184 185.368981 
L 141.773248 185.288511 
L 141.772311 185.208037 
L 141.771374 185.127559 
L 141.770437 185.047076 
" clip-path="url(#p1b4a7bedd8)" style="fill: none; stroke: #2563eb; stroke-opacity: 0.55; stroke-width: 0.5"/>
    <path d="M 141.39312 185.939067 
L 141.392174 185.858592 
L 141.391227 185.778114 
L 141.39028 185.697631 
L 141.389333 185.617144 
L 141.388386 185.536653 
L 141.387439 185.456158 
L 141.386492 185.375658 
" clip-path="url(#p1b4a7bedd8)" style="fill: none; stroke: #2563eb; stroke-opacity: 0.55; stroke-width: 0.5"/>
    <path d="M 141.061975 186.224548 
L 141.061019 186.144059 
L 141.060064 186.063566 
L 141.059108 185.983068 
L 141.058152 185.902566 
L 141.057197 185.822061 
L 141.056241 185.741551 
L 141.055285 185.661036 
" clip-path="url(#p1b4a7bedd8)" style="fill: none; stroke: #2563eb; stroke-opacity: 0.55; stroke-width: 0.5"/>
    <path d="M 140.792225 186.459339 
L 140.791262 186.378838 
L 140.7903 186.298333 
L 140.789337 186.217823 
L 140.788374 186.137309 
L 140.787411 186.056791 
L 140.786448 185.976269 
L 140.785485 185.895743 
" clip-path="url(#p1b4a7bedd8)" style="fill: none; stroke: #2563eb; stroke-opacity: 0.55; stroke-width: 0.5"/>
    <path d="M 140.590943 186.637287 
L 140.589975 186.556777 
L 140.589007 186.476262 
L 140.588038 186.395744 
L 140.58707 186.315221 
L 140.586102 186.234694 
L 140.585133 186.154162 
L 140.584165 186.073627 
" clip-path="url(#p1b4a7bedd8)" style="fill: none; stroke: #2563eb; stroke-opacity: 0.55; stroke-width: 0.5"/>
    <path d="M 140.463411 186.753723 
L 140.46244 186.673207 
L 140.461468 186.592686 
L 140.460497 186.512162 
L 140.459525 186.431633 
L 140.458553 186.3511 
L 140.457581 186.270562 
L 140.45661 186.190021 
" clip-path="url(#p1b4a7bedd8)" style="fill: none; stroke: #2563eb; stroke-opacity: 0.55; stroke-width: 0.5"/>
    <path d="M 140.412982 186.805589 
L 140.412009 186.72507 
L 140.411036 186.644547 
L 140.410063 186.56402 
L 140.40909 186.483488 
L 140.408117 186.402952 
L 140.407144 186.322412 
L 140.40617 186.241868 
" clip-path="url(#p1b4a7bedd8)" style="fill: none; stroke: #2563eb; stroke-opacity: 0.55; stroke-width: 0.5"/>
    <path d="M 140.440981 186.791523 
L 140.440009 186.711005 
L 140.439037 186.630482 
L 140.438064 186.549955 
L 140.437092 186.469424 
L 140.43612 186.388889 
L 140.435147 186.30835 
L 140.434175 186.227807 
" clip-path="url(#p1b4a7bedd8)" style="fill: none; stroke: #2563eb; stroke-opacity: 0.55; stroke-width: 0.5"/>
    <path d="M 140.546675 186.711894 
L 140.545706 186.631379 
L 140.544737 186.550861 
L 140.543767 186.470338 
L 140.542798 186.389811 
L 140.541828 186.30928 
L 140.540859 186.228745 
L 140.539889 186.148206 
" clip-path="url(#p1b4a7bedd8)" style="fill: none; stroke: #2563eb; stroke-opacity: 0.55; stroke-width: 0.5"/>
    <path d="M 140.727291 186.568793 
L 140.726327 186.488286 
L 140.725362 186.407775 
L 140.724397 186.32726 
L 140.723433 186.24674 
L 140.722468 186.166217 
L 140.721503 186.085689 
L 140.720538 186.005157 
" clip-path="url(#p1b4a7bedd8)" style="fill: none; stroke: #2563eb; stroke-opacity: 0.55; stroke-width: 0.5"/>
    <path d="M 140.978088 186.365978 
L 140.977131 186.285481 
L 140.976173 186.204981 
L 140.975215 186.124476 
L 140.974257 186.043967 
L 140.973299 185.963454 
L 140.972341 185.882937 
L 140.971383 185.802415 
" clip-path="url(#p1b4a7bedd8)" style="fill: none; stroke: #2563eb; stroke-opacity: 0.55; stroke-width: 0.5"/>
    <path d="M 141.292492 186.108767 
L 141.291543 186.028284 
L 141.290593 185.947797 
L 141.289644 185.867305 
L 141.288694 185.78681 
L 141.287744 185.70631 
L 141.286795 185.625806 
L 141.285845 185.545298 
" clip-path="url(#p1b4a7bedd8)" style="fill: none; stroke: #2563eb; stroke-opacity: 0.55; stroke-width: 0.5"/>
    <path d="M 141.66227 185.803898 
L 141.66133 185.723431 
L 141.66039 185.642959 
L 141.659451 185.562483 
L 141.658511 185.482003 
L 141.657571 185.401519 
L 141.656631 185.321031 
L 141.655691 185.240538 
" clip-path="url(#p1b4a7bedd8)" style="fill: none; stroke: #2563eb; stroke-opacity: 0.55; stroke-width: 0.5"/>
    <path d="M 142.077753 185.459342 
L 142.076825 185.378893 
L 142.075896 185.298439 
L 142.074967 185.217981 
L 142.074039 185.137519 
L 142.07311 185.057052 
L 142.072181 184.976582 
L 142.071252 184.896107 
" clip-path="url(#p1b4a7bedd8)" style="fill: none; stroke: #2563eb; stroke-opacity: 0.55; stroke-width: 0.5"/>
    <path d="M 142.5281 185.084094 
L 142.527184 185.003663 
L 142.526267 184.923229 
L 142.52535 184.84279 
L 142.524434 184.762348 
L 142.523517 184.681901 
L 142.5226 184.601449 
L 142.521683 184.520994 
" clip-path="url(#p1b4a7bedd8)" style="fill: none; stroke: #2563eb; stroke-opacity: 0.55; stroke-width: 0.5"/>
    <path d="M 143.001583 184.687927 
L 143.000679 184.607517 
L 142.999775 184.527103 
L 142.99887 184.446685 
L 142.997966 184.366262 
L 142.997062 184.285836 
L 142.996158 184.205405 
L 142.995253 184.12497 
" clip-path="url(#p1b4a7bedd8)" style="fill: none; stroke: #2563eb; stroke-opacity: 0.55; stroke-width: 0.5"/>
    <path d="M 143.485896 184.281138 
L 143.485005 184.200749 
L 143.484113 184.120356 
L 143.483222 184.039959 
L 143.482331 183.959557 
L 143.481439 183.879152 
L 143.480548 183.798742 
L 143.479657 183.718329 
" clip-path="url(#p1b4a7bedd8)" style="fill: none; stroke: #2563eb; stroke-opacity: 0.55; stroke-width: 0.5"/>
   </g>
   <g id="text_27">
    <!-- 真目标（圆柱） -->
    <g style="fill: #1d4ed8" transform="translate(143.352497 176.933641) scale(0.09 -0.09)">
     <defs>
      <path id="MicrosoftYaHei-771f" d="M 156 778 
L 1056 778 
L 1056 3978 
L 2894 3978 
L 2894 4428 
L 250 4428 
L 250 4828 
L 2894 4828 
L 2894 5328 
L 3381 5328 
L 3381 4828 
L 6144 4828 
L 6144 4428 
L 3381 4428 
L 3381 3978 
L 5344 3978 
L 5344 778 
L 6263 778 
L 6263 378 
L 156 378 
L 156 778 
z
M 1531 778 
L 4869 778 
L 4869 1209 
L 1531 1209 
L 1531 778 
z
M 4869 3591 
L 1531 3591 
L 1531 3166 
L 4869 3166 
L 4869 3591 
z
M 1531 2372 
L 4869 2372 
L 4869 2797 
L 1531 2797 
L 1531 2372 
z
M 1531 1578 
L 4869 1578 
L 4869 2003 
L 1531 2003 
L 1531 1578 
z
M 3744 -72 
L 3975 316 
Q 4925 28 6169 -416 
L 5944 -859 
Q 4819 -422 3744 -72 
z
M 2369 334 
L 2663 -41 
Q 1656 -503 481 -891 
Q 388 -691 256 -453 
Q 1219 -172 2369 334 
z
" transform="scale(0.015625)"/>
      <path id="MicrosoftYaHei-76ee" d="M 944 5016 
L 5469 5016 
L 5469 -772 
L 4938 -772 
L 4938 -303 
L 1475 -303 
L 1475 -772 
L 944 -772 
L 944 5016 
z
M 1475 1341 
L 1475 159 
L 4938 159 
L 4938 1341 
L 1475 1341 
z
M 1475 2947 
L 1475 1778 
L 4938 1778 
L 4938 2947 
L 1475 2947 
z
M 1475 4553 
L 1475 3384 
L 4938 3384 
L 4938 4553 
L 1475 4553 
z
" transform="scale(0.015625)"/>
      <path id="MicrosoftYaHei-6807" d="M 75 1409 
Q 769 2478 1025 3647 
L 119 3647 
L 119 4072 
L 1069 4072 
L 1069 5297 
L 1506 5297 
L 1506 4072 
L 2356 4072 
L 2356 3647 
L 1506 3647 
L 1506 2541 
L 1775 2822 
Q 2175 2478 2481 2159 
L 2150 1816 
Q 1850 2156 1506 2503 
L 1506 -797 
L 1069 -797 
L 1069 2588 
Q 738 1513 281 859 
Q 194 1128 75 1409 
z
M 2350 3097 
L 6250 3097 
L 6250 2659 
L 4525 2659 
L 4525 47 
Q 4525 -734 3806 -734 
Q 3469 -741 2975 -728 
Q 2944 -503 2888 -209 
Q 3319 -259 3675 -259 
Q 4050 -259 4050 203 
L 4050 2659 
L 2350 2659 
L 2350 3097 
z
M 2638 4928 
L 5963 4928 
L 5963 4491 
L 2638 4491 
L 2638 4928 
z
M 4938 1853 
L 5381 2066 
Q 5975 928 6369 72 
L 5869 -147 
Q 5463 822 4938 1853 
z
M 2931 2066 
L 3400 1878 
Q 2888 734 2381 -153 
Q 2188 -41 1925 66 
Q 2425 872 2931 2066 
z
" transform="scale(0.015625)"/>
      <path id="MicrosoftYaHei-ff08" d="M 5288 -1100 
Q 4172 119 4172 1850 
Q 4172 3603 5288 4838 
L 5825 4838 
Q 4716 3572 4716 1856 
Q 4716 166 5819 -1100 
L 5288 -1100 
z
" transform="scale(0.015625)"/>
      <path id="MicrosoftYaHei-5706" d="M 431 5047 
L 5944 5047 
L 5944 -834 
L 5475 -834 
L 5475 -534 
L 900 -534 
L 900 -834 
L 431 -834 
L 431 5047 
z
M 1763 4222 
L 4638 4222 
L 4638 2834 
L 4213 2834 
L 4213 2978 
L 2188 2978 
L 2188 2834 
L 1763 2834 
L 1763 4222 
z
M 3338 1378 
Q 4269 903 5100 384 
L 4825 28 
Q 4131 509 3213 1022 
Q 2919 347 1375 53 
Q 1294 228 1144 466 
Q 2425 672 2738 1097 
Q 2981 1397 2969 2034 
L 3406 2034 
Q 3406 1666 3338 1378 
z
M 1588 2572 
L 4788 2572 
L 4788 1059 
L 4363 1059 
L 4363 2184 
L 2013 2184 
L 2013 1009 
L 1588 1009 
L 1588 2572 
z
M 4213 3366 
L 4213 3834 
L 2188 3834 
L 2188 3366 
L 4213 3366 
z
M 5475 -97 
L 5475 4609 
L 900 4609 
L 900 -97 
L 5475 -97 
z
" transform="scale(0.015625)"/>
      <path id="MicrosoftYaHei-67f1" d="M 2188 -16 
L 3988 -16 
L 3988 1809 
L 2588 1809 
L 2588 2259 
L 3988 2259 
L 3988 3747 
L 2400 3747 
L 2400 4197 
L 6119 4197 
L 6119 3747 
L 4500 3747 
L 4500 2259 
L 5919 2259 
L 5919 1809 
L 4500 1809 
L 4500 -16 
L 6319 -16 
L 6319 -466 
L 2188 -466 
L 2188 -16 
z
M 63 1403 
Q 641 2338 947 3584 
L 156 3584 
L 156 4016 
L 981 4016 
L 981 5291 
L 1463 5291 
L 1463 4016 
L 2213 4016 
L 2213 3584 
L 1463 3584 
L 1463 2503 
L 1669 2697 
Q 2019 2366 2375 1978 
L 2025 1666 
Q 1750 2009 1463 2316 
L 1463 -816 
L 981 -816 
L 981 2450 
Q 678 1478 263 853 
Q 175 1122 63 1403 
z
M 3631 5116 
L 4044 5372 
Q 4381 4972 4644 4572 
L 4206 4284 
Q 3981 4672 3631 5116 
z
" transform="scale(0.015625)"/>
      <path id="MicrosoftYaHei-ff09" d="M 1113 -1100 
L 575 -1100 
Q 1684 163 1684 1888 
Q 1684 3581 581 4838 
L 1113 4838 
Q 2222 3628 2222 1888 
Q 2222 128 1113 -1100 
z
" transform="scale(0.015625)"/>
     </defs>
     <use xlink:href="#MicrosoftYaHei-771f"/>
     <use xlink:href="#MicrosoftYaHei-76ee" x="100"/>
     <use xlink:href="#MicrosoftYaHei-6807" x="200"/>
     <use xlink:href="#MicrosoftYaHei-ff08" x="300"/>
     <use xlink:href="#MicrosoftYaHei-5706" x="400"/>
     <use xlink:href="#MicrosoftYaHei-67f1" x="500"/>
     <use xlink:href="#MicrosoftYaHei-ff09" x="600"/>
    </g>
   </g>
   <g id="text_28">
    <!-- 假目标 -->
    <g style="fill: #111827" transform="translate(50.561556 255.069868) scale(0.09 -0.09)">
     <defs>
      <path id="MicrosoftYaHei-5047" d="M 3763 4953 
L 3763 2841 
L 3325 2841 
L 3325 3034 
L 2319 3034 
L 2319 2247 
L 3625 2247 
L 3625 1847 
L 2319 1847 
L 2319 1047 
L 3706 1047 
L 3706 647 
L 2319 647 
L 2319 -847 
L 1856 -847 
L 1856 4953 
L 3763 4953 
z
M 3756 2109 
L 3756 2497 
L 5963 2497 
L 5963 2122 
Q 5763 1094 5191 369 
Q 5663 -106 6381 -378 
Q 6138 -659 6031 -816 
Q 5350 -463 4888 34 
Q 4309 -531 3450 -872 
Q 3325 -684 3156 -472 
Q 4044 -159 4606 375 
Q 4081 1109 3941 2109 
L 3756 2109 
z
M 63 2247 
Q 863 3666 1175 5316 
L 1638 5228 
Q 1478 4528 1256 3881 
L 1256 -859 
L 819 -859 
L 819 2788 
Q 566 2244 263 1741 
Q 181 1984 63 2247 
z
M 3969 3447 
L 5475 3447 
L 5475 4559 
L 4006 4559 
L 4006 4959 
L 5913 4959 
L 5913 2809 
L 5475 2809 
L 5475 3047 
L 3969 3047 
L 3969 3447 
z
M 3325 4553 
L 2319 4553 
L 2319 3434 
L 3325 3434 
L 3325 4553 
z
M 5513 2109 
L 4350 2109 
Q 4484 1288 4903 703 
Q 5366 1297 5513 2109 
z
" transform="scale(0.015625)"/>
     </defs>
     <use xlink:href="#MicrosoftYaHei-5047"/>
     <use xlink:href="#MicrosoftYaHei-76ee" x="100"/>
     <use xlink:href="#MicrosoftYaHei-6807" x="200"/>
    </g>
   </g>
   <g id="text_29">
    <!-- F2 Q1 固定策略几何关系 -->
    <g transform="translate(106.854375 16.7925) scale(0.12 -0.12)">
     <defs>
      <path id="MicrosoftYaHei-46" d="M 3119 4284 
L 1250 4284 
L 1250 2666 
L 2981 2666 
L 2981 2116 
L 1250 2116 
L 1250 0 
L 625 0 
L 625 4841 
L 3119 4841 
L 3119 4284 
z
" transform="scale(0.015625)"/>
      <path id="MicrosoftYaHei-51" d="M 313 2363 
Q 313 3534 947 4228 
Q 1581 4922 2666 4922 
Q 3675 4922 4290 4244 
Q 4906 3566 4906 2478 
Q 4906 1300 4275 609 
Q 4125 447 3953 322 
L 5313 -653 
L 4284 -653 
L 3366 28 
Q 3009 -81 2588 -81 
Q 1556 -81 934 597 
Q 313 1275 313 2363 
z
M 969 2413 
Q 969 1534 1417 1004 
Q 1866 475 2588 475 
Q 3363 475 3805 983 
Q 4247 1491 4247 2403 
Q 4247 3341 3814 3850 
Q 3381 4359 2628 4359 
Q 1888 4359 1428 3821 
Q 969 3284 969 2413 
z
" transform="scale(0.015625)"/>
      <path id="MicrosoftYaHei-56fa" d="M 469 4997 
L 5938 4997 
L 5938 -834 
L 5469 -834 
L 5469 -509 
L 944 -509 
L 944 -841 
L 469 -841 
L 469 4997 
z
M 5469 4541 
L 944 4541 
L 944 -53 
L 5469 -53 
L 5469 4541 
z
M 1869 2459 
L 2963 2459 
L 2963 3216 
L 1313 3216 
L 1313 3641 
L 2963 3641 
L 2963 4366 
L 3425 4366 
L 3425 3641 
L 5081 3641 
L 5081 3216 
L 3425 3216 
L 3425 2459 
L 4531 2459 
L 4531 434 
L 4081 434 
L 4081 691 
L 2319 691 
L 2319 434 
L 1869 434 
L 1869 2459 
z
M 4081 2047 
L 2319 2047 
L 2319 1103 
L 4081 1103 
L 4081 2047 
z
" transform="scale(0.015625)"/>
      <path id="MicrosoftYaHei-5b9a" d="M 81 -384 
Q 1119 509 1281 2241 
L 1806 2159 
Q 1731 1581 1578 1081 
Q 2063 50 3081 -103 
L 3081 2647 
L 225 2647 
L 225 3116 
L 6163 3116 
L 6163 2647 
L 3600 2647 
L 3600 1634 
L 5775 1634 
L 5775 1172 
L 3600 1172 
L 3600 -138 
Q 4844 -169 6306 -116 
Q 6200 -359 6125 -634 
Q 4594 -653 3450 -616 
Q 2041 -616 1378 528 
Q 1022 -300 413 -872 
Q 269 -628 81 -384 
z
M 450 4566 
L 3116 4566 
Q 2931 4834 2725 5091 
L 3200 5347 
Q 3444 5066 3731 4716 
L 3450 4566 
L 5981 4566 
L 5981 3378 
L 5488 3378 
L 5488 4097 
L 944 4097 
L 944 3384 
L 450 3384 
L 450 4566 
z
" transform="scale(0.015625)"/>
      <path id="MicrosoftYaHei-7b56" d="M 6306 -128 
Q 6094 -397 5969 -591 
Q 4284 122 3438 1069 
L 3438 -841 
L 2975 -841 
L 2975 1053 
Q 1894 6 413 -666 
Q 250 -447 88 -272 
Q 1709 366 2975 1622 
L 2975 2034 
L 1269 2034 
L 1269 828 
L 813 828 
L 813 2422 
L 2975 2422 
L 2975 2928 
L 263 2928 
L 263 3322 
L 2975 3322 
L 2975 3703 
L 3438 3703 
L 3438 3322 
L 6156 3322 
L 6156 2928 
L 3438 2928 
L 3438 2422 
L 5706 2422 
L 5706 1403 
Q 5706 784 5069 784 
Q 4813 784 4513 803 
Q 4488 1047 4438 1272 
Q 4763 1222 4950 1222 
Q 5250 1222 5250 1516 
L 5250 2034 
L 3438 2034 
L 3438 1625 
Q 4619 372 6306 -128 
z
M 1294 5347 
L 1831 5347 
Q 1688 5041 1513 4759 
L 3325 4759 
L 3325 4372 
L 1244 4372 
Q 875 3878 388 3459 
Q 263 3609 75 3797 
Q 856 4428 1294 5347 
z
M 4006 5347 
L 4513 5347 
Q 4375 5031 4231 4759 
L 6225 4759 
L 6225 4372 
L 4013 4372 
Q 3778 3981 3525 3697 
Q 3388 3797 3088 3934 
Q 3663 4553 4006 5347 
z
M 4781 3416 
Q 4644 3628 4263 4072 
L 4588 4303 
Q 4919 3991 5150 3697 
L 4781 3416 
z
M 1988 3416 
Q 1750 3728 1469 4053 
L 1794 4284 
Q 2094 3997 2356 3697 
L 1988 3416 
z
" transform="scale(0.015625)"/>
      <path id="MicrosoftYaHei-7565" d="M 413 4716 
L 2600 4716 
L 2600 -222 
L 2188 -222 
L 2188 97 
L 825 97 
L 825 -347 
L 413 -347 
L 413 4716 
z
M 2638 3378 
Q 3269 4222 3719 5341 
L 4169 5197 
Q 4044 4913 3919 4653 
L 5888 4653 
L 5888 4234 
Q 5453 3375 4819 2756 
Q 5434 2328 6331 2109 
Q 6194 1853 6094 1591 
Q 5122 1919 4466 2450 
Q 3797 1925 2906 1516 
Q 2756 1772 2619 1947 
Q 3463 2269 4125 2763 
Q 3747 3159 3428 3734 
Q 3200 3353 2969 3047 
Q 2781 3266 2638 3378 
z
M 3200 1584 
L 5756 1584 
L 5756 -847 
L 5294 -847 
L 5294 -547 
L 3663 -547 
L 3663 -847 
L 3200 -847 
L 3200 1584 
z
M 5294 1147 
L 3663 1147 
L 3663 -109 
L 5294 -109 
L 5294 1147 
z
M 5363 4228 
L 3703 4228 
L 3666 4159 
Q 4013 3475 4466 3041 
Q 4963 3500 5363 4228 
z
M 825 516 
L 1300 516 
L 1300 2209 
L 825 2209 
L 825 516 
z
M 1713 516 
L 2188 516 
L 2188 2209 
L 1713 2209 
L 1713 516 
z
M 2188 4297 
L 1713 4297 
L 1713 2628 
L 2188 2628 
L 2188 4297 
z
M 825 2628 
L 1300 2628 
L 1300 4297 
L 825 4297 
L 825 2628 
z
" transform="scale(0.015625)"/>
      <path id="MicrosoftYaHei-51e0" d="M 1475 4959 
L 4563 4959 
L 4563 328 
Q 4563 -78 4919 -78 
L 5269 -78 
Q 5619 -78 5669 303 
Q 5731 703 5781 1284 
Q 6025 1178 6325 1084 
Q 6244 466 6181 128 
Q 6069 -578 5356 -578 
L 4806 -578 
Q 4025 -578 4025 272 
L 4025 4478 
L 2013 4478 
L 2013 2897 
Q 2013 1409 1706 734 
Q 1369 -34 450 -734 
Q 300 -534 81 -278 
Q 925 347 1200 997 
Q 1475 1578 1475 2897 
L 1475 4959 
z
" transform="scale(0.015625)"/>
      <path id="MicrosoftYaHei-4f55" d="M 2288 3509 
L 4406 3509 
L 4406 1022 
L 2738 1022 
L 2738 703 
L 2288 703 
L 2288 3509 
z
M 2113 4847 
L 6306 4847 
L 6306 4384 
L 5756 4384 
L 5756 153 
Q 5756 -772 4906 -778 
Q 4613 -784 3913 -772 
Q 3875 -541 3813 -234 
Q 4344 -284 4794 -284 
Q 5269 -297 5269 234 
L 5269 4384 
L 2113 4384 
L 2113 4847 
z
M 56 2259 
Q 969 3628 1425 5303 
L 1925 5153 
Q 1688 4428 1425 3797 
L 1425 -841 
L 944 -841 
L 944 2784 
Q 631 2203 281 1722 
Q 188 1991 56 2259 
z
M 3956 3066 
L 2738 3066 
L 2738 1466 
L 3956 1466 
L 3956 3066 
z
" transform="scale(0.015625)"/>
      <path id="MicrosoftYaHei-5173" d="M 131 -397 
Q 2372 400 2803 1897 
L 256 1897 
L 256 2372 
L 2894 2372 
Q 2906 2506 2906 3566 
L 625 3566 
L 625 4041 
L 2125 4041 
Q 1588 4631 1206 4991 
L 1569 5316 
Q 2106 4834 2550 4397 
L 2150 4041 
L 3641 4041 
Q 4125 4725 4494 5322 
L 5013 5034 
Q 4581 4484 4219 4041 
L 5800 4041 
L 5800 3566 
L 3438 3566 
Q 3438 2647 3428 2372 
L 6169 2372 
L 6169 1897 
L 3516 1897 
Q 4250 325 6281 -259 
Q 6025 -522 5819 -766 
Q 3894 -16 3203 1491 
Q 2694 28 494 -847 
Q 331 -634 131 -397 
z
" transform="scale(0.015625)"/>
      <path id="MicrosoftYaHei-7cfb" d="M 4494 2747 
Q 5294 2103 6131 1334 
Q 5925 1134 5750 953 
Q 5491 1209 5225 1459 
Q 4391 1425 3519 1378 
L 3519 -28 
Q 3519 -741 2769 -741 
Q 2463 -741 1963 -728 
Q 1931 -497 1881 -216 
Q 2406 -272 2688 -272 
Q 3031 -272 3031 66 
L 3031 1353 
Q 2272 1313 1488 1266 
Q 1131 1247 781 1184 
L 575 1722 
Q 988 1797 1356 1966 
Q 2313 2434 3131 2909 
Q 2044 2825 1306 2759 
Q 981 2728 813 2691 
L 613 3216 
Q 913 3291 1175 3434 
Q 1959 3872 2747 4469 
Q 1675 4403 575 4353 
Q 531 4572 463 4791 
Q 3444 4903 5756 5134 
L 5850 4691 
Q 4494 4578 3097 4488 
L 3350 4309 
Q 2369 3653 1538 3203 
Q 2938 3281 3856 3353 
Q 4481 3753 5013 4159 
L 5419 3828 
Q 3850 2709 1775 1734 
Q 3019 1778 4791 1866 
Q 4478 2153 4163 2428 
L 4494 2747 
z
M 4125 697 
L 4444 1034 
Q 5231 509 6175 -222 
L 5806 -628 
Q 4931 97 4125 697 
z
M 1681 1028 
L 2088 709 
Q 1288 -9 406 -678 
Q 256 -497 63 -297 
Q 875 259 1681 1028 
z
" transform="scale(0.015625)"/>
     </defs>
     <use xlink:href="#MicrosoftYaHei-46"/>
     <use xlink:href="#MicrosoftYaHei-32" x="53.125"/>
     <use xlink:href="#MicrosoftYaHei-20" x="111.767578"/>
     <use xlink:href="#MicrosoftYaHei-51" x="141.357422"/>
     <use xlink:href="#MicrosoftYaHei-31" x="222.851562"/>
     <use xlink:href="#MicrosoftYaHei-20" x="281.494141"/>
     <use xlink:href="#MicrosoftYaHei-56fa" x="311.083984"/>
     <use xlink:href="#MicrosoftYaHei-5b9a" x="411.083984"/>
     <use xlink:href="#MicrosoftYaHei-7b56" x="511.083984"/>
     <use xlink:href="#MicrosoftYaHei-7565" x="611.083984"/>
     <use xlink:href="#MicrosoftYaHei-51e0" x="711.083984"/>
     <use xlink:href="#MicrosoftYaHei-4f55" x="811.083984"/>
     <use xlink:href="#MicrosoftYaHei-5173" x="911.083984"/>
     <use xlink:href="#MicrosoftYaHei-7cfb" x="1011.083984"/>
    </g>
   </g>
   <g id="Path3DCollection_1">
    <defs>
     <path id="m09b82e0706" d="M -3.535534 3.535534 
L 3.535534 -3.535534 
M -3.535534 -3.535534 
L 3.535534 3.535534 
" style="stroke: #111827; stroke-width: 1.5"/>
    </defs>
    <g clip-path="url(#p1b4a7bedd8)">
     <use xlink:href="#m09b82e0706" x="50.858609" y="262.164136" style="fill: #111827; stroke: #111827; stroke-width: 1.5"/>
    </g>
   </g>
   <g id="Path3DCollection_2">
    <defs>
     <path id="mb799d96adf" d="M 0 2.95804 
C 0.784481 2.95804 1.536938 2.646362 2.09165 2.09165 
C 2.646362 1.536938 2.95804 0.784481 2.95804 0 
C 2.95804 -0.784481 2.646362 -1.536938 2.09165 -2.09165 
C 1.536938 -2.646362 0.784481 -2.95804 0 -2.95804 
C -0.784481 -2.95804 -1.536938 -2.646362 -2.09165 -2.09165 
C -2.646362 -1.536938 -2.95804 -0.784481 -2.95804 0 
C -2.95804 0.784481 -2.646362 1.536938 -2.09165 2.09165 
C -1.536938 2.646362 -0.784481 2.95804 0 2.95804 
z
" style="stroke: #f59e0b"/>
    </defs>
    <g clip-path="url(#p1b4a7bedd8)">
     <use xlink:href="#mb799d96adf" x="190.320082" y="198.105292" style="fill: #f59e0b; stroke: #f59e0b"/>
    </g>
   </g>
   <g id="legend_1">
    <g id="patch_6">
     <path d="M 14.2 77.231562 
L 76.2 77.231562 
Q 78.2 77.231562 78.2 75.231562 
L 78.2 29.7925 
Q 78.2 27.7925 76.2 27.7925 
L 14.2 27.7925 
Q 12.2 27.7925 12.2 29.7925 
L 12.2 75.231562 
Q 12.2 77.231562 14.2 77.231562 
z
" style="fill: #ffffff; opacity: 0.8; stroke: #cccccc; stroke-linejoin: miter"/>
    </g>
    <g id="line2d_30">
     <path d="M 16.2 36.28625 
L 26.2 36.28625 
L 36.2 36.28625 
" style="fill: none; stroke: #dc2626; stroke-width: 1.5; stroke-linecap: square"/>
    </g>
    <g id="text_30">
     <!-- M1 -->
     <g transform="translate(44.2 39.78625) scale(0.1 -0.1)">
      <defs>
       <path id="MicrosoftYaHei-4d" d="M 5003 0 
L 5003 3206 
Q 5003 3603 5050 4159 
L 5034 4159 
Q 4953 3809 4891 3672 
L 3294 0 
L 2947 0 
L 1353 3644 
Q 1297 3769 1209 4159 
L 1191 4159 
Q 1222 3822 1222 3178 
L 1222 0 
L 625 0 
L 625 4841 
L 1472 4841 
L 2900 1522 
Q 3063 1141 3116 928 
L 3138 928 
Q 3300 1375 3366 1534 
L 4819 4841 
L 5625 4841 
L 5625 0 
L 5003 0 
z
" transform="scale(0.015625)"/>
      </defs>
      <use xlink:href="#MicrosoftYaHei-4d"/>
      <use xlink:href="#MicrosoftYaHei-31" x="97.705078"/>
     </g>
    </g>
    <g id="line2d_31">
     <path d="M 16.2 51.765937 
L 26.2 51.765937 
L 36.2 51.765937 
" style="fill: none; stroke: #0f766e; stroke-width: 1.5; stroke-linecap: square"/>
    </g>
    <g id="text_31">
     <!-- FY1 -->
     <g transform="translate(44.2 55.265937) scale(0.1 -0.1)">
      <defs>
       <path id="MicrosoftYaHei-59" d="M 3828 4841 
L 2234 1781 
L 2234 0 
L 1606 0 
L 1606 1766 
L 53 4841 
L 769 4841 
L 1816 2697 
Q 1819 2694 1931 2388 
L 1941 2388 
Q 1978 2519 2069 2694 
L 3163 4841 
L 3828 4841 
z
" transform="scale(0.015625)"/>
      </defs>
      <use xlink:href="#MicrosoftYaHei-46"/>
      <use xlink:href="#MicrosoftYaHei-59" x="53.125"/>
      <use xlink:href="#MicrosoftYaHei-31" x="113.476562"/>
     </g>
    </g>
    <g id="line2d_32">
     <path d="M 16.2 67.245625 
L 26.2 67.245625 
L 36.2 67.245625 
" style="fill: none; stroke: #f59e0b; stroke-width: 1.5; stroke-linecap: square"/>
    </g>
    <g id="text_32">
     <!-- 干扰弹 -->
     <g transform="translate(44.2 70.745625) scale(0.1 -0.1)">
      <defs>
       <path id="MicrosoftYaHei-5e72" d="M 100 2578 
L 2913 2578 
L 2913 4384 
L 600 4384 
L 600 4859 
L 5794 4859 
L 5794 4384 
L 3469 4384 
L 3469 2578 
L 6306 2578 
L 6306 2103 
L 3469 2103 
L 3469 -841 
L 2913 -841 
L 2913 2103 
L 100 2103 
L 100 2578 
z
" transform="scale(0.015625)"/>
       <path id="MicrosoftYaHei-6270" d="M 2306 3722 
L 3234 3722 
Q 3259 4422 3256 5309 
L 3744 5309 
Q 3744 4434 3716 3722 
L 6169 3722 
L 6169 3253 
L 4663 3253 
L 4663 184 
Q 4663 -178 4969 -178 
L 5319 -178 
Q 5675 -178 5750 197 
Q 5831 591 5863 1128 
Q 6119 1022 6350 941 
Q 6275 384 6206 34 
Q 6081 -647 5400 -647 
L 4875 -647 
Q 4181 -647 4181 141 
L 4181 3253 
L 3694 3253 
Q 3638 641 2244 -872 
Q 2056 -666 1850 -484 
Q 3175 928 3213 3253 
L 2306 3253 
L 2306 3722 
z
M 88 1978 
Q 519 2084 969 2203 
L 969 3609 
L 144 3609 
L 144 4059 
L 969 4059 
L 969 5303 
L 1450 5303 
L 1450 4059 
L 2188 4059 
L 2188 3609 
L 1450 3609 
L 1450 2331 
Q 1825 2434 2213 2547 
Q 2225 2259 2256 2059 
Q 1859 1947 1450 1828 
L 1450 -59 
Q 1450 -759 825 -759 
Q 631 -759 219 -747 
Q 194 -491 138 -228 
Q 531 -272 725 -272 
Q 969 -272 969 34 
L 969 1688 
Q 566 1569 150 1441 
L 88 1978 
z
M 4319 4853 
L 4594 5172 
Q 5138 4797 5638 4391 
L 5319 4022 
Q 4888 4416 4319 4853 
z
" transform="scale(0.015625)"/>
       <path id="MicrosoftYaHei-5f39" d="M 2950 5084 
L 3325 5341 
Q 3631 4997 3956 4534 
L 3584 4284 
L 4494 4284 
Q 4834 4828 5119 5341 
L 5581 5072 
Q 5325 4697 5028 4284 
L 6006 4284 
L 6006 1309 
L 5569 1309 
L 5569 1528 
L 4506 1528 
L 4506 759 
L 6319 759 
L 6319 341 
L 4506 341 
L 4506 -834 
L 4056 -834 
L 4056 341 
L 2213 341 
L 2213 759 
L 4056 759 
L 4056 1528 
L 2994 1528 
L 2994 1309 
L 2556 1309 
L 2556 4284 
L 3509 4284 
Q 3266 4684 2950 5084 
z
M 156 4972 
L 1969 4972 
L 1969 2859 
L 1531 2859 
L 1531 3072 
L 831 3072 
L 731 1997 
L 1956 1997 
Q 1944 1103 1906 241 
Q 1863 -703 1063 -703 
Q 844 -703 281 -691 
Q 244 -453 175 -197 
Q 750 -241 981 -241 
Q 1425 -241 1444 272 
Q 1481 966 1494 1572 
L 250 1572 
L 431 3497 
L 1531 3497 
L 1531 4547 
L 156 4547 
L 156 4972 
z
M 4506 1947 
L 5569 1947 
L 5569 2703 
L 4506 2703 
L 4506 1947 
z
M 2994 3866 
L 2994 3109 
L 4056 3109 
L 4056 3866 
L 2994 3866 
z
M 5569 3866 
L 4506 3866 
L 4506 3109 
L 5569 3109 
L 5569 3866 
z
M 2994 1947 
L 4056 1947 
L 4056 2703 
L 2994 2703 
L 2994 1947 
z
" transform="scale(0.015625)"/>
      </defs>
      <use xlink:href="#MicrosoftYaHei-5e72"/>
      <use xlink:href="#MicrosoftYaHei-6270" x="100"/>
      <use xlink:href="#MicrosoftYaHei-5f39" x="200"/>
     </g>
    </g>
   </g>
   <g id="Path3DCollection_3">
    <defs>
     <path id="m9e3536a58a" d="M 0 2.95804 
C 0.784481 2.95804 1.536938 2.646362 2.09165 2.09165 
C 2.646362 1.536938 2.95804 0.784481 2.95804 0 
C 2.95804 -0.784481 2.646362 -1.536938 2.09165 -2.09165 
C 1.536938 -2.646362 0.784481 -2.95804 0 -2.95804 
C -0.784481 -2.95804 -1.536938 -2.646362 -2.09165 -2.09165 
C -2.646362 -1.536938 -2.95804 -0.784481 -2.95804 0 
C -2.95804 0.784481 -2.646362 1.536938 -2.09165 2.09165 
C -1.536938 2.646362 -0.784481 2.95804 0 2.95804 
z
" style="stroke: #0f766e"/>
    </defs>
    <g clip-path="url(#p1b4a7bedd8)">
     <use xlink:href="#m9e3536a58a" x="194.112414" y="195.073463" style="fill: #0f766e; stroke: #0f766e"/>
    </g>
   </g>
  </g>
 </g>
 <defs>
  <clipPath id="p1b4a7bedd8">
   <rect x="7.2" y="22.7925" width="332.64" height="332.64"/>
  </clipPath>
 </defs>
</svg>
