<?xml version="1.0" encoding="utf-8" standalone="no"?>
<!DOCTYPE svg PUBLIC "-//W3C//DTD SVG 1.1//EN"
  "http://www.w3.org/Graphics/SVG/1.1/DTD/svg11.dtd">
<svg xmlns:xlink="http://www.w3.org/1999/xlink" width="460.8pt" height="279.4725pt" viewBox="0 0 460.8 279.4725" xmlns="http://www.w3.org/2000/svg" version="1.1">
 <metadata>
  <rdf:RDF xmlns:dc="http://purl.org/dc/elements/1.1/" xmlns:cc="http://creativecommons.org/ns#" xmlns:rdf="http://www.w3.org/1999/02/22-rdf-syntax-ns#">
   <cc:Work>
    <dc:type rdf:resource="http://purl.org/dc/dcmitype/StillImage"/>
    <dc:date>2026-07-22T20:44:06.462114</dc:date>
    <dc:format>image/svg+xml</dc:format>
    <dc:creator>
     <cc:Agent>
      <dc:title>Matplotlib v3.9.2, https://matplotlib.org/</dc:title>
     </cc:Agent>
    </dc:creator>
   </cc:Work>
  </rdf:RDF>
 </metadata>
 <defs>
  <style type="text/css">*{stroke-linejoin: round; stroke-linecap: butt}</style>
 </defs>
 <g id="figure_1">
  <g id="patch_1">
   <path d="M 0 279.4725 
L 460.8 279.4725 
L 460.8 0 
L 0 0 
z
" style="fill: #ffffff"/>
  </g>
  <g id="axes_1">
   <g id="PathCollection_1">
    <defs>
     <path id="maf5cac5f34" d="M 0 15 
C 3.978047 15 7.793698 13.419505 10.606602 10.606602 
C 13.419505 7.793698 15 3.978047 15 0 
C 15 -3.978047 13.419505 -7.793698 10.606602 -10.606602 
C 7.793698 -13.419505 3.978047 -15 0 -15 
C -3.978047 -15 -7.793698 -13.419505 -10.606602 -10.606602 
C -13.419505 -7.793698 -15 -3.978047 -15 0 
C -15 3.978047 -13.419505 7.793698 -10.606602 10.606602 
C -7.793698 13.419505 -3.978047 15 0 15 
z
" style="stroke: #2563eb"/>
    </defs>
    <g clip-path="url(#p68cb12252b)">
     <use xlink:href="#maf5cac5f34" x="51.84" y="64.3725" style="fill: #dbeafe; stroke: #2563eb"/>
    </g>
   </g>
   <g id="PathCollection_2">
    <g clip-path="url(#p68cb12252b)">
     <use xlink:href="#maf5cac5f34" x="51.84" y="105.9525" style="fill: #dbeafe; stroke: #2563eb"/>
    </g>
   </g>
   <g id="PathCollection_3">
    <g clip-path="url(#p68cb12252b)">
     <use xlink:href="#maf5cac5f34" x="51.84" y="147.5325" style="fill: #dbeafe; stroke: #2563eb"/>
    </g>
   </g>
   <g id="PathCollection_4">
    <g clip-path="url(#p68cb12252b)">
     <use xlink:href="#maf5cac5f34" x="51.84" y="189.1125" style="fill: #dbeafe; stroke: #2563eb"/>
    </g>
   </g>
   <g id="PathCollection_5">
    <g clip-path="url(#p68cb12252b)">
     <use xlink:href="#maf5cac5f34" x="51.84" y="230.6925" style="fill: #dbeafe; stroke: #2563eb"/>
    </g>
   </g>
   <g id="PathCollection_6">
    <defs>
     <path id="m0a118e03f6" d="M 0 15 
C 3.978047 15 7.793698 13.419505 10.606602 10.606602 
C 13.419505 7.793698 15 3.978047 15 0 
C 15 -3.978047 13.419505 -7.793698 10.606602 -10.606602 
C 7.793698 -13.419505 3.978047 -15 0 -15 
C -3.978047 -15 -7.793698 -13.419505 -10.606602 -10.606602 
C -13.419505 -7.793698 -15 -3.978047 -15 0 
C -15 3.978047 -13.419505 7.793698 -10.606602 10.606602 
C -7.793698 13.419505 -3.978047 15 0 15 
z
" style="stroke: #15803d"/>
    </defs>
    <g clip-path="url(#p68cb12252b)">
     <use xlink:href="#m0a118e03f6" x="408.96" y="97.6365" style="fill: #dcfce7; stroke: #15803d"/>
    </g>
   </g>
   <g id="PathCollection_7">
    <g clip-path="url(#p68cb12252b)">
     <use xlink:href="#m0a118e03f6" x="408.96" y="160.0065" style="fill: #dcfce7; stroke: #15803d"/>
    </g>
   </g>
   <g id="PathCollection_8">
    <g clip-path="url(#p68cb12252b)">
     <use xlink:href="#m0a118e03f6" x="408.96" y="222.3765" style="fill: #dcfce7; stroke: #15803d"/>
    </g>
   </g>
   <g id="line2d_1">
    <path d="M 83.088 64.3725 
L 377.712 97.6365 
" clip-path="url(#p68cb12252b)" style="fill: none; stroke: #0f766e; stroke-width: 2; stroke-linecap: square"/>
   </g>
   <g id="line2d_2">
    <path d="M 83.088 105.9525 
L 377.712 160.0065 
" clip-path="url(#p68cb12252b)" style="fill: none; stroke: #0f766e; stroke-width: 2; stroke-linecap: square"/>
   </g>
   <g id="line2d_3">
    <path d="M 83.088 230.6925 
L 377.712 222.3765 
" clip-path="url(#p68cb12252b)" style="fill: none; stroke: #0f766e; stroke-width: 2; stroke-linecap: square"/>
   </g>
   <g id="text_1">
    <!-- FY1 -->
    <g transform="translate(43.23375 67.126406) scale(0.1 -0.1)">
     <defs>
      <path id="MicrosoftYaHei-46" d="M 3119 4284 
L 1250 4284 
L 1250 2666 
L 2981 2666 
L 2981 2116 
L 1250 2116 
L 1250 0 
L 625 0 
L 625 4841 
L 3119 4841 
L 3119 4284 
z
" transform="scale(0.015625)"/>
      <path id="MicrosoftYaHei-59" d="M 3828 4841 
L 2234 1781 
L 2234 0 
L 1606 0 
L 1606 1766 
L 53 4841 
L 769 4841 
L 1816 2697 
Q 1819 2694 1931 2388 
L 1941 2388 
Q 1978 2519 2069 2694 
L 3163 4841 
L 3828 4841 
z
" transform="scale(0.015625)"/>
      <path id="MicrosoftYaHei-31" d="M 1781 0 
L 1781 4141 
Q 1638 3997 1295 3819 
Q 953 3641 663 3569 
L 663 4169 
Q 1047 4275 1484 4508 
Q 1922 4741 2156 4947 
L 2388 4947 
L 2388 0 
L 1781 0 
z
" transform="scale(0.015625)"/>
     </defs>
     <use xlink:href="#MicrosoftYaHei-46"/>
     <use xlink:href="#MicrosoftYaHei-59" x="53.125"/>
     <use xlink:href="#MicrosoftYaHei-31" x="113.476562"/>
    </g>
   </g>
   <g id="text_2">
    <!-- FY2 -->
    <g transform="translate(43.23375 108.706406) scale(0.1 -0.1)">
     <defs>
      <path id="MicrosoftYaHei-32" d="M 2666 3572 
Q 2666 3963 2419 4186 
Q 2172 4409 1747 4409 
Q 1447 4409 1140 4256 
Q 834 4103 569 3819 
L 569 4413 
Q 806 4659 1107 4790 
Q 1409 4922 1816 4922 
Q 2472 4922 2872 4570 
Q 3272 4219 3272 3619 
Q 3272 3084 3026 2693 
Q 2781 2303 2188 1894 
Q 1581 1475 1376 1294 
Q 1172 1113 1090 947 
Q 1009 781 1009 544 
L 3416 544 
L 3416 0 
L 372 0 
L 372 241 
Q 372 659 486 951 
Q 600 1244 862 1520 
Q 1125 1797 1681 2184 
Q 2250 2584 2458 2886 
Q 2666 3188 2666 3572 
z
" transform="scale(0.015625)"/>
     </defs>
     <use xlink:href="#MicrosoftYaHei-46"/>
     <use xlink:href="#MicrosoftYaHei-59" x="53.125"/>
     <use xlink:href="#MicrosoftYaHei-32" x="113.476562"/>
    </g>
   </g>
   <g id="text_3">
    <!-- FY3 -->
    <g transform="translate(43.23375 150.286406) scale(0.1 -0.1)">
     <defs>
      <path id="MicrosoftYaHei-33" d="M 447 809 
Q 944 425 1569 425 
Q 2069 425 2361 670 
Q 2653 916 2653 1328 
Q 2653 2247 1338 2247 
L 934 2247 
L 934 2753 
L 1319 2753 
Q 2484 2753 2484 3616 
Q 2484 4413 1594 4413 
Q 1084 4413 634 4069 
L 634 4647 
Q 1109 4922 1744 4922 
Q 2363 4922 2738 4598 
Q 3113 4275 3113 3759 
Q 3113 2809 2144 2538 
L 2144 2525 
Q 2669 2469 2973 2155 
Q 3278 1841 3278 1372 
Q 3278 719 2808 319 
Q 2338 -81 1556 -81 
Q 869 -81 447 175 
L 447 809 
z
" transform="scale(0.015625)"/>
     </defs>
     <use xlink:href="#MicrosoftYaHei-46"/>
     <use xlink:href="#MicrosoftYaHei-59" x="53.125"/>
     <use xlink:href="#MicrosoftYaHei-33" x="113.476562"/>
    </g>
   </g>
   <g id="text_4">
    <!-- FY4 -->
    <g transform="translate(43.23375 191.866406) scale(0.1 -0.1)">
     <defs>
      <path id="MicrosoftYaHei-34" d="M 2906 4841 
L 2906 1644 
L 3631 1644 
L 3631 1138 
L 2906 1138 
L 2906 0 
L 2313 0 
L 2313 1138 
L 53 1138 
L 53 1616 
Q 656 2294 1265 3178 
Q 1875 4063 2272 4841 
L 2906 4841 
z
M 741 1644 
L 2313 1644 
L 2313 3950 
Q 1988 3366 1616 2817 
Q 1244 2269 741 1644 
z
" transform="scale(0.015625)"/>
     </defs>
     <use xlink:href="#MicrosoftYaHei-46"/>
     <use xlink:href="#MicrosoftYaHei-59" x="53.125"/>
     <use xlink:href="#MicrosoftYaHei-34" x="113.476562"/>
    </g>
   </g>
   <g id="text_5">
    <!-- FY5 -->
    <g transform="translate(43.23375 233.446406) scale(0.1 -0.1)">
     <defs>
      <path id="MicrosoftYaHei-35" d="M 3294 1494 
Q 3294 784 2823 350 
Q 2353 -84 1559 -84 
Q 878 -84 544 119 
L 544 744 
Q 1034 425 1544 425 
Q 2050 425 2361 704 
Q 2672 984 2672 1447 
Q 2672 1909 2348 2167 
Q 2025 2425 1434 2425 
Q 978 2425 613 2384 
L 791 4841 
L 3053 4841 
L 3053 4303 
L 1306 4303 
L 1206 2931 
L 1647 2950 
Q 2416 2950 2855 2567 
Q 3294 2184 3294 1494 
z
" transform="scale(0.015625)"/>
     </defs>
     <use xlink:href="#MicrosoftYaHei-46"/>
     <use xlink:href="#MicrosoftYaHei-59" x="53.125"/>
     <use xlink:href="#MicrosoftYaHei-35" x="113.476562"/>
    </g>
   </g>
   <g id="text_6">
    <!-- M1 -->
    <g transform="translate(401.142813 100.390406) scale(0.1 -0.1)">
     <defs>
      <path id="MicrosoftYaHei-4d" d="M 5003 0 
L 5003 3206 
Q 5003 3603 5050 4159 
L 5034 4159 
Q 4953 3809 4891 3672 
L 3294 0 
L 2947 0 
L 1353 3644 
Q 1297 3769 1209 4159 
L 1191 4159 
Q 1222 3822 1222 3178 
L 1222 0 
L 625 0 
L 625 4841 
L 1472 4841 
L 2900 1522 
Q 3063 1141 3116 928 
L 3138 928 
Q 3300 1375 3366 1534 
L 4819 4841 
L 5625 4841 
L 5625 0 
L 5003 0 
z
" transform="scale(0.015625)"/>
     </defs>
     <use xlink:href="#MicrosoftYaHei-4d"/>
     <use xlink:href="#MicrosoftYaHei-31" x="97.705078"/>
    </g>
   </g>
   <g id="text_7">
    <!-- M2 -->
    <g transform="translate(401.142813 162.760406) scale(0.1 -0.1)">
     <use xlink:href="#MicrosoftYaHei-4d"/>
     <use xlink:href="#MicrosoftYaHei-32" x="97.705078"/>
    </g>
   </g>
   <g id="text_8">
    <!-- M3 -->
    <g transform="translate(401.142813 225.130406) scale(0.1 -0.1)">
     <use xlink:href="#MicrosoftYaHei-4d"/>
     <use xlink:href="#MicrosoftYaHei-33" x="97.705078"/>
    </g>
   </g>
   <g id="text_9">
    <!-- 弹1，2.238 s -->
    <g transform="translate(206.673125 73.5201) scale(0.08 -0.08)">
     <defs>
      <path id="MicrosoftYaHei-5f39" d="M 2950 5084 
L 3325 5341 
Q 3631 4997 3956 4534 
L 3584 4284 
L 4494 4284 
Q 4834 4828 5119 5341 
L 5581 5072 
Q 5325 4697 5028 4284 
L 6006 4284 
L 6006 1309 
L 5569 1309 
L 5569 1528 
L 4506 1528 
L 4506 759 
L 6319 759 
L 6319 341 
L 4506 341 
L 4506 -834 
L 4056 -834 
L 4056 341 
L 2213 341 
L 2213 759 
L 4056 759 
L 4056 1528 
L 2994 1528 
L 2994 1309 
L 2556 1309 
L 2556 4284 
L 3509 4284 
Q 3266 4684 2950 5084 
z
M 156 4972 
L 1969 4972 
L 1969 2859 
L 1531 2859 
L 1531 3072 
L 831 3072 
L 731 1997 
L 1956 1997 
Q 1944 1103 1906 241 
Q 1863 -703 1063 -703 
Q 844 -703 281 -691 
Q 244 -453 175 -197 
Q 750 -241 981 -241 
Q 1425 -241 1444 272 
Q 1481 966 1494 1572 
L 250 1572 
L 431 3497 
L 1531 3497 
L 1531 4547 
L 156 4547 
L 156 4972 
z
M 4506 1947 
L 5569 1947 
L 5569 2703 
L 4506 2703 
L 4506 1947 
z
M 2994 3866 
L 2994 3109 
L 4056 3109 
L 4056 3866 
L 2994 3866 
z
M 5569 3866 
L 4506 3866 
L 4506 3109 
L 5569 3109 
L 5569 3866 
z
M 2994 1947 
L 4056 1947 
L 4056 2703 
L 2994 2703 
L 2994 1947 
z
" transform="scale(0.015625)"/>
      <path id="MicrosoftYaHei-ff0c" d="M 1931 775 
L 1403 -891 
L 966 -891 
L 1350 775 
L 1931 775 
z
" transform="scale(0.015625)"/>
      <path id="MicrosoftYaHei-2e" d="M 372 322 
Q 372 491 487 606 
Q 603 722 775 722 
Q 950 722 1065 605 
Q 1181 488 1181 322 
Q 1181 159 1065 42 
Q 950 -75 772 -75 
Q 600 -75 486 42 
Q 372 159 372 322 
z
" transform="scale(0.015625)"/>
      <path id="MicrosoftYaHei-38" d="M 306 1350 
Q 306 1769 556 2122 
Q 806 2475 1200 2625 
Q 884 2803 700 3081 
Q 516 3359 516 3684 
Q 516 4028 692 4312 
Q 869 4597 1183 4759 
Q 1497 4922 1875 4922 
Q 2256 4922 2572 4761 
Q 2888 4600 3063 4315 
Q 3238 4031 3238 3684 
Q 3238 3366 3058 3086 
Q 2878 2806 2559 2625 
Q 2953 2472 3200 2119 
Q 3447 1766 3447 1350 
Q 3447 938 3250 611 
Q 3053 284 2690 103 
Q 2328 -78 1875 -78 
Q 1425 -78 1065 103 
Q 706 284 506 612 
Q 306 941 306 1350 
z
M 906 1378 
Q 906 947 1172 687 
Q 1438 428 1878 428 
Q 2309 428 2582 692 
Q 2856 956 2856 1378 
Q 2856 1778 2579 2051 
Q 2303 2325 1878 2325 
Q 1456 2325 1181 2058 
Q 906 1791 906 1378 
z
M 1081 3634 
Q 1081 3309 1312 3076 
Q 1544 2844 1878 2844 
Q 2206 2844 2445 3078 
Q 2684 3313 2684 3634 
Q 2684 3963 2454 4191 
Q 2225 4419 1878 4419 
Q 1534 4419 1307 4195 
Q 1081 3972 1081 3634 
z
" transform="scale(0.015625)"/>
      <path id="MicrosoftYaHei-20" transform="scale(0.015625)"/>
      <path id="MicrosoftYaHei-73" d="M 353 747 
Q 816 413 1350 413 
Q 2066 413 2066 881 
Q 2066 1081 1909 1211 
Q 1753 1341 1275 1519 
Q 700 1750 528 1976 
Q 356 2203 356 2525 
Q 356 2984 745 3261 
Q 1134 3538 1703 3538 
Q 2144 3538 2522 3384 
L 2522 2794 
Q 2134 3044 1644 3044 
Q 1350 3044 1165 2916 
Q 981 2788 981 2578 
Q 981 2372 1114 2256 
Q 1247 2141 1703 1959 
Q 2281 1744 2484 1512 
Q 2688 1281 2688 941 
Q 2688 466 2298 192 
Q 1909 -81 1291 -81 
Q 753 -81 353 122 
L 353 747 
z
" transform="scale(0.015625)"/>
     </defs>
     <use xlink:href="#MicrosoftYaHei-5f39"/>
     <use xlink:href="#MicrosoftYaHei-31" x="100"/>
     <use xlink:href="#MicrosoftYaHei-ff0c" x="158.642578"/>
     <use xlink:href="#MicrosoftYaHei-32" x="258.642578"/>
     <use xlink:href="#MicrosoftYaHei-2e" x="317.285156"/>
     <use xlink:href="#MicrosoftYaHei-32" x="341.357422"/>
     <use xlink:href="#MicrosoftYaHei-33" x="400"/>
     <use xlink:href="#MicrosoftYaHei-38" x="458.642578"/>
     <use xlink:href="#MicrosoftYaHei-20" x="517.285156"/>
     <use xlink:href="#MicrosoftYaHei-73" x="546.875"/>
    </g>
   </g>
   <g id="text_10">
    <!-- 弹1，1.982 s -->
    <g transform="translate(206.673125 125.4951) scale(0.08 -0.08)">
     <defs>
      <path id="MicrosoftYaHei-39" d="M 578 656 
Q 978 425 1441 425 
Q 2091 425 2448 937 
Q 2806 1450 2806 2394 
Q 2800 2388 2794 2394 
Q 2475 1788 1722 1788 
Q 1113 1788 713 2206 
Q 313 2625 313 3294 
Q 313 4006 750 4464 
Q 1188 4922 1884 4922 
Q 2606 4922 3012 4355 
Q 3419 3788 3419 2703 
Q 3419 1363 2894 641 
Q 2369 -81 1441 -81 
Q 931 -81 578 84 
L 578 656 
z
M 931 3372 
Q 931 2884 1181 2598 
Q 1431 2313 1872 2313 
Q 2253 2313 2512 2573 
Q 2772 2834 2772 3206 
Q 2772 3728 2514 4070 
Q 2256 4413 1834 4413 
Q 1444 4413 1187 4116 
Q 931 3819 931 3372 
z
" transform="scale(0.015625)"/>
     </defs>
     <use xlink:href="#MicrosoftYaHei-5f39"/>
     <use xlink:href="#MicrosoftYaHei-31" x="100"/>
     <use xlink:href="#MicrosoftYaHei-ff0c" x="158.642578"/>
     <use xlink:href="#MicrosoftYaHei-31" x="258.642578"/>
     <use xlink:href="#MicrosoftYaHei-2e" x="317.285156"/>
     <use xlink:href="#MicrosoftYaHei-39" x="341.357422"/>
     <use xlink:href="#MicrosoftYaHei-38" x="400"/>
     <use xlink:href="#MicrosoftYaHei-32" x="458.642578"/>
     <use xlink:href="#MicrosoftYaHei-20" x="517.285156"/>
     <use xlink:href="#MicrosoftYaHei-73" x="546.875"/>
    </g>
   </g>
   <g id="text_11">
    <!-- 弹1，1.877 s -->
    <g transform="translate(206.673125 219.0501) scale(0.08 -0.08)">
     <defs>
      <path id="MicrosoftYaHei-37" d="M 3422 4463 
Q 2659 3131 2223 1998 
Q 1788 866 1684 0 
L 1047 0 
Q 1163 853 1594 1947 
Q 2025 3041 2747 4300 
L 347 4300 
L 347 4841 
L 3422 4841 
L 3422 4463 
z
" transform="scale(0.015625)"/>
     </defs>
     <use xlink:href="#MicrosoftYaHei-5f39"/>
     <use xlink:href="#MicrosoftYaHei-31" x="100"/>
     <use xlink:href="#MicrosoftYaHei-ff0c" x="158.642578"/>
     <use xlink:href="#MicrosoftYaHei-31" x="258.642578"/>
     <use xlink:href="#MicrosoftYaHei-2e" x="317.285156"/>
     <use xlink:href="#MicrosoftYaHei-38" x="341.357422"/>
     <use xlink:href="#MicrosoftYaHei-37" x="400"/>
     <use xlink:href="#MicrosoftYaHei-37" x="458.642578"/>
     <use xlink:href="#MicrosoftYaHei-20" x="517.285156"/>
     <use xlink:href="#MicrosoftYaHei-73" x="546.875"/>
    </g>
   </g>
   <g id="text_12">
    <!-- F6 Q5 冻结主目标任务分配 -->
    <g transform="translate(157.734375 16.7925) scale(0.12 -0.12)">
     <defs>
      <path id="MicrosoftYaHei-36" d="M 3181 4219 
Q 2803 4413 2391 4413 
Q 1763 4413 1381 3866 
Q 1000 3319 994 2372 
L 1009 2372 
Q 1353 3038 2106 3038 
Q 2734 3038 3109 2628 
Q 3484 2219 3484 1541 
Q 3484 831 3051 375 
Q 2619 -81 1947 -81 
Q 1209 -81 789 495 
Q 369 1072 369 2131 
Q 369 3413 920 4167 
Q 1472 4922 2372 4922 
Q 2888 4922 3181 4781 
L 3181 4219 
z
M 1031 1584 
Q 1031 1106 1286 765 
Q 1541 425 1963 425 
Q 2363 425 2613 719 
Q 2863 1013 2863 1475 
Q 2863 1975 2627 2253 
Q 2391 2531 1956 2531 
Q 1544 2531 1287 2250 
Q 1031 1969 1031 1584 
z
" transform="scale(0.015625)"/>
      <path id="MicrosoftYaHei-51" d="M 313 2363 
Q 313 3534 947 4228 
Q 1581 4922 2666 4922 
Q 3675 4922 4290 4244 
Q 4906 3566 4906 2478 
Q 4906 1300 4275 609 
Q 4125 447 3953 322 
L 5313 -653 
L 4284 -653 
L 3366 28 
Q 3009 -81 2588 -81 
Q 1556 -81 934 597 
Q 313 1275 313 2363 
z
M 969 2413 
Q 969 1534 1417 1004 
Q 1866 475 2588 475 
Q 3363 475 3805 983 
Q 4247 1491 4247 2403 
Q 4247 3341 3814 3850 
Q 3381 4359 2628 4359 
Q 1888 4359 1428 3821 
Q 969 3284 969 2413 
z
" transform="scale(0.015625)"/>
      <path id="MicrosoftYaHei-51bb" d="M 1750 4484 
L 2922 4484 
L 3294 5309 
L 3850 5309 
L 3481 4484 
L 6125 4484 
L 6125 4022 
L 3275 4022 
L 2556 2403 
L 3900 2403 
L 3900 3447 
L 4400 3447 
L 4400 2403 
L 6175 2403 
L 6175 1941 
L 4400 1941 
L 4400 47 
Q 4400 -734 3650 -734 
Q 3331 -734 2919 -728 
Q 2888 -509 2819 -209 
Q 3188 -241 3519 -241 
Q 3900 -241 3900 134 
L 3900 1941 
L 1988 1941 
L 1988 2403 
L 2716 4022 
L 1750 4022 
L 1750 4484 
z
M 1125 2434 
Q 1388 2259 1631 2153 
Q 1188 928 681 -603 
L 163 -328 
Q 663 791 1125 2434 
z
M 2700 1534 
L 3156 1278 
Q 2569 291 1894 -622 
L 1469 -309 
Q 2113 516 2700 1534 
z
M 5238 1547 
Q 5788 772 6363 -209 
L 5900 -509 
Q 5331 522 4806 1297 
L 5238 1547 
z
M 644 5034 
Q 1200 4291 1619 3653 
L 1144 3341 
Q 675 4134 219 4747 
L 644 5034 
z
" transform="scale(0.015625)"/>
      <path id="MicrosoftYaHei-7ed3" d="M 2625 1709 
L 5925 1709 
L 5925 -828 
L 5438 -828 
L 5438 -441 
L 3113 -441 
L 3113 -828 
L 2625 -828 
L 2625 1709 
z
M 2500 2897 
L 4025 2897 
L 4025 3872 
L 2294 3872 
L 2294 4322 
L 4025 4322 
L 4025 5322 
L 4525 5322 
L 4525 4322 
L 6275 4322 
L 6275 3872 
L 4525 3872 
L 4525 2897 
L 6056 2897 
L 6056 2447 
L 2500 2447 
L 2500 2897 
z
M 894 1566 
Q 1725 1684 2269 1778 
Q 2231 1534 2213 1303 
Q 1519 1203 319 1009 
L 219 1472 
Q 619 1888 1172 2791 
Q 647 2756 219 2722 
L 100 3147 
Q 675 3916 1294 5366 
L 1769 5178 
Q 1094 3853 663 3184 
Q 1025 3194 1419 3206 
Q 1631 3569 1863 3997 
L 2325 3766 
Q 1613 2578 894 1566 
z
M 5438 1272 
L 3113 1272 
L 3113 -3 
L 5438 -3 
L 5438 1272 
z
M 75 91 
Q 1231 316 2331 584 
Q 2313 334 2313 109 
Q 1300 -103 213 -391 
L 75 91 
z
" transform="scale(0.015625)"/>
      <path id="MicrosoftYaHei-4e3b" d="M 150 9 
L 2931 9 
L 2931 1809 
L 644 1809 
L 644 2284 
L 2931 2284 
L 2931 3709 
L 400 3709 
L 400 4184 
L 5975 4184 
L 5975 3709 
L 3469 3709 
L 3469 2284 
L 5756 2284 
L 5756 1809 
L 3469 1809 
L 3469 9 
L 6250 9 
L 6250 -453 
L 150 -453 
L 150 9 
z
M 2694 5109 
L 3156 5347 
Q 3538 4778 3706 4466 
L 3213 4203 
Q 2875 4828 2694 5109 
z
" transform="scale(0.015625)"/>
      <path id="MicrosoftYaHei-76ee" d="M 944 5016 
L 5469 5016 
L 5469 -772 
L 4938 -772 
L 4938 -303 
L 1475 -303 
L 1475 -772 
L 944 -772 
L 944 5016 
z
M 1475 1341 
L 1475 159 
L 4938 159 
L 4938 1341 
L 1475 1341 
z
M 1475 2947 
L 1475 1778 
L 4938 1778 
L 4938 2947 
L 1475 2947 
z
M 1475 4553 
L 1475 3384 
L 4938 3384 
L 4938 4553 
L 1475 4553 
z
" transform="scale(0.015625)"/>
      <path id="MicrosoftYaHei-6807" d="M 75 1409 
Q 769 2478 1025 3647 
L 119 3647 
L 119 4072 
L 1069 4072 
L 1069 5297 
L 1506 5297 
L 1506 4072 
L 2356 4072 
L 2356 3647 
L 1506 3647 
L 1506 2541 
L 1775 2822 
Q 2175 2478 2481 2159 
L 2150 1816 
Q 1850 2156 1506 2503 
L 1506 -797 
L 1069 -797 
L 1069 2588 
Q 738 1513 281 859 
Q 194 1128 75 1409 
z
M 2350 3097 
L 6250 3097 
L 6250 2659 
L 4525 2659 
L 4525 47 
Q 4525 -734 3806 -734 
Q 3469 -741 2975 -728 
Q 2944 -503 2888 -209 
Q 3319 -259 3675 -259 
Q 4050 -259 4050 203 
L 4050 2659 
L 2350 2659 
L 2350 3097 
z
M 2638 4928 
L 5963 4928 
L 5963 4491 
L 2638 4491 
L 2638 4928 
z
M 4938 1853 
L 5381 2066 
Q 5975 928 6369 72 
L 5869 -147 
Q 5463 822 4938 1853 
z
M 2931 2066 
L 3400 1878 
Q 2888 734 2381 -153 
Q 2188 -41 1925 66 
Q 2425 872 2931 2066 
z
" transform="scale(0.015625)"/>
      <path id="MicrosoftYaHei-4efb" d="M 2138 -3 
L 3963 -3 
L 3963 1972 
L 2025 1972 
L 2025 2447 
L 3963 2447 
L 3963 4306 
Q 3188 4253 2338 4209 
Q 2306 4428 2250 4691 
Q 4356 4803 5969 4978 
L 6063 4484 
Q 5325 4409 4488 4347 
L 4488 2447 
L 6319 2447 
L 6319 1972 
L 4488 1972 
L 4488 -3 
L 6225 -3 
L 6225 -466 
L 2138 -466 
L 2138 -3 
z
M 75 2309 
Q 1044 3616 1606 5291 
L 2100 5109 
Q 1819 4375 1513 3741 
L 1513 -841 
L 1019 -841 
L 1019 2822 
Q 666 2225 281 1753 
Q 194 2003 75 2309 
z
" transform="scale(0.015625)"/>
      <path id="MicrosoftYaHei-52a1" d="M 1900 5391 
L 2369 5191 
Q 2228 4959 2075 4741 
L 5456 4741 
L 5456 4322 
Q 4875 3616 3866 3088 
Q 4916 2706 6369 2616 
Q 6169 2334 6019 2091 
Q 4391 2306 3288 2819 
Q 2047 2291 288 1984 
Q 181 2178 31 2422 
Q 1597 2663 2750 3103 
Q 2038 3538 1609 4131 
Q 1125 3556 538 3066 
Q 350 3266 194 3403 
Q 1344 4316 1900 5391 
z
M 588 1728 
L 2406 1728 
Q 2450 2031 2481 2403 
L 2988 2403 
Q 2947 2031 2903 1728 
L 5425 1728 
Q 5363 609 5306 159 
Q 5206 -722 4256 -728 
Q 3888 -734 3150 -703 
Q 3113 -472 3056 -184 
Q 3775 -247 4244 -253 
Q 4775 -241 4831 284 
Q 4888 753 4913 1284 
L 2828 1284 
Q 2497 -219 500 -897 
Q 356 -691 194 -478 
Q 1988 103 2319 1284 
L 588 1284 
L 588 1728 
z
M 4788 4328 
L 1997 4328 
Q 2500 3725 3291 3334 
Q 4194 3756 4788 4328 
z
" transform="scale(0.015625)"/>
      <path id="MicrosoftYaHei-5206" d="M 900 2559 
L 5056 2559 
Q 5025 1497 4963 484 
Q 4888 -684 3856 -678 
Q 3350 -684 2788 -647 
Q 2750 -384 2700 -116 
Q 3181 -184 3775 -191 
Q 4400 -203 4463 541 
Q 4513 1216 4538 2097 
L 2616 2097 
Q 2541 1053 2181 416 
Q 1706 -422 588 -878 
Q 425 -666 231 -459 
Q 1269 -72 1725 666 
Q 2053 1225 2103 2097 
L 900 2097 
L 900 2559 
z
M 3488 5159 
L 3938 5353 
Q 4625 3678 6350 2847 
Q 6069 2553 5944 2372 
Q 4225 3366 3488 5159 
z
M 50 2766 
Q 1338 3678 2250 5253 
L 2694 5009 
Q 1744 3347 413 2341 
Q 281 2534 50 2766 
z
" transform="scale(0.015625)"/>
      <path id="MicrosoftYaHei-914d" d="M 388 3697 
L 1244 3697 
L 1244 4516 
L 194 4516 
L 194 4928 
L 3506 4928 
L 3506 4516 
L 2469 4516 
L 2469 3697 
L 3375 3697 
L 3375 -766 
L 2956 -766 
L 2956 -366 
L 806 -366 
L 806 -772 
L 388 -772 
L 388 3697 
z
M 3831 2916 
L 5488 2916 
L 5488 4541 
L 3725 4541 
L 3725 4978 
L 5938 4978 
L 5938 2234 
L 5488 2234 
L 5488 2478 
L 4281 2478 
L 4281 316 
Q 4281 -178 4706 -178 
L 5300 -178 
Q 5669 -178 5719 191 
Q 5800 609 5831 1203 
Q 6006 1116 6300 997 
Q 6256 491 6169 34 
Q 6063 -628 5381 -628 
L 4575 -628 
Q 3831 -628 3831 253 
L 3831 2916 
z
M 2069 2291 
L 2069 3297 
L 1644 3297 
L 1644 3047 
Q 1644 2047 1125 1391 
Q 975 1538 806 1697 
L 806 1178 
L 2956 1178 
L 2956 1778 
L 2513 1778 
Q 2069 1778 2069 2291 
z
M 806 34 
L 2956 34 
L 2956 784 
L 806 784 
L 806 34 
z
M 2956 3297 
L 2469 3297 
L 2469 2428 
Q 2456 2147 2700 2166 
L 2956 2166 
L 2956 3297 
z
M 806 1738 
Q 1244 2234 1244 3078 
L 1244 3297 
L 806 3297 
L 806 1738 
z
M 1644 3697 
L 2069 3697 
L 2069 4516 
L 1644 4516 
L 1644 3697 
z
" transform="scale(0.015625)"/>
     </defs>
     <use xlink:href="#MicrosoftYaHei-46"/>
     <use xlink:href="#MicrosoftYaHei-36" x="53.125"/>
     <use xlink:href="#MicrosoftYaHei-20" x="111.767578"/>
     <use xlink:href="#MicrosoftYaHei-51" x="141.357422"/>
     <use xlink:href="#MicrosoftYaHei-35" x="222.851562"/>
     <use xlink:href="#MicrosoftYaHei-20" x="281.494141"/>
     <use xlink:href="#MicrosoftYaHei-51bb" x="311.083984"/>
     <use xlink:href="#MicrosoftYaHei-7ed3" x="411.083984"/>
     <use xlink:href="#MicrosoftYaHei-4e3b" x="511.083984"/>
     <use xlink:href="#MicrosoftYaHei-76ee" x="611.083984"/>
     <use xlink:href="#MicrosoftYaHei-6807" x="711.083984"/>
     <use xlink:href="#MicrosoftYaHei-4efb" x="811.083984"/>
     <use xlink:href="#MicrosoftYaHei-52a1" x="911.083984"/>
     <use xlink:href="#MicrosoftYaHei-5206" x="1011.083984"/>
     <use xlink:href="#MicrosoftYaHei-914d" x="1111.083984"/>
    </g>
   </g>
  </g>
 </g>
 <defs>
  <clipPath id="p68cb12252b">
   <rect x="7.2" y="22.7925" width="446.4" height="249.48"/>
  </clipPath>
 </defs>
</svg>
