<?xml version="1.0" encoding="utf-8" standalone="no"?>
<!DOCTYPE svg PUBLIC "-//W3C//DTD SVG 1.1//EN"
  "http://www.w3.org/Graphics/SVG/1.1/DTD/svg11.dtd">
<svg xmlns:xlink="http://www.w3.org/1999/xlink" width="489.298437pt" height="255.991875pt" viewBox="0 0 489.298437 255.991875" xmlns="http://www.w3.org/2000/svg" version="1.1">
 <metadata>
  <rdf:RDF xmlns:dc="http://purl.org/dc/elements/1.1/" xmlns:cc="http://creativecommons.org/ns#" xmlns:rdf="http://www.w3.org/1999/02/22-rdf-syntax-ns#">
   <cc:Work>
    <dc:type rdf:resource="http://purl.org/dc/dcmitype/StillImage"/>
    <dc:date>2026-07-22T20:44:06.561099</dc:date>
    <dc:format>image/svg+xml</dc:format>
    <dc:creator>
     <cc:Agent>
      <dc:title>Matplotlib v3.9.2, https://matplotlib.org/</dc:title>
     </cc:Agent>
    </dc:creator>
   </cc:Work>
  </rdf:RDF>
 </metadata>
 <defs>
  <style type="text/css">*{stroke-linejoin: round; stroke-linecap: butt}</style>
 </defs>
 <g id="figure_1">
  <g id="patch_1">
   <path d="M 0 255.991875 
L 489.298437 255.991875 
L 489.298437 0 
L 0 0 
z
" style="fill: #ffffff"/>
  </g>
  <g id="axes_1">
   <g id="patch_2">
    <path d="M 29.834375 216.8325 
L 476.234375 216.8325 
L 476.234375 22.7925 
L 29.834375 22.7925 
z
" style="fill: #ffffff"/>
   </g>
   <g id="PolyCollection_1">
    <path d="M 223.699834 83.1605 
L 223.699834 48.6645 
L 279.20631 48.6645 
L 279.20631 83.1605 
z
" clip-path="url(#pac57eaccd0)" style="fill: #0f766e"/>
   </g>
   <g id="PolyCollection_2">
    <path d="M 268.941886 137.0605 
L 268.941886 102.5645 
L 318.09656 102.5645 
L 318.09656 137.0605 
z
" clip-path="url(#pac57eaccd0)" style="fill: #0f766e"/>
   </g>
   <g id="PolyCollection_3">
    <path d="M 409.415747 190.9605 
L 409.415747 156.4645 
L 455.960408 156.4645 
L 455.960408 190.9605 
z
" clip-path="url(#pac57eaccd0)" style="fill: #0f766e"/>
   </g>
   <g id="matplotlib.axis_1">
    <g id="xtick_1">
     <g id="line2d_1">
      <path d="M 29.834375 216.8325 
L 29.834375 22.7925 
" clip-path="url(#pac57eaccd0)" style="fill: none; stroke: #d1d5db; stroke-width: 0.6; stroke-linecap: square"/>
     </g>
     <g id="line2d_2">
      <defs>
       <path id="maa353fadca" d="M 0 0 
L 0 3.5 
" style="stroke: #000000; stroke-width: 0.8"/>
      </defs>
      <g>
       <use xlink:href="#maa353fadca" x="29.834375" y="216.8325" style="stroke: #000000; stroke-width: 0.8"/>
      </g>
     </g>
     <g id="text_1">
      <!-- 0 -->
      <g transform="translate(26.902344 231.82625) scale(0.1 -0.1)">
       <defs>
        <path id="MicrosoftYaHei-30" d="M 284 2325 
Q 284 3606 709 4264 
Q 1134 4922 1941 4922 
Q 3478 4922 3478 2441 
Q 3478 1216 3045 567 
Q 2613 -81 1831 -81 
Q 1094 -81 689 534 
Q 284 1150 284 2325 
z
M 909 2353 
Q 909 425 1888 425 
Q 2850 425 2850 2384 
Q 2850 4413 1906 4413 
Q 909 4413 909 2353 
z
" transform="scale(0.015625)"/>
       </defs>
       <use xlink:href="#MicrosoftYaHei-30"/>
      </g>
     </g>
    </g>
    <g id="xtick_2">
     <g id="line2d_3">
      <path d="M 79.434375 216.8325 
L 79.434375 22.7925 
" clip-path="url(#pac57eaccd0)" style="fill: none; stroke: #d1d5db; stroke-width: 0.6; stroke-linecap: square"/>
     </g>
     <g id="line2d_4">
      <g>
       <use xlink:href="#maa353fadca" x="79.434375" y="216.8325" style="stroke: #000000; stroke-width: 0.8"/>
      </g>
     </g>
     <g id="text_2">
      <!-- 2 -->
      <g transform="translate(76.502344 231.82625) scale(0.1 -0.1)">
       <defs>
        <path id="MicrosoftYaHei-32" d="M 2666 3572 
Q 2666 3963 2419 4186 
Q 2172 4409 1747 4409 
Q 1447 4409 1140 4256 
Q 834 4103 569 3819 
L 569 4413 
Q 806 4659 1107 4790 
Q 1409 4922 1816 4922 
Q 2472 4922 2872 4570 
Q 3272 4219 3272 3619 
Q 3272 3084 3026 2693 
Q 2781 2303 2188 1894 
Q 1581 1475 1376 1294 
Q 1172 1113 1090 947 
Q 1009 781 1009 544 
L 3416 544 
L 3416 0 
L 372 0 
L 372 241 
Q 372 659 486 951 
Q 600 1244 862 1520 
Q 1125 1797 1681 2184 
Q 2250 2584 2458 2886 
Q 2666 3188 2666 3572 
z
" transform="scale(0.015625)"/>
       </defs>
       <use xlink:href="#MicrosoftYaHei-32"/>
      </g>
     </g>
    </g>
    <g id="xtick_3">
     <g id="line2d_5">
      <path d="M 129.034375 216.8325 
L 129.034375 22.7925 
" clip-path="url(#pac57eaccd0)" style="fill: none; stroke: #d1d5db; stroke-width: 0.6; stroke-linecap: square"/>
     </g>
     <g id="line2d_6">
      <g>
       <use xlink:href="#maa353fadca" x="129.034375" y="216.8325" style="stroke: #000000; stroke-width: 0.8"/>
      </g>
     </g>
     <g id="text_3">
      <!-- 4 -->
      <g transform="translate(126.102344 231.82625) scale(0.1 -0.1)">
       <defs>
        <path id="MicrosoftYaHei-34" d="M 2906 4841 
L 2906 1644 
L 3631 1644 
L 3631 1138 
L 2906 1138 
L 2906 0 
L 2313 0 
L 2313 1138 
L 53 1138 
L 53 1616 
Q 656 2294 1265 3178 
Q 1875 4063 2272 4841 
L 2906 4841 
z
M 741 1644 
L 2313 1644 
L 2313 3950 
Q 1988 3366 1616 2817 
Q 1244 2269 741 1644 
z
" transform="scale(0.015625)"/>
       </defs>
       <use xlink:href="#MicrosoftYaHei-34"/>
      </g>
     </g>
    </g>
    <g id="xtick_4">
     <g id="line2d_7">
      <path d="M 178.634375 216.8325 
L 178.634375 22.7925 
" clip-path="url(#pac57eaccd0)" style="fill: none; stroke: #d1d5db; stroke-width: 0.6; stroke-linecap: square"/>
     </g>
     <g id="line2d_8">
      <g>
       <use xlink:href="#maa353fadca" x="178.634375" y="216.8325" style="stroke: #000000; stroke-width: 0.8"/>
      </g>
     </g>
     <g id="text_4">
      <!-- 6 -->
      <g transform="translate(175.702344 231.82625) scale(0.1 -0.1)">
       <defs>
        <path id="MicrosoftYaHei-36" d="M 3181 4219 
Q 2803 4413 2391 4413 
Q 1763 4413 1381 3866 
Q 1000 3319 994 2372 
L 1009 2372 
Q 1353 3038 2106 3038 
Q 2734 3038 3109 2628 
Q 3484 2219 3484 1541 
Q 3484 831 3051 375 
Q 2619 -81 1947 -81 
Q 1209 -81 789 495 
Q 369 1072 369 2131 
Q 369 3413 920 4167 
Q 1472 4922 2372 4922 
Q 2888 4922 3181 4781 
L 3181 4219 
z
M 1031 1584 
Q 1031 1106 1286 765 
Q 1541 425 1963 425 
Q 2363 425 2613 719 
Q 2863 1013 2863 1475 
Q 2863 1975 2627 2253 
Q 2391 2531 1956 2531 
Q 1544 2531 1287 2250 
Q 1031 1969 1031 1584 
z
" transform="scale(0.015625)"/>
       </defs>
       <use xlink:href="#MicrosoftYaHei-36"/>
      </g>
     </g>
    </g>
    <g id="xtick_5">
     <g id="line2d_9">
      <path d="M 228.234375 216.8325 
L 228.234375 22.7925 
" clip-path="url(#pac57eaccd0)" style="fill: none; stroke: #d1d5db; stroke-width: 0.6; stroke-linecap: square"/>
     </g>
     <g id="line2d_10">
      <g>
       <use xlink:href="#maa353fadca" x="228.234375" y="216.8325" style="stroke: #000000; stroke-width: 0.8"/>
      </g>
     </g>
     <g id="text_5">
      <!-- 8 -->
      <g transform="translate(225.302344 231.82625) scale(0.1 -0.1)">
       <defs>
        <path id="MicrosoftYaHei-38" d="M 306 1350 
Q 306 1769 556 2122 
Q 806 2475 1200 2625 
Q 884 2803 700 3081 
Q 516 3359 516 3684 
Q 516 4028 692 4312 
Q 869 4597 1183 4759 
Q 1497 4922 1875 4922 
Q 2256 4922 2572 4761 
Q 2888 4600 3063 4315 
Q 3238 4031 3238 3684 
Q 3238 3366 3058 3086 
Q 2878 2806 2559 2625 
Q 2953 2472 3200 2119 
Q 3447 1766 3447 1350 
Q 3447 938 3250 611 
Q 3053 284 2690 103 
Q 2328 -78 1875 -78 
Q 1425 -78 1065 103 
Q 706 284 506 612 
Q 306 941 306 1350 
z
M 906 1378 
Q 906 947 1172 687 
Q 1438 428 1878 428 
Q 2309 428 2582 692 
Q 2856 956 2856 1378 
Q 2856 1778 2579 2051 
Q 2303 2325 1878 2325 
Q 1456 2325 1181 2058 
Q 906 1791 906 1378 
z
M 1081 3634 
Q 1081 3309 1312 3076 
Q 1544 2844 1878 2844 
Q 2206 2844 2445 3078 
Q 2684 3313 2684 3634 
Q 2684 3963 2454 4191 
Q 2225 4419 1878 4419 
Q 1534 4419 1307 4195 
Q 1081 3972 1081 3634 
z
" transform="scale(0.015625)"/>
       </defs>
       <use xlink:href="#MicrosoftYaHei-38"/>
      </g>
     </g>
    </g>
    <g id="xtick_6">
     <g id="line2d_11">
      <path d="M 277.834375 216.8325 
L 277.834375 22.7925 
" clip-path="url(#pac57eaccd0)" style="fill: none; stroke: #d1d5db; stroke-width: 0.6; stroke-linecap: square"/>
     </g>
     <g id="line2d_12">
      <g>
       <use xlink:href="#maa353fadca" x="277.834375" y="216.8325" style="stroke: #000000; stroke-width: 0.8"/>
      </g>
     </g>
     <g id="text_6">
      <!-- 10 -->
      <g transform="translate(271.970312 231.82625) scale(0.1 -0.1)">
       <defs>
        <path id="MicrosoftYaHei-31" d="M 1781 0 
L 1781 4141 
Q 1638 3997 1295 3819 
Q 953 3641 663 3569 
L 663 4169 
Q 1047 4275 1484 4508 
Q 1922 4741 2156 4947 
L 2388 4947 
L 2388 0 
L 1781 0 
z
" transform="scale(0.015625)"/>
       </defs>
       <use xlink:href="#MicrosoftYaHei-31"/>
       <use xlink:href="#MicrosoftYaHei-30" x="58.642578"/>
      </g>
     </g>
    </g>
    <g id="xtick_7">
     <g id="line2d_13">
      <path d="M 327.434375 216.8325 
L 327.434375 22.7925 
" clip-path="url(#pac57eaccd0)" style="fill: none; stroke: #d1d5db; stroke-width: 0.6; stroke-linecap: square"/>
     </g>
     <g id="line2d_14">
      <g>
       <use xlink:href="#maa353fadca" x="327.434375" y="216.8325" style="stroke: #000000; stroke-width: 0.8"/>
      </g>
     </g>
     <g id="text_7">
      <!-- 12 -->
      <g transform="translate(321.570312 231.82625) scale(0.1 -0.1)">
       <use xlink:href="#MicrosoftYaHei-31"/>
       <use xlink:href="#MicrosoftYaHei-32" x="58.642578"/>
      </g>
     </g>
    </g>
    <g id="xtick_8">
     <g id="line2d_15">
      <path d="M 377.034375 216.8325 
L 377.034375 22.7925 
" clip-path="url(#pac57eaccd0)" style="fill: none; stroke: #d1d5db; stroke-width: 0.6; stroke-linecap: square"/>
     </g>
     <g id="line2d_16">
      <g>
       <use xlink:href="#maa353fadca" x="377.034375" y="216.8325" style="stroke: #000000; stroke-width: 0.8"/>
      </g>
     </g>
     <g id="text_8">
      <!-- 14 -->
      <g transform="translate(371.170312 231.82625) scale(0.1 -0.1)">
       <use xlink:href="#MicrosoftYaHei-31"/>
       <use xlink:href="#MicrosoftYaHei-34" x="58.642578"/>
      </g>
     </g>
    </g>
    <g id="xtick_9">
     <g id="line2d_17">
      <path d="M 426.634375 216.8325 
L 426.634375 22.7925 
" clip-path="url(#pac57eaccd0)" style="fill: none; stroke: #d1d5db; stroke-width: 0.6; stroke-linecap: square"/>
     </g>
     <g id="line2d_18">
      <g>
       <use xlink:href="#maa353fadca" x="426.634375" y="216.8325" style="stroke: #000000; stroke-width: 0.8"/>
      </g>
     </g>
     <g id="text_9">
      <!-- 16 -->
      <g transform="translate(420.770312 231.82625) scale(0.1 -0.1)">
       <use xlink:href="#MicrosoftYaHei-31"/>
       <use xlink:href="#MicrosoftYaHei-36" x="58.642578"/>
      </g>
     </g>
    </g>
    <g id="xtick_10">
     <g id="line2d_19">
      <path d="M 476.234375 216.8325 
L 476.234375 22.7925 
" clip-path="url(#pac57eaccd0)" style="fill: none; stroke: #d1d5db; stroke-width: 0.6; stroke-linecap: square"/>
     </g>
     <g id="line2d_20">
      <g>
       <use xlink:href="#maa353fadca" x="476.234375" y="216.8325" style="stroke: #000000; stroke-width: 0.8"/>
      </g>
     </g>
     <g id="text_10">
      <!-- 18 -->
      <g transform="translate(470.370313 231.82625) scale(0.1 -0.1)">
       <use xlink:href="#MicrosoftYaHei-31"/>
       <use xlink:href="#MicrosoftYaHei-38" x="58.642578"/>
      </g>
     </g>
    </g>
    <g id="text_11">
     <!-- 任务开始后的时间 / s -->
     <g transform="translate(205.624219 246.305938) scale(0.1 -0.1)">
      <defs>
       <path id="MicrosoftYaHei-4efb" d="M 2138 -3 
L 3963 -3 
L 3963 1972 
L 2025 1972 
L 2025 2447 
L 3963 2447 
L 3963 4306 
Q 3188 4253 2338 4209 
Q 2306 4428 2250 4691 
Q 4356 4803 5969 4978 
L 6063 4484 
Q 5325 4409 4488 4347 
L 4488 2447 
L 6319 2447 
L 6319 1972 
L 4488 1972 
L 4488 -3 
L 6225 -3 
L 6225 -466 
L 2138 -466 
L 2138 -3 
z
M 75 2309 
Q 1044 3616 1606 5291 
L 2100 5109 
Q 1819 4375 1513 3741 
L 1513 -841 
L 1019 -841 
L 1019 2822 
Q 666 2225 281 1753 
Q 194 2003 75 2309 
z
" transform="scale(0.015625)"/>
       <path id="MicrosoftYaHei-52a1" d="M 1900 5391 
L 2369 5191 
Q 2228 4959 2075 4741 
L 5456 4741 
L 5456 4322 
Q 4875 3616 3866 3088 
Q 4916 2706 6369 2616 
Q 6169 2334 6019 2091 
Q 4391 2306 3288 2819 
Q 2047 2291 288 1984 
Q 181 2178 31 2422 
Q 1597 2663 2750 3103 
Q 2038 3538 1609 4131 
Q 1125 3556 538 3066 
Q 350 3266 194 3403 
Q 1344 4316 1900 5391 
z
M 588 1728 
L 2406 1728 
Q 2450 2031 2481 2403 
L 2988 2403 
Q 2947 2031 2903 1728 
L 5425 1728 
Q 5363 609 5306 159 
Q 5206 -722 4256 -728 
Q 3888 -734 3150 -703 
Q 3113 -472 3056 -184 
Q 3775 -247 4244 -253 
Q 4775 -241 4831 284 
Q 4888 753 4913 1284 
L 2828 1284 
Q 2497 -219 500 -897 
Q 356 -691 194 -478 
Q 1988 103 2319 1284 
L 588 1284 
L 588 1728 
z
M 4788 4328 
L 1997 4328 
Q 2500 3725 3291 3334 
Q 4194 3756 4788 4328 
z
" transform="scale(0.015625)"/>
       <path id="MicrosoftYaHei-5f00" d="M 125 2553 
L 1756 2553 
L 1756 4372 
L 400 4372 
L 400 4866 
L 6006 4866 
L 6006 4372 
L 4731 4372 
L 4731 2553 
L 6275 2553 
L 6275 2059 
L 4731 2059 
L 4731 -791 
L 4219 -791 
L 4219 2059 
L 2266 2059 
Q 2244 916 1938 359 
Q 1631 -253 531 -872 
Q 369 -647 175 -434 
Q 1131 53 1450 584 
Q 1734 1013 1753 2059 
L 125 2059 
L 125 2553 
z
M 2269 2553 
L 4219 2553 
L 4219 4372 
L 2269 4372 
L 2269 2553 
z
" transform="scale(0.015625)"/>
       <path id="MicrosoftYaHei-59cb" d="M 2838 1984 
L 5850 1984 
L 5850 -828 
L 5375 -828 
L 5375 -391 
L 3313 -391 
L 3313 -834 
L 2838 -834 
L 2838 1984 
z
M 2638 222 
L 2269 -191 
Q 1928 156 1588 484 
Q 1125 -184 381 -778 
Q 250 -584 94 -372 
Q 809 156 1244 809 
Q 797 1228 350 1616 
Q 572 2456 753 3497 
L 113 3497 
L 113 3966 
L 834 3966 
Q 934 4597 1025 5297 
L 1531 5222 
Q 1428 4544 1325 3966 
L 2488 3966 
L 2488 3503 
Q 2341 1828 1863 931 
Q 2288 559 2638 222 
z
M 5225 4484 
Q 5863 3478 6325 2522 
L 5831 2291 
Q 5700 2591 5559 2884 
Q 4572 2825 3200 2697 
Q 3025 2678 2756 2591 
L 2525 3041 
Q 2744 3172 2900 3391 
Q 3406 4147 3925 5334 
L 4450 5166 
Q 3881 4078 3319 3191 
Q 4569 3269 5350 3306 
Q 5097 3803 4819 4284 
L 5225 4484 
z
M 5375 1547 
L 3313 1547 
L 3313 34 
L 5375 34 
L 5375 1547 
z
M 2006 3497 
L 1241 3497 
Q 1044 2463 850 1778 
Q 1191 1503 1497 1247 
Q 1922 2119 2006 3497 
z
" transform="scale(0.015625)"/>
       <path id="MicrosoftYaHei-540e" d="M 1888 1984 
L 5688 1984 
L 5688 -828 
L 5188 -828 
L 5188 -403 
L 2388 -403 
L 2388 -828 
L 1888 -828 
L 1888 1984 
z
M 1313 2991 
Q 1313 1272 1138 672 
Q 963 -16 394 -847 
Q 250 -634 50 -409 
Q 494 222 650 859 
Q 806 1472 806 2659 
L 806 4766 
Q 3544 4853 5631 5141 
L 5931 4622 
Q 3344 4359 1313 4284 
L 1313 3459 
L 6263 3459 
L 6263 2991 
L 1313 2991 
z
M 5188 1528 
L 2388 1528 
L 2388 41 
L 5188 41 
L 5188 1528 
z
" transform="scale(0.015625)"/>
       <path id="MicrosoftYaHei-7684" d="M 356 4284 
L 988 4284 
Q 1219 4853 1369 5322 
L 1894 5172 
Q 1697 4694 1513 4284 
L 2763 4284 
L 2763 -691 
L 2263 -691 
L 2263 -203 
L 856 -203 
L 856 -734 
L 356 -734 
L 356 4284 
z
M 2856 3003 
Q 3444 3934 3850 5322 
L 4375 5191 
Q 4216 4719 4050 4303 
L 6063 4303 
Q 5988 1091 5938 259 
Q 5894 -722 4906 -722 
Q 4338 -722 3750 -684 
Q 3713 -372 3650 -128 
L 3669 -128 
Q 4294 -216 4813 -216 
Q 5381 -216 5425 384 
Q 5494 1316 5525 3834 
L 3850 3834 
Q 3578 3231 3288 2772 
Q 3119 2891 2856 3003 
z
M 856 266 
L 2263 266 
L 2263 1847 
L 856 1847 
L 856 266 
z
M 2263 3816 
L 856 3816 
L 856 2297 
L 2263 2297 
L 2263 3816 
z
M 3406 2578 
L 3788 2859 
Q 4481 2041 4894 1441 
L 4431 1116 
Q 3988 1841 3406 2578 
z
" transform="scale(0.015625)"/>
       <path id="MicrosoftYaHei-65f6" d="M 344 4728 
L 2500 4728 
L 2500 -366 
L 2006 -366 
L 2006 153 
L 838 153 
L 838 -441 
L 344 -441 
L 344 4728 
z
M 2706 3941 
L 4925 3941 
L 4925 5322 
L 5425 5322 
L 5425 3941 
L 6313 3941 
L 6313 3478 
L 5425 3478 
L 5425 116 
Q 5425 -722 4625 -722 
Q 4263 -722 3563 -703 
Q 3531 -478 3463 -178 
Q 4119 -228 4488 -228 
Q 4925 -228 4925 216 
L 4925 3478 
L 2706 3478 
L 2706 3941 
z
M 838 616 
L 2006 616 
L 2006 2234 
L 838 2234 
L 838 616 
z
M 2006 4266 
L 838 4266 
L 838 2684 
L 2006 2684 
L 2006 4266 
z
M 3406 2878 
Q 3906 1966 4163 1422 
Q 4000 1347 3663 1172 
Q 3419 1766 2963 2653 
L 3406 2878 
z
" transform="scale(0.015625)"/>
       <path id="MicrosoftYaHei-95f4" d="M 1863 3647 
L 4513 3647 
L 4513 553 
L 2313 553 
L 2313 166 
L 1863 166 
L 1863 3647 
z
M 2388 4453 
L 2388 4922 
L 6013 4922 
L 6013 -28 
Q 6013 -816 5119 -816 
Q 4756 -816 4169 -803 
Q 4144 -616 4069 -297 
Q 4588 -334 5056 -334 
Q 5525 -334 5525 122 
L 5525 4453 
L 2388 4453 
z
M 419 4084 
L 906 4084 
L 906 -816 
L 419 -816 
L 419 4084 
z
M 2313 997 
L 4063 997 
L 4063 1884 
L 2313 1884 
L 2313 997 
z
M 4063 3203 
L 2313 3203 
L 2313 2328 
L 4063 2328 
L 4063 3203 
z
M 744 5003 
L 1100 5322 
Q 1575 4872 1981 4447 
L 1575 4091 
Q 1194 4541 744 5003 
z
" transform="scale(0.015625)"/>
       <path id="MicrosoftYaHei-20" transform="scale(0.015625)"/>
       <path id="MicrosoftYaHei-2f" d="M 2791 4841 
L 469 -803 
L -103 -803 
L 2219 4841 
L 2791 4841 
z
" transform="scale(0.015625)"/>
       <path id="MicrosoftYaHei-73" d="M 353 747 
Q 816 413 1350 413 
Q 2066 413 2066 881 
Q 2066 1081 1909 1211 
Q 1753 1341 1275 1519 
Q 700 1750 528 1976 
Q 356 2203 356 2525 
Q 356 2984 745 3261 
Q 1134 3538 1703 3538 
Q 2144 3538 2522 3384 
L 2522 2794 
Q 2134 3044 1644 3044 
Q 1350 3044 1165 2916 
Q 981 2788 981 2578 
Q 981 2372 1114 2256 
Q 1247 2141 1703 1959 
Q 2281 1744 2484 1512 
Q 2688 1281 2688 941 
Q 2688 466 2298 192 
Q 1909 -81 1291 -81 
Q 753 -81 353 122 
L 353 747 
z
" transform="scale(0.015625)"/>
      </defs>
      <use xlink:href="#MicrosoftYaHei-4efb"/>
      <use xlink:href="#MicrosoftYaHei-52a1" x="100"/>
      <use xlink:href="#MicrosoftYaHei-5f00" x="200"/>
      <use xlink:href="#MicrosoftYaHei-59cb" x="300"/>
      <use xlink:href="#MicrosoftYaHei-540e" x="400"/>
      <use xlink:href="#MicrosoftYaHei-7684" x="500"/>
      <use xlink:href="#MicrosoftYaHei-65f6" x="600"/>
      <use xlink:href="#MicrosoftYaHei-95f4" x="700"/>
      <use xlink:href="#MicrosoftYaHei-20" x="800"/>
      <use xlink:href="#MicrosoftYaHei-2f" x="829.589844"/>
      <use xlink:href="#MicrosoftYaHei-20" x="872.314453"/>
      <use xlink:href="#MicrosoftYaHei-73" x="901.904297"/>
     </g>
    </g>
   </g>
   <g id="matplotlib.axis_2">
    <g id="ytick_1">
     <g id="line2d_21">
      <defs>
       <path id="mf671aaf6f7" d="M 0 0 
L -3.5 0 
" style="stroke: #000000; stroke-width: 0.8"/>
      </defs>
      <g>
       <use xlink:href="#mf671aaf6f7" x="29.834375" y="65.9125" style="stroke: #000000; stroke-width: 0.8"/>
      </g>
     </g>
     <g id="text_12">
      <!-- M1 -->
      <g transform="translate(7.2 69.909375) scale(0.1 -0.1)">
       <defs>
        <path id="MicrosoftYaHei-4d" d="M 5003 0 
L 5003 3206 
Q 5003 3603 5050 4159 
L 5034 4159 
Q 4953 3809 4891 3672 
L 3294 0 
L 2947 0 
L 1353 3644 
Q 1297 3769 1209 4159 
L 1191 4159 
Q 1222 3822 1222 3178 
L 1222 0 
L 625 0 
L 625 4841 
L 1472 4841 
L 2900 1522 
Q 3063 1141 3116 928 
L 3138 928 
Q 3300 1375 3366 1534 
L 4819 4841 
L 5625 4841 
L 5625 0 
L 5003 0 
z
" transform="scale(0.015625)"/>
       </defs>
       <use xlink:href="#MicrosoftYaHei-4d"/>
       <use xlink:href="#MicrosoftYaHei-31" x="97.705078"/>
      </g>
     </g>
    </g>
    <g id="ytick_2">
     <g id="line2d_22">
      <g>
       <use xlink:href="#mf671aaf6f7" x="29.834375" y="119.8125" style="stroke: #000000; stroke-width: 0.8"/>
      </g>
     </g>
     <g id="text_13">
      <!-- M2 -->
      <g transform="translate(7.2 123.809375) scale(0.1 -0.1)">
       <use xlink:href="#MicrosoftYaHei-4d"/>
       <use xlink:href="#MicrosoftYaHei-32" x="97.705078"/>
      </g>
     </g>
    </g>
    <g id="ytick_3">
     <g id="line2d_23">
      <g>
       <use xlink:href="#mf671aaf6f7" x="29.834375" y="173.7125" style="stroke: #000000; stroke-width: 0.8"/>
      </g>
     </g>
     <g id="text_14">
      <!-- M3 -->
      <g transform="translate(7.2 177.709375) scale(0.1 -0.1)">
       <defs>
        <path id="MicrosoftYaHei-33" d="M 447 809 
Q 944 425 1569 425 
Q 2069 425 2361 670 
Q 2653 916 2653 1328 
Q 2653 2247 1338 2247 
L 934 2247 
L 934 2753 
L 1319 2753 
Q 2484 2753 2484 3616 
Q 2484 4413 1594 4413 
Q 1084 4413 634 4069 
L 634 4647 
Q 1109 4922 1744 4922 
Q 2363 4922 2738 4598 
Q 3113 4275 3113 3759 
Q 3113 2809 2144 2538 
L 2144 2525 
Q 2669 2469 2973 2155 
Q 3278 1841 3278 1372 
Q 3278 719 2808 319 
Q 2338 -81 1556 -81 
Q 869 -81 447 175 
L 447 809 
z
" transform="scale(0.015625)"/>
       </defs>
       <use xlink:href="#MicrosoftYaHei-4d"/>
       <use xlink:href="#MicrosoftYaHei-33" x="97.705078"/>
      </g>
     </g>
    </g>
   </g>
   <g id="patch_3">
    <path d="M 29.834375 216.8325 
L 29.834375 22.7925 
" style="fill: none; stroke: #000000; stroke-width: 0.8; stroke-linejoin: miter; stroke-linecap: square"/>
   </g>
   <g id="patch_4">
    <path d="M 476.234375 216.8325 
L 476.234375 22.7925 
" style="fill: none; stroke: #000000; stroke-width: 0.8; stroke-linejoin: miter; stroke-linecap: square"/>
   </g>
   <g id="patch_5">
    <path d="M 29.834375 216.8325 
L 476.234375 216.8325 
" style="fill: none; stroke: #000000; stroke-width: 0.8; stroke-linejoin: miter; stroke-linecap: square"/>
   </g>
   <g id="patch_6">
    <path d="M 29.834375 22.7925 
L 476.234375 22.7925 
" style="fill: none; stroke: #000000; stroke-width: 0.8; stroke-linejoin: miter; stroke-linecap: square"/>
   </g>
   <g id="text_15">
    <!-- 2.238 s -->
    <g style="fill: #ffffff" transform="translate(238.071822 68.115625) scale(0.08 -0.08)">
     <defs>
      <path id="MicrosoftYaHei-2e" d="M 372 322 
Q 372 491 487 606 
Q 603 722 775 722 
Q 950 722 1065 605 
Q 1181 488 1181 322 
Q 1181 159 1065 42 
Q 950 -75 772 -75 
Q 600 -75 486 42 
Q 372 159 372 322 
z
" transform="scale(0.015625)"/>
     </defs>
     <use xlink:href="#MicrosoftYaHei-32"/>
     <use xlink:href="#MicrosoftYaHei-2e" x="58.642578"/>
     <use xlink:href="#MicrosoftYaHei-32" x="82.714844"/>
     <use xlink:href="#MicrosoftYaHei-33" x="141.357422"/>
     <use xlink:href="#MicrosoftYaHei-38" x="200"/>
     <use xlink:href="#MicrosoftYaHei-20" x="258.642578"/>
     <use xlink:href="#MicrosoftYaHei-73" x="288.232422"/>
    </g>
   </g>
   <g id="text_16">
    <!-- 1.982 s -->
    <g style="fill: #ffffff" transform="translate(280.137973 122.015625) scale(0.08 -0.08)">
     <defs>
      <path id="MicrosoftYaHei-39" d="M 578 656 
Q 978 425 1441 425 
Q 2091 425 2448 937 
Q 2806 1450 2806 2394 
Q 2800 2388 2794 2394 
Q 2475 1788 1722 1788 
Q 1113 1788 713 2206 
Q 313 2625 313 3294 
Q 313 4006 750 4464 
Q 1188 4922 1884 4922 
Q 2606 4922 3012 4355 
Q 3419 3788 3419 2703 
Q 3419 1363 2894 641 
Q 2369 -81 1441 -81 
Q 931 -81 578 84 
L 578 656 
z
M 931 3372 
Q 931 2884 1181 2598 
Q 1431 2313 1872 2313 
Q 2253 2313 2512 2573 
Q 2772 2834 2772 3206 
Q 2772 3728 2514 4070 
Q 2256 4413 1834 4413 
Q 1444 4413 1187 4116 
Q 931 3819 931 3372 
z
" transform="scale(0.015625)"/>
     </defs>
     <use xlink:href="#MicrosoftYaHei-31"/>
     <use xlink:href="#MicrosoftYaHei-2e" x="58.642578"/>
     <use xlink:href="#MicrosoftYaHei-39" x="82.714844"/>
     <use xlink:href="#MicrosoftYaHei-38" x="141.357422"/>
     <use xlink:href="#MicrosoftYaHei-32" x="200"/>
     <use xlink:href="#MicrosoftYaHei-20" x="258.642578"/>
     <use xlink:href="#MicrosoftYaHei-73" x="288.232422"/>
    </g>
   </g>
   <g id="text_17">
    <!-- 1.877 s -->
    <g style="fill: #ffffff" transform="translate(419.306828 175.915625) scale(0.08 -0.08)">
     <defs>
      <path id="MicrosoftYaHei-37" d="M 3422 4463 
Q 2659 3131 2223 1998 
Q 1788 866 1684 0 
L 1047 0 
Q 1163 853 1594 1947 
Q 2025 3041 2747 4300 
L 347 4300 
L 347 4841 
L 3422 4841 
L 3422 4463 
z
" transform="scale(0.015625)"/>
     </defs>
     <use xlink:href="#MicrosoftYaHei-31"/>
     <use xlink:href="#MicrosoftYaHei-2e" x="58.642578"/>
     <use xlink:href="#MicrosoftYaHei-38" x="82.714844"/>
     <use xlink:href="#MicrosoftYaHei-37" x="141.357422"/>
     <use xlink:href="#MicrosoftYaHei-37" x="200"/>
     <use xlink:href="#MicrosoftYaHei-20" x="258.642578"/>
     <use xlink:href="#MicrosoftYaHei-73" x="288.232422"/>
    </g>
   </g>
   <g id="text_18">
    <!-- F7 Q5 三枚导弹遮蔽时间轴 -->
    <g transform="translate(180.36875 16.7925) scale(0.12 -0.12)">
     <defs>
      <path id="MicrosoftYaHei-46" d="M 3119 4284 
L 1250 4284 
L 1250 2666 
L 2981 2666 
L 2981 2116 
L 1250 2116 
L 1250 0 
L 625 0 
L 625 4841 
L 3119 4841 
L 3119 4284 
z
" transform="scale(0.015625)"/>
      <path id="MicrosoftYaHei-51" d="M 313 2363 
Q 313 3534 947 4228 
Q 1581 4922 2666 4922 
Q 3675 4922 4290 4244 
Q 4906 3566 4906 2478 
Q 4906 1300 4275 609 
Q 4125 447 3953 322 
L 5313 -653 
L 4284 -653 
L 3366 28 
Q 3009 -81 2588 -81 
Q 1556 -81 934 597 
Q 313 1275 313 2363 
z
M 969 2413 
Q 969 1534 1417 1004 
Q 1866 475 2588 475 
Q 3363 475 3805 983 
Q 4247 1491 4247 2403 
Q 4247 3341 3814 3850 
Q 3381 4359 2628 4359 
Q 1888 4359 1428 3821 
Q 969 3284 969 2413 
z
" transform="scale(0.015625)"/>
      <path id="MicrosoftYaHei-35" d="M 3294 1494 
Q 3294 784 2823 350 
Q 2353 -84 1559 -84 
Q 878 -84 544 119 
L 544 744 
Q 1034 425 1544 425 
Q 2050 425 2361 704 
Q 2672 984 2672 1447 
Q 2672 1909 2348 2167 
Q 2025 2425 1434 2425 
Q 978 2425 613 2384 
L 791 4841 
L 3053 4841 
L 3053 4303 
L 1306 4303 
L 1206 2931 
L 1647 2950 
Q 2416 2950 2855 2567 
Q 3294 2184 3294 1494 
z
" transform="scale(0.015625)"/>
      <path id="MicrosoftYaHei-4e09" d="M 575 4691 
L 5813 4691 
L 5813 4153 
L 575 4153 
L 575 4691 
z
M 188 166 
L 6225 166 
L 6225 -359 
L 188 -359 
L 188 166 
z
M 856 2547 
L 5531 2547 
L 5531 2016 
L 856 2016 
L 856 2547 
z
" transform="scale(0.015625)"/>
      <path id="MicrosoftYaHei-679a" d="M 2181 2859 
Q 2831 3959 3206 5259 
L 3688 5103 
Q 3513 4603 3325 4153 
L 6275 4153 
L 6275 3703 
L 5381 3703 
Q 5244 1747 4431 734 
Q 5125 91 6325 -291 
Q 6113 -584 5981 -797 
Q 4756 -278 4088 353 
Q 3381 -341 2263 -866 
Q 2131 -684 1925 -434 
Q 3069 78 3738 741 
Q 3031 1672 2831 3066 
Q 2669 2753 2506 2478 
Q 2338 2703 2181 2859 
z
M 88 1391 
Q 738 2403 1050 3584 
L 175 3584 
L 175 4016 
L 1081 4016 
L 1081 5259 
L 1538 5259 
L 1538 4016 
L 2363 4016 
L 2363 3584 
L 1538 3584 
L 1538 2572 
L 1763 2791 
Q 2219 2366 2613 1959 
L 2281 1622 
Q 1913 2047 1538 2422 
L 1538 -816 
L 1081 -816 
L 1081 2491 
Q 750 1503 306 834 
Q 231 1053 88 1391 
z
M 4075 1122 
Q 4775 2066 4894 3703 
L 3219 3703 
Q 3400 2022 4075 1122 
z
" transform="scale(0.015625)"/>
      <path id="MicrosoftYaHei-5bfc" d="M 1750 2547 
L 5025 2547 
Q 5531 2547 5606 2866 
Q 5681 3128 5744 3559 
Q 5950 3466 6238 3366 
Q 6144 2941 6063 2672 
Q 5900 2109 5144 2109 
L 1650 2109 
Q 819 2109 819 2916 
L 819 5016 
L 5306 5016 
L 5306 3116 
L 4825 3116 
L 4825 3328 
L 1300 3328 
L 1300 2966 
Q 1300 2547 1750 2547 
z
M 94 1472 
L 4456 1472 
L 4456 1928 
L 4963 1928 
L 4963 1472 
L 6313 1472 
L 6313 1028 
L 4963 1028 
L 4963 9 
Q 4963 -734 4150 -734 
Q 3844 -734 3150 -728 
Q 3119 -497 3056 -191 
Q 3631 -234 4006 -234 
Q 4456 -234 4456 153 
L 4456 1028 
L 94 1028 
L 94 1472 
z
M 1300 4584 
L 1300 3759 
L 4825 3759 
L 4825 4584 
L 1300 4584 
z
M 1269 684 
L 1575 1009 
Q 2269 466 2613 153 
L 2250 -216 
Q 1675 334 1269 684 
z
" transform="scale(0.015625)"/>
      <path id="MicrosoftYaHei-5f39" d="M 2950 5084 
L 3325 5341 
Q 3631 4997 3956 4534 
L 3584 4284 
L 4494 4284 
Q 4834 4828 5119 5341 
L 5581 5072 
Q 5325 4697 5028 4284 
L 6006 4284 
L 6006 1309 
L 5569 1309 
L 5569 1528 
L 4506 1528 
L 4506 759 
L 6319 759 
L 6319 341 
L 4506 341 
L 4506 -834 
L 4056 -834 
L 4056 341 
L 2213 341 
L 2213 759 
L 4056 759 
L 4056 1528 
L 2994 1528 
L 2994 1309 
L 2556 1309 
L 2556 4284 
L 3509 4284 
Q 3266 4684 2950 5084 
z
M 156 4972 
L 1969 4972 
L 1969 2859 
L 1531 2859 
L 1531 3072 
L 831 3072 
L 731 1997 
L 1956 1997 
Q 1944 1103 1906 241 
Q 1863 -703 1063 -703 
Q 844 -703 281 -691 
Q 244 -453 175 -197 
Q 750 -241 981 -241 
Q 1425 -241 1444 272 
Q 1481 966 1494 1572 
L 250 1572 
L 431 3497 
L 1531 3497 
L 1531 4547 
L 156 4547 
L 156 4972 
z
M 4506 1947 
L 5569 1947 
L 5569 2703 
L 4506 2703 
L 4506 1947 
z
M 2994 3866 
L 2994 3109 
L 4056 3109 
L 4056 3866 
L 2994 3866 
z
M 5569 3866 
L 4506 3866 
L 4506 3109 
L 5569 3109 
L 5569 3866 
z
M 2994 1947 
L 4056 1947 
L 4056 2703 
L 2994 2703 
L 2994 1947 
z
" transform="scale(0.015625)"/>
      <path id="MicrosoftYaHei-906e" d="M 3856 5166 
L 4288 5353 
Q 4488 5019 4659 4653 
L 6256 4653 
L 6256 4216 
L 2506 4216 
L 2506 3366 
L 3300 3366 
L 3300 4003 
L 3738 4003 
L 3738 3366 
L 4981 3366 
L 4981 4003 
L 5419 4003 
L 5419 3366 
L 6225 3366 
L 6225 2953 
L 5419 2953 
L 5419 1641 
L 4981 1641 
L 4981 1878 
L 3738 1878 
L 3738 1641 
L 3300 1641 
L 3300 2953 
L 2506 2953 
L 2506 2703 
Q 2506 1241 1838 259 
Q 1669 478 1494 672 
Q 2056 1422 2056 2691 
L 2056 4653 
L 4138 4653 
Q 4003 4922 3856 5166 
z
M 2681 -203 
L 4106 -234 
L 6319 -178 
Q 6250 -384 6144 -672 
L 3875 -678 
L 2631 -647 
Q 1538 -641 1081 97 
Q 763 -228 331 -753 
L 75 -234 
Q 522 209 875 541 
L 875 2647 
L 131 2647 
L 131 3097 
L 1350 3097 
L 1350 438 
Q 1750 -188 2681 -203 
z
M 3738 2278 
L 4981 2278 
L 4981 2953 
L 3738 2953 
L 3738 2278 
z
M 925 5209 
Q 1219 4709 1613 3909 
L 1131 3672 
Q 675 4666 488 5003 
L 925 5209 
z
M 5244 1316 
L 5644 1459 
Q 5944 834 6163 266 
L 5738 103 
Q 5531 666 5244 1316 
z
M 2831 1434 
L 3238 1303 
Q 3038 659 2775 47 
Q 2631 128 2363 241 
Q 2650 816 2831 1434 
z
M 4363 1284 
L 4775 1372 
Q 4950 872 5113 291 
L 4694 159 
Q 4569 691 4363 1284 
z
M 3519 1253 
L 3925 1322 
Q 4081 616 4131 216 
L 3688 141 
Q 3650 622 3519 1253 
z
" transform="scale(0.015625)"/>
      <path id="MicrosoftYaHei-853d" d="M 4750 3803 
Q 4650 3475 4547 3172 
L 6225 3172 
L 6225 2766 
L 5719 2766 
Q 5653 1266 5197 463 
Q 5631 -3 6306 -341 
Q 6156 -559 6019 -766 
Q 5391 -369 4947 94 
Q 4553 -394 3875 -841 
Q 3756 -659 3588 -472 
Q 4266 -63 4653 444 
Q 4238 1031 4059 1950 
Q 3947 1703 3825 1478 
Q 3725 1697 3563 1897 
Q 4056 2859 4313 3891 
L 4750 3803 
z
M 1738 3897 
L 2156 3897 
L 2156 2603 
L 3513 2603 
L 3513 -134 
Q 3513 -759 2938 -759 
Q 2681 -759 2413 -753 
Q 2381 -566 2325 -322 
Q 2619 -347 2838 -347 
Q 3100 -347 3100 -53 
L 3100 2241 
L 2156 2241 
L 2156 -759 
L 1738 -759 
L 1738 2241 
L 800 2241 
L 800 -791 
L 388 -791 
L 388 2603 
L 1738 2603 
L 1738 3897 
z
M 150 4784 
L 2050 4784 
L 2050 5328 
L 2506 5328 
L 2506 4784 
L 3863 4784 
L 3863 5328 
L 4319 5328 
L 4319 4784 
L 6269 4784 
L 6269 4372 
L 4319 4372 
L 4319 3941 
L 3863 3941 
L 3863 4372 
L 2506 4372 
L 2506 3997 
L 2050 3997 
L 2050 4372 
L 150 4372 
L 150 4784 
z
M 5294 2766 
L 4400 2766 
Q 4366 2675 4331 2588 
Q 4494 1478 4903 838 
Q 5250 1516 5294 2766 
z
M 1181 1816 
L 1544 1759 
Q 1456 941 1338 316 
L 981 397 
Q 1131 1066 1181 1816 
z
M 2650 1841 
Q 2813 1178 2938 447 
L 2569 359 
Q 2469 1084 2325 1772 
L 2650 1841 
z
M 3456 3541 
Q 3131 3166 2706 2778 
L 2419 3041 
Q 2781 3372 3138 3791 
L 3456 3541 
z
M 475 3534 
L 744 3784 
Q 1206 3384 1463 3116 
L 1163 2803 
Q 838 3191 475 3534 
z
" transform="scale(0.015625)"/>
      <path id="MicrosoftYaHei-8f74" d="M 2775 4078 
L 4163 4078 
L 4163 5253 
L 4613 5253 
L 4613 4078 
L 6000 4078 
L 6000 -784 
L 5538 -784 
L 5538 -384 
L 3238 -384 
L 3238 -784 
L 2775 -784 
L 2775 4078 
z
M 706 2516 
L 1369 2516 
L 1369 3622 
L 1819 3622 
L 1819 2516 
L 2400 2516 
L 2400 2091 
L 1819 2091 
L 1819 1000 
Q 2144 1044 2488 1091 
Q 2456 847 2444 647 
Q 2141 613 1819 569 
L 1819 -841 
L 1369 -841 
L 1369 509 
Q 784 431 131 334 
L 81 803 
Q 691 863 1369 944 
L 1369 2091 
L 244 2091 
L 244 2516 
Q 538 3275 769 3941 
L 156 3941 
L 156 4366 
L 913 4366 
Q 1084 4888 1213 5347 
L 1688 5247 
Q 1547 4809 1391 4366 
L 2488 4366 
L 2488 3941 
L 1244 3941 
Q 991 3234 706 2516 
z
M 4613 53 
L 5538 53 
L 5538 1653 
L 4613 1653 
L 4613 53 
z
M 3238 53 
L 4163 53 
L 4163 1653 
L 3238 1653 
L 3238 53 
z
M 5538 3641 
L 4613 3641 
L 4613 2078 
L 5538 2078 
L 5538 3641 
z
M 3238 2078 
L 4163 2078 
L 4163 3641 
L 3238 3641 
L 3238 2078 
z
" transform="scale(0.015625)"/>
     </defs>
     <use xlink:href="#MicrosoftYaHei-46"/>
     <use xlink:href="#MicrosoftYaHei-37" x="53.125"/>
     <use xlink:href="#MicrosoftYaHei-20" x="111.767578"/>
     <use xlink:href="#MicrosoftYaHei-51" x="141.357422"/>
     <use xlink:href="#MicrosoftYaHei-35" x="222.851562"/>
     <use xlink:href="#MicrosoftYaHei-20" x="281.494141"/>
     <use xlink:href="#MicrosoftYaHei-4e09" x="311.083984"/>
     <use xlink:href="#MicrosoftYaHei-679a" x="411.083984"/>
     <use xlink:href="#MicrosoftYaHei-5bfc" x="511.083984"/>
     <use xlink:href="#MicrosoftYaHei-5f39" x="611.083984"/>
     <use xlink:href="#MicrosoftYaHei-906e" x="711.083984"/>
     <use xlink:href="#MicrosoftYaHei-853d" x="811.083984"/>
     <use xlink:href="#MicrosoftYaHei-65f6" x="911.083984"/>
     <use xlink:href="#MicrosoftYaHei-95f4" x="1011.083984"/>
     <use xlink:href="#MicrosoftYaHei-8f74" x="1111.083984"/>
    </g>
   </g>
  </g>
 </g>
 <defs>
  <clipPath id="pac57eaccd0">
   <rect x="29.834375" y="22.7925" width="446.4" height="194.04"/>
  </clipPath>
 </defs>
</svg>
