<?xml version="1.0" encoding="utf-8" standalone="no"?>
<!DOCTYPE svg PUBLIC "-//W3C//DTD SVG 1.1//EN"
  "http://www.w3.org/Graphics/SVG/1.1/DTD/svg11.dtd">
<svg xmlns:xlink="http://www.w3.org/1999/xlink" width="440.615625pt" height="269.232187pt" viewBox="0 0 440.615625 269.232187" xmlns="http://www.w3.org/2000/svg" version="1.1">
 <metadata>
  <rdf:RDF xmlns:dc="http://purl.org/dc/elements/1.1/" xmlns:cc="http://creativecommons.org/ns#" xmlns:rdf="http://www.w3.org/1999/02/22-rdf-syntax-ns#">
   <cc:Work>
    <dc:type rdf:resource="http://purl.org/dc/dcmitype/StillImage"/>
    <dc:date>2026-07-22T20:44:06.678478</dc:date>
    <dc:format>image/svg+xml</dc:format>
    <dc:creator>
     <cc:Agent>
      <dc:title>Matplotlib v3.9.2, https://matplotlib.org/</dc:title>
     </cc:Agent>
    </dc:creator>
   </cc:Work>
  </rdf:RDF>
 </metadata>
 <defs>
  <style type="text/css">*{stroke-linejoin: round; stroke-linecap: butt}</style>
 </defs>
 <g id="figure_1">
  <g id="patch_1">
   <path d="M 0 269.232187 
L 440.615625 269.232187 
L 440.615625 0 
L 0 0 
z
" style="fill: #ffffff"/>
  </g>
  <g id="axes_1">
   <g id="patch_2">
    <path d="M 42.815625 244.5525 
L 433.415625 244.5525 
L 433.415625 22.7925 
L 42.815625 22.7925 
z
" style="fill: #ffffff"/>
   </g>
   <g id="PathCollection_1">
    <defs>
     <path id="C0_0_96bceabce2" d="M 0 4.031129 
C 1.069068 4.031129 2.094493 3.606384 2.850439 2.850439 
C 3.606384 2.094493 4.031129 1.069068 4.031129 -0 
C 4.031129 -1.069068 3.606384 -2.094493 2.850439 -2.850439 
C 2.094493 -3.606384 1.069068 -4.031129 0 -4.031129 
C -1.069068 -4.031129 -2.094493 -3.606384 -2.850439 -2.850439 
C -3.606384 -2.094493 -4.031129 -1.069068 -4.031129 0 
C -4.031129 1.069068 -3.606384 2.094493 -2.850439 2.850439 
C -2.094493 3.606384 -1.069068 4.031129 0 4.031129 
z
"/>
    </defs>
    <g clip-path="url(#p1f4afa5743)">
     <use xlink:href="#C0_0_96bceabce2" x="60.57017" y="128.367191" style="fill: #64748b; stroke: #64748b"/>
    </g>
    <g clip-path="url(#p1f4afa5743)">
     <use xlink:href="#C0_0_96bceabce2" x="178.933807" y="53.654295" style="fill: #0f766e; stroke: #0f766e"/>
    </g>
    <g clip-path="url(#p1f4afa5743)">
     <use xlink:href="#C0_0_96bceabce2" x="297.297443" y="53.654295" style="fill: #f59e0b; stroke: #f59e0b"/>
    </g>
    <g clip-path="url(#p1f4afa5743)">
     <use xlink:href="#C0_0_96bceabce2" x="415.66108" y="53.654295" style="fill: #f59e0b; stroke: #f59e0b"/>
    </g>
   </g>
   <g id="matplotlib.axis_1">
    <g id="xtick_1">
     <g id="line2d_1">
      <defs>
       <path id="m1312ff652f" d="M 0 0 
L 0 3.5 
" style="stroke: #000000; stroke-width: 0.8"/>
      </defs>
      <g>
       <use xlink:href="#m1312ff652f" x="60.57017" y="244.5525" style="stroke: #000000; stroke-width: 0.8"/>
      </g>
     </g>
     <g id="text_1">
      <!-- Q1 -->
      <g transform="translate(53.563139 259.54625) scale(0.1 -0.1)">
       <defs>
        <path id="MicrosoftYaHei-51" d="M 313 2363 
Q 313 3534 947 4228 
Q 1581 4922 2666 4922 
Q 3675 4922 4290 4244 
Q 4906 3566 4906 2478 
Q 4906 1300 4275 609 
Q 4125 447 3953 322 
L 5313 -653 
L 4284 -653 
L 3366 28 
Q 3009 -81 2588 -81 
Q 1556 -81 934 597 
Q 313 1275 313 2363 
z
M 969 2413 
Q 969 1534 1417 1004 
Q 1866 475 2588 475 
Q 3363 475 3805 983 
Q 4247 1491 4247 2403 
Q 4247 3341 3814 3850 
Q 3381 4359 2628 4359 
Q 1888 4359 1428 3821 
Q 969 3284 969 2413 
z
" transform="scale(0.015625)"/>
        <path id="MicrosoftYaHei-31" d="M 1781 0 
L 1781 4141 
Q 1638 3997 1295 3819 
Q 953 3641 663 3569 
L 663 4169 
Q 1047 4275 1484 4508 
Q 1922 4741 2156 4947 
L 2388 4947 
L 2388 0 
L 1781 0 
z
" transform="scale(0.015625)"/>
       </defs>
       <use xlink:href="#MicrosoftYaHei-51"/>
       <use xlink:href="#MicrosoftYaHei-31" x="81.494141"/>
      </g>
     </g>
    </g>
    <g id="xtick_2">
     <g id="line2d_2">
      <g>
       <use xlink:href="#m1312ff652f" x="178.933807" y="244.5525" style="stroke: #000000; stroke-width: 0.8"/>
      </g>
     </g>
     <g id="text_2">
      <!-- Q2 -->
      <g transform="translate(171.926776 259.54625) scale(0.1 -0.1)">
       <defs>
        <path id="MicrosoftYaHei-32" d="M 2666 3572 
Q 2666 3963 2419 4186 
Q 2172 4409 1747 4409 
Q 1447 4409 1140 4256 
Q 834 4103 569 3819 
L 569 4413 
Q 806 4659 1107 4790 
Q 1409 4922 1816 4922 
Q 2472 4922 2872 4570 
Q 3272 4219 3272 3619 
Q 3272 3084 3026 2693 
Q 2781 2303 2188 1894 
Q 1581 1475 1376 1294 
Q 1172 1113 1090 947 
Q 1009 781 1009 544 
L 3416 544 
L 3416 0 
L 372 0 
L 372 241 
Q 372 659 486 951 
Q 600 1244 862 1520 
Q 1125 1797 1681 2184 
Q 2250 2584 2458 2886 
Q 2666 3188 2666 3572 
z
" transform="scale(0.015625)"/>
       </defs>
       <use xlink:href="#MicrosoftYaHei-51"/>
       <use xlink:href="#MicrosoftYaHei-32" x="81.494141"/>
      </g>
     </g>
    </g>
    <g id="xtick_3">
     <g id="line2d_3">
      <g>
       <use xlink:href="#m1312ff652f" x="297.297443" y="244.5525" style="stroke: #000000; stroke-width: 0.8"/>
      </g>
     </g>
     <g id="text_3">
      <!-- Q3 -->
      <g transform="translate(290.290412 259.54625) scale(0.1 -0.1)">
       <defs>
        <path id="MicrosoftYaHei-33" d="M 447 809 
Q 944 425 1569 425 
Q 2069 425 2361 670 
Q 2653 916 2653 1328 
Q 2653 2247 1338 2247 
L 934 2247 
L 934 2753 
L 1319 2753 
Q 2484 2753 2484 3616 
Q 2484 4413 1594 4413 
Q 1084 4413 634 4069 
L 634 4647 
Q 1109 4922 1744 4922 
Q 2363 4922 2738 4598 
Q 3113 4275 3113 3759 
Q 3113 2809 2144 2538 
L 2144 2525 
Q 2669 2469 2973 2155 
Q 3278 1841 3278 1372 
Q 3278 719 2808 319 
Q 2338 -81 1556 -81 
Q 869 -81 447 175 
L 447 809 
z
" transform="scale(0.015625)"/>
       </defs>
       <use xlink:href="#MicrosoftYaHei-51"/>
       <use xlink:href="#MicrosoftYaHei-33" x="81.494141"/>
      </g>
     </g>
    </g>
    <g id="xtick_4">
     <g id="line2d_4">
      <g>
       <use xlink:href="#m1312ff652f" x="415.66108" y="244.5525" style="stroke: #000000; stroke-width: 0.8"/>
      </g>
     </g>
     <g id="text_4">
      <!-- Q4 -->
      <g transform="translate(408.654048 259.54625) scale(0.1 -0.1)">
       <defs>
        <path id="MicrosoftYaHei-34" d="M 2906 4841 
L 2906 1644 
L 3631 1644 
L 3631 1138 
L 2906 1138 
L 2906 0 
L 2313 0 
L 2313 1138 
L 53 1138 
L 53 1616 
Q 656 2294 1265 3178 
Q 1875 4063 2272 4841 
L 2906 4841 
z
M 741 1644 
L 2313 1644 
L 2313 3950 
Q 1988 3366 1616 2817 
Q 1244 2269 741 1644 
z
" transform="scale(0.015625)"/>
       </defs>
       <use xlink:href="#MicrosoftYaHei-51"/>
       <use xlink:href="#MicrosoftYaHei-34" x="81.494141"/>
      </g>
     </g>
    </g>
   </g>
   <g id="matplotlib.axis_2">
    <g id="ytick_1">
     <g id="line2d_5">
      <path d="M 42.815625 244.5525 
L 433.415625 244.5525 
" clip-path="url(#p1f4afa5743)" style="fill: none; stroke: #e5e7eb; stroke-width: 0.8; stroke-linecap: square"/>
     </g>
     <g id="line2d_6">
      <defs>
       <path id="mb109afc0fd" d="M 0 0 
L -3.5 0 
" style="stroke: #000000; stroke-width: 0.8"/>
      </defs>
      <g>
       <use xlink:href="#mb109afc0fd" x="42.815625" y="244.5525" style="stroke: #000000; stroke-width: 0.8"/>
      </g>
     </g>
     <g id="text_5">
      <!-- 0.0 -->
      <g transform="translate(21.679688 248.549375) scale(0.1 -0.1)">
       <defs>
        <path id="MicrosoftYaHei-30" d="M 284 2325 
Q 284 3606 709 4264 
Q 1134 4922 1941 4922 
Q 3478 4922 3478 2441 
Q 3478 1216 3045 567 
Q 2613 -81 1831 -81 
Q 1094 -81 689 534 
Q 284 1150 284 2325 
z
M 909 2353 
Q 909 425 1888 425 
Q 2850 425 2850 2384 
Q 2850 4413 1906 4413 
Q 909 4413 909 2353 
z
" transform="scale(0.015625)"/>
        <path id="MicrosoftYaHei-2e" d="M 372 322 
Q 372 491 487 606 
Q 603 722 775 722 
Q 950 722 1065 605 
Q 1181 488 1181 322 
Q 1181 159 1065 42 
Q 950 -75 772 -75 
Q 600 -75 486 42 
Q 372 159 372 322 
z
" transform="scale(0.015625)"/>
       </defs>
       <use xlink:href="#MicrosoftYaHei-30"/>
       <use xlink:href="#MicrosoftYaHei-2e" x="58.642578"/>
       <use xlink:href="#MicrosoftYaHei-30" x="82.714844"/>
      </g>
     </g>
    </g>
    <g id="ytick_2">
     <g id="line2d_7">
      <path d="M 42.815625 201.906346 
L 433.415625 201.906346 
" clip-path="url(#p1f4afa5743)" style="fill: none; stroke: #e5e7eb; stroke-width: 0.8; stroke-linecap: square"/>
     </g>
     <g id="line2d_8">
      <g>
       <use xlink:href="#mb109afc0fd" x="42.815625" y="201.906346" style="stroke: #000000; stroke-width: 0.8"/>
      </g>
     </g>
     <g id="text_6">
      <!-- 0.5 -->
      <g transform="translate(21.679688 205.903221) scale(0.1 -0.1)">
       <defs>
        <path id="MicrosoftYaHei-35" d="M 3294 1494 
Q 3294 784 2823 350 
Q 2353 -84 1559 -84 
Q 878 -84 544 119 
L 544 744 
Q 1034 425 1544 425 
Q 2050 425 2361 704 
Q 2672 984 2672 1447 
Q 2672 1909 2348 2167 
Q 2025 2425 1434 2425 
Q 978 2425 613 2384 
L 791 4841 
L 3053 4841 
L 3053 4303 
L 1306 4303 
L 1206 2931 
L 1647 2950 
Q 2416 2950 2855 2567 
Q 3294 2184 3294 1494 
z
" transform="scale(0.015625)"/>
       </defs>
       <use xlink:href="#MicrosoftYaHei-30"/>
       <use xlink:href="#MicrosoftYaHei-2e" x="58.642578"/>
       <use xlink:href="#MicrosoftYaHei-35" x="82.714844"/>
      </g>
     </g>
    </g>
    <g id="ytick_3">
     <g id="line2d_9">
      <path d="M 42.815625 159.260192 
L 433.415625 159.260192 
" clip-path="url(#p1f4afa5743)" style="fill: none; stroke: #e5e7eb; stroke-width: 0.8; stroke-linecap: square"/>
     </g>
     <g id="line2d_10">
      <g>
       <use xlink:href="#mb109afc0fd" x="42.815625" y="159.260192" style="stroke: #000000; stroke-width: 0.8"/>
      </g>
     </g>
     <g id="text_7">
      <!-- 1.0 -->
      <g transform="translate(21.679688 163.257067) scale(0.1 -0.1)">
       <use xlink:href="#MicrosoftYaHei-31"/>
       <use xlink:href="#MicrosoftYaHei-2e" x="58.642578"/>
       <use xlink:href="#MicrosoftYaHei-30" x="82.714844"/>
      </g>
     </g>
    </g>
    <g id="ytick_4">
     <g id="line2d_11">
      <path d="M 42.815625 116.614038 
L 433.415625 116.614038 
" clip-path="url(#p1f4afa5743)" style="fill: none; stroke: #e5e7eb; stroke-width: 0.8; stroke-linecap: square"/>
     </g>
     <g id="line2d_12">
      <g>
       <use xlink:href="#mb109afc0fd" x="42.815625" y="116.614038" style="stroke: #000000; stroke-width: 0.8"/>
      </g>
     </g>
     <g id="text_8">
      <!-- 1.5 -->
      <g transform="translate(21.679688 120.610913) scale(0.1 -0.1)">
       <use xlink:href="#MicrosoftYaHei-31"/>
       <use xlink:href="#MicrosoftYaHei-2e" x="58.642578"/>
       <use xlink:href="#MicrosoftYaHei-35" x="82.714844"/>
      </g>
     </g>
    </g>
    <g id="ytick_5">
     <g id="line2d_13">
      <path d="M 42.815625 73.967885 
L 433.415625 73.967885 
" clip-path="url(#p1f4afa5743)" style="fill: none; stroke: #e5e7eb; stroke-width: 0.8; stroke-linecap: square"/>
     </g>
     <g id="line2d_14">
      <g>
       <use xlink:href="#mb109afc0fd" x="42.815625" y="73.967885" style="stroke: #000000; stroke-width: 0.8"/>
      </g>
     </g>
     <g id="text_9">
      <!-- 2.0 -->
      <g transform="translate(21.679688 77.96476) scale(0.1 -0.1)">
       <use xlink:href="#MicrosoftYaHei-32"/>
       <use xlink:href="#MicrosoftYaHei-2e" x="58.642578"/>
       <use xlink:href="#MicrosoftYaHei-30" x="82.714844"/>
      </g>
     </g>
    </g>
    <g id="ytick_6">
     <g id="line2d_15">
      <path d="M 42.815625 31.321731 
L 433.415625 31.321731 
" clip-path="url(#p1f4afa5743)" style="fill: none; stroke: #e5e7eb; stroke-width: 0.8; stroke-linecap: square"/>
     </g>
     <g id="line2d_16">
      <g>
       <use xlink:href="#mb109afc0fd" x="42.815625" y="31.321731" style="stroke: #000000; stroke-width: 0.8"/>
      </g>
     </g>
     <g id="text_10">
      <!-- 2.5 -->
      <g transform="translate(21.679688 35.318606) scale(0.1 -0.1)">
       <use xlink:href="#MicrosoftYaHei-32"/>
       <use xlink:href="#MicrosoftYaHei-2e" x="58.642578"/>
       <use xlink:href="#MicrosoftYaHei-35" x="82.714844"/>
      </g>
     </g>
    </g>
    <g id="text_11">
     <!-- M1 有效遮蔽时长 / s -->
     <g transform="translate(15.19375 180.379531) rotate(-90) scale(0.1 -0.1)">
      <defs>
       <path id="MicrosoftYaHei-4d" d="M 5003 0 
L 5003 3206 
Q 5003 3603 5050 4159 
L 5034 4159 
Q 4953 3809 4891 3672 
L 3294 0 
L 2947 0 
L 1353 3644 
Q 1297 3769 1209 4159 
L 1191 4159 
Q 1222 3822 1222 3178 
L 1222 0 
L 625 0 
L 625 4841 
L 1472 4841 
L 2900 1522 
Q 3063 1141 3116 928 
L 3138 928 
Q 3300 1375 3366 1534 
L 4819 4841 
L 5625 4841 
L 5625 0 
L 5003 0 
z
" transform="scale(0.015625)"/>
       <path id="MicrosoftYaHei-20" transform="scale(0.015625)"/>
       <path id="MicrosoftYaHei-6709" d="M 1856 -816 
L 1363 -816 
L 1363 2419 
Q 909 1891 363 1403 
Q 231 1622 63 1859 
Q 1269 2869 1947 4097 
L 238 4097 
L 238 4559 
L 2181 4559 
Q 2359 4950 2488 5359 
L 3006 5241 
Q 2881 4894 2731 4559 
L 6263 4559 
L 6263 4097 
L 2506 4097 
Q 2313 3728 2081 3378 
L 5506 3378 
L 5506 41 
Q 5506 -734 4750 -734 
Q 4419 -741 3744 -741 
Q 3713 -528 3650 -228 
Q 4225 -272 4575 -272 
Q 5006 -272 5006 153 
L 5006 597 
L 1856 597 
L 1856 -816 
z
M 1856 1022 
L 5006 1022 
L 5006 1772 
L 1856 1772 
L 1856 1022 
z
M 5006 2941 
L 1856 2941 
L 1856 2197 
L 5006 2197 
L 5006 2941 
z
" transform="scale(0.015625)"/>
       <path id="MicrosoftYaHei-6548" d="M 4088 5334 
L 4581 5253 
Q 4453 4653 4259 4122 
L 6269 4122 
L 6269 3697 
L 5838 3697 
Q 5672 1869 5050 841 
Q 5572 128 6388 -347 
Q 6188 -622 6050 -841 
Q 5250 -313 4728 391 
Q 4153 -328 3300 -891 
Q 3163 -709 2944 -497 
Q 3872 125 4428 853 
Q 3897 1797 3753 3025 
Q 3603 2766 3431 2528 
Q 3300 2716 3119 2928 
Q 3844 3941 4088 5334 
z
M 694 1909 
L 1031 2203 
Q 1456 1800 1863 1394 
Q 2138 1847 2350 2378 
L 2800 2141 
Q 2538 1550 2209 1047 
Q 2659 591 3088 134 
L 2669 -222 
Q 2275 225 1913 625 
Q 1250 -238 356 -809 
Q 238 -641 31 -397 
Q 947 128 1584 981 
Q 1113 1491 694 1909 
z
M 5344 3697 
L 4125 3697 
Q 4222 2322 4741 1338 
Q 5263 2306 5344 3697 
z
M 175 4297 
L 3325 4297 
L 3325 3872 
L 175 3872 
L 175 4297 
z
M 1063 3628 
L 1475 3372 
Q 963 2641 413 1953 
Q 256 2084 44 2241 
Q 506 2797 1063 3628 
z
M 2344 3609 
Q 2744 3197 3263 2591 
L 2894 2278 
Q 2506 2759 2006 3341 
L 2344 3609 
z
M 1306 5141 
L 1731 5359 
Q 1988 4953 2206 4547 
L 1769 4322 
Q 1544 4772 1306 5141 
z
" transform="scale(0.015625)"/>
       <path id="MicrosoftYaHei-906e" d="M 3856 5166 
L 4288 5353 
Q 4488 5019 4659 4653 
L 6256 4653 
L 6256 4216 
L 2506 4216 
L 2506 3366 
L 3300 3366 
L 3300 4003 
L 3738 4003 
L 3738 3366 
L 4981 3366 
L 4981 4003 
L 5419 4003 
L 5419 3366 
L 6225 3366 
L 6225 2953 
L 5419 2953 
L 5419 1641 
L 4981 1641 
L 4981 1878 
L 3738 1878 
L 3738 1641 
L 3300 1641 
L 3300 2953 
L 2506 2953 
L 2506 2703 
Q 2506 1241 1838 259 
Q 1669 478 1494 672 
Q 2056 1422 2056 2691 
L 2056 4653 
L 4138 4653 
Q 4003 4922 3856 5166 
z
M 2681 -203 
L 4106 -234 
L 6319 -178 
Q 6250 -384 6144 -672 
L 3875 -678 
L 2631 -647 
Q 1538 -641 1081 97 
Q 763 -228 331 -753 
L 75 -234 
Q 522 209 875 541 
L 875 2647 
L 131 2647 
L 131 3097 
L 1350 3097 
L 1350 438 
Q 1750 -188 2681 -203 
z
M 3738 2278 
L 4981 2278 
L 4981 2953 
L 3738 2953 
L 3738 2278 
z
M 925 5209 
Q 1219 4709 1613 3909 
L 1131 3672 
Q 675 4666 488 5003 
L 925 5209 
z
M 5244 1316 
L 5644 1459 
Q 5944 834 6163 266 
L 5738 103 
Q 5531 666 5244 1316 
z
M 2831 1434 
L 3238 1303 
Q 3038 659 2775 47 
Q 2631 128 2363 241 
Q 2650 816 2831 1434 
z
M 4363 1284 
L 4775 1372 
Q 4950 872 5113 291 
L 4694 159 
Q 4569 691 4363 1284 
z
M 3519 1253 
L 3925 1322 
Q 4081 616 4131 216 
L 3688 141 
Q 3650 622 3519 1253 
z
" transform="scale(0.015625)"/>
       <path id="MicrosoftYaHei-853d" d="M 4750 3803 
Q 4650 3475 4547 3172 
L 6225 3172 
L 6225 2766 
L 5719 2766 
Q 5653 1266 5197 463 
Q 5631 -3 6306 -341 
Q 6156 -559 6019 -766 
Q 5391 -369 4947 94 
Q 4553 -394 3875 -841 
Q 3756 -659 3588 -472 
Q 4266 -63 4653 444 
Q 4238 1031 4059 1950 
Q 3947 1703 3825 1478 
Q 3725 1697 3563 1897 
Q 4056 2859 4313 3891 
L 4750 3803 
z
M 1738 3897 
L 2156 3897 
L 2156 2603 
L 3513 2603 
L 3513 -134 
Q 3513 -759 2938 -759 
Q 2681 -759 2413 -753 
Q 2381 -566 2325 -322 
Q 2619 -347 2838 -347 
Q 3100 -347 3100 -53 
L 3100 2241 
L 2156 2241 
L 2156 -759 
L 1738 -759 
L 1738 2241 
L 800 2241 
L 800 -791 
L 388 -791 
L 388 2603 
L 1738 2603 
L 1738 3897 
z
M 150 4784 
L 2050 4784 
L 2050 5328 
L 2506 5328 
L 2506 4784 
L 3863 4784 
L 3863 5328 
L 4319 5328 
L 4319 4784 
L 6269 4784 
L 6269 4372 
L 4319 4372 
L 4319 3941 
L 3863 3941 
L 3863 4372 
L 2506 4372 
L 2506 3997 
L 2050 3997 
L 2050 4372 
L 150 4372 
L 150 4784 
z
M 5294 2766 
L 4400 2766 
Q 4366 2675 4331 2588 
Q 4494 1478 4903 838 
Q 5250 1516 5294 2766 
z
M 1181 1816 
L 1544 1759 
Q 1456 941 1338 316 
L 981 397 
Q 1131 1066 1181 1816 
z
M 2650 1841 
Q 2813 1178 2938 447 
L 2569 359 
Q 2469 1084 2325 1772 
L 2650 1841 
z
M 3456 3541 
Q 3131 3166 2706 2778 
L 2419 3041 
Q 2781 3372 3138 3791 
L 3456 3541 
z
M 475 3534 
L 744 3784 
Q 1206 3384 1463 3116 
L 1163 2803 
Q 838 3191 475 3534 
z
" transform="scale(0.015625)"/>
       <path id="MicrosoftYaHei-65f6" d="M 344 4728 
L 2500 4728 
L 2500 -366 
L 2006 -366 
L 2006 153 
L 838 153 
L 838 -441 
L 344 -441 
L 344 4728 
z
M 2706 3941 
L 4925 3941 
L 4925 5322 
L 5425 5322 
L 5425 3941 
L 6313 3941 
L 6313 3478 
L 5425 3478 
L 5425 116 
Q 5425 -722 4625 -722 
Q 4263 -722 3563 -703 
Q 3531 -478 3463 -178 
Q 4119 -228 4488 -228 
Q 4925 -228 4925 216 
L 4925 3478 
L 2706 3478 
L 2706 3941 
z
M 838 616 
L 2006 616 
L 2006 2234 
L 838 2234 
L 838 616 
z
M 2006 4266 
L 838 4266 
L 838 2684 
L 2006 2684 
L 2006 4266 
z
M 3406 2878 
Q 3906 1966 4163 1422 
Q 4000 1347 3663 1172 
Q 3419 1766 2963 2653 
L 3406 2878 
z
" transform="scale(0.015625)"/>
       <path id="MicrosoftYaHei-957f" d="M 169 2766 
L 1269 2766 
L 1269 5316 
L 1781 5316 
L 1781 2766 
L 6194 2766 
L 6194 2278 
L 3456 2278 
Q 4238 566 6325 -78 
Q 6113 -359 5944 -591 
Q 3697 266 2925 2278 
L 1781 2278 
L 1781 16 
Q 2494 303 3294 678 
Q 3294 384 3319 116 
Q 2575 -191 1894 -528 
Q 1644 -666 1431 -834 
L 1056 -353 
Q 1269 -184 1269 103 
L 1269 2278 
L 169 2278 
L 169 2766 
z
M 2156 3528 
Q 3706 4047 5138 5109 
L 5463 4703 
Q 4000 3634 2400 3066 
Q 2300 3278 2156 3528 
z
" transform="scale(0.015625)"/>
       <path id="MicrosoftYaHei-2f" d="M 2791 4841 
L 469 -803 
L -103 -803 
L 2219 4841 
L 2791 4841 
z
" transform="scale(0.015625)"/>
       <path id="MicrosoftYaHei-73" d="M 353 747 
Q 816 413 1350 413 
Q 2066 413 2066 881 
Q 2066 1081 1909 1211 
Q 1753 1341 1275 1519 
Q 700 1750 528 1976 
Q 356 2203 356 2525 
Q 356 2984 745 3261 
Q 1134 3538 1703 3538 
Q 2144 3538 2522 3384 
L 2522 2794 
Q 2134 3044 1644 3044 
Q 1350 3044 1165 2916 
Q 981 2788 981 2578 
Q 981 2372 1114 2256 
Q 1247 2141 1703 1959 
Q 2281 1744 2484 1512 
Q 2688 1281 2688 941 
Q 2688 466 2298 192 
Q 1909 -81 1291 -81 
Q 753 -81 353 122 
L 353 747 
z
" transform="scale(0.015625)"/>
      </defs>
      <use xlink:href="#MicrosoftYaHei-4d"/>
      <use xlink:href="#MicrosoftYaHei-31" x="97.705078"/>
      <use xlink:href="#MicrosoftYaHei-20" x="156.347656"/>
      <use xlink:href="#MicrosoftYaHei-6709" x="185.9375"/>
      <use xlink:href="#MicrosoftYaHei-6548" x="285.9375"/>
      <use xlink:href="#MicrosoftYaHei-906e" x="385.9375"/>
      <use xlink:href="#MicrosoftYaHei-853d" x="485.9375"/>
      <use xlink:href="#MicrosoftYaHei-65f6" x="585.9375"/>
      <use xlink:href="#MicrosoftYaHei-957f" x="685.9375"/>
      <use xlink:href="#MicrosoftYaHei-20" x="785.9375"/>
      <use xlink:href="#MicrosoftYaHei-2f" x="815.527344"/>
      <use xlink:href="#MicrosoftYaHei-20" x="858.251953"/>
      <use xlink:href="#MicrosoftYaHei-73" x="887.841797"/>
     </g>
    </g>
   </g>
   <g id="LineCollection_1">
    <path d="M 60.57017 244.5525 
L 60.57017 128.367191 
" clip-path="url(#p1f4afa5743)" style="fill: none; stroke: #94a3b8; stroke-width: 1.5"/>
    <path d="M 178.933807 244.5525 
L 178.933807 53.654295 
" clip-path="url(#p1f4afa5743)" style="fill: none; stroke: #94a3b8; stroke-width: 1.5"/>
    <path d="M 297.297443 244.5525 
L 297.297443 53.654295 
" clip-path="url(#p1f4afa5743)" style="fill: none; stroke: #94a3b8; stroke-width: 1.5"/>
    <path d="M 415.66108 244.5525 
L 415.66108 53.654295 
" clip-path="url(#p1f4afa5743)" style="fill: none; stroke: #94a3b8; stroke-width: 1.5"/>
   </g>
   <g id="patch_3">
    <path d="M 42.815625 244.5525 
L 42.815625 22.7925 
" style="fill: none; stroke: #000000; stroke-width: 0.8; stroke-linejoin: miter; stroke-linecap: square"/>
   </g>
   <g id="patch_4">
    <path d="M 433.415625 244.5525 
L 433.415625 22.7925 
" style="fill: none; stroke: #000000; stroke-width: 0.8; stroke-linejoin: miter; stroke-linecap: square"/>
   </g>
   <g id="patch_5">
    <path d="M 42.815625 244.5525 
L 433.415625 244.5525 
" style="fill: none; stroke: #000000; stroke-width: 0.8; stroke-linejoin: miter; stroke-linecap: square"/>
   </g>
   <g id="patch_6">
    <path d="M 42.815625 22.7925 
L 433.415625 22.7925 
" style="fill: none; stroke: #000000; stroke-width: 0.8; stroke-linejoin: miter; stroke-linecap: square"/>
   </g>
   <g id="text_12">
    <!-- 1.362 -->
    <g transform="translate(48.931342 124.102575) scale(0.09 -0.09)">
     <defs>
      <path id="MicrosoftYaHei-36" d="M 3181 4219 
Q 2803 4413 2391 4413 
Q 1763 4413 1381 3866 
Q 1000 3319 994 2372 
L 1009 2372 
Q 1353 3038 2106 3038 
Q 2734 3038 3109 2628 
Q 3484 2219 3484 1541 
Q 3484 831 3051 375 
Q 2619 -81 1947 -81 
Q 1209 -81 789 495 
Q 369 1072 369 2131 
Q 369 3413 920 4167 
Q 1472 4922 2372 4922 
Q 2888 4922 3181 4781 
L 3181 4219 
z
M 1031 1584 
Q 1031 1106 1286 765 
Q 1541 425 1963 425 
Q 2363 425 2613 719 
Q 2863 1013 2863 1475 
Q 2863 1975 2627 2253 
Q 2391 2531 1956 2531 
Q 1544 2531 1287 2250 
Q 1031 1969 1031 1584 
z
" transform="scale(0.015625)"/>
     </defs>
     <use xlink:href="#MicrosoftYaHei-31"/>
     <use xlink:href="#MicrosoftYaHei-2e" x="58.642578"/>
     <use xlink:href="#MicrosoftYaHei-33" x="82.714844"/>
     <use xlink:href="#MicrosoftYaHei-36" x="141.357422"/>
     <use xlink:href="#MicrosoftYaHei-32" x="200"/>
    </g>
   </g>
   <g id="text_13">
    <!-- 2.238 -->
    <g transform="translate(167.294979 49.38968) scale(0.09 -0.09)">
     <defs>
      <path id="MicrosoftYaHei-38" d="M 306 1350 
Q 306 1769 556 2122 
Q 806 2475 1200 2625 
Q 884 2803 700 3081 
Q 516 3359 516 3684 
Q 516 4028 692 4312 
Q 869 4597 1183 4759 
Q 1497 4922 1875 4922 
Q 2256 4922 2572 4761 
Q 2888 4600 3063 4315 
Q 3238 4031 3238 3684 
Q 3238 3366 3058 3086 
Q 2878 2806 2559 2625 
Q 2953 2472 3200 2119 
Q 3447 1766 3447 1350 
Q 3447 938 3250 611 
Q 3053 284 2690 103 
Q 2328 -78 1875 -78 
Q 1425 -78 1065 103 
Q 706 284 506 612 
Q 306 941 306 1350 
z
M 906 1378 
Q 906 947 1172 687 
Q 1438 428 1878 428 
Q 2309 428 2582 692 
Q 2856 956 2856 1378 
Q 2856 1778 2579 2051 
Q 2303 2325 1878 2325 
Q 1456 2325 1181 2058 
Q 906 1791 906 1378 
z
M 1081 3634 
Q 1081 3309 1312 3076 
Q 1544 2844 1878 2844 
Q 2206 2844 2445 3078 
Q 2684 3313 2684 3634 
Q 2684 3963 2454 4191 
Q 2225 4419 1878 4419 
Q 1534 4419 1307 4195 
Q 1081 3972 1081 3634 
z
" transform="scale(0.015625)"/>
     </defs>
     <use xlink:href="#MicrosoftYaHei-32"/>
     <use xlink:href="#MicrosoftYaHei-2e" x="58.642578"/>
     <use xlink:href="#MicrosoftYaHei-32" x="82.714844"/>
     <use xlink:href="#MicrosoftYaHei-33" x="141.357422"/>
     <use xlink:href="#MicrosoftYaHei-38" x="200"/>
    </g>
   </g>
   <g id="text_14">
    <!-- 2.238 -->
    <g transform="translate(285.658615 49.38968) scale(0.09 -0.09)">
     <use xlink:href="#MicrosoftYaHei-32"/>
     <use xlink:href="#MicrosoftYaHei-2e" x="58.642578"/>
     <use xlink:href="#MicrosoftYaHei-32" x="82.714844"/>
     <use xlink:href="#MicrosoftYaHei-33" x="141.357422"/>
     <use xlink:href="#MicrosoftYaHei-38" x="200"/>
    </g>
   </g>
   <g id="text_15">
    <!-- 2.238 -->
    <g transform="translate(404.022251 49.38968) scale(0.09 -0.09)">
     <use xlink:href="#MicrosoftYaHei-32"/>
     <use xlink:href="#MicrosoftYaHei-2e" x="58.642578"/>
     <use xlink:href="#MicrosoftYaHei-32" x="82.714844"/>
     <use xlink:href="#MicrosoftYaHei-33" x="141.357422"/>
     <use xlink:href="#MicrosoftYaHei-38" x="200"/>
    </g>
   </g>
   <g id="text_16">
    <!-- F8 Q1—Q4 主指标对比 -->
    <g transform="translate(174.560625 16.7925) scale(0.12 -0.12)">
     <defs>
      <path id="MicrosoftYaHei-46" d="M 3119 4284 
L 1250 4284 
L 1250 2666 
L 2981 2666 
L 2981 2116 
L 1250 2116 
L 1250 0 
L 625 0 
L 625 4841 
L 3119 4841 
L 3119 4284 
z
" transform="scale(0.015625)"/>
      <path id="MicrosoftYaHei-2014" d="M 6913 1681 
L 0 1681 
L 0 2153 
L 6913 2153 
L 6913 1681 
z
" transform="scale(0.015625)"/>
      <path id="MicrosoftYaHei-4e3b" d="M 150 9 
L 2931 9 
L 2931 1809 
L 644 1809 
L 644 2284 
L 2931 2284 
L 2931 3709 
L 400 3709 
L 400 4184 
L 5975 4184 
L 5975 3709 
L 3469 3709 
L 3469 2284 
L 5756 2284 
L 5756 1809 
L 3469 1809 
L 3469 9 
L 6250 9 
L 6250 -453 
L 150 -453 
L 150 9 
z
M 2694 5109 
L 3156 5347 
Q 3538 4778 3706 4466 
L 3213 4203 
Q 2875 4828 2694 5109 
z
" transform="scale(0.015625)"/>
      <path id="MicrosoftYaHei-6307" d="M 2556 2316 
L 5856 2316 
L 5856 -822 
L 5381 -822 
L 5381 -441 
L 3031 -441 
L 3031 -822 
L 2556 -822 
L 2556 2316 
z
M 88 1978 
Q 550 2088 975 2194 
L 975 3647 
L 144 3647 
L 144 4097 
L 975 4097 
L 975 5309 
L 1444 5309 
L 1444 4097 
L 2250 4097 
L 2250 3647 
L 1444 3647 
L 1444 2319 
Q 1778 2409 2088 2503 
Q 2100 2216 2131 2016 
Q 1775 1916 1444 1822 
L 1444 -59 
Q 1444 -753 825 -759 
Q 594 -766 219 -747 
Q 194 -497 138 -253 
Q 481 -297 694 -297 
Q 975 -297 975 16 
L 975 1684 
Q 534 1556 150 1441 
L 88 1978 
z
M 2494 5322 
L 2969 5322 
L 2969 4359 
Q 4463 4641 5938 5084 
L 6106 4641 
Q 4888 4263 2969 3916 
L 2969 3709 
Q 2969 3259 3431 3259 
L 5156 3259 
Q 5613 3259 5700 3659 
Q 5756 3891 5813 4291 
Q 6038 4197 6281 4122 
Q 6213 3716 6144 3466 
Q 6000 2834 5244 2834 
L 3288 2834 
Q 2494 2834 2494 3678 
L 2494 5322 
z
M 5381 1891 
L 3031 1891 
L 3031 1134 
L 5381 1134 
L 5381 1891 
z
M 3031 -16 
L 5381 -16 
L 5381 734 
L 3031 734 
L 3031 -16 
z
" transform="scale(0.015625)"/>
      <path id="MicrosoftYaHei-6807" d="M 75 1409 
Q 769 2478 1025 3647 
L 119 3647 
L 119 4072 
L 1069 4072 
L 1069 5297 
L 1506 5297 
L 1506 4072 
L 2356 4072 
L 2356 3647 
L 1506 3647 
L 1506 2541 
L 1775 2822 
Q 2175 2478 2481 2159 
L 2150 1816 
Q 1850 2156 1506 2503 
L 1506 -797 
L 1069 -797 
L 1069 2588 
Q 738 1513 281 859 
Q 194 1128 75 1409 
z
M 2350 3097 
L 6250 3097 
L 6250 2659 
L 4525 2659 
L 4525 47 
Q 4525 -734 3806 -734 
Q 3469 -741 2975 -728 
Q 2944 -503 2888 -209 
Q 3319 -259 3675 -259 
Q 4050 -259 4050 203 
L 4050 2659 
L 2350 2659 
L 2350 3097 
z
M 2638 4928 
L 5963 4928 
L 5963 4491 
L 2638 4491 
L 2638 4928 
z
M 4938 1853 
L 5381 2066 
Q 5975 928 6369 72 
L 5869 -147 
Q 5463 822 4938 1853 
z
M 2931 2066 
L 3400 1878 
Q 2888 734 2381 -153 
Q 2188 -41 1925 66 
Q 2425 872 2931 2066 
z
" transform="scale(0.015625)"/>
      <path id="MicrosoftYaHei-5bf9" d="M 694 3691 
Q 1234 2909 1741 2166 
Q 2113 3081 2213 4147 
L 250 4147 
L 250 4622 
L 2725 4622 
L 2725 4166 
Q 2553 2809 2059 1700 
Q 2569 953 3044 247 
L 2594 -53 
Q 2203 563 1803 1181 
Q 1247 163 388 -622 
Q 263 -428 81 -166 
Q 975 638 1500 1647 
Q 919 2538 319 3434 
L 694 3691 
z
M 2975 3941 
L 5056 3941 
L 5056 5278 
L 5563 5278 
L 5563 3941 
L 6325 3941 
L 6325 3466 
L 5563 3466 
L 5563 191 
Q 5563 -716 4669 -716 
Q 4388 -716 3744 -709 
Q 3713 -478 3644 -147 
Q 4263 -197 4588 -197 
Q 5056 -197 5056 278 
L 5056 3466 
L 2975 3466 
L 2975 3941 
z
M 3088 2684 
L 3494 2928 
Q 4000 2184 4388 1484 
L 3919 1216 
Q 3550 1922 3088 2684 
z
" transform="scale(0.015625)"/>
      <path id="MicrosoftYaHei-6bd4" d="M 3225 5316 
L 3744 5316 
L 3744 2672 
Q 4959 3550 5744 4509 
L 6188 4178 
Q 5175 3063 3744 2056 
L 3744 247 
Q 3744 -166 4106 -166 
L 5175 -166 
Q 5588 -166 5650 203 
Q 5725 678 5763 1247 
Q 6025 1147 6300 1066 
Q 6244 484 6150 22 
Q 6019 -622 5319 -622 
L 3944 -622 
Q 3225 -622 3225 159 
L 3225 5316 
z
M 1063 5153 
L 1063 3278 
L 2825 3278 
L 2825 2809 
L 1063 2809 
L 1063 153 
Q 1713 428 2763 928 
Q 2763 634 2788 366 
Q 1869 -3 1231 -328 
Q 956 -472 725 -672 
L 344 -184 
Q 544 -34 544 272 
L 544 5153 
L 1063 5153 
z
" transform="scale(0.015625)"/>
     </defs>
     <use xlink:href="#MicrosoftYaHei-46"/>
     <use xlink:href="#MicrosoftYaHei-38" x="53.125"/>
     <use xlink:href="#MicrosoftYaHei-20" x="111.767578"/>
     <use xlink:href="#MicrosoftYaHei-51" x="141.357422"/>
     <use xlink:href="#MicrosoftYaHei-31" x="222.851562"/>
     <use xlink:href="#MicrosoftYaHei-2014" x="281.494141"/>
     <use xlink:href="#MicrosoftYaHei-51" x="389.501953"/>
     <use xlink:href="#MicrosoftYaHei-34" x="470.996094"/>
     <use xlink:href="#MicrosoftYaHei-20" x="529.638672"/>
     <use xlink:href="#MicrosoftYaHei-4e3b" x="559.228516"/>
     <use xlink:href="#MicrosoftYaHei-6307" x="659.228516"/>
     <use xlink:href="#MicrosoftYaHei-6807" x="759.228516"/>
     <use xlink:href="#MicrosoftYaHei-5bf9" x="859.228516"/>
     <use xlink:href="#MicrosoftYaHei-6bd4" x="959.228516"/>
    </g>
   </g>
  </g>
 </g>
 <defs>
  <clipPath id="p1f4afa5743">
   <rect x="42.815625" y="22.7925" width="390.6" height="221.76"/>
  </clipPath>
 </defs>
</svg>
