<?xml version="1.0" encoding="utf-8" standalone="no"?>
<!DOCTYPE svg PUBLIC "-//W3C//DTD SVG 1.1//EN"
  "http://www.w3.org/Graphics/SVG/1.1/DTD/svg11.dtd">
<svg xmlns:xlink="http://www.w3.org/1999/xlink" width="552.215625pt" height="269.232187pt" viewBox="0 0 552.215625 269.232187" xmlns="http://www.w3.org/2000/svg" version="1.1">
 <metadata>
  <rdf:RDF xmlns:dc="http://purl.org/dc/elements/1.1/" xmlns:cc="http://creativecommons.org/ns#" xmlns:rdf="http://www.w3.org/1999/02/22-rdf-syntax-ns#">
   <cc:Work>
    <dc:type rdf:resource="http://purl.org/dc/dcmitype/StillImage"/>
    <dc:date>2026-07-22T20:44:06.833112</dc:date>
    <dc:format>image/svg+xml</dc:format>
    <dc:creator>
     <cc:Agent>
      <dc:title>Matplotlib v3.9.2, https://matplotlib.org/</dc:title>
     </cc:Agent>
    </dc:creator>
   </cc:Work>
  </rdf:RDF>
 </metadata>
 <defs>
  <style type="text/css">*{stroke-linejoin: round; stroke-linecap: butt}</style>
 </defs>
 <g id="figure_1">
  <g id="patch_1">
   <path d="M 0 269.232187 
L 552.215625 269.232187 
L 552.215625 0 
L 0 0 
z
" style="fill: #ffffff"/>
  </g>
  <g id="axes_1">
   <g id="patch_2">
    <path d="M 42.815625 244.5525 
L 545.015625 244.5525 
L 545.015625 22.7925 
L 42.815625 22.7925 
z
" style="fill: #ffffff"/>
   </g>
   <g id="PathCollection_1">
    <defs>
     <path id="m082013540c" d="M 0 3 
C 0.795609 3 1.55874 2.683901 2.12132 2.12132 
C 2.683901 1.55874 3 0.795609 3 0 
C 3 -0.795609 2.683901 -1.55874 2.12132 -2.12132 
C 1.55874 -2.683901 0.795609 -3 0 -3 
C -0.795609 -3 -1.55874 -2.683901 -2.12132 -2.12132 
C -2.683901 -1.55874 -3 -0.795609 -3 0 
C -3 0.795609 -2.683901 1.55874 -2.12132 2.12132 
C -1.55874 2.683901 -0.795609 3 0 3 
z
" style="stroke: #0f766e"/>
    </defs>
    <g clip-path="url(#p9d61f45387)">
     <use xlink:href="#m082013540c" x="65.642898" y="215.316563" style="fill: #0f766e; stroke: #0f766e"/>
     <use xlink:href="#m082013540c" x="171.324716" y="65.765175" style="fill: #0f766e; stroke: #0f766e"/>
     <use xlink:href="#m082013540c" x="277.006534" y="65.765175" style="fill: #0f766e; stroke: #0f766e"/>
     <use xlink:href="#m082013540c" x="382.688352" y="109.492211" style="fill: #0f766e; stroke: #0f766e"/>
     <use xlink:href="#m082013540c" x="488.37017" y="127.460043" style="fill: #0f766e; stroke: #0f766e"/>
    </g>
   </g>
   <g id="PathCollection_2">
    <defs>
     <path id="mebd090b8aa" d="M 0 3 
C 0.795609 3 1.55874 2.683901 2.12132 2.12132 
C 2.683901 1.55874 3 0.795609 3 0 
C 3 -0.795609 2.683901 -1.55874 2.12132 -2.12132 
C 1.55874 -2.683901 0.795609 -3 0 -3 
C -0.795609 -3 -1.55874 -2.683901 -2.12132 -2.12132 
C -2.683901 -1.55874 -3 -0.795609 -3 0 
C -3 0.795609 -2.683901 1.55874 -2.12132 2.12132 
C -1.55874 2.683901 -0.795609 3 0 3 
z
" style="stroke: #2563eb"/>
    </defs>
    <g clip-path="url(#p9d61f45387)">
     <use xlink:href="#mebd090b8aa" x="82.551989" y="207.922663" style="fill: #2563eb; stroke: #2563eb"/>
     <use xlink:href="#mebd090b8aa" x="188.233807" y="61.663767" style="fill: #2563eb; stroke: #2563eb"/>
     <use xlink:href="#mebd090b8aa" x="293.915625" y="61.663767" style="fill: #2563eb; stroke: #2563eb"/>
     <use xlink:href="#mebd090b8aa" x="399.597443" y="32.8725" style="fill: #2563eb; stroke: #2563eb"/>
     <use xlink:href="#mebd090b8aa" x="505.279261" y="110.344259" style="fill: #2563eb; stroke: #2563eb"/>
    </g>
   </g>
   <g id="PathCollection_3">
    <defs>
     <path id="m3e99e80040" d="M 0 3 
C 0.795609 3 1.55874 2.683901 2.12132 2.12132 
C 2.683901 1.55874 3 0.795609 3 0 
C 3 -0.795609 2.683901 -1.55874 2.12132 -2.12132 
C 1.55874 -2.683901 0.795609 -3 0 -3 
C -0.795609 -3 -1.55874 -2.683901 -2.12132 -2.12132 
C -2.683901 -1.55874 -3 -0.795609 -3 0 
C -3 0.795609 -2.683901 1.55874 -2.12132 2.12132 
C -1.55874 2.683901 -0.795609 3 0 3 
z
" style="stroke: #f59e0b"/>
    </defs>
    <g clip-path="url(#p9d61f45387)">
     <use xlink:href="#m3e99e80040" x="99.46108" y="234.4725" style="fill: #f59e0b; stroke: #f59e0b"/>
     <use xlink:href="#m3e99e80040" x="205.142898" y="63.744503" style="fill: #f59e0b; stroke: #f59e0b"/>
     <use xlink:href="#m3e99e80040" x="310.824716" y="63.744503" style="fill: #f59e0b; stroke: #f59e0b"/>
     <use xlink:href="#m3e99e80040" x="416.506534" y="106.426502" style="fill: #f59e0b; stroke: #f59e0b"/>
     <use xlink:href="#m3e99e80040" x="522.188352" y="106.426502" style="fill: #f59e0b; stroke: #f59e0b"/>
    </g>
   </g>
   <g id="matplotlib.axis_1">
    <g id="xtick_1">
     <g id="line2d_1">
      <defs>
       <path id="m5011bd5026" d="M 0 0 
L 0 3.5 
" style="stroke: #000000; stroke-width: 0.8"/>
      </defs>
      <g>
       <use xlink:href="#m5011bd5026" x="82.551989" y="244.5525" style="stroke: #000000; stroke-width: 0.8"/>
      </g>
     </g>
     <g id="text_1">
      <!-- Q1/M1 -->
      <g transform="translate(65.591832 259.54625) scale(0.1 -0.1)">
       <defs>
        <path id="MicrosoftYaHei-51" d="M 313 2363 
Q 313 3534 947 4228 
Q 1581 4922 2666 4922 
Q 3675 4922 4290 4244 
Q 4906 3566 4906 2478 
Q 4906 1300 4275 609 
Q 4125 447 3953 322 
L 5313 -653 
L 4284 -653 
L 3366 28 
Q 3009 -81 2588 -81 
Q 1556 -81 934 597 
Q 313 1275 313 2363 
z
M 969 2413 
Q 969 1534 1417 1004 
Q 1866 475 2588 475 
Q 3363 475 3805 983 
Q 4247 1491 4247 2403 
Q 4247 3341 3814 3850 
Q 3381 4359 2628 4359 
Q 1888 4359 1428 3821 
Q 969 3284 969 2413 
z
" transform="scale(0.015625)"/>
        <path id="MicrosoftYaHei-31" d="M 1781 0 
L 1781 4141 
Q 1638 3997 1295 3819 
Q 953 3641 663 3569 
L 663 4169 
Q 1047 4275 1484 4508 
Q 1922 4741 2156 4947 
L 2388 4947 
L 2388 0 
L 1781 0 
z
" transform="scale(0.015625)"/>
        <path id="MicrosoftYaHei-2f" d="M 2791 4841 
L 469 -803 
L -103 -803 
L 2219 4841 
L 2791 4841 
z
" transform="scale(0.015625)"/>
        <path id="MicrosoftYaHei-4d" d="M 5003 0 
L 5003 3206 
Q 5003 3603 5050 4159 
L 5034 4159 
Q 4953 3809 4891 3672 
L 3294 0 
L 2947 0 
L 1353 3644 
Q 1297 3769 1209 4159 
L 1191 4159 
Q 1222 3822 1222 3178 
L 1222 0 
L 625 0 
L 625 4841 
L 1472 4841 
L 2900 1522 
Q 3063 1141 3116 928 
L 3138 928 
Q 3300 1375 3366 1534 
L 4819 4841 
L 5625 4841 
L 5625 0 
L 5003 0 
z
" transform="scale(0.015625)"/>
       </defs>
       <use xlink:href="#MicrosoftYaHei-51"/>
       <use xlink:href="#MicrosoftYaHei-31" x="81.494141"/>
       <use xlink:href="#MicrosoftYaHei-2f" x="140.136719"/>
       <use xlink:href="#MicrosoftYaHei-4d" x="182.861328"/>
       <use xlink:href="#MicrosoftYaHei-31" x="280.566406"/>
      </g>
     </g>
    </g>
    <g id="xtick_2">
     <g id="line2d_2">
      <g>
       <use xlink:href="#m5011bd5026" x="188.233807" y="244.5525" style="stroke: #000000; stroke-width: 0.8"/>
      </g>
     </g>
     <g id="text_2">
      <!-- Q2/M1 -->
      <g transform="translate(171.273651 259.54625) scale(0.1 -0.1)">
       <defs>
        <path id="MicrosoftYaHei-32" d="M 2666 3572 
Q 2666 3963 2419 4186 
Q 2172 4409 1747 4409 
Q 1447 4409 1140 4256 
Q 834 4103 569 3819 
L 569 4413 
Q 806 4659 1107 4790 
Q 1409 4922 1816 4922 
Q 2472 4922 2872 4570 
Q 3272 4219 3272 3619 
Q 3272 3084 3026 2693 
Q 2781 2303 2188 1894 
Q 1581 1475 1376 1294 
Q 1172 1113 1090 947 
Q 1009 781 1009 544 
L 3416 544 
L 3416 0 
L 372 0 
L 372 241 
Q 372 659 486 951 
Q 600 1244 862 1520 
Q 1125 1797 1681 2184 
Q 2250 2584 2458 2886 
Q 2666 3188 2666 3572 
z
" transform="scale(0.015625)"/>
       </defs>
       <use xlink:href="#MicrosoftYaHei-51"/>
       <use xlink:href="#MicrosoftYaHei-32" x="81.494141"/>
       <use xlink:href="#MicrosoftYaHei-2f" x="140.136719"/>
       <use xlink:href="#MicrosoftYaHei-4d" x="182.861328"/>
       <use xlink:href="#MicrosoftYaHei-31" x="280.566406"/>
      </g>
     </g>
    </g>
    <g id="xtick_3">
     <g id="line2d_3">
      <g>
       <use xlink:href="#m5011bd5026" x="293.915625" y="244.5525" style="stroke: #000000; stroke-width: 0.8"/>
      </g>
     </g>
     <g id="text_3">
      <!-- Q5/M1 -->
      <g transform="translate(276.955469 259.54625) scale(0.1 -0.1)">
       <defs>
        <path id="MicrosoftYaHei-35" d="M 3294 1494 
Q 3294 784 2823 350 
Q 2353 -84 1559 -84 
Q 878 -84 544 119 
L 544 744 
Q 1034 425 1544 425 
Q 2050 425 2361 704 
Q 2672 984 2672 1447 
Q 2672 1909 2348 2167 
Q 2025 2425 1434 2425 
Q 978 2425 613 2384 
L 791 4841 
L 3053 4841 
L 3053 4303 
L 1306 4303 
L 1206 2931 
L 1647 2950 
Q 2416 2950 2855 2567 
Q 3294 2184 3294 1494 
z
" transform="scale(0.015625)"/>
       </defs>
       <use xlink:href="#MicrosoftYaHei-51"/>
       <use xlink:href="#MicrosoftYaHei-35" x="81.494141"/>
       <use xlink:href="#MicrosoftYaHei-2f" x="140.136719"/>
       <use xlink:href="#MicrosoftYaHei-4d" x="182.861328"/>
       <use xlink:href="#MicrosoftYaHei-31" x="280.566406"/>
      </g>
     </g>
    </g>
    <g id="xtick_4">
     <g id="line2d_4">
      <g>
       <use xlink:href="#m5011bd5026" x="399.597443" y="244.5525" style="stroke: #000000; stroke-width: 0.8"/>
      </g>
     </g>
     <g id="text_4">
      <!-- Q5/M2 -->
      <g transform="translate(382.637287 259.54625) scale(0.1 -0.1)">
       <use xlink:href="#MicrosoftYaHei-51"/>
       <use xlink:href="#MicrosoftYaHei-35" x="81.494141"/>
       <use xlink:href="#MicrosoftYaHei-2f" x="140.136719"/>
       <use xlink:href="#MicrosoftYaHei-4d" x="182.861328"/>
       <use xlink:href="#MicrosoftYaHei-32" x="280.566406"/>
      </g>
     </g>
    </g>
    <g id="xtick_5">
     <g id="line2d_5">
      <g>
       <use xlink:href="#m5011bd5026" x="505.279261" y="244.5525" style="stroke: #000000; stroke-width: 0.8"/>
      </g>
     </g>
     <g id="text_5">
      <!-- Q5/M3 -->
      <g transform="translate(488.319105 259.54625) scale(0.1 -0.1)">
       <defs>
        <path id="MicrosoftYaHei-33" d="M 447 809 
Q 944 425 1569 425 
Q 2069 425 2361 670 
Q 2653 916 2653 1328 
Q 2653 2247 1338 2247 
L 934 2247 
L 934 2753 
L 1319 2753 
Q 2484 2753 2484 3616 
Q 2484 4413 1594 4413 
Q 1084 4413 634 4069 
L 634 4647 
Q 1109 4922 1744 4922 
Q 2363 4922 2738 4598 
Q 3113 4275 3113 3759 
Q 3113 2809 2144 2538 
L 2144 2525 
Q 2669 2469 2973 2155 
Q 3278 1841 3278 1372 
Q 3278 719 2808 319 
Q 2338 -81 1556 -81 
Q 869 -81 447 175 
L 447 809 
z
" transform="scale(0.015625)"/>
       </defs>
       <use xlink:href="#MicrosoftYaHei-51"/>
       <use xlink:href="#MicrosoftYaHei-35" x="81.494141"/>
       <use xlink:href="#MicrosoftYaHei-2f" x="140.136719"/>
       <use xlink:href="#MicrosoftYaHei-4d" x="182.861328"/>
       <use xlink:href="#MicrosoftYaHei-33" x="280.566406"/>
      </g>
     </g>
    </g>
   </g>
   <g id="matplotlib.axis_2">
    <g id="ytick_1">
     <g id="line2d_6">
      <path d="M 42.815625 243.0089 
L 545.015625 243.0089 
" clip-path="url(#p9d61f45387)" style="fill: none; stroke: #e5e7eb; stroke-width: 0.8; stroke-linecap: square"/>
     </g>
     <g id="line2d_7">
      <defs>
       <path id="mf9491da6f9" d="M 0 0 
L -3.5 0 
" style="stroke: #000000; stroke-width: 0.8"/>
      </defs>
      <g>
       <use xlink:href="#mf9491da6f9" x="42.815625" y="243.0089" style="stroke: #000000; stroke-width: 0.8"/>
      </g>
     </g>
     <g id="text_6">
      <!-- 1.2 -->
      <g transform="translate(21.679688 247.005775) scale(0.1 -0.1)">
       <defs>
        <path id="MicrosoftYaHei-2e" d="M 372 322 
Q 372 491 487 606 
Q 603 722 775 722 
Q 950 722 1065 605 
Q 1181 488 1181 322 
Q 1181 159 1065 42 
Q 950 -75 772 -75 
Q 600 -75 486 42 
Q 372 159 372 322 
z
" transform="scale(0.015625)"/>
       </defs>
       <use xlink:href="#MicrosoftYaHei-31"/>
       <use xlink:href="#MicrosoftYaHei-2e" x="58.642578"/>
       <use xlink:href="#MicrosoftYaHei-32" x="82.714844"/>
      </g>
     </g>
    </g>
    <g id="ytick_2">
     <g id="line2d_8">
      <path d="M 42.815625 208.8633 
L 545.015625 208.8633 
" clip-path="url(#p9d61f45387)" style="fill: none; stroke: #e5e7eb; stroke-width: 0.8; stroke-linecap: square"/>
     </g>
     <g id="line2d_9">
      <g>
       <use xlink:href="#mf9491da6f9" x="42.815625" y="208.8633" style="stroke: #000000; stroke-width: 0.8"/>
      </g>
     </g>
     <g id="text_7">
      <!-- 1.4 -->
      <g transform="translate(21.679688 212.860175) scale(0.1 -0.1)">
       <defs>
        <path id="MicrosoftYaHei-34" d="M 2906 4841 
L 2906 1644 
L 3631 1644 
L 3631 1138 
L 2906 1138 
L 2906 0 
L 2313 0 
L 2313 1138 
L 53 1138 
L 53 1616 
Q 656 2294 1265 3178 
Q 1875 4063 2272 4841 
L 2906 4841 
z
M 741 1644 
L 2313 1644 
L 2313 3950 
Q 1988 3366 1616 2817 
Q 1244 2269 741 1644 
z
" transform="scale(0.015625)"/>
       </defs>
       <use xlink:href="#MicrosoftYaHei-31"/>
       <use xlink:href="#MicrosoftYaHei-2e" x="58.642578"/>
       <use xlink:href="#MicrosoftYaHei-34" x="82.714844"/>
      </g>
     </g>
    </g>
    <g id="ytick_3">
     <g id="line2d_10">
      <path d="M 42.815625 174.717701 
L 545.015625 174.717701 
" clip-path="url(#p9d61f45387)" style="fill: none; stroke: #e5e7eb; stroke-width: 0.8; stroke-linecap: square"/>
     </g>
     <g id="line2d_11">
      <g>
       <use xlink:href="#mf9491da6f9" x="42.815625" y="174.717701" style="stroke: #000000; stroke-width: 0.8"/>
      </g>
     </g>
     <g id="text_8">
      <!-- 1.6 -->
      <g transform="translate(21.679688 178.714576) scale(0.1 -0.1)">
       <defs>
        <path id="MicrosoftYaHei-36" d="M 3181 4219 
Q 2803 4413 2391 4413 
Q 1763 4413 1381 3866 
Q 1000 3319 994 2372 
L 1009 2372 
Q 1353 3038 2106 3038 
Q 2734 3038 3109 2628 
Q 3484 2219 3484 1541 
Q 3484 831 3051 375 
Q 2619 -81 1947 -81 
Q 1209 -81 789 495 
Q 369 1072 369 2131 
Q 369 3413 920 4167 
Q 1472 4922 2372 4922 
Q 2888 4922 3181 4781 
L 3181 4219 
z
M 1031 1584 
Q 1031 1106 1286 765 
Q 1541 425 1963 425 
Q 2363 425 2613 719 
Q 2863 1013 2863 1475 
Q 2863 1975 2627 2253 
Q 2391 2531 1956 2531 
Q 1544 2531 1287 2250 
Q 1031 1969 1031 1584 
z
" transform="scale(0.015625)"/>
       </defs>
       <use xlink:href="#MicrosoftYaHei-31"/>
       <use xlink:href="#MicrosoftYaHei-2e" x="58.642578"/>
       <use xlink:href="#MicrosoftYaHei-36" x="82.714844"/>
      </g>
     </g>
    </g>
    <g id="ytick_4">
     <g id="line2d_12">
      <path d="M 42.815625 140.572102 
L 545.015625 140.572102 
" clip-path="url(#p9d61f45387)" style="fill: none; stroke: #e5e7eb; stroke-width: 0.8; stroke-linecap: square"/>
     </g>
     <g id="line2d_13">
      <g>
       <use xlink:href="#mf9491da6f9" x="42.815625" y="140.572102" style="stroke: #000000; stroke-width: 0.8"/>
      </g>
     </g>
     <g id="text_9">
      <!-- 1.8 -->
      <g transform="translate(21.679688 144.568977) scale(0.1 -0.1)">
       <defs>
        <path id="MicrosoftYaHei-38" d="M 306 1350 
Q 306 1769 556 2122 
Q 806 2475 1200 2625 
Q 884 2803 700 3081 
Q 516 3359 516 3684 
Q 516 4028 692 4312 
Q 869 4597 1183 4759 
Q 1497 4922 1875 4922 
Q 2256 4922 2572 4761 
Q 2888 4600 3063 4315 
Q 3238 4031 3238 3684 
Q 3238 3366 3058 3086 
Q 2878 2806 2559 2625 
Q 2953 2472 3200 2119 
Q 3447 1766 3447 1350 
Q 3447 938 3250 611 
Q 3053 284 2690 103 
Q 2328 -78 1875 -78 
Q 1425 -78 1065 103 
Q 706 284 506 612 
Q 306 941 306 1350 
z
M 906 1378 
Q 906 947 1172 687 
Q 1438 428 1878 428 
Q 2309 428 2582 692 
Q 2856 956 2856 1378 
Q 2856 1778 2579 2051 
Q 2303 2325 1878 2325 
Q 1456 2325 1181 2058 
Q 906 1791 906 1378 
z
M 1081 3634 
Q 1081 3309 1312 3076 
Q 1544 2844 1878 2844 
Q 2206 2844 2445 3078 
Q 2684 3313 2684 3634 
Q 2684 3963 2454 4191 
Q 2225 4419 1878 4419 
Q 1534 4419 1307 4195 
Q 1081 3972 1081 3634 
z
" transform="scale(0.015625)"/>
       </defs>
       <use xlink:href="#MicrosoftYaHei-31"/>
       <use xlink:href="#MicrosoftYaHei-2e" x="58.642578"/>
       <use xlink:href="#MicrosoftYaHei-38" x="82.714844"/>
      </g>
     </g>
    </g>
    <g id="ytick_5">
     <g id="line2d_14">
      <path d="M 42.815625 106.426502 
L 545.015625 106.426502 
" clip-path="url(#p9d61f45387)" style="fill: none; stroke: #e5e7eb; stroke-width: 0.8; stroke-linecap: square"/>
     </g>
     <g id="line2d_15">
      <g>
       <use xlink:href="#mf9491da6f9" x="42.815625" y="106.426502" style="stroke: #000000; stroke-width: 0.8"/>
      </g>
     </g>
     <g id="text_10">
      <!-- 2.0 -->
      <g transform="translate(21.679688 110.423377) scale(0.1 -0.1)">
       <defs>
        <path id="MicrosoftYaHei-30" d="M 284 2325 
Q 284 3606 709 4264 
Q 1134 4922 1941 4922 
Q 3478 4922 3478 2441 
Q 3478 1216 3045 567 
Q 2613 -81 1831 -81 
Q 1094 -81 689 534 
Q 284 1150 284 2325 
z
M 909 2353 
Q 909 425 1888 425 
Q 2850 425 2850 2384 
Q 2850 4413 1906 4413 
Q 909 4413 909 2353 
z
" transform="scale(0.015625)"/>
       </defs>
       <use xlink:href="#MicrosoftYaHei-32"/>
       <use xlink:href="#MicrosoftYaHei-2e" x="58.642578"/>
       <use xlink:href="#MicrosoftYaHei-30" x="82.714844"/>
      </g>
     </g>
    </g>
    <g id="ytick_6">
     <g id="line2d_16">
      <path d="M 42.815625 72.280903 
L 545.015625 72.280903 
" clip-path="url(#p9d61f45387)" style="fill: none; stroke: #e5e7eb; stroke-width: 0.8; stroke-linecap: square"/>
     </g>
     <g id="line2d_17">
      <g>
       <use xlink:href="#mf9491da6f9" x="42.815625" y="72.280903" style="stroke: #000000; stroke-width: 0.8"/>
      </g>
     </g>
     <g id="text_11">
      <!-- 2.2 -->
      <g transform="translate(21.679688 76.277778) scale(0.1 -0.1)">
       <use xlink:href="#MicrosoftYaHei-32"/>
       <use xlink:href="#MicrosoftYaHei-2e" x="58.642578"/>
       <use xlink:href="#MicrosoftYaHei-32" x="82.714844"/>
      </g>
     </g>
    </g>
    <g id="ytick_7">
     <g id="line2d_18">
      <path d="M 42.815625 38.135304 
L 545.015625 38.135304 
" clip-path="url(#p9d61f45387)" style="fill: none; stroke: #e5e7eb; stroke-width: 0.8; stroke-linecap: square"/>
     </g>
     <g id="line2d_19">
      <g>
       <use xlink:href="#mf9491da6f9" x="42.815625" y="38.135304" style="stroke: #000000; stroke-width: 0.8"/>
      </g>
     </g>
     <g id="text_12">
      <!-- 2.4 -->
      <g transform="translate(21.679688 42.132179) scale(0.1 -0.1)">
       <use xlink:href="#MicrosoftYaHei-32"/>
       <use xlink:href="#MicrosoftYaHei-2e" x="58.642578"/>
       <use xlink:href="#MicrosoftYaHei-34" x="82.714844"/>
      </g>
     </g>
    </g>
    <g id="text_13">
     <!-- 有效遮蔽时长 / s -->
     <g transform="translate(15.19375 171.082656) rotate(-90) scale(0.1 -0.1)">
      <defs>
       <path id="MicrosoftYaHei-6709" d="M 1856 -816 
L 1363 -816 
L 1363 2419 
Q 909 1891 363 1403 
Q 231 1622 63 1859 
Q 1269 2869 1947 4097 
L 238 4097 
L 238 4559 
L 2181 4559 
Q 2359 4950 2488 5359 
L 3006 5241 
Q 2881 4894 2731 4559 
L 6263 4559 
L 6263 4097 
L 2506 4097 
Q 2313 3728 2081 3378 
L 5506 3378 
L 5506 41 
Q 5506 -734 4750 -734 
Q 4419 -741 3744 -741 
Q 3713 -528 3650 -228 
Q 4225 -272 4575 -272 
Q 5006 -272 5006 153 
L 5006 597 
L 1856 597 
L 1856 -816 
z
M 1856 1022 
L 5006 1022 
L 5006 1772 
L 1856 1772 
L 1856 1022 
z
M 5006 2941 
L 1856 2941 
L 1856 2197 
L 5006 2197 
L 5006 2941 
z
" transform="scale(0.015625)"/>
       <path id="MicrosoftYaHei-6548" d="M 4088 5334 
L 4581 5253 
Q 4453 4653 4259 4122 
L 6269 4122 
L 6269 3697 
L 5838 3697 
Q 5672 1869 5050 841 
Q 5572 128 6388 -347 
Q 6188 -622 6050 -841 
Q 5250 -313 4728 391 
Q 4153 -328 3300 -891 
Q 3163 -709 2944 -497 
Q 3872 125 4428 853 
Q 3897 1797 3753 3025 
Q 3603 2766 3431 2528 
Q 3300 2716 3119 2928 
Q 3844 3941 4088 5334 
z
M 694 1909 
L 1031 2203 
Q 1456 1800 1863 1394 
Q 2138 1847 2350 2378 
L 2800 2141 
Q 2538 1550 2209 1047 
Q 2659 591 3088 134 
L 2669 -222 
Q 2275 225 1913 625 
Q 1250 -238 356 -809 
Q 238 -641 31 -397 
Q 947 128 1584 981 
Q 1113 1491 694 1909 
z
M 5344 3697 
L 4125 3697 
Q 4222 2322 4741 1338 
Q 5263 2306 5344 3697 
z
M 175 4297 
L 3325 4297 
L 3325 3872 
L 175 3872 
L 175 4297 
z
M 1063 3628 
L 1475 3372 
Q 963 2641 413 1953 
Q 256 2084 44 2241 
Q 506 2797 1063 3628 
z
M 2344 3609 
Q 2744 3197 3263 2591 
L 2894 2278 
Q 2506 2759 2006 3341 
L 2344 3609 
z
M 1306 5141 
L 1731 5359 
Q 1988 4953 2206 4547 
L 1769 4322 
Q 1544 4772 1306 5141 
z
" transform="scale(0.015625)"/>
       <path id="MicrosoftYaHei-906e" d="M 3856 5166 
L 4288 5353 
Q 4488 5019 4659 4653 
L 6256 4653 
L 6256 4216 
L 2506 4216 
L 2506 3366 
L 3300 3366 
L 3300 4003 
L 3738 4003 
L 3738 3366 
L 4981 3366 
L 4981 4003 
L 5419 4003 
L 5419 3366 
L 6225 3366 
L 6225 2953 
L 5419 2953 
L 5419 1641 
L 4981 1641 
L 4981 1878 
L 3738 1878 
L 3738 1641 
L 3300 1641 
L 3300 2953 
L 2506 2953 
L 2506 2703 
Q 2506 1241 1838 259 
Q 1669 478 1494 672 
Q 2056 1422 2056 2691 
L 2056 4653 
L 4138 4653 
Q 4003 4922 3856 5166 
z
M 2681 -203 
L 4106 -234 
L 6319 -178 
Q 6250 -384 6144 -672 
L 3875 -678 
L 2631 -647 
Q 1538 -641 1081 97 
Q 763 -228 331 -753 
L 75 -234 
Q 522 209 875 541 
L 875 2647 
L 131 2647 
L 131 3097 
L 1350 3097 
L 1350 438 
Q 1750 -188 2681 -203 
z
M 3738 2278 
L 4981 2278 
L 4981 2953 
L 3738 2953 
L 3738 2278 
z
M 925 5209 
Q 1219 4709 1613 3909 
L 1131 3672 
Q 675 4666 488 5003 
L 925 5209 
z
M 5244 1316 
L 5644 1459 
Q 5944 834 6163 266 
L 5738 103 
Q 5531 666 5244 1316 
z
M 2831 1434 
L 3238 1303 
Q 3038 659 2775 47 
Q 2631 128 2363 241 
Q 2650 816 2831 1434 
z
M 4363 1284 
L 4775 1372 
Q 4950 872 5113 291 
L 4694 159 
Q 4569 691 4363 1284 
z
M 3519 1253 
L 3925 1322 
Q 4081 616 4131 216 
L 3688 141 
Q 3650 622 3519 1253 
z
" transform="scale(0.015625)"/>
       <path id="MicrosoftYaHei-853d" d="M 4750 3803 
Q 4650 3475 4547 3172 
L 6225 3172 
L 6225 2766 
L 5719 2766 
Q 5653 1266 5197 463 
Q 5631 -3 6306 -341 
Q 6156 -559 6019 -766 
Q 5391 -369 4947 94 
Q 4553 -394 3875 -841 
Q 3756 -659 3588 -472 
Q 4266 -63 4653 444 
Q 4238 1031 4059 1950 
Q 3947 1703 3825 1478 
Q 3725 1697 3563 1897 
Q 4056 2859 4313 3891 
L 4750 3803 
z
M 1738 3897 
L 2156 3897 
L 2156 2603 
L 3513 2603 
L 3513 -134 
Q 3513 -759 2938 -759 
Q 2681 -759 2413 -753 
Q 2381 -566 2325 -322 
Q 2619 -347 2838 -347 
Q 3100 -347 3100 -53 
L 3100 2241 
L 2156 2241 
L 2156 -759 
L 1738 -759 
L 1738 2241 
L 800 2241 
L 800 -791 
L 388 -791 
L 388 2603 
L 1738 2603 
L 1738 3897 
z
M 150 4784 
L 2050 4784 
L 2050 5328 
L 2506 5328 
L 2506 4784 
L 3863 4784 
L 3863 5328 
L 4319 5328 
L 4319 4784 
L 6269 4784 
L 6269 4372 
L 4319 4372 
L 4319 3941 
L 3863 3941 
L 3863 4372 
L 2506 4372 
L 2506 3997 
L 2050 3997 
L 2050 4372 
L 150 4372 
L 150 4784 
z
M 5294 2766 
L 4400 2766 
Q 4366 2675 4331 2588 
Q 4494 1478 4903 838 
Q 5250 1516 5294 2766 
z
M 1181 1816 
L 1544 1759 
Q 1456 941 1338 316 
L 981 397 
Q 1131 1066 1181 1816 
z
M 2650 1841 
Q 2813 1178 2938 447 
L 2569 359 
Q 2469 1084 2325 1772 
L 2650 1841 
z
M 3456 3541 
Q 3131 3166 2706 2778 
L 2419 3041 
Q 2781 3372 3138 3791 
L 3456 3541 
z
M 475 3534 
L 744 3784 
Q 1206 3384 1463 3116 
L 1163 2803 
Q 838 3191 475 3534 
z
" transform="scale(0.015625)"/>
       <path id="MicrosoftYaHei-65f6" d="M 344 4728 
L 2500 4728 
L 2500 -366 
L 2006 -366 
L 2006 153 
L 838 153 
L 838 -441 
L 344 -441 
L 344 4728 
z
M 2706 3941 
L 4925 3941 
L 4925 5322 
L 5425 5322 
L 5425 3941 
L 6313 3941 
L 6313 3478 
L 5425 3478 
L 5425 116 
Q 5425 -722 4625 -722 
Q 4263 -722 3563 -703 
Q 3531 -478 3463 -178 
Q 4119 -228 4488 -228 
Q 4925 -228 4925 216 
L 4925 3478 
L 2706 3478 
L 2706 3941 
z
M 838 616 
L 2006 616 
L 2006 2234 
L 838 2234 
L 838 616 
z
M 2006 4266 
L 838 4266 
L 838 2684 
L 2006 2684 
L 2006 4266 
z
M 3406 2878 
Q 3906 1966 4163 1422 
Q 4000 1347 3663 1172 
Q 3419 1766 2963 2653 
L 3406 2878 
z
" transform="scale(0.015625)"/>
       <path id="MicrosoftYaHei-957f" d="M 169 2766 
L 1269 2766 
L 1269 5316 
L 1781 5316 
L 1781 2766 
L 6194 2766 
L 6194 2278 
L 3456 2278 
Q 4238 566 6325 -78 
Q 6113 -359 5944 -591 
Q 3697 266 2925 2278 
L 1781 2278 
L 1781 16 
Q 2494 303 3294 678 
Q 3294 384 3319 116 
Q 2575 -191 1894 -528 
Q 1644 -666 1431 -834 
L 1056 -353 
Q 1269 -184 1269 103 
L 1269 2278 
L 169 2278 
L 169 2766 
z
M 2156 3528 
Q 3706 4047 5138 5109 
L 5463 4703 
Q 4000 3634 2400 3066 
Q 2300 3278 2156 3528 
z
" transform="scale(0.015625)"/>
       <path id="MicrosoftYaHei-20" transform="scale(0.015625)"/>
       <path id="MicrosoftYaHei-73" d="M 353 747 
Q 816 413 1350 413 
Q 2066 413 2066 881 
Q 2066 1081 1909 1211 
Q 1753 1341 1275 1519 
Q 700 1750 528 1976 
Q 356 2203 356 2525 
Q 356 2984 745 3261 
Q 1134 3538 1703 3538 
Q 2144 3538 2522 3384 
L 2522 2794 
Q 2134 3044 1644 3044 
Q 1350 3044 1165 2916 
Q 981 2788 981 2578 
Q 981 2372 1114 2256 
Q 1247 2141 1703 1959 
Q 2281 1744 2484 1512 
Q 2688 1281 2688 941 
Q 2688 466 2298 192 
Q 1909 -81 1291 -81 
Q 753 -81 353 122 
L 353 747 
z
" transform="scale(0.015625)"/>
      </defs>
      <use xlink:href="#MicrosoftYaHei-6709"/>
      <use xlink:href="#MicrosoftYaHei-6548" x="100"/>
      <use xlink:href="#MicrosoftYaHei-906e" x="200"/>
      <use xlink:href="#MicrosoftYaHei-853d" x="300"/>
      <use xlink:href="#MicrosoftYaHei-65f6" x="400"/>
      <use xlink:href="#MicrosoftYaHei-957f" x="500"/>
      <use xlink:href="#MicrosoftYaHei-20" x="600"/>
      <use xlink:href="#MicrosoftYaHei-2f" x="629.589844"/>
      <use xlink:href="#MicrosoftYaHei-20" x="672.314453"/>
      <use xlink:href="#MicrosoftYaHei-73" x="701.904297"/>
     </g>
    </g>
   </g>
   <g id="patch_3">
    <path d="M 42.815625 244.5525 
L 42.815625 22.7925 
" style="fill: none; stroke: #000000; stroke-width: 0.8; stroke-linejoin: miter; stroke-linecap: square"/>
   </g>
   <g id="patch_4">
    <path d="M 545.015625 244.5525 
L 545.015625 22.7925 
" style="fill: none; stroke: #000000; stroke-width: 0.8; stroke-linejoin: miter; stroke-linecap: square"/>
   </g>
   <g id="patch_5">
    <path d="M 42.815625 244.5525 
L 545.015625 244.5525 
" style="fill: none; stroke: #000000; stroke-width: 0.8; stroke-linejoin: miter; stroke-linecap: square"/>
   </g>
   <g id="patch_6">
    <path d="M 42.815625 22.7925 
L 545.015625 22.7925 
" style="fill: none; stroke: #000000; stroke-width: 0.8; stroke-linejoin: miter; stroke-linecap: square"/>
   </g>
   <g id="text_14">
    <!-- F9 主模型与基线对照 -->
    <g transform="translate(237.434062 16.7925) scale(0.12 -0.12)">
     <defs>
      <path id="MicrosoftYaHei-46" d="M 3119 4284 
L 1250 4284 
L 1250 2666 
L 2981 2666 
L 2981 2116 
L 1250 2116 
L 1250 0 
L 625 0 
L 625 4841 
L 3119 4841 
L 3119 4284 
z
" transform="scale(0.015625)"/>
      <path id="MicrosoftYaHei-39" d="M 578 656 
Q 978 425 1441 425 
Q 2091 425 2448 937 
Q 2806 1450 2806 2394 
Q 2800 2388 2794 2394 
Q 2475 1788 1722 1788 
Q 1113 1788 713 2206 
Q 313 2625 313 3294 
Q 313 4006 750 4464 
Q 1188 4922 1884 4922 
Q 2606 4922 3012 4355 
Q 3419 3788 3419 2703 
Q 3419 1363 2894 641 
Q 2369 -81 1441 -81 
Q 931 -81 578 84 
L 578 656 
z
M 931 3372 
Q 931 2884 1181 2598 
Q 1431 2313 1872 2313 
Q 2253 2313 2512 2573 
Q 2772 2834 2772 3206 
Q 2772 3728 2514 4070 
Q 2256 4413 1834 4413 
Q 1444 4413 1187 4116 
Q 931 3819 931 3372 
z
" transform="scale(0.015625)"/>
      <path id="MicrosoftYaHei-4e3b" d="M 150 9 
L 2931 9 
L 2931 1809 
L 644 1809 
L 644 2284 
L 2931 2284 
L 2931 3709 
L 400 3709 
L 400 4184 
L 5975 4184 
L 5975 3709 
L 3469 3709 
L 3469 2284 
L 5756 2284 
L 5756 1809 
L 3469 1809 
L 3469 9 
L 6250 9 
L 6250 -453 
L 150 -453 
L 150 9 
z
M 2694 5109 
L 3156 5347 
Q 3538 4778 3706 4466 
L 3213 4203 
Q 2875 4828 2694 5109 
z
" transform="scale(0.015625)"/>
      <path id="MicrosoftYaHei-6a21" d="M 2050 984 
L 3859 984 
Q 3900 1213 3913 1547 
L 2950 1547 
L 2950 1372 
L 2500 1372 
L 2500 3634 
L 5844 3634 
L 5844 1372 
L 5394 1372 
L 5394 1547 
L 4344 1547 
Q 4325 1203 4288 984 
L 6250 984 
L 6250 584 
L 4525 584 
Q 5203 -175 6319 -341 
Q 6144 -572 6013 -809 
Q 4803 -456 4128 466 
Q 3681 -431 2075 -847 
Q 1969 -628 1831 -416 
Q 3303 -106 3713 584 
L 2050 584 
L 2050 984 
z
M 63 1409 
Q 603 2316 922 3509 
L 138 3509 
L 138 3922 
L 1006 3922 
L 1006 5309 
L 1444 5309 
L 1444 3922 
L 2256 3922 
L 2256 3509 
L 1444 3509 
L 1444 2684 
L 1688 2884 
Q 2044 2503 2350 2116 
L 2006 1828 
Q 1719 2244 1444 2563 
L 1444 -822 
L 1006 -822 
L 1006 2581 
Q 672 1438 275 859 
Q 188 1128 63 1409 
z
M 4713 5303 
L 5150 5303 
L 5150 4703 
L 6225 4703 
L 6225 4303 
L 5150 4303 
L 5150 3797 
L 4713 3797 
L 4713 4303 
L 3600 4303 
L 3600 3797 
L 3163 3797 
L 3163 4303 
L 2175 4303 
L 2175 4703 
L 3163 4703 
L 3163 5309 
L 3600 5309 
L 3600 4703 
L 4713 4703 
L 4713 5303 
z
M 5394 3247 
L 2950 3247 
L 2950 2778 
L 5394 2778 
L 5394 3247 
z
M 2950 1934 
L 5394 1934 
L 5394 2403 
L 2950 2403 
L 2950 1934 
z
" transform="scale(0.015625)"/>
      <path id="MicrosoftYaHei-578b" d="M 150 3503 
L 1100 3503 
Q 1106 3638 1106 4547 
L 413 4547 
L 413 4959 
L 3675 4959 
L 3675 4547 
L 2994 4547 
L 2994 3503 
L 3881 3503 
L 3881 3091 
L 2994 3091 
L 2994 1747 
L 2538 1747 
L 2538 3091 
L 1528 3091 
Q 1450 2191 638 1534 
Q 475 1716 294 1897 
Q 1013 2453 1066 3091 
L 150 3091 
L 150 3503 
z
M 138 -103 
L 2938 -103 
L 2938 741 
L 706 741 
L 706 1172 
L 2938 1172 
L 2938 1659 
L 3425 1659 
L 3425 1172 
L 5713 1172 
L 5713 741 
L 3425 741 
L 3425 -103 
L 6256 -103 
L 6256 -534 
L 138 -534 
L 138 -103 
z
M 5856 5209 
L 5856 2334 
Q 5856 1672 5200 1659 
Q 4825 1647 4331 1659 
Q 4306 1897 4256 2153 
Q 4781 2122 5044 2122 
Q 5400 2122 5400 2516 
L 5400 5209 
L 5856 5209 
z
M 1556 3503 
L 2538 3503 
L 2538 4547 
L 1563 4547 
Q 1563 3791 1556 3503 
z
M 4138 4859 
L 4588 4859 
L 4588 2697 
L 4138 2697 
L 4138 4859 
z
" transform="scale(0.015625)"/>
      <path id="MicrosoftYaHei-4e0e" d="M 1163 2384 
L 1163 2859 
L 1413 5328 
L 1931 5328 
L 1834 4334 
L 6269 4334 
L 6269 3859 
L 1791 3859 
L 1694 2859 
L 5813 2859 
Q 5738 1547 5644 416 
Q 5556 -247 5263 -478 
Q 4981 -703 4322 -703 
Q 3706 -697 2900 -678 
Q 2863 -466 2794 -134 
Q 3744 -203 4213 -209 
Q 5050 -266 5125 447 
Q 5206 1278 5263 2384 
L 1163 2384 
z
M 106 1409 
L 4738 1409 
L 4738 934 
L 106 934 
L 106 1409 
z
" transform="scale(0.015625)"/>
      <path id="MicrosoftYaHei-57fa" d="M 6319 697 
Q 6113 441 5981 247 
Q 5406 519 4925 897 
L 4925 553 
L 3431 553 
L 3431 -97 
L 5875 -97 
L 5875 -503 
L 519 -503 
L 519 -97 
L 2963 -97 
L 2963 553 
L 1450 553 
L 1450 894 
Q 953 478 413 172 
Q 294 341 88 566 
Q 1050 1034 1753 1753 
L 156 1753 
L 156 2159 
L 1400 2159 
L 1400 4253 
L 350 4253 
L 350 4659 
L 1400 4659 
L 1400 5334 
L 1869 5334 
L 1869 4659 
L 4550 4659 
L 4550 5334 
L 5019 5334 
L 5019 4659 
L 6069 4659 
L 6069 4253 
L 5019 4253 
L 5019 2159 
L 6244 2159 
L 6244 1753 
L 4600 1753 
Q 5303 1053 6319 697 
z
M 2963 1553 
L 3431 1553 
L 3431 947 
L 4863 947 
Q 4416 1306 4047 1753 
L 2325 1753 
Q 1934 1309 1513 947 
L 2963 947 
L 2963 1553 
z
M 1869 2159 
L 4550 2159 
L 4550 2603 
L 1869 2603 
L 1869 2159 
z
M 1869 2991 
L 4550 2991 
L 4550 3428 
L 1869 3428 
L 1869 2991 
z
M 1869 3816 
L 4550 3816 
L 4550 4253 
L 1869 4253 
L 1869 3816 
z
" transform="scale(0.015625)"/>
      <path id="MicrosoftYaHei-7ebf" d="M 1969 -347 
Q 3144 75 4003 631 
Q 3781 1197 3653 1972 
L 2319 1784 
L 2244 2234 
L 3591 2422 
Q 3538 2859 3513 3356 
L 2381 3228 
L 2306 3678 
L 3488 3809 
Q 3453 4459 3425 5303 
L 3938 5303 
Q 3953 4497 3978 3866 
L 6069 4103 
L 6125 3659 
L 3997 3413 
Q 4019 2919 4069 2488 
L 6225 2791 
L 6281 2347 
L 4128 2041 
Q 4234 1394 4416 916 
Q 5078 1416 5519 2009 
L 5925 1703 
Q 5363 1025 4619 475 
Q 4859 44 5194 -184 
Q 5606 -428 5725 66 
Q 5806 466 5856 953 
Q 6144 828 6338 772 
Q 6231 97 6125 -247 
Q 5944 -778 5506 -778 
Q 5050 -778 4663 -403 
Q 4409 -163 4209 194 
Q 3350 -363 2281 -772 
Q 2169 -597 1969 -347 
z
M 900 1541 
Q 1456 1622 2213 1753 
Q 2175 1522 2156 1272 
Q 1113 1109 325 978 
L 225 1447 
Q 659 1913 1178 2775 
Q 672 2747 225 2703 
L 106 3128 
Q 688 3922 1300 5353 
L 1775 5166 
Q 1131 3897 669 3166 
Q 1041 3178 1422 3194 
Q 1638 3578 1869 4028 
L 2331 3797 
Q 1569 2478 900 1541 
z
M 106 97 
Q 1206 334 2331 616 
Q 2313 366 2313 141 
Q 1269 -103 244 -378 
L 106 97 
z
M 4463 4972 
L 4731 5284 
Q 5175 5003 5681 4609 
L 5381 4247 
Q 4863 4691 4463 4972 
z
" transform="scale(0.015625)"/>
      <path id="MicrosoftYaHei-5bf9" d="M 694 3691 
Q 1234 2909 1741 2166 
Q 2113 3081 2213 4147 
L 250 4147 
L 250 4622 
L 2725 4622 
L 2725 4166 
Q 2553 2809 2059 1700 
Q 2569 953 3044 247 
L 2594 -53 
Q 2203 563 1803 1181 
Q 1247 163 388 -622 
Q 263 -428 81 -166 
Q 975 638 1500 1647 
Q 919 2538 319 3434 
L 694 3691 
z
M 2975 3941 
L 5056 3941 
L 5056 5278 
L 5563 5278 
L 5563 3941 
L 6325 3941 
L 6325 3466 
L 5563 3466 
L 5563 191 
Q 5563 -716 4669 -716 
Q 4388 -716 3744 -709 
Q 3713 -478 3644 -147 
Q 4263 -197 4588 -197 
Q 5056 -197 5056 278 
L 5056 3466 
L 2975 3466 
L 2975 3941 
z
M 3088 2684 
L 3494 2928 
Q 4000 2184 4388 1484 
L 3919 1216 
Q 3550 1922 3088 2684 
z
" transform="scale(0.015625)"/>
      <path id="MicrosoftYaHei-7167" d="M 488 4997 
L 2500 4997 
L 2500 916 
L 2038 916 
L 2038 1153 
L 950 1153 
L 950 872 
L 488 872 
L 488 4997 
z
M 3156 2791 
L 5938 2791 
L 5938 866 
L 5475 866 
L 5475 1059 
L 3619 1059 
L 3619 866 
L 3156 866 
L 3156 2791 
z
M 2944 4609 
L 2944 5022 
L 5969 5022 
Q 5944 4366 5906 3891 
Q 5844 3109 5094 3109 
Q 4844 3109 4356 3128 
Q 4319 3359 4263 3622 
Q 4756 3559 5013 3559 
Q 5413 3559 5444 3922 
Q 5481 4366 5481 4609 
L 4166 4609 
Q 4150 3353 3006 2716 
Q 2863 2903 2681 3084 
Q 3713 3628 3706 4609 
L 2944 4609 
z
M 5475 2391 
L 3619 2391 
L 3619 1459 
L 5475 1459 
L 5475 2391 
z
M 950 1578 
L 2038 1578 
L 2038 2884 
L 950 2884 
L 950 1578 
z
M 2038 4572 
L 950 4572 
L 950 3309 
L 2038 3309 
L 2038 4572 
z
M 844 728 
L 1288 559 
Q 1050 -22 613 -809 
Q 400 -709 169 -609 
Q 631 166 844 728 
z
M 5025 547 
L 5425 784 
Q 5863 184 6213 -422 
L 5775 -678 
Q 5438 -59 5025 547 
z
M 1906 453 
L 2319 641 
Q 2663 22 2900 -522 
L 2450 -722 
Q 2225 -166 1906 453 
z
M 3513 497 
L 3925 678 
Q 4263 109 4525 -447 
L 4081 -659 
Q 3806 -34 3513 497 
z
" transform="scale(0.015625)"/>
     </defs>
     <use xlink:href="#MicrosoftYaHei-46"/>
     <use xlink:href="#MicrosoftYaHei-39" x="53.125"/>
     <use xlink:href="#MicrosoftYaHei-20" x="111.767578"/>
     <use xlink:href="#MicrosoftYaHei-4e3b" x="141.357422"/>
     <use xlink:href="#MicrosoftYaHei-6a21" x="241.357422"/>
     <use xlink:href="#MicrosoftYaHei-578b" x="341.357422"/>
     <use xlink:href="#MicrosoftYaHei-4e0e" x="441.357422"/>
     <use xlink:href="#MicrosoftYaHei-57fa" x="541.357422"/>
     <use xlink:href="#MicrosoftYaHei-7ebf" x="641.357422"/>
     <use xlink:href="#MicrosoftYaHei-5bf9" x="741.357422"/>
     <use xlink:href="#MicrosoftYaHei-7167" x="841.357422"/>
    </g>
   </g>
   <g id="legend_1">
    <g id="patch_7">
     <path d="M 449.815625 66.34375 
L 539.415625 66.34375 
Q 541.015625 66.34375 541.015625 64.74375 
L 541.015625 28.3925 
Q 541.015625 26.7925 539.415625 26.7925 
L 449.815625 26.7925 
Q 448.215625 26.7925 448.215625 28.3925 
L 448.215625 64.74375 
Q 448.215625 66.34375 449.815625 66.34375 
z
" style="fill: #ffffff; opacity: 0.8; stroke: #cccccc; stroke-linejoin: miter"/>
    </g>
    <g id="PathCollection_4">
     <g>
      <use xlink:href="#m082013540c" x="459.415625" y="34.2875" style="fill: #0f766e; stroke: #0f766e"/>
     </g>
    </g>
    <g id="text_15">
     <!-- 全代表点连续判定 -->
     <g transform="translate(473.815625 36.3875) scale(0.08 -0.08)">
      <defs>
       <path id="MicrosoftYaHei-5168" d="M 369 -103 
L 2950 -103 
L 2950 984 
L 925 984 
L 925 1441 
L 2950 1441 
L 2950 2403 
L 1156 2403 
L 1156 2859 
L 5269 2859 
L 5269 2403 
L 3469 2403 
L 3469 1441 
L 5500 1441 
L 5500 984 
L 3469 984 
L 3469 -103 
L 6044 -103 
L 6044 -566 
L 369 -566 
L 369 -103 
z
M 3656 5234 
L 3531 5078 
Q 4581 3703 6319 3009 
Q 6125 2734 5988 2509 
Q 4338 3322 3219 4691 
Q 2263 3453 394 2428 
Q 269 2641 81 2897 
Q 2013 3866 3000 5234 
L 3656 5234 
z
" transform="scale(0.015625)"/>
       <path id="MicrosoftYaHei-4ee3" d="M 1850 3141 
L 3328 3303 
Q 3253 4097 3225 5284 
L 3769 5284 
Q 3756 4350 3847 3359 
L 6138 3609 
L 6194 3147 
L 3897 2894 
Q 4250 306 5256 -209 
Q 5531 -322 5613 -28 
Q 5731 416 5813 978 
Q 6075 866 6313 797 
Q 6219 191 6088 -278 
Q 5919 -822 5419 -809 
Q 4881 -791 4394 -166 
Q 3669 678 3384 2838 
L 1925 2678 
L 1850 3141 
z
M 38 2322 
Q 1013 3634 1581 5322 
L 2081 5147 
Q 1803 4419 1500 3794 
L 1500 -841 
L 988 -841 
L 988 2834 
Q 631 2238 250 1759 
Q 163 2016 38 2322 
z
M 4344 4791 
L 4669 5122 
Q 5219 4703 5794 4191 
L 5413 3803 
Q 4888 4341 4344 4791 
z
" transform="scale(0.015625)"/>
       <path id="MicrosoftYaHei-8868" d="M 5519 1891 
L 5863 1459 
L 4466 759 
Q 5200 159 6306 -34 
Q 6094 -309 5956 -534 
Q 3941 -53 3066 1944 
Q 2747 1538 2338 1172 
L 2338 -166 
Q 3163 103 3869 397 
Q 3863 122 3875 -147 
Q 3125 -403 2325 -709 
Q 2156 -778 1994 -872 
L 1700 -416 
Q 1875 -291 1875 -66 
L 1875 794 
Q 1228 309 406 -84 
Q 269 134 88 347 
Q 1703 1009 2625 2122 
L 156 2122 
L 156 2553 
L 2956 2553 
L 2956 3191 
L 600 3191 
L 600 3622 
L 2956 3622 
L 2956 4234 
L 350 4234 
L 350 4666 
L 2956 4666 
L 2956 5366 
L 3450 5366 
L 3450 4666 
L 6069 4666 
L 6069 4234 
L 3450 4234 
L 3450 3622 
L 5800 3622 
L 5800 3191 
L 3450 3191 
L 3450 2553 
L 6244 2553 
L 6244 2122 
L 3466 2122 
Q 3728 1513 4141 1066 
Q 4769 1378 5519 1891 
z
" transform="scale(0.015625)"/>
       <path id="MicrosoftYaHei-70b9" d="M 900 3378 
L 2863 3378 
L 2863 5341 
L 3388 5341 
L 3388 4591 
L 6181 4591 
L 6181 4141 
L 3388 4141 
L 3388 3378 
L 5600 3378 
L 5600 991 
L 5088 991 
L 5088 1253 
L 1413 1253 
L 1413 991 
L 900 991 
L 900 3378 
z
M 5088 2928 
L 1413 2928 
L 1413 1703 
L 5088 1703 
L 5088 2928 
z
M 5425 847 
Q 5925 91 6225 -516 
L 5750 -772 
Q 5438 -134 4994 622 
L 5425 847 
z
M 1369 553 
Q 894 -303 531 -791 
L 100 -484 
Q 506 53 931 803 
L 1369 553 
z
M 2413 828 
Q 2700 197 2913 -503 
L 2406 -678 
Q 2213 3 1963 666 
L 2413 828 
z
M 3906 872 
Q 4206 253 4450 -422 
L 3956 -616 
Q 3781 -53 3450 697 
L 3906 872 
z
" transform="scale(0.015625)"/>
       <path id="MicrosoftYaHei-8fde" d="M 1850 1391 
L 3950 1391 
L 3950 2259 
L 2131 2259 
L 2131 2703 
Q 2513 3369 2825 4116 
L 1925 4116 
L 1925 4553 
L 3000 4553 
Q 3150 4947 3281 5359 
L 3806 5247 
Q 3672 4894 3531 4553 
L 6088 4553 
L 6088 4116 
L 3350 4116 
Q 3031 3372 2694 2697 
L 3950 2697 
L 3950 3778 
L 4450 3778 
L 4450 2697 
L 6050 2697 
L 6050 2259 
L 4450 2259 
L 4450 1391 
L 6225 1391 
L 6225 953 
L 4450 953 
L 4450 -78 
L 3950 -78 
L 3950 953 
L 1850 953 
L 1850 1391 
z
M 2650 -216 
L 3931 -247 
L 6319 -191 
Q 6213 -441 6113 -672 
L 3944 -697 
L 2594 -666 
Q 1588 -653 1088 47 
Q 906 -97 356 -753 
L 88 -222 
Q 478 131 863 459 
L 863 2641 
L 150 2641 
L 150 3097 
L 1350 3097 
L 1350 369 
Q 1806 -188 2650 -216 
z
M 856 5203 
Q 1288 4659 1688 4084 
L 1244 3772 
Q 875 4359 456 4934 
L 856 5203 
z
" transform="scale(0.015625)"/>
       <path id="MicrosoftYaHei-7eed" d="M 2263 3584 
L 3975 3584 
L 3975 4216 
L 2506 4216 
L 2506 4641 
L 3975 4641 
L 3975 5303 
L 4450 5303 
L 4450 4641 
L 5938 4641 
L 5938 4216 
L 4450 4216 
L 4450 3584 
L 6231 3584 
L 6231 3159 
Q 5944 2609 5644 2191 
Q 5400 2303 5194 2359 
Q 5494 2759 5719 3159 
L 2263 3159 
L 2263 3584 
z
M 2238 1141 
L 4119 1141 
Q 4263 1716 4250 2941 
L 4706 2941 
Q 4706 1753 4588 1141 
L 6238 1141 
L 6238 716 
L 4588 716 
Q 5444 147 6294 -478 
L 5944 -866 
Q 5206 -222 4306 391 
Q 3744 -491 2281 -903 
Q 2175 -691 2019 -466 
Q 3556 -47 3956 716 
L 2238 716 
L 2238 1141 
z
M 838 1672 
Q 1519 1734 2113 1822 
Q 2088 1553 2069 1397 
Q 1338 1309 294 1159 
L 194 1616 
Q 581 1947 1144 2903 
Q 569 2866 213 2834 
L 88 3247 
Q 563 3897 1131 5278 
L 1606 5103 
Q 1044 4003 606 3284 
Q 938 3284 1363 3297 
Q 1581 3697 1825 4184 
L 2263 3978 
Q 1469 2572 838 1672 
z
M 131 172 
Q 1113 334 2150 547 
Q 2125 209 2125 84 
Q 1213 -97 269 -303 
L 131 172 
z
M 2338 1953 
L 2588 2247 
Q 3200 1866 3531 1578 
L 3244 1234 
Q 2963 1503 2338 1953 
z
M 2775 2647 
L 3031 2947 
Q 3531 2666 3963 2316 
L 3681 1978 
Q 3281 2303 2775 2647 
z
" transform="scale(0.015625)"/>
       <path id="MicrosoftYaHei-5224" d="M 200 1803 
L 1622 1803 
Q 1700 2222 1709 2697 
L 331 2697 
L 331 3134 
L 1725 3134 
Q 1756 3959 1756 5259 
L 2244 5259 
Q 2238 4016 2219 3134 
L 3594 3134 
L 3594 2697 
L 2209 2697 
Q 2203 2225 2138 1803 
L 3700 1803 
L 3700 1366 
L 2050 1366 
Q 1716 -28 694 -872 
Q 513 -653 313 -472 
Q 1194 234 1519 1366 
L 200 1366 
L 200 1803 
z
M 5475 5284 
L 5963 5284 
L 5963 53 
Q 5963 -753 5169 -753 
Q 4856 -753 4275 -741 
Q 4244 -466 4188 -209 
Q 4669 -259 5019 -259 
Q 5475 -259 5475 228 
L 5475 5284 
z
M 4144 4584 
L 4625 4584 
L 4625 759 
L 4144 759 
L 4144 4584 
z
M 2525 3728 
Q 3000 4309 3313 4866 
L 3756 4591 
Q 3306 3928 2906 3434 
L 2525 3728 
z
M 269 4603 
L 656 4853 
Q 1075 4316 1444 3759 
L 1013 3466 
Q 606 4153 269 4603 
z
" transform="scale(0.015625)"/>
       <path id="MicrosoftYaHei-5b9a" d="M 81 -384 
Q 1119 509 1281 2241 
L 1806 2159 
Q 1731 1581 1578 1081 
Q 2063 50 3081 -103 
L 3081 2647 
L 225 2647 
L 225 3116 
L 6163 3116 
L 6163 2647 
L 3600 2647 
L 3600 1634 
L 5775 1634 
L 5775 1172 
L 3600 1172 
L 3600 -138 
Q 4844 -169 6306 -116 
Q 6200 -359 6125 -634 
Q 4594 -653 3450 -616 
Q 2041 -616 1378 528 
Q 1022 -300 413 -872 
Q 269 -628 81 -384 
z
M 450 4566 
L 3116 4566 
Q 2931 4834 2725 5091 
L 3200 5347 
Q 3444 5066 3731 4716 
L 3450 4566 
L 5981 4566 
L 5981 3378 
L 5488 3378 
L 5488 4097 
L 944 4097 
L 944 3384 
L 450 3384 
L 450 4566 
z
" transform="scale(0.015625)"/>
      </defs>
      <use xlink:href="#MicrosoftYaHei-5168"/>
      <use xlink:href="#MicrosoftYaHei-4ee3" x="100"/>
      <use xlink:href="#MicrosoftYaHei-8868" x="200"/>
      <use xlink:href="#MicrosoftYaHei-70b9" x="300"/>
      <use xlink:href="#MicrosoftYaHei-8fde" x="400"/>
      <use xlink:href="#MicrosoftYaHei-7eed" x="500"/>
      <use xlink:href="#MicrosoftYaHei-5224" x="600"/>
      <use xlink:href="#MicrosoftYaHei-5b9a" x="700"/>
     </g>
    </g>
    <g id="PathCollection_5">
     <g>
      <use xlink:href="#mebd090b8aa" x="459.415625" y="46.67125" style="fill: #2563eb; stroke: #2563eb"/>
     </g>
    </g>
    <g id="text_16">
     <!-- 中心点基线 -->
     <g transform="translate(473.815625 48.77125) scale(0.08 -0.08)">
      <defs>
       <path id="MicrosoftYaHei-4e2d" d="M 525 3972 
L 2931 3972 
L 2931 5334 
L 3469 5334 
L 3469 3972 
L 5900 3972 
L 5900 1122 
L 5388 1122 
L 5388 1459 
L 3469 1459 
L 3469 -866 
L 2931 -866 
L 2931 1459 
L 1038 1459 
L 1038 1122 
L 525 1122 
L 525 3972 
z
M 5388 3509 
L 3469 3509 
L 3469 1922 
L 5388 1922 
L 5388 3509 
z
M 1038 1922 
L 2931 1922 
L 2931 3509 
L 1038 3509 
L 1038 1922 
z
" transform="scale(0.015625)"/>
       <path id="MicrosoftYaHei-5fc3" d="M 1706 4116 
L 2225 4116 
L 2225 453 
Q 2225 -116 2731 -116 
L 4075 -116 
Q 4613 -116 4681 334 
Q 4750 728 4800 1278 
Q 5063 1172 5338 1078 
Q 5244 422 5163 97 
Q 4994 -603 4175 -603 
L 2606 -603 
Q 1706 -603 1706 334 
L 1706 4116 
z
M 5231 3641 
Q 5763 2634 6338 1353 
L 5819 1097 
Q 5338 2309 4763 3422 
L 5231 3641 
z
M 788 3447 
L 1288 3309 
Q 1000 1978 600 722 
L 100 916 
Q 513 2091 788 3447 
z
M 3081 5372 
Q 3675 4384 4088 3591 
Q 3794 3441 3588 3322 
Q 3150 4291 2644 5147 
L 3081 5372 
z
" transform="scale(0.015625)"/>
      </defs>
      <use xlink:href="#MicrosoftYaHei-4e2d"/>
      <use xlink:href="#MicrosoftYaHei-5fc3" x="100"/>
      <use xlink:href="#MicrosoftYaHei-70b9" x="200"/>
      <use xlink:href="#MicrosoftYaHei-57fa" x="300"/>
      <use xlink:href="#MicrosoftYaHei-7ebf" x="400"/>
     </g>
    </g>
    <g id="PathCollection_6">
     <g>
      <use xlink:href="#m3e99e80040" x="459.415625" y="59.055" style="fill: #f59e0b; stroke: #f59e0b"/>
     </g>
    </g>
    <g id="text_17">
     <!-- 固定格点基线 -->
     <g transform="translate(473.815625 61.155) scale(0.08 -0.08)">
      <defs>
       <path id="MicrosoftYaHei-56fa" d="M 469 4997 
L 5938 4997 
L 5938 -834 
L 5469 -834 
L 5469 -509 
L 944 -509 
L 944 -841 
L 469 -841 
L 469 4997 
z
M 5469 4541 
L 944 4541 
L 944 -53 
L 5469 -53 
L 5469 4541 
z
M 1869 2459 
L 2963 2459 
L 2963 3216 
L 1313 3216 
L 1313 3641 
L 2963 3641 
L 2963 4366 
L 3425 4366 
L 3425 3641 
L 5081 3641 
L 5081 3216 
L 3425 3216 
L 3425 2459 
L 4531 2459 
L 4531 434 
L 4081 434 
L 4081 691 
L 2319 691 
L 2319 434 
L 1869 434 
L 1869 2459 
z
M 4081 2047 
L 2319 2047 
L 2319 1103 
L 4081 1103 
L 4081 2047 
z
" transform="scale(0.015625)"/>
       <path id="MicrosoftYaHei-683c" d="M 2250 3278 
Q 3063 4309 3438 5341 
L 3906 5184 
Q 3788 4903 3644 4628 
L 5906 4628 
L 5906 4184 
Q 5481 3447 4731 2809 
Q 5450 2409 6313 2247 
Q 6169 1947 6106 1703 
Q 5163 1991 4313 2503 
Q 3481 1972 2306 1528 
Q 2206 1759 2094 1966 
Q 3088 2284 3919 2816 
Q 3450 3253 3163 3791 
Q 2888 3366 2563 2947 
Q 2444 3084 2250 3278 
z
M 2713 1559 
L 5800 1559 
L 5800 -872 
L 5319 -872 
L 5319 -559 
L 3194 -559 
L 3194 -872 
L 2713 -872 
L 2713 1559 
z
M 88 1378 
Q 756 2422 1025 3641 
L 131 3641 
L 131 4078 
L 1031 4078 
L 1031 5297 
L 1500 5297 
L 1500 4078 
L 2300 4078 
L 2300 3641 
L 1500 3641 
L 1500 2953 
L 1675 3122 
Q 2013 2797 2419 2384 
L 2094 2078 
Q 1763 2466 1500 2747 
L 1500 -866 
L 1031 -866 
L 1031 2453 
Q 713 1422 288 828 
Q 206 1097 88 1378 
z
M 5319 1109 
L 3194 1109 
L 3194 -109 
L 5319 -109 
L 5319 1109 
z
M 5338 4203 
L 3413 4203 
Q 3775 3491 4300 3078 
Q 4938 3566 5338 4203 
z
" transform="scale(0.015625)"/>
      </defs>
      <use xlink:href="#MicrosoftYaHei-56fa"/>
      <use xlink:href="#MicrosoftYaHei-5b9a" x="100"/>
      <use xlink:href="#MicrosoftYaHei-683c" x="200"/>
      <use xlink:href="#MicrosoftYaHei-70b9" x="300"/>
      <use xlink:href="#MicrosoftYaHei-57fa" x="400"/>
      <use xlink:href="#MicrosoftYaHei-7ebf" x="500"/>
     </g>
    </g>
   </g>
  </g>
 </g>
 <defs>
  <clipPath id="p9d61f45387">
   <rect x="42.815625" y="22.7925" width="502.2" height="221.76"/>
  </clipPath>
 </defs>
</svg>
