<?xml version="1.0" encoding="utf-8" standalone="no"?>
<!DOCTYPE svg PUBLIC "-//W3C//DTD SVG 1.1//EN"
  "http://www.w3.org/Graphics/SVG/1.1/DTD/svg11.dtd">
<svg xmlns:xlink="http://www.w3.org/1999/xlink" width="518.925878pt" height="261.300519pt" viewBox="0 0 518.925878 261.300519" xmlns="http://www.w3.org/2000/svg" version="1.1">
 <metadata>
  <rdf:RDF xmlns:dc="http://purl.org/dc/elements/1.1/" xmlns:cc="http://creativecommons.org/ns#" xmlns:rdf="http://www.w3.org/1999/02/22-rdf-syntax-ns#">
   <cc:Work>
    <dc:type rdf:resource="http://purl.org/dc/dcmitype/StillImage"/>
    <dc:date>2026-07-23T17:57:34.131511</dc:date>
    <dc:format>image/svg+xml</dc:format>
    <dc:creator>
     <cc:Agent>
      <dc:title>Matplotlib v3.9.2, https://matplotlib.org/</dc:title>
     </cc:Agent>
    </dc:creator>
   </cc:Work>
  </rdf:RDF>
 </metadata>
 <defs>
  <style type="text/css">*{stroke-linejoin: round; stroke-linecap: butt}</style>
 </defs>
 <g id="figure_1">
  <g id="patch_1">
   <path d="M 0 261.300519 
L 518.925878 261.300519 
L 518.925878 0 
L 0 0 
z
" style="fill: #fbfaf7"/>
  </g>
  <g id="axes_1">
   <g id="patch_2">
    <path d="M 46.545703 239.084816 
L 278.648152 239.084816 
L 278.648152 25.818316 
L 46.545703 25.818316 
z
" style="fill: #fbfaf7"/>
   </g>
   <g id="matplotlib.axis_1">
    <g id="xtick_1">
     <g id="line2d_1">
      <defs>
       <path id="m0e2d228b89" d="M 0 0 
L 0 3 
" style="stroke: #25313b; stroke-width: 0.7"/>
      </defs>
      <g>
       <use xlink:href="#m0e2d228b89" x="73.189205" y="239.084816" style="fill: #25313b; stroke: #25313b; stroke-width: 0.7"/>
      </g>
     </g>
     <g id="text_1">
      <text style="fill: #25313b; font: 9.5px 'Microsoft YaHei', 'SimHei', 'DejaVu Sans'; text-anchor: middle" x="73.189205" y="253.178879" transform="rotate(-0 73.189205 253.178879)">候选配置</text>
     </g>
    </g>
    <g id="xtick_2">
     <g id="line2d_2">
      <g>
       <use xlink:href="#m0e2d228b89" x="162.596928" y="239.084816" style="fill: #25313b; stroke: #25313b; stroke-width: 0.7"/>
      </g>
     </g>
     <g id="text_2">
      <text style="fill: #25313b; font: 9.5px 'Microsoft YaHei', 'SimHei', 'DejaVu Sans'; text-anchor: middle" x="162.596928" y="253.178879" transform="rotate(-0 162.596928 253.178879)">增加预算</text>
     </g>
    </g>
    <g id="xtick_3">
     <g id="line2d_3">
      <g>
       <use xlink:href="#m0e2d228b89" x="252.004651" y="239.084816" style="fill: #25313b; stroke: #25313b; stroke-width: 0.7"/>
      </g>
     </g>
     <g id="text_3">
      <text style="fill: #25313b; font: 9.5px 'Microsoft YaHei', 'SimHei', 'DejaVu Sans'; text-anchor: middle" x="252.004651" y="253.178879" transform="rotate(-0 252.004651 253.178879)">加密配置</text>
     </g>
    </g>
   </g>
   <g id="matplotlib.axis_2">
    <g id="ytick_1">
     <g id="line2d_4">
      <path d="M 46.545703 188.21842 
L 278.648152 188.21842 
" clip-path="url(#pa9c1b8439e)" style="fill: none; stroke: #d9e0e5; stroke-opacity: 0.8; stroke-width: 0.7; stroke-linecap: square"/>
     </g>
     <g id="line2d_5">
      <defs>
       <path id="ma95ca53cc0" d="M 0 0 
L -3 0 
" style="stroke: #25313b; stroke-width: 0.7"/>
      </defs>
      <g>
       <use xlink:href="#ma95ca53cc0" x="46.545703" y="188.21842" style="fill: #25313b; stroke: #25313b; stroke-width: 0.7"/>
      </g>
     </g>
     <g id="text_4">
      <!-- $\mathdefault{10^{-3}}$ -->
      <g style="fill: #25313b" transform="translate(19.715703 192.015452)">
       <text>
        <tspan style="font: 9.5px 'Microsoft YaHei'" x="0 5.571045" y="-0.8343750000000014">10</tspan>
        <tspan style="font: 6.65px 'Microsoft YaHei'" x="11.236699 16.168999" y="-4.618750000000001">−3</tspan>
       </text>
      </g>
     </g>
    </g>
    <g id="ytick_2">
     <g id="line2d_6">
      <path d="M 46.545703 122.0949 
L 278.648152 122.0949 
" clip-path="url(#pa9c1b8439e)" style="fill: none; stroke: #d9e0e5; stroke-opacity: 0.8; stroke-width: 0.7; stroke-linecap: square"/>
     </g>
     <g id="line2d_7">
      <g>
       <use xlink:href="#ma95ca53cc0" x="46.545703" y="122.0949" style="fill: #25313b; stroke: #25313b; stroke-width: 0.7"/>
      </g>
     </g>
     <g id="text_5">
      <!-- $\mathdefault{10^{-2}}$ -->
      <g style="fill: #25313b" transform="translate(19.715703 125.891931)">
       <text>
        <tspan style="font: 9.5px 'Microsoft YaHei'" x="0 5.571045" y="-0.8343750000000014">10</tspan>
        <tspan style="font: 6.65px 'Microsoft YaHei'" x="11.236699 16.168999" y="-4.618750000000001">−2</tspan>
       </text>
      </g>
     </g>
    </g>
    <g id="ytick_3">
     <g id="line2d_8">
      <path d="M 46.545703 55.97138 
L 278.648152 55.97138 
" clip-path="url(#pa9c1b8439e)" style="fill: none; stroke: #d9e0e5; stroke-opacity: 0.8; stroke-width: 0.7; stroke-linecap: square"/>
     </g>
     <g id="line2d_9">
      <g>
       <use xlink:href="#ma95ca53cc0" x="46.545703" y="55.97138" style="fill: #25313b; stroke: #25313b; stroke-width: 0.7"/>
      </g>
     </g>
     <g id="text_6">
      <!-- $\mathdefault{10^{-1}}$ -->
      <g style="fill: #25313b" transform="translate(19.715703 59.768411)">
       <text>
        <tspan style="font: 9.5px 'Microsoft YaHei'" x="0 5.571045" y="-0.8015624999999993">10</tspan>
        <tspan style="font: 6.65px 'Microsoft YaHei'" x="11.236699 16.168999" y="-4.585937499999999">−1</tspan>
       </text>
      </g>
     </g>
    </g>
    <g id="ytick_4">
     <g id="line2d_10">
      <defs>
       <path id="mc5f9d2cba4" d="M 0 0 
L -2 0 
" style="stroke: #25313b; stroke-width: 0.6"/>
      </defs>
      <g>
       <use xlink:href="#mc5f9d2cba4" x="46.545703" y="234.436777" style="fill: #25313b; stroke: #25313b; stroke-width: 0.6"/>
      </g>
     </g>
    </g>
    <g id="ytick_5">
     <g id="line2d_11">
      <g>
       <use xlink:href="#mc5f9d2cba4" x="46.545703" y="222.793004" style="fill: #25313b; stroke: #25313b; stroke-width: 0.6"/>
      </g>
     </g>
    </g>
    <g id="ytick_6">
     <g id="line2d_12">
      <g>
       <use xlink:href="#mc5f9d2cba4" x="46.545703" y="214.531614" style="fill: #25313b; stroke: #25313b; stroke-width: 0.6"/>
      </g>
     </g>
    </g>
    <g id="ytick_7">
     <g id="line2d_13">
      <g>
       <use xlink:href="#mc5f9d2cba4" x="46.545703" y="208.123583" style="fill: #25313b; stroke: #25313b; stroke-width: 0.6"/>
      </g>
     </g>
    </g>
    <g id="ytick_8">
     <g id="line2d_14">
      <g>
       <use xlink:href="#mc5f9d2cba4" x="46.545703" y="202.887841" style="fill: #25313b; stroke: #25313b; stroke-width: 0.6"/>
      </g>
     </g>
    </g>
    <g id="ytick_9">
     <g id="line2d_15">
      <g>
       <use xlink:href="#mc5f9d2cba4" x="46.545703" y="198.461083" style="fill: #25313b; stroke: #25313b; stroke-width: 0.6"/>
      </g>
     </g>
    </g>
    <g id="ytick_10">
     <g id="line2d_16">
      <g>
       <use xlink:href="#mc5f9d2cba4" x="46.545703" y="194.626452" style="fill: #25313b; stroke: #25313b; stroke-width: 0.6"/>
      </g>
     </g>
    </g>
    <g id="ytick_11">
     <g id="line2d_17">
      <g>
       <use xlink:href="#mc5f9d2cba4" x="46.545703" y="191.244067" style="fill: #25313b; stroke: #25313b; stroke-width: 0.6"/>
      </g>
     </g>
    </g>
    <g id="ytick_12">
     <g id="line2d_18">
      <g>
       <use xlink:href="#mc5f9d2cba4" x="46.545703" y="168.313257" style="fill: #25313b; stroke: #25313b; stroke-width: 0.6"/>
      </g>
     </g>
    </g>
    <g id="ytick_13">
     <g id="line2d_19">
      <g>
       <use xlink:href="#mc5f9d2cba4" x="46.545703" y="156.669483" style="fill: #25313b; stroke: #25313b; stroke-width: 0.6"/>
      </g>
     </g>
    </g>
    <g id="ytick_14">
     <g id="line2d_20">
      <g>
       <use xlink:href="#mc5f9d2cba4" x="46.545703" y="148.408094" style="fill: #25313b; stroke: #25313b; stroke-width: 0.6"/>
      </g>
     </g>
    </g>
    <g id="ytick_15">
     <g id="line2d_21">
      <g>
       <use xlink:href="#mc5f9d2cba4" x="46.545703" y="142.000063" style="fill: #25313b; stroke: #25313b; stroke-width: 0.6"/>
      </g>
     </g>
    </g>
    <g id="ytick_16">
     <g id="line2d_22">
      <g>
       <use xlink:href="#mc5f9d2cba4" x="46.545703" y="136.76432" style="fill: #25313b; stroke: #25313b; stroke-width: 0.6"/>
      </g>
     </g>
    </g>
    <g id="ytick_17">
     <g id="line2d_23">
      <g>
       <use xlink:href="#mc5f9d2cba4" x="46.545703" y="132.337563" style="fill: #25313b; stroke: #25313b; stroke-width: 0.6"/>
      </g>
     </g>
    </g>
    <g id="ytick_18">
     <g id="line2d_24">
      <g>
       <use xlink:href="#mc5f9d2cba4" x="46.545703" y="128.502931" style="fill: #25313b; stroke: #25313b; stroke-width: 0.6"/>
      </g>
     </g>
    </g>
    <g id="ytick_19">
     <g id="line2d_25">
      <g>
       <use xlink:href="#mc5f9d2cba4" x="46.545703" y="125.120547" style="fill: #25313b; stroke: #25313b; stroke-width: 0.6"/>
      </g>
     </g>
    </g>
    <g id="ytick_20">
     <g id="line2d_26">
      <g>
       <use xlink:href="#mc5f9d2cba4" x="46.545703" y="102.189737" style="fill: #25313b; stroke: #25313b; stroke-width: 0.6"/>
      </g>
     </g>
    </g>
    <g id="ytick_21">
     <g id="line2d_27">
      <g>
       <use xlink:href="#mc5f9d2cba4" x="46.545703" y="90.545963" style="fill: #25313b; stroke: #25313b; stroke-width: 0.6"/>
      </g>
     </g>
    </g>
    <g id="ytick_22">
     <g id="line2d_28">
      <g>
       <use xlink:href="#mc5f9d2cba4" x="46.545703" y="82.284574" style="fill: #25313b; stroke: #25313b; stroke-width: 0.6"/>
      </g>
     </g>
    </g>
    <g id="ytick_23">
     <g id="line2d_29">
      <g>
       <use xlink:href="#mc5f9d2cba4" x="46.545703" y="75.876543" style="fill: #25313b; stroke: #25313b; stroke-width: 0.6"/>
      </g>
     </g>
    </g>
    <g id="ytick_24">
     <g id="line2d_30">
      <g>
       <use xlink:href="#mc5f9d2cba4" x="46.545703" y="70.6408" style="fill: #25313b; stroke: #25313b; stroke-width: 0.6"/>
      </g>
     </g>
    </g>
    <g id="ytick_25">
     <g id="line2d_31">
      <g>
       <use xlink:href="#mc5f9d2cba4" x="46.545703" y="66.214043" style="fill: #25313b; stroke: #25313b; stroke-width: 0.6"/>
      </g>
     </g>
    </g>
    <g id="ytick_26">
     <g id="line2d_32">
      <g>
       <use xlink:href="#mc5f9d2cba4" x="46.545703" y="62.379411" style="fill: #25313b; stroke: #25313b; stroke-width: 0.6"/>
      </g>
     </g>
    </g>
    <g id="ytick_27">
     <g id="line2d_33">
      <g>
       <use xlink:href="#mc5f9d2cba4" x="46.545703" y="58.997026" style="fill: #25313b; stroke: #25313b; stroke-width: 0.6"/>
      </g>
     </g>
    </g>
    <g id="ytick_28">
     <g id="line2d_34">
      <g>
       <use xlink:href="#mc5f9d2cba4" x="46.545703" y="36.066217" style="fill: #25313b; stroke: #25313b; stroke-width: 0.6"/>
      </g>
     </g>
    </g>
    <g id="text_7">
     <text style="fill: #25313b; font: 9.5px 'Microsoft YaHei', 'SimHei', 'DejaVu Sans'; text-anchor: middle" x="13.354063" y="132.451566" transform="rotate(-90 13.354063 132.451566)">与最终严格复算的绝对差 / ms（对数轴）</text>
    </g>
   </g>
   <g id="line2d_35">
    <path d="M 57.095814 35.945313 
L 146.503538 35.945313 
L 235.911261 35.512248 
" clip-path="url(#pa9c1b8439e)" style="fill: none; stroke: #173b63; stroke-width: 1.6; stroke-linecap: square"/>
    <defs>
     <path id="m037c074f0f" d="M 0 2.65 
C 0.702788 2.65 1.376887 2.370779 1.873833 1.873833 
C 2.370779 1.376887 2.65 0.702788 2.65 0 
C 2.65 -0.702788 2.370779 -1.376887 1.873833 -1.873833 
C 1.376887 -2.370779 0.702788 -2.65 0 -2.65 
C -0.702788 -2.65 -1.376887 -2.370779 -1.873833 -1.873833 
C -2.370779 -1.376887 -2.65 -0.702788 -2.65 0 
C -2.65 0.702788 -2.370779 1.376887 -1.873833 1.873833 
C -1.376887 2.370779 -0.702788 2.65 0 2.65 
z
" style="stroke: #173b63"/>
    </defs>
    <g clip-path="url(#pa9c1b8439e)">
     <use xlink:href="#m037c074f0f" x="57.095814" y="35.945313" style="fill: #173b63; stroke: #173b63"/>
     <use xlink:href="#m037c074f0f" x="146.503538" y="35.945313" style="fill: #173b63; stroke: #173b63"/>
     <use xlink:href="#m037c074f0f" x="235.911261" y="35.512248" style="fill: #173b63; stroke: #173b63"/>
    </g>
   </g>
   <g id="line2d_36">
    <path d="M 73.189205 166.293011 
L 162.596928 166.293011 
L 252.004651 229.390884 
" clip-path="url(#pa9c1b8439e)" style="fill: none; stroke: #b89243; stroke-width: 1.6; stroke-linecap: square"/>
    <defs>
     <path id="m6ef0bd1023" d="M 0 2.65 
C 0.702788 2.65 1.376887 2.370779 1.873833 1.873833 
C 2.370779 1.376887 2.65 0.702788 2.65 0 
C 2.65 -0.702788 2.370779 -1.376887 1.873833 -1.873833 
C 1.376887 -2.370779 0.702788 -2.65 0 -2.65 
C -0.702788 -2.65 -1.376887 -2.370779 -1.873833 -1.873833 
C -2.370779 -1.376887 -2.65 -0.702788 -2.65 0 
C -2.65 0.702788 -2.370779 1.376887 -1.873833 1.873833 
C -1.376887 2.370779 -0.702788 2.65 0 2.65 
z
" style="stroke: #b89243"/>
    </defs>
    <g clip-path="url(#pa9c1b8439e)">
     <use xlink:href="#m6ef0bd1023" x="73.189205" y="166.293011" style="fill: #b89243; stroke: #b89243"/>
     <use xlink:href="#m6ef0bd1023" x="162.596928" y="166.293011" style="fill: #b89243; stroke: #b89243"/>
     <use xlink:href="#m6ef0bd1023" x="252.004651" y="229.390884" style="fill: #b89243; stroke: #b89243"/>
    </g>
   </g>
   <g id="line2d_37">
    <path d="M 89.282595 163.847528 
L 178.690318 163.847528 
L 268.098041 212.511373 
" clip-path="url(#pa9c1b8439e)" style="fill: none; stroke: #b84a3c; stroke-width: 1.6; stroke-linecap: square"/>
    <defs>
     <path id="m18c59dccde" d="M 0 2.65 
C 0.702788 2.65 1.376887 2.370779 1.873833 1.873833 
C 2.370779 1.376887 2.65 0.702788 2.65 0 
C 2.65 -0.702788 2.370779 -1.376887 1.873833 -1.873833 
C 1.376887 -2.370779 0.702788 -2.65 0 -2.65 
C -0.702788 -2.65 -1.376887 -2.370779 -1.873833 -1.873833 
C -2.370779 -1.376887 -2.65 -0.702788 -2.65 0 
C -2.65 0.702788 -2.370779 1.376887 -1.873833 1.873833 
C -1.376887 2.370779 -0.702788 2.65 0 2.65 
z
" style="stroke: #b84a3c"/>
    </defs>
    <g clip-path="url(#pa9c1b8439e)">
     <use xlink:href="#m18c59dccde" x="89.282595" y="163.847528" style="fill: #b84a3c; stroke: #b84a3c"/>
     <use xlink:href="#m18c59dccde" x="178.690318" y="163.847528" style="fill: #b84a3c; stroke: #b84a3c"/>
     <use xlink:href="#m18c59dccde" x="268.098041" y="212.511373" style="fill: #b84a3c; stroke: #b84a3c"/>
    </g>
   </g>
   <g id="patch_3">
    <path d="M 46.545703 239.084816 
L 46.545703 25.818316 
" style="fill: none; stroke: #75808a; stroke-width: 0.8; stroke-linejoin: miter; stroke-linecap: square"/>
   </g>
   <g id="patch_4">
    <path d="M 46.545703 239.084816 
L 278.648152 239.084816 
" style="fill: none; stroke: #75808a; stroke-width: 0.8; stroke-linejoin: miter; stroke-linecap: square"/>
   </g>
   <g id="text_8">
    <text style="fill: #173b63; font: 700 11px 'Microsoft YaHei', 'SimHei', 'DejaVu Sans'; text-anchor: start" x="27.977507" y="14.553125" transform="rotate(-0 27.977507 14.553125)">(a)</text>
   </g>
   <g id="text_9">
    <text style="fill: #75808a; font: 8.2px 'Microsoft YaHei', 'SimHei', 'DejaVu Sans'; text-anchor: start" x="53.508777" y="228.421491" transform="rotate(-0 53.508777 228.421491)">最大差 0.204 ms</text>
   </g>
   <g id="text_10">
    <text style="fill: #25313b; font: 700 11.5px 'Microsoft YaHei', 'SimHei', 'DejaVu Sans'; text-anchor: middle" x="162.596928" y="19.818316" transform="rotate(-0 162.596928 19.818316)">分辨率与预算复核</text>
   </g>
   <g id="legend_1">
    <g id="line2d_38">
     <path d="M 207.508496 119.795457 
L 215.308496 119.795457 
L 223.108496 119.795457 
" style="fill: none; stroke: #173b63; stroke-width: 1.6; stroke-linecap: square"/>
     <g>
      <use xlink:href="#m037c074f0f" x="215.308496" y="119.795457" style="fill: #173b63; stroke: #173b63"/>
     </g>
    </g>
    <g id="text_11">
     <text style="fill: #25313b; font: 7.8px 'Microsoft YaHei', 'SimHei', 'DejaVu Sans'; text-anchor: start" x="229.348496" y="122.525457" transform="rotate(-0 229.348496 122.525457)">Q1 / M1</text>
    </g>
    <g id="line2d_39">
     <path d="M 207.508496 131.869613 
L 215.308496 131.869613 
L 223.108496 131.869613 
" style="fill: none; stroke: #b89243; stroke-width: 1.6; stroke-linecap: square"/>
     <g>
      <use xlink:href="#m6ef0bd1023" x="215.308496" y="131.869613" style="fill: #b89243; stroke: #b89243"/>
     </g>
    </g>
    <g id="text_12">
     <text style="fill: #25313b; font: 7.8px 'Microsoft YaHei', 'SimHei', 'DejaVu Sans'; text-anchor: start" x="229.348496" y="134.599613" transform="rotate(-0 229.348496 134.599613)">Q2 / M1</text>
    </g>
    <g id="line2d_40">
     <path d="M 207.508496 143.943769 
L 215.308496 143.943769 
L 223.108496 143.943769 
" style="fill: none; stroke: #b84a3c; stroke-width: 1.6; stroke-linecap: square"/>
     <g>
      <use xlink:href="#m18c59dccde" x="215.308496" y="143.943769" style="fill: #b84a3c; stroke: #b84a3c"/>
     </g>
    </g>
    <g id="text_13">
     <text style="fill: #25313b; font: 7.8px 'Microsoft YaHei', 'SimHei', 'DejaVu Sans'; text-anchor: start" x="229.348496" y="146.673769" transform="rotate(-0 229.348496 146.673769)">Q5 / 总时长</text>
    </g>
   </g>
  </g>
  <g id="axes_2">
   <g id="patch_5">
    <path d="M 335.361902 239.084816 
L 507.289643 239.084816 
L 507.289643 25.818316 
L 335.361902 25.818316 
z
" style="fill: #fbfaf7"/>
   </g>
   <g id="matplotlib.axis_3">
    <g id="xtick_4">
     <g id="line2d_41">
      <g>
       <use xlink:href="#m0e2d228b89" x="343.1768" y="239.084816" style="fill: #25313b; stroke: #25313b; stroke-width: 0.7"/>
      </g>
     </g>
     <g id="text_14">
      <text style="fill: #25313b; font: 9.5px 'Microsoft YaHei', 'SimHei', 'DejaVu Sans'; text-anchor: middle" x="343.1768" y="253.178879" transform="rotate(-0 343.1768 253.178879)">种子 1</text>
     </g>
    </g>
    <g id="xtick_5">
     <g id="line2d_42">
      <g>
       <use xlink:href="#m0e2d228b89" x="421.325773" y="239.084816" style="fill: #25313b; stroke: #25313b; stroke-width: 0.7"/>
      </g>
     </g>
     <g id="text_15">
      <text style="fill: #25313b; font: 9.5px 'Microsoft YaHei', 'SimHei', 'DejaVu Sans'; text-anchor: middle" x="421.325773" y="253.178879" transform="rotate(-0 421.325773 253.178879)">种子 2</text>
     </g>
    </g>
    <g id="xtick_6">
     <g id="line2d_43">
      <g>
       <use xlink:href="#m0e2d228b89" x="499.474745" y="239.084816" style="fill: #25313b; stroke: #25313b; stroke-width: 0.7"/>
      </g>
     </g>
     <g id="text_16">
      <text style="fill: #25313b; font: 9.5px 'Microsoft YaHei', 'SimHei', 'DejaVu Sans'; text-anchor: middle" x="499.474745" y="253.178879" transform="rotate(-0 499.474745 253.178879)">种子 3</text>
     </g>
    </g>
   </g>
   <g id="matplotlib.axis_4">
    <g id="ytick_29">
     <g id="line2d_44">
      <path d="M 335.361902 239.084816 
L 507.289643 239.084816 
" clip-path="url(#pc1973ac7ba)" style="fill: none; stroke: #d9e0e5; stroke-opacity: 0.8; stroke-width: 0.7; stroke-linecap: square"/>
     </g>
     <g id="line2d_45">
      <g>
       <use xlink:href="#ma95ca53cc0" x="335.361902" y="239.084816" style="fill: #25313b; stroke: #25313b; stroke-width: 0.7"/>
      </g>
     </g>
     <g id="text_17">
      <text style="fill: #25313b; font: 9.5px 'Microsoft YaHei', 'SimHei', 'DejaVu Sans'; text-anchor: end" x="328.861902" y="242.881847" transform="rotate(-0 328.861902 242.881847)">-0.8</text>
     </g>
    </g>
    <g id="ytick_30">
     <g id="line2d_46">
      <path d="M 335.361902 212.426504 
L 507.289643 212.426504 
" clip-path="url(#pc1973ac7ba)" style="fill: none; stroke: #d9e0e5; stroke-opacity: 0.8; stroke-width: 0.7; stroke-linecap: square"/>
     </g>
     <g id="line2d_47">
      <g>
       <use xlink:href="#ma95ca53cc0" x="335.361902" y="212.426504" style="fill: #25313b; stroke: #25313b; stroke-width: 0.7"/>
      </g>
     </g>
     <g id="text_18">
      <text style="fill: #25313b; font: 9.5px 'Microsoft YaHei', 'SimHei', 'DejaVu Sans'; text-anchor: end" x="328.861902" y="216.223535" transform="rotate(-0 328.861902 216.223535)">-0.6</text>
     </g>
    </g>
    <g id="ytick_31">
     <g id="line2d_48">
      <path d="M 335.361902 185.768191 
L 507.289643 185.768191 
" clip-path="url(#pc1973ac7ba)" style="fill: none; stroke: #d9e0e5; stroke-opacity: 0.8; stroke-width: 0.7; stroke-linecap: square"/>
     </g>
     <g id="line2d_49">
      <g>
       <use xlink:href="#ma95ca53cc0" x="335.361902" y="185.768191" style="fill: #25313b; stroke: #25313b; stroke-width: 0.7"/>
      </g>
     </g>
     <g id="text_19">
      <text style="fill: #25313b; font: 9.5px 'Microsoft YaHei', 'SimHei', 'DejaVu Sans'; text-anchor: end" x="328.861902" y="189.565223" transform="rotate(-0 328.861902 189.565223)">-0.4</text>
     </g>
    </g>
    <g id="ytick_32">
     <g id="line2d_50">
      <path d="M 335.361902 159.109879 
L 507.289643 159.109879 
" clip-path="url(#pc1973ac7ba)" style="fill: none; stroke: #d9e0e5; stroke-opacity: 0.8; stroke-width: 0.7; stroke-linecap: square"/>
     </g>
     <g id="line2d_51">
      <g>
       <use xlink:href="#ma95ca53cc0" x="335.361902" y="159.109879" style="fill: #25313b; stroke: #25313b; stroke-width: 0.7"/>
      </g>
     </g>
     <g id="text_20">
      <text style="fill: #25313b; font: 9.5px 'Microsoft YaHei', 'SimHei', 'DejaVu Sans'; text-anchor: end" x="328.861902" y="162.90691" transform="rotate(-0 328.861902 162.90691)">-0.2</text>
     </g>
    </g>
    <g id="ytick_33">
     <g id="line2d_52">
      <path d="M 335.361902 132.451566 
L 507.289643 132.451566 
" clip-path="url(#pc1973ac7ba)" style="fill: none; stroke: #d9e0e5; stroke-opacity: 0.8; stroke-width: 0.7; stroke-linecap: square"/>
     </g>
     <g id="line2d_53">
      <g>
       <use xlink:href="#ma95ca53cc0" x="335.361902" y="132.451566" style="fill: #25313b; stroke: #25313b; stroke-width: 0.7"/>
      </g>
     </g>
     <g id="text_21">
      <text style="fill: #25313b; font: 9.5px 'Microsoft YaHei', 'SimHei', 'DejaVu Sans'; text-anchor: end" x="328.861902" y="136.248597" transform="rotate(-0 328.861902 136.248597)">0.0</text>
     </g>
    </g>
    <g id="ytick_34">
     <g id="line2d_54">
      <path d="M 335.361902 105.793254 
L 507.289643 105.793254 
" clip-path="url(#pc1973ac7ba)" style="fill: none; stroke: #d9e0e5; stroke-opacity: 0.8; stroke-width: 0.7; stroke-linecap: square"/>
     </g>
     <g id="line2d_55">
      <g>
       <use xlink:href="#ma95ca53cc0" x="335.361902" y="105.793254" style="fill: #25313b; stroke: #25313b; stroke-width: 0.7"/>
      </g>
     </g>
     <g id="text_22">
      <text style="fill: #25313b; font: 9.5px 'Microsoft YaHei', 'SimHei', 'DejaVu Sans'; text-anchor: end" x="328.861902" y="109.590285" transform="rotate(-0 328.861902 109.590285)">0.2</text>
     </g>
    </g>
    <g id="ytick_35">
     <g id="line2d_56">
      <path d="M 335.361902 79.134941 
L 507.289643 79.134941 
" clip-path="url(#pc1973ac7ba)" style="fill: none; stroke: #d9e0e5; stroke-opacity: 0.8; stroke-width: 0.7; stroke-linecap: square"/>
     </g>
     <g id="line2d_57">
      <g>
       <use xlink:href="#ma95ca53cc0" x="335.361902" y="79.134941" style="fill: #25313b; stroke: #25313b; stroke-width: 0.7"/>
      </g>
     </g>
     <g id="text_23">
      <text style="fill: #25313b; font: 9.5px 'Microsoft YaHei', 'SimHei', 'DejaVu Sans'; text-anchor: end" x="328.861902" y="82.931972" transform="rotate(-0 328.861902 82.931972)">0.4</text>
     </g>
    </g>
    <g id="ytick_36">
     <g id="line2d_58">
      <path d="M 335.361902 52.476629 
L 507.289643 52.476629 
" clip-path="url(#pc1973ac7ba)" style="fill: none; stroke: #d9e0e5; stroke-opacity: 0.8; stroke-width: 0.7; stroke-linecap: square"/>
     </g>
     <g id="line2d_59">
      <g>
       <use xlink:href="#ma95ca53cc0" x="335.361902" y="52.476629" style="fill: #25313b; stroke: #25313b; stroke-width: 0.7"/>
      </g>
     </g>
     <g id="text_24">
      <text style="fill: #25313b; font: 9.5px 'Microsoft YaHei', 'SimHei', 'DejaVu Sans'; text-anchor: end" x="328.861902" y="56.27366" transform="rotate(-0 328.861902 56.27366)">0.6</text>
     </g>
    </g>
    <g id="ytick_37">
     <g id="line2d_60">
      <path d="M 335.361902 25.818316 
L 507.289643 25.818316 
" clip-path="url(#pc1973ac7ba)" style="fill: none; stroke: #d9e0e5; stroke-opacity: 0.8; stroke-width: 0.7; stroke-linecap: square"/>
     </g>
     <g id="line2d_61">
      <g>
       <use xlink:href="#ma95ca53cc0" x="335.361902" y="25.818316" style="fill: #25313b; stroke: #25313b; stroke-width: 0.7"/>
      </g>
     </g>
     <g id="text_25">
      <text style="fill: #25313b; font: 9.5px 'Microsoft YaHei', 'SimHei', 'DejaVu Sans'; text-anchor: end" x="328.861902" y="29.615347" transform="rotate(-0 328.861902 29.615347)">0.8</text>
     </g>
    </g>
    <g id="text_26">
     <text style="fill: #25313b; font: 9.5px 'Microsoft YaHei', 'SimHei', 'DejaVu Sans'; text-anchor: middle" x="304.960887" y="132.451566" transform="rotate(-90 304.960887 132.451566)">相对均值偏差 / μs</text>
    </g>
   </g>
   <g id="line2d_62">
    <path d="M 343.1768 132.451566 
L 421.325773 132.451566 
L 499.474745 132.451566 
" clip-path="url(#pc1973ac7ba)" style="fill: none; stroke: #173b63; stroke-width: 1.5; stroke-linecap: square"/>
    <defs>
     <path id="m193d8443e8" d="M 0 2.75 
C 0.729309 2.75 1.428845 2.460243 1.944544 1.944544 
C 2.460243 1.428845 2.75 0.729309 2.75 0 
C 2.75 -0.729309 2.460243 -1.428845 1.944544 -1.944544 
C 1.428845 -2.460243 0.729309 -2.75 0 -2.75 
C -0.729309 -2.75 -1.428845 -2.460243 -1.944544 -1.944544 
C -2.460243 -1.428845 -2.75 -0.729309 -2.75 0 
C -2.75 0.729309 -2.460243 1.428845 -1.944544 1.944544 
C -1.428845 2.460243 -0.729309 2.75 0 2.75 
z
" style="stroke: #173b63"/>
    </defs>
    <g clip-path="url(#pc1973ac7ba)">
     <use xlink:href="#m193d8443e8" x="343.1768" y="132.451566" style="fill: #173b63; stroke: #173b63"/>
     <use xlink:href="#m193d8443e8" x="421.325773" y="132.451566" style="fill: #173b63; stroke: #173b63"/>
     <use xlink:href="#m193d8443e8" x="499.474745" y="132.451566" style="fill: #173b63; stroke: #173b63"/>
    </g>
   </g>
   <g id="line2d_63">
    <path d="M 343.1768 132.451566 
L 421.325773 132.451566 
L 499.474745 132.451566 
" clip-path="url(#pc1973ac7ba)" style="fill: none; stroke: #b89243; stroke-width: 1.5; stroke-linecap: square"/>
    <defs>
     <path id="m8b39cb2ee4" d="M 0 2.75 
C 0.729309 2.75 1.428845 2.460243 1.944544 1.944544 
C 2.460243 1.428845 2.75 0.729309 2.75 0 
C 2.75 -0.729309 2.460243 -1.428845 1.944544 -1.944544 
C 1.428845 -2.460243 0.729309 -2.75 0 -2.75 
C -0.729309 -2.75 -1.428845 -2.460243 -1.944544 -1.944544 
C -2.460243 -1.428845 -2.75 -0.729309 -2.75 0 
C -2.75 0.729309 -2.460243 1.428845 -1.944544 1.944544 
C -1.428845 2.460243 -0.729309 2.75 0 2.75 
z
" style="stroke: #b89243"/>
    </defs>
    <g clip-path="url(#pc1973ac7ba)">
     <use xlink:href="#m8b39cb2ee4" x="343.1768" y="132.451566" style="fill: #b89243; stroke: #b89243"/>
     <use xlink:href="#m8b39cb2ee4" x="421.325773" y="132.451566" style="fill: #b89243; stroke: #b89243"/>
     <use xlink:href="#m8b39cb2ee4" x="499.474745" y="132.451566" style="fill: #b89243; stroke: #b89243"/>
    </g>
   </g>
   <g id="line2d_64">
    <path d="M 343.1768 132.451566 
L 421.325773 132.451566 
L 499.474745 132.451566 
" clip-path="url(#pc1973ac7ba)" style="fill: none; stroke: #b84a3c; stroke-width: 1.5; stroke-linecap: square"/>
    <defs>
     <path id="m7fe782ead8" d="M 0 2.75 
C 0.729309 2.75 1.428845 2.460243 1.944544 1.944544 
C 2.460243 1.428845 2.75 0.729309 2.75 0 
C 2.75 -0.729309 2.460243 -1.428845 1.944544 -1.944544 
C 1.428845 -2.460243 0.729309 -2.75 0 -2.75 
C -0.729309 -2.75 -1.428845 -2.460243 -1.944544 -1.944544 
C -2.460243 -1.428845 -2.75 -0.729309 -2.75 0 
C -2.75 0.729309 -2.460243 1.428845 -1.944544 1.944544 
C -1.428845 2.460243 -0.729309 2.75 0 2.75 
z
" style="stroke: #b84a3c"/>
    </defs>
    <g clip-path="url(#pc1973ac7ba)">
     <use xlink:href="#m7fe782ead8" x="343.1768" y="132.451566" style="fill: #b84a3c; stroke: #b84a3c"/>
     <use xlink:href="#m7fe782ead8" x="421.325773" y="132.451566" style="fill: #b84a3c; stroke: #b84a3c"/>
     <use xlink:href="#m7fe782ead8" x="499.474745" y="132.451566" style="fill: #b84a3c; stroke: #b84a3c"/>
    </g>
   </g>
   <g id="line2d_65">
    <path d="M 335.361902 132.451566 
L 507.289643 132.451566 
" clip-path="url(#pc1973ac7ba)" style="fill: none; stroke: #25313b; stroke-width: 0.8; stroke-linecap: square"/>
   </g>
   <g id="patch_6">
    <path d="M 335.361902 239.084816 
L 335.361902 25.818316 
" style="fill: none; stroke: #75808a; stroke-width: 0.8; stroke-linejoin: miter; stroke-linecap: square"/>
   </g>
   <g id="patch_7">
    <path d="M 335.361902 239.084816 
L 507.289643 239.084816 
" style="fill: none; stroke: #75808a; stroke-width: 0.8; stroke-linejoin: miter; stroke-linecap: square"/>
   </g>
   <g id="text_27">
    <g id="patch_8">
     <path d="M 381.158312 226.576824 
L 461.493234 226.576824 
Q 463.983234 226.576824 463.983234 224.086824 
L 463.983234 215.388684 
Q 463.983234 212.898684 461.493234 212.898684 
L 381.158312 212.898684 
Q 378.668312 212.898684 378.668312 215.388684 
L 378.668312 224.086824 
Q 378.668312 226.576824 381.158312 226.576824 
z
" style="fill: #dde8f0"/>
    </g>
    <text style="fill: #173b63; font: 8.3px 'Microsoft YaHei', 'SimHei', 'DejaVu Sans'; text-anchor: middle" x="421.325773" y="222.023496" transform="rotate(-0 421.325773 222.023496)">逐指标最大跨度 = 0 s</text>
   </g>
   <g id="text_28">
    <text style="fill: #173b63; font: 700 11px 'Microsoft YaHei', 'SimHei', 'DejaVu Sans'; text-anchor: start" x="321.607683" y="14.553125" transform="rotate(-0 321.607683 14.553125)">(b)</text>
   </g>
   <g id="text_29">
    <text style="fill: #25313b; font: 700 11.5px 'Microsoft YaHei', 'SimHei', 'DejaVu Sans'; text-anchor: middle" x="421.325773" y="19.818316" transform="rotate(-0 421.325773 19.818316)">随机种子稳定性</text>
   </g>
   <g id="legend_2">
    <g id="line2d_66">
     <path d="M 440.766612 36.343441 
L 448.566612 36.343441 
L 456.366612 36.343441 
" style="fill: none; stroke: #173b63; stroke-width: 1.5; stroke-linecap: square"/>
     <g>
      <use xlink:href="#m193d8443e8" x="448.566612" y="36.343441" style="fill: #173b63; stroke: #173b63"/>
     </g>
    </g>
    <g id="text_30">
     <text style="fill: #25313b; font: 7.8px 'Microsoft YaHei', 'SimHei', 'DejaVu Sans'; text-anchor: start" x="462.606612" y="39.073441" transform="rotate(-0 462.606612 39.073441)">Q1/M1</text>
    </g>
    <g id="line2d_67">
     <path d="M 440.766612 48.417597 
L 448.566612 48.417597 
L 456.366612 48.417597 
" style="fill: none; stroke: #b89243; stroke-width: 1.5; stroke-linecap: square"/>
     <g>
      <use xlink:href="#m8b39cb2ee4" x="448.566612" y="48.417597" style="fill: #b89243; stroke: #b89243"/>
     </g>
    </g>
    <g id="text_31">
     <text style="fill: #25313b; font: 7.8px 'Microsoft YaHei', 'SimHei', 'DejaVu Sans'; text-anchor: start" x="462.606612" y="51.147597" transform="rotate(-0 462.606612 51.147597)">Q2/M1</text>
    </g>
    <g id="line2d_68">
     <path d="M 440.766612 60.491754 
L 448.566612 60.491754 
L 456.366612 60.491754 
" style="fill: none; stroke: #b84a3c; stroke-width: 1.5; stroke-linecap: square"/>
     <g>
      <use xlink:href="#m7fe782ead8" x="448.566612" y="60.491754" style="fill: #b84a3c; stroke: #b84a3c"/>
     </g>
    </g>
    <g id="text_32">
     <text style="fill: #25313b; font: 7.8px 'Microsoft YaHei', 'SimHei', 'DejaVu Sans'; text-anchor: start" x="462.606612" y="63.221754" transform="rotate(-0 462.606612 63.221754)">Q5/总时长</text>
    </g>
   </g>
  </g>
 </g>
 <defs>
  <clipPath id="pa9c1b8439e">
   <rect x="46.545703" y="25.818316" width="232.102449" height="213.2665"/>
  </clipPath>
  <clipPath id="pc1973ac7ba">
   <rect x="335.361902" y="25.818316" width="171.92774" height="213.2665"/>
  </clipPath>
 </defs>
</svg>
