<svg xmlns="http://www.w3.org/2000/svg" viewBox="0 0 600 300"> <rect x="20" y="10" width="560" height="280" fill="none" stroke="gray"/> <text x="300" y="30" text-anchor="middle" font-size="16" font-weight="bold">图F001 网络结构示意图</text> <rect x="80" y="60" width="100" height="40" fill="#2E75B6" rx="5"/> <text x="130" y="85" fill="white" font-size="14" text-anchor="middle">输入层</text> <rect x="80" y="130" width="100" height="40" fill="#2E75B6" rx="5"/> <text x="130" y="155" fill="white" font-size="14" text-anchor="middle">卷积块1</text> <rect x="80" y="200" width="100" height="40" fill="#2E75B6" rx="5"/> <text x="130" y="225" fill="white" font-size="14" text-anchor="middle">卷积块2</text> <rect x="400" y="130" width="100" height="40" fill="#E7761D" rx="5"/> <text x="450" y="155" fill="white" font-size="14" text-anchor="middle">上采样1</text> <rect x="400" y="200" width="100" height="40" fill="#E7761D" rx="5"/> <text x="450" y="225" fill="white" font-size="14" text-anchor="middle">上采样2</text> <rect x="400" y="260" width="100" height="40" fill="#E7761D" rx="5"/> <text x="450" y="285" fill="white" font-size="14" text-anchor="middle">输出层</text> <line x1="180" y1="90" x2="250" y2="150" stroke="black" stroke-width="2" marker-end="url(#arrow)"/> <line x1="180" y1="160" x2="250" y2="220" stroke="black" stroke-width="2" marker-end="url(#arrow)"/> <line x1="250" y1="150" x2="380" y2="150" stroke="gray" stroke-width="1" stroke-dasharray="4,4"/> <line x1="250" y1="220" x2="380" y2="220" stroke="gray" stroke-width="1" stroke-dasharray="4,4"/> <defs><marker id="arrow" viewBox="0 0 10 10" refX="9" refY="5" markerWidth="6" markerHeight="6" orient="auto"><path d="M 0 0 L 10 5 L 0 10 z" fill="black"/></marker></defs></svg>