<svg xmlns="http://www.w3.org/2000/svg" width="700" height="500">
  <rect width="700" height="500" fill="#ffffff" />
  <text x="350" y="40" font-family="SimHei, sans-serif" font-size="22" text-anchor="middle" font-weight="bold">综合得分矩阵</text>
  <text x="200" y="80" font-family="SimHei" font-size="16" text-anchor="middle">省份A</text>
  <text x="350" y="80" font-family="SimHei" font-size="16" text-anchor="middle">省份B</text>
  <text x="500" y="80" font-family="SimHei" font-size="16" text-anchor="middle">省份C</text>
  <text x="80" y="130" font-family="SimHei" font-size="14" text-anchor="end">指标A</text>
  <text x="80" y="210" font-family="SimHei" font-size="14" text-anchor="end">指标B</text>
  <text x="80" y="290" font-family="SimHei" font-size="14" text-anchor="end">指标C</text>
  <text x="80" y="370" font-family="SimHei" font-size="14" text-anchor="end">综合</text>
  <rect x="140" y="105" width="100" height="40" fill="#1a9641" />
  <text x="190" y="130" font-family="Arial" font-size="14" text-anchor="middle" fill="white">0.85</text>
  <rect x="290" y="105" width="100" height="40" fill="#a6d96a" />
  <text x="340" y="130" font-family="Arial" font-size="14" text-anchor="middle" fill="#000">0.72</text>
  <rect x="440" y="105" width="100" height="40" fill="#d7191c" />
  <text x="490" y="130" font-family="Arial" font-size="14" text-anchor="middle" fill="white">0.48</text>
  <rect x="140" y="185" width="100" height="40" fill="#a6d96a" />
  <text x="190" y="210" font-family="Arial" font-size="14" text-anchor="middle" fill="#000">0.70</text>
  <rect x="290" y="185" width="100" height="40" fill="#1a9641" />
  <text x="340" y="210" font-family="Arial" font-size="14" text-anchor="middle" fill="white">0.88</text>
  <rect x="440" y="185" width="100" height="40" fill="#fdae61" />
  <text x="490" y="210" font-family="Arial" font-size="14" text-anchor="middle" fill="#000">0.60</text>
  <rect x="140" y="265" width="100" height="40" fill="#d7191c" />
  <text x="190" y="290" font-family="Arial" font-size="14" text-anchor="middle" fill="white">0.42</text>
  <rect x="290" y="265" width="100" height="40" fill="#fdae61" />
  <text x="340" y="290" font-family="Arial" font-size="14" text-anchor="middle" fill="#000">0.55</text>
  <rect x="440" y="265" width="100" height="40" fill="#1a9641" />
  <text x="490" y="290" font-family="Arial" font-size="14" text-anchor="middle" fill="white">0.91</text>
  <rect x="140" y="345" width="100" height="40" fill="#2c7bb6" />
  <text x="190" y="370" font-family="Arial" font-size="14" text-anchor="middle" fill="white">0.76</text>
  <rect x="290" y="345" width="100" height="40" fill="#2c7bb6" />
  <text x="340" y="370" font-family="Arial" font-size="14" text-anchor="middle" fill="white">0.72</text>
  <rect x="440" y="345" width="100" height="40" fill="#a6d96a" />
  <text x="490" y="370" font-family="Arial" font-size="14" text-anchor="middle" fill="#000">0.68</text>
</svg>